<?xml version="1.0" encoding="UTF-8"?>
<svg id="Capa_2" data-name="Capa 2" xmlns="http://www.w3.org/2000/svg" viewBox="0 0 210.09 99.6">
  <defs>
    <style>
      .cls-1 {
        stroke: #221f20;
        stroke-linecap: round;
        stroke-linejoin: round;
        stroke-width: .1px;
      }
    </style>
  </defs>
  <g id="Layer_1" data-name="Layer 1">
    <g>
      <path class="cls-1" d="m164.13,61.66c.47-.45.95-.89,1.51-1.42-1.04-.65-1.57-.36-2.01.27.29-.66.57-1.33.9-2.09.11.54.17.86.23,1.18.37-.11.76-.17,1.09-.36.23-.13.36-.43.54-.66-.05.32-.1.65-.15.98,1.24.09,1.58-.33,1.59-2.4-.49.49-.99.98-1.48,1.47.12-.58.24-1.16.39-1.86,1.48-.41.74-2.49,1.95-3.32v1.04c.18.05.36.09.54.14,1.9-4.42,3.09-9.04,3.61-13.87.54-4.92,1.07-9.83-.18-14.73,1.58,4.3,1.28,8.7.67,13.07-.6,4.33-1.5,8.62-2.28,12.98.88.45,1.35-.13,1.59-1.05.62-2.37,1.51-4.71,1.75-7.12.35-3.51.4-7.07.24-10.59-.32-7.22-1.99-14.1-6.24-20.12-.46-.65-1.19-1.12-1.76-1.64.66-.46-.09-.9-.5-1.39.76.16,1.04,1.46,2.55.76-1.15-.96-2.12-1.77-3.09-2.58-.33-.24-.66-.48-.99-.72.46-.39.66-.81.01-1.19-.78-.46-1.58-.88-2.37-1.31l.04.03c.32-.62.62-.96,1.3-.28.27.27.87.23,1.32.32.1.02.21.02.32.03-.24.2-.45.37-.84.69,2.19,1,2.6,3.81,4.88,4.34-.06.06-.27.26-.48.46.54.11,1.09.23,1.53.32-.23.1-.6.27-.97.43.95,2.29,1.44,2.5,3.62,1.42-1.22-1.76-2.26-3.66-3.69-5.19-1.43-1.55-3.13-2.95-4.94-4.02-1.76-1.04-3.81-1.57-5.73-2.32.25-.11.48-.15.68-.09,4.22,1.3,8.25,2.97,10.93,6.74,1.3,1.83,2.47,3.75,3.66,5.65,2.69,4.25,4.33,8.93,5.58,13.75.44,1.69.34,3.51.42,5.28.04.85.35,1.11,1.19,1.04,4.52-.38,9.04-.8,13.56-1.06,3.19-.18,6.39-.31,9.58-.16,3.71.17,5.8,2.58,5.82,6.26.01,2.62-1.5,4.18-4.13,4.27-.65.02-1.29.06-1.94.12-5.2.43-10.41.88-15.61,1.29-2.37.18-4.75.24-7.12.44-.47.04-1.22.36-1.32.7-.68,2.29-1.99,4.31-2.27,6.82-.55,4.9-2.54,9.39-5.07,13.61-2.83,4.71-6.61,8.62-10.63,12.29-.79.72-1.92,1.08-2.89,1.6.56-.36,1.16-.68,1.66-1.11.31-.26.48-.7.71-1.05.62-.39,1.31-.72,1.86-1.2.65-.57,1.19-1.28,1.94-2.12-.56,0-.95-.12-1.1.02-1.01.95-1.98,1.95-2.94,2.95-.02.02.17.25.27.38-1.78-.24-2.44,1.36-3.74,1.92.05.12.11.23.16.35.4-.06.81-.11,1.21-.17-1.82.47-3.61,1.19-5.45,1.35-2.65.22-5.33.02-8,.01-1.58,0-3.19.19-4.74-.04-1.68-.25-3.22.88-4.89.3-.09-.03-.23.13-.34.14-1.16.05-2.37.28-3.49.07-1.87-.35-3.88-.33-5.48-1.63-.06-.05-.17-.03-.24-.08-2-1.33-4.1-2.53-5.95-4.04-1.14-.93-1.97-2.18-3.7-1.74.57-.03,1.14-.06,1.88-.1-5.47-7.92-6.99-16.93-8.59-26.04-.6.16-1.26.36-1.92.5-1.22.26-2.44.66-3.67.69-3.69.07-7.32.42-10.86,1.55-.82.26-1.68.44-2.53.52-2.49.25-5.01.29-7.48.67-5.46.85-10.89,1.84-16.33,2.8-1.84.33-3.66.78-5.23-.72-.02-.02-.15.05-.18.07v5.89c2.33-.02,3.35.92,3.35,3.14,0,1.85-.09,3.7-.23,5.55-.18,2.33.56,3.05,2.88,2.6.42-.08.81-.3,1.24-.37,1.09-.18,2.21-.52,3.29-.42,1.36.13,2.68.61,4.01.97.89.24,1.77.45,2.72-.32-.48-.27-.78-.44-1.33-.76.79-.09,1.27-.18,1.76-.2,1.09-.04,2.28-.34,3.25-.02,2.26.75,4.41,1.81,6.86.85.03-.01.1.07.19.14-1.05.34-2.06.67-3.08,1,.03.15.06.3.09.45,1.27-.06,2.54-.14,3.81-.17,2.79-.08,5.6-.32,8.38-.18,3.48.17,6.86,1.78,10.44.66-2.12.88-4.31.87-6.47.37-3.87-.89-7.74-1.18-11.69-.54-1.63.27-3.35.17-5.02.09-1.41-.07-2.81-.42-4.22-.54-2.82-.23-5.69.07-8.39-1.1-.31-.13-.69-.2-1.01-.16-.21.03-.38.31-.57.48-.66-.14-1.34-.49-1.97-.4-1.66.23-3.29.65-5.07,1.03.05,1.06.07,2.47.19,3.86.09.99.93,1.1,2.2.35.59-.5,1.18-1,1.77-1.5.62-1.42,1.82-1.3,3.39-1.16-.4.59-.69,1.01-1.07,1.58,1.64-.17,3-.69,4.26-1.54.31.5.61.66,1.24.33.36-.19,1.3-.04,1.39.2.38.92.97.61,1.58.5.24-.04.5-.05.74-.01,1,.15,1.99.34,3,.46.38.04.77-.1,1.16-.11.34,0,.68.05,1.03.08-2.19.28-4.37.29-6.55.28-.56,0-1.12-.06-1.68-.09-4.29-.21-8.33.99-12.29,2.32,0,1.9.05,3.88-.02,5.86-.05,1.2.48,1.51,1.58,1.66,1.5.2,2.96.66,4.44,1.01-.04.13-.07.26-.11.39-.92-.32-1.84-.64-2.77-.96-.38.82-.75,1.55-1.02,2.3-.09.25-.02.8.13.86,1.15.47,2.31,1.04,3.52,1.2.56.08,1.35-.56,1.84-1.05.81-.81,1.32-.64,1.81.26-.51-.04-1.02-.09-1.53-.14-.07.13-.14.25-.21.38.4.42.79.83,1.19,1.25-.06.33-.11.66-.17,1,1.52.97,2.55-.71,4.03-.66-.69.4-1.28.73-2.06,1.18,2.32.58,4.21.2,5.91-1.07.12-.09.05-.42.07-.64,2.27,1.05,5.19.44,7.17-1.73-4.87-.76-9.41-2.41-14.28-1.32,2.07-.73,4.11-1.13,6.28-.51,1.22.36,2.53.42,3.8.65,1.01.18,2.02.4,3.02.62,1.85.41,3.69.9,5.43-.36l-.03-.03c-.22,1.33-1.33,1.13-2.14,1.06-1.29-.1-1.94.6-2.65,1.53.24.15.41.33.58.34,1.33.05,2.67.07,4,.08,1.55.02,3.11-.05,4.65.04,1.91.11,3.81.52,5.71.5,2.07-.02,4.13-.39,5.9-.58-2.5,1.15-5.55,1.08-8.49,1.05-4.64-.05-9.27-.65-13.91-.78-1.85-.05-3.72.5-5.57.86-1.11.22-2.19.8-3.29.84-2.51.09-4.8-.69-6.99-2-1.34-.8-2.91-1.42-4.44-1.62-1.95-.26-3.96-.07-5.95.04-.97.05-2.02.17-2.89.56-3.23,1.45-6.49,1.85-9.96,1-1.61-.39-3.32-.46-4.99-.53-2.32-.1-4.68.16-6.96-.16-1.45-.2-2.56.14-3.8.63-.87.35-1.86.53-2.81.56-1.11.03-2.23-.29-3.34-.27-2.46.06-4.88-.56-7.37-.21-1.99.27-4.04.08-6.07.08-.78,0-1.64.16-2.31-.12-.9-.38-2.03-.95-2.35-1.73-.29-.72.06-2.21.66-2.67,1.3-.99,1.26-2.39,1.59-3.64.24-.93.59-1.34,1.49-1.4.45-.03.9-.11,1.35-.17-.15.17-.31.21-.48.23-1.21.14-1.99.57-2.19,2-.16,1.14-.08,2.55-1.52,3.2-.19.09-.27.86-.12,1.16.13.25.7.41,1.06.4,1.12-.06,2.23-.28,3.35-.32,1.74-.06,3.48-.02,5.22-.02-.67-1.38-.51-1.71,1.06-2.14.51-.14,1.04-.25,1.56-.37-2.49-.34-4.89-.31-7.2.77-.96.45-2.05.61-3.08.9.94-.49,1.9-.89,2.89-1.12,1.87-.43,3.76-.84,5.66-1.12,2.72-.4,5.46-.68,8.19-1.03.38-.05.72-.28,1.09-.39,1.85-.59,3.7-.38,5.54,0-2.39.04-4.82-.29-7.01,1.11.18.23.35.47.77,1.02-.84-.17-1.61-.13-1.74-.4-.55-1.16-1.35-.5-2.06-.41-.35.04-.67.27-1.02.39-1.5.55-3.01,1.09-4.34,1.58.16.9.29,1.59.45,2.44.85.12,1.98.61,2.86.33,1.26-.4,2.41-1.28,3.47-2.13.84-.68,1.71-1,2.61-.51,1.67.92,3.47.84,5.26,1.07,1.6.21,2.98.29,3.89-1.34.13-.23.47-.34.8-.57-.35-.1-.6-.23-.85-.22-1.35.05-1.65-.7-1.62-1.88.05-2.11.02-4.21.01-6.32,0-.54-.06-1.09-.1-1.81-.85.39-1.53.75-2.25,1-.72.25-.91.71-.75,1.39-.03-.58-.07-1.16-.11-1.74,1.51.1,3.02-.85,2.92-1.89-.3-3.04-.65-6.07-1-9.32-.67.31-1.34.62-2.02.93-2.95,1.34-6.28-.38-6.84-3.56-.11-.59-.15-1.2-.25-1.8-.44-2.64-1.02-3.02-3.62-2.69-2.22.28-4.46.45-6.69.61-1.28.09-2.59-.05-3.86.08-2.66.28-5.31.65-7.96,1.02-.89.13-1.36-.19-1.66-1.02-1.25-3.52-1.69-7.14-1.29-10.83.06-.54.79-1.34,1.32-1.44,1.59-.32,3.24-.47,4.87-.48,5.91-.05,11.82-.02,17.74-.02.1-.42.11-.7.22-.91.86-1.62,1.52-3.42,2.68-4.79,1.3-1.53,3.38-1.56,5.31-1.56,1.49,0,2.98,0,4.56,0-.22-2.4,1.22-3.48,3.29-3.9,1.35-.27,2.73-.39,4.1-.49,6.14-.45,11.98,1.37,17.91,2.43.36.06.77.73.87,1.17.17.78.11,1.61.15,2.51.86.07,1.63.24,2.39.19,4.27-.29,8.56-.41,12.79-.99,10.49-1.43,20.97-2.9,31.58-2.81.9,0,1.2-.31,1.27-1.17.36-4.14,1.05-8.23,2.43-12.17,1.07-3.05,1.96-6.19,3.3-9.12,1.65-3.62,4.55-6.36,7.24-9.23,3.38-3.62,7.56-5.22,12.44-5,3.23.14,6.45.5,9.68.7,3.62.22,7.24.37,10.96.56-1.57.07-3.05.13-4.61.2.14.39.23.67.33.95-.79-.45-1.58-.91-2.37-1.36-.06.11-.13.22-.19.33.31.55.62,1.09.93,1.64-.62-.31-1.24-.63-1.86-.94-.1.18-.2.37-.31.55.53.32,1.05.66,1.61.92.07.03.34-.38.51-.58.46.2.9.49,1.38.56.17.02.41-.48.63-.75.65.73,1.3,1.46,2.1,2.36h-2.26c.54,1.01,1,1.86,1.49,2.77-1.36-.53-1.49-.45-1.35.83-.43-.38-.86-.76-1.23-1.08.02-.03.14-.25.27-.47-.63-.16-1.26-.32-1.89-.48-.04.11-.07.22-.11.33.74,1.31,1.45,2.64,2.25,3.91.17.28.71.32,1.08.48-.86.46-.28,1.03-.09,1.52.55,1.42,1.15,2.82,1.73,4.23-.64-.68-1.13-1.45-1.35-2.29-.22-.85-.61-1.16-1.44-.98.22-.33.67-.69.63-.97-.22-1.48-1.41-.95-2.33-1.04.5-.14.99-.28,1.55-.43-.55-.98-.95-1.96-1.6-2.73-.33-.39-1.09-.47-1.67-.57-.45-.08-.94.01-1.42.02.75-.13,1.5-.26,2.35-.4-.53-1.32-1.67-.39-2.29-.77.39-.05.88-.12,1.45-.19-.6-1.98-2.03-.87-3.35-1.1.83-.23,1.38-.38,2.3-.63-1.5-1.04-2.77-1.92-4.03-2.81-.35-.24-.64-.59-1.02-.75-.82-.37-1.68-.65-2.52-.97-.04.1-.08.2-.12.3.7.63,1.41,1.26,2.11,1.89-2.35-1.24-4.64-2.69-7.47-2.32-.94.12-1.85.46-2.77.68-.99.24-2.07.3-2.96.74-.9.45-1.6,1.29-2.42,1.91-.84.64-1.8,1.14-2.56,1.86-.62.59-.98,1.45-1.54,2.11-.29.34-.9.41-1.14.76-.58.86-1.03,1.8-1.48,2.62,0,.02-.08-.17-.16-.35-.12-.05-.24-.09-.36-.14-.41,1.02-.81,2.04-1.15,2.88-.31.16-.69.23-.82.44-1.37,2.13-2.21,5.24-1.82,5.52-.95,2.48-1.87,4.89-2.79,7.31.08.04.16.08.25.11.3-.19.59-.38,1-.65-.3.72-.54,1.3-.79,1.89-.15-.08-.33-.17-.59-.31-.19,1.08-.64,2.14-.48,3.1.33,1.96-.91,3.68-.65,5.63h3.46c.06-.53.1-.98.2-1.86.41,1.1.4,2.34,1.71,1.52-.06-.59-.11-1.18-.16-1.77l-.02.03c.36-.08.71-.15,1.2-.26-.27.39-.56.63-.55.85.02.37.23.73.36,1.1.29-.2.71-.34.85-.61.69-1.41,1.3-2.87,1.71-4.49.06.24.12.48.19.74,1.15-.76,2.22-1.47,3.31-2.2.72.96,1.01-.1,1.45-.57.08,1.08.77,1.25,3.29.88.27-.6.53-1.18.8-1.76.07.03.13.06.2.09-.13.49-.26.98-.39,1.47.48.1.98.13,1.42.32.85.37,1.67.82,2.82,1.4-.6-.04-.82-.06-.94-.07-.44,2.25,1.73,3.01,2.56,4.56.43-.33.83-.64,1.25-.97-.41.75-1.01,1.36-1,1.96.01.56.67,1.11,1.09,1.72-.4-.17-.94-.44-.96-.4-.3.5-.52,1.04-.75,1.54.55.29.96.51,1.38.73-1.15-.43-1.51-.18-1.95.98-.8,2.1-.8,4.27-.89,6.45-.03.78-.38,1.55-.54,2.34-.07.35-.01.72-.01,1.03-.4.18-.92.42-1.49.69-.02-.15-.06-.52-.1-.89-.13-.07-.26-.13-.38-.2-.74,1.17-1.48,2.33-2.21,3.5-.41.65-.79,1.33-1.21,1.97-.11.17-.32.38-.5.4-1.37.19-1.39.21-.73,1.43-.43.13-.87.27-1.38.43.23-.47.49-.99.95-1.9-.75.21-1.26.25-1.66.48-1.06.62-2.02.61-3.01-.13-.24-.18-.6-.18-.9-.28-.22-.08-.56-.15-.61-.31-.6-1.69-1.16-3.41-1.74-5.11-.36-1.05-.67-2.13-1.13-3.14-.36-.78-1.05-.71-1.57.07-.59-.72-2.33-.99-3.03-.41-.46.38-.86.84-.03,1.29.76.42.6.88.22,1.3-.35-.43-.68-.83-1.01-1.23-.18.09-.35.18-.53.28.5,2.9,1,5.81,1.48,8.65.66-.08,1.11-.08,1.53-.21.35-.11.65-.37.97-.56.02.34.13.79.05,1.21-.07.34-.35.65-.55.97-.06-.27-.07-.65-.24-.93-.08-.14-.61-.2-.7-.1-.57.65-.05,3.4.75,3.77.17.08.6-.38.94-.62.13.27.35.73.65,1.38-.53-.13-.82-.2-1.45-.36.18,1.43.34,2.66.5,3.94h2c-1.02.62-1.2,1.27-.8,2.13,2.39,5.04,6.07,8.81,11.24,10.96,1.74.72,3.56.74,5.56.35,1.37-.27,2.75-.37,3.95-1.12.94-.59,1.83-1.3,2.65-2.06,2.17-2.01,4.3-4.06,6.43-6.12.22-.22.29-.59.17-.96.31-.22.77-.38.9-.68,1.14-2.6,2.29-5.2,3.3-7.86,1.11-2.9,2.06-5.86,3.1-8.8.46-1.32.79-2.64.34-4.04l-.02.03c.26-.15.73-.29.74-.47.08-.76.1-1.54-.02-2.29-.04-.23-.61-.38-.69-.42-.64.38-1.09.65-1.54.92-.07-.11-.13-.22-.2-.33.8-1.01,1.71-1.36,3.03-.13.21-1.87.53-3.47.56-5.07.08-5.56.42-11.17-1.27-16.58-1.49-4.77-2.72-9.68-5.74-13.8-1.91-2.6-3.95-5.1-5.93-7.65,1.02,1.12,2.03,2.25,3.07,3.35.69.73,1.43,1.4,2.15,2.1.26,1.09.83,1.88,1.79,2.21.08.39.04.85.25,1.14.73,1.02.83,2.83,2.8,2.39-.38.16-.75.31-1.26.52,1.08,1.65.92,3.75,2.37,5.23-.34.6,1.29,6.37,1.77,6.68,0,.68-.05,1.18,0,1.67.67,5.94.91,11.87-.15,17.81-1.01,5.64-3.01,10.98-4.93,16.34-1.39,3.88-2.61,7.9-5.81,10.83-.02.02,0,.08.02.19.93.3,1.87.25,2.2-.79.18-.57.53-.85.81-1.26,1.71-2.52,3.42-5.05,4.95-7.68.88-1.52,1.43-3.23,2.27-5.2.03,1.64-1.27,2.65-.72,3.91-1.34.9-1.54,2.43-2.25,3.75,1.73.4,3.07.31,3.81-1.36-.21.46-.41.92-.64,1.42,1.29.46,2.32.26,3.11-.84-.07.32-.14.64-.21.94,1.23.66,1.98-.13,2.76-.81-.14.3-.28.6-.43.94,1.06.76,1.55-.31,2.24-.68-.05.24-.09.47-.16.8,1.59.04,1.92-1.16,2.56-2.16-1.63-.65-1.63,1.02-2.45,1.4.17-.46.34-.93.51-1.39-.05-.12-.09-.23-.14-.35-.47.22-.98.4-1.41.68-.3.19-.51.53-.76.81q.61-1.36.27-1.57c.54-.44,1.17-.97,2.03-1.68-.99-.35-1.54-.54-2.09-.74.85-.16,1.94.66,2.53-.6.25.29.49.58.74.88Zm-5.78,10.54c-.63.32-1.26.65-1.89.97.07-.24.14-.48.21-.73-.07-.11-.13-.22-.2-.33-.63.34-1.26.68-1.89,1.02.08.18.15.35.23.53.56-.17,1.12-.35,1.68-.52.78.91,1.29.76,1.86-.94Zm-2.5,3.82c-.85-.63-1.41-.03-2,.45-.14-.29-.32-.85-.4-.83-.68.12-1.34.35-2.01.54.05.22.1.43.15.65.77-.14,1.54-.28,2.31-.41.47.92,1.18.8,1.95-.39Zm-26.77-24.72c.76-.44,1.51-.88,2.26-1.31,1.3-.12,1.3-1.09,1.42-2.05.12-1.02-.51-1.23-1.26-1.39-.87-.19-1.74-.39-2.7-.61-.26.76-.48,1.43-.63,1.87.86.63,1.61,1.17,2.37,1.72-.77-.94-1.81-.96-3.27-.92.82.46,1.33.75,2.02,1.13-.87.19-1.86-1.08-2.43.48.87.09,1.52.16,2.17.23,0,.07,0,.14,0,.21-.74.07-1.49.15-2.23.22.01.17.02.35.03.52.77-.04,1.54-.08,2.3-.12-.6.17-1.22.33-1.81.53-.33.12-.63.33-1.02.53.81.43,1.42.76,2.03,1.08-.85-.07-1.71-.15-2.56-.22l-.02.35c.43.3.86.61,1.29.91-.53-.13-1.07-.39-1.58-.35-.29.03-.54.55-.81.85-.76.07-1.51.14-2.5.24.38.76.62,1.23.9,1.77.81-.32,1.55-.61,2.44-.95-.31-.39-.59-.75-.86-1.1.49.26.95.63,1.47.75.39.1.86-.11,1.29-.19l-.37-1.06c1.2.59,1.11-.38,1.28-1.05.4-.64,1.29-1.09.79-2.07Zm20.52,20.82c-.74.05-1.49.11-2.21.3-.23.06-.36.51-.6.89,1.19.24,2.2.36,3.05-.54-.04.95.69.67,1.17.68,1.38.05,1.39.02,1.96-1.24-1.17-.25-2.25-.28-3.18.6-.07-.24-.15-.69-.2-.69Zm-5.72,6.06c-2.01-.52-2.68-.29-3.93,1.35,1.41.66,2.53-.02,3.65-.76-.15.25-.3.51-.45.76,1.74.61,2.84.29,3.89-1.12-1.26-.71-2.38-.18-3.48.4.11-.21.22-.42.33-.64Zm14.55-9.48c1.24.41,1.73.09,2.81-1.99-.77.18-1.32.31-1.88.44-.66-.77-1.63-.79-2.3-.06-.34.37-.71.71-1.07,1.06.27-.44.53-.87.85-1.39-1.24-.48-2.24-.26-3.14.53.37-.51.21-.78-.38-.85-1-.11-1.97-.19-2.47,1.01-.2.49-.57.91-.93,1.48,1.44.34,2.59.33,3.44-.87-.41.79-.09,1.15.71,1.03.6-.09,1.17-.35,1.76-.53.74,1.1,1.5.49,2.18-.03.53-.4.94-.94,1.41-1.42-.32.53-.65,1.06-.98,1.6Zm-122.69-20.19c-.23.02-.61.3-.61.46,0,.28.17.65.4.82.25.18.64.22.98.26,1.22.13,2.44.24,3.87.37-.05-.63-.11-1.4-.18-2.17.23-.29.46-.58.69-.87-.03-.13-.07-.26-.1-.39-1.88.13-3.77.26-5.65.39,0,.22-.01.44-.02.66.52.04,1.03.1,1.55.12,1.19.04,2.38.06,3.56.09-1.49.08-2.99.15-4.49.27Zm93.44-7.91c.22.18.41.45.61.46,1.16.04,2.34.16,3.46-.05.41-.07.68-.95,1.19-1.74-.63.14-.93.2-1.23.27.55-.7,1.82-1.26,1.13-2.26-.28-.41-1.63-.11-2.49-.08-.36.01-.72.17-1.42.36.63.18.92.26,1.01.28-.54.24-1.21.49-1.81.85-.23.13-.46.6-.38.8.08.22.53.45.8.42,1.06-.1,2.11-.3,3.17-.46-1.29.37-2.58.73-4.03,1.15Zm3.01-7.25c-1.72-.15-3.21-.28-4.71-.42.1.99.36,1.11,2.24,1.08-.53.13-1.05.27-1.78.46,1.32.84,2.38.36,3.43-.04-.94.39-1.87.78-2.91,1.21.11.49.3,1.27.44,1.89,1.7-.39,3.3-.76,4.9-1.12-.62-1.8-1.29-2.34-2.48-1.93.22-.29.45-.58.86-1.12ZM31.15,65.8c.64-.33,1.02-.54,1.41-.72.76-.33,1.54-.63,2.29-.99.13-.06.14-.38.21-.57.56,1.14,1.52.8,2.17.34.78-.54,1.39-1.36,1.95-2.15.2-.28.04-.81.05-1.23.3-1,0-1.45-1.11-1.38-1.01.07-2.04.01-3.05.01-.01.11-.02.22-.04.33,1.4.35,2.81.69,4.21,1.04-1.14-.12-2.3-.19-3.44-.4-1.03-.19-1.55.17-1.76,1.2,1.04.27,2.06.54,3.07.81-1.33.32-2.69-.87-4.15.31.87.47,1.51.81,2.14,1.15q-2.37-.46-3.96,2.23Zm-3.37-20.92c.08.13.16.25.25.38.67-.24,1.34-.47,2-.71.03.05.05.1.08.15-.25.18-.5.36-.91.65,2.07.68,2.85,2.26,3.23,4.15.14-.03.28-.05.42-.08-.09-.98-.07-1.99-.29-2.93-.18-.78-.7-1.48-.97-2.25-.32-.9-.9-1.3-1.83-1.28.89-.63,1.5-.17,1.88.59.97,1.91,2.09,3.74,1.51,6.11-.28,1.17-.08,2.49.08,3.73.29,2.31.3,4.48-1.53,6.27-.35.34-.38,1-.72,1.35-.53.55-1.19,1.31-1.83,1.33-.45.02-1.04-.97-1.4-1.6-.49-.86-.83-1.81-1.24-2.71-.17.06-.34.12-.51.19.45,1.57.8,3.19,1.41,4.7.22.53,1.1,1.13,1.64,1.1.64-.04,1.36-.63,1.82-1.17.66-.77,1.26-1.64,1.62-2.58.56-1.46,1.08-2.99,1.26-4.53.26-2.22.28-4.48.25-6.72-.04-2.58-1.09-4.87-2.63-6.87-.82-1.07-2.36-.75-3.02.45-.41.75-.79,1.51-1.21,2.33.93-.7,1.79-1.35,2.66-2-.67.66-1.34,1.31-2.01,1.97Zm-6.08,3.06c-2.83.22-5.66.41-8.49.53-3.44.15-6.88.2-10.32.32-.38.01-.75.19-1.12.29.02.13.04.25.06.38.56-.04,1.13-.03,1.68-.14,3.83-.73,7.59-.7,11.34.62,3.28,1.16,6.52.9,9.63-.78,1.92-1.04,4.02-1.4,6.22-1.12.02-.11.04-.21.06-.32-.5-.19-1-.37-1.51-.56.29-.02.58-.04,1.05-.07-.98-1.23-1.99-.59-3.27-.51.98.27,1.62.44,2.26.61-2.53.25-5.05.54-7.58.74Zm36.72-11.39c-5.58-1.25-11.2-2.03-16.93-1.38-1.32.15-2.6.52-3.84,1.94,1.82.21,3.31.49,4.8.53,4.64.13,9.29.17,13.93.23.32,0,.65-.17.98-.27-1.01.24-2.03.68-3.04.68-4.18,0-8.36-.14-12.54-.23-.16,0-.33,0-.49.16,6.48,1.04,12.94,1.68,19.26-.76,0-.13,0-.27,0-.4-.47.03-.94.06-1.41.08-.23-.2-.44-.52-.7-.58Zm64.34-.26c1.04-.66,1.36-.12,1.64.76.09.28.36.5.54.75.14-.06.28-.13.42-.2-.37-1.06-.54-2.25-1.15-3.14-.76-1.11-1.44.14-2.14.43.57-.39,1.27-1.21,1.68-1.08.59.18,1.14.98,1.4,1.63.58,1.43,1.02,2.93,1.42,4.43.48,1.74.56,3.48-.27,5.19-.88,1.82-1.57,3.74-2.59,5.47-1.02,1.72-2.1,1.57-2.98-.24-.26-.54-.37-1.15-.59-1.71-.12-.3-.31-.57-.47-.85-.15.05-.3.11-.45.16.31,1.48.59,2.97.97,4.43.08.31.46.66.78.78,1.69.62,4.05-.8,4.58-2.53.52-1.72,1.25-3.38,1.89-5.07.12-.32.33-.65.33-.97-.01-2.84.13-5.7-1.25-8.35-.47-.9-.78-1.91-1.03-2.91-.32-1.3-.92-1.68-2.25-1.3-2.11.61-2.82,2.43-3.87,4.22.91-.2,1.6-.35,2.29-.5.37.21.92.7,1.09.59Zm-6.01,2.45c-.3.18-.59.37-.89.55,0,.11.01.22.02.33,2.63-.3,5.26-.59,7.88-.89-3.1-2.62-6.58-1.14-9.9-1.27.29.08.57.16.86.23.29.07.58.12.62.13-2.76,0-5.77,0-8.78,0-4.53.02-9.07-.18-13.53.92-.75.18-1.54.23-2.31.24-4.37.03-8.65.57-12.93,1.61-4.22,1.03-8.59,1.47-12.89,2.17-.63.1-1.27.2-1.94.3-.04,1.22.75,1,1.38.89,2.29-.41,4.57-.91,6.87-1.28,3.79-.62,7.6-1.08,11.38-1.76,7.8-1.4,15.7-1.69,23.59-2.02,1.59-.07,3.19.18,4.78.15,1.94-.03,3.87-.18,5.81-.29l-.02-.02Zm-54.2,30.62c-.08,2.88-.26,5.76-.21,8.64.04,2.15.39,4.29.61,6.5.41.08.86.17,1.47.29.1-.57.28-1.09.27-1.61-.13-6.78-.28-13.56-.43-20.34,0-.12-.06-.24-.08-.34-1.48-.15-2.07.57-2.45,1.96-1.28,4.75-1.03,9.6-1.11,14.42-.03,2.02.12,4.04.18,6.07,1.2.2,1.78-.08,1.68-1.23-.12-1.46-.29-2.93-.3-4.39-.03-3.14,0-6.28.04-9.42,0-.17.22-.35.33-.52l-.02-.02Zm-10.25,1.92c.32,2.99.18,5.92-1.19,8.73-.73,1.49-1.08,3.16-1.66,4.95h6.61c-1.37-1.96-.38-3.92-.23-5.9.13-1.74-.13-3.51-.15-5.26-.03-2.67,0-5.34.02-8.01,0-.38.08-.75.16-1.37-1.61.28-3.08.47-4.5.86-.24.07-.23,1.01-.34,1.55-.11-.5-.22-1-.33-1.48-1.29-.17-2.5.9-2.45,2.43.08,2.13.39,4.25.61,6.37.17,0,.34-.01.51-.02v-4.39c.14,0,.27,0,.41,0v7.94c-.16-.31-.3-.6-.51-1.01-.22,2.19-.43,4.29-.64,6.39-.08,0-.16-.01-.24-.02.12-1.84.34-3.68.32-5.53-.02-1.67-.3-3.33-.47-4.99-.16-1.58-.45-3.16-.45-4.74,0-.79.52-1.59.88-2.6-.33.16-.69.21-.79.4-.25.44-.53.95-.53,1.43.02,2.33-.17,4.71.27,6.96.66,3.39.71,6.68-.1,10.01-.08.32-.1.66-.16,1.02,1.17.2,1.75-.11,2.08-1.29.49-1.78,1.29-3.47,1.87-5.23.99-2.99.87-6.04.35-9.1-.07-.42-.19-.84-.28-1.26.33,1.05.83,2.09.94,3.17Zm72.39-26.13c-1.13-.14-1.91-.3-2.7-.33-5.83-.16-11.66-.29-17.49-.43-.04,0-.09,0-.13,0-3.63-.61-7,.09-10.23,1.85-.84.45-1.9.52-2.87.69-2.59.43-5.2.82-7.79,1.22-2.39.37-4.77.79-7.16,1.1-2.94.39-5.7,1.29-8.28,2.71,3.34-.58,6.68-1.29,10.05-1.72,7.33-.93,14.67-1.7,22.01-2.56.94-.11,1.9-.26,2.79-.55,5.75-1.86,11.68-1.56,17.59-1.52.33,0,.67.15,1,.23-4.78.17-9.56.21-14.32.58-2.06.16-4.06,1.02-6.16,1.58,3.14.42,6.09.17,9.02-.78,1.11-.36,2.38-.33,3.58-.34,3.06-.04,6.13,0,9.19-.02.34,0,.68-.12,1.02-.19,0-.12,0-.25,0-.37-.79-.16-1.58-.32-2.37-.48.98-.11,2.09.49,3.26-.67Zm47.58-25.48c.61.93.09,2.32,1.64,2.58-.15.31-.5.66-.43.92,1.44,5.52,1.71,11.17,1.73,16.83,0,1.57-.25,3.15-.53,4.71-.3,1.67-.77,3.32-1.21,5.14.53.11,1,.21,1.48.31-1.14-.22-1.83.13-2.13,1.35-.21.9-.7,1.73-1.01,2.61-.1.28.01.63.02.75-.49.71-.97,1.4-1.59,2.28.8.12,1.29.2,1.78.28-1.15-.04-2.19.09-2.45,1.48-.05.26.05.55.07.79-.38.56-.83,1.23-1.3,1.92,2.09,1.06,2.77.86,3.62-.93.56-1.19,1.28-2.36,1.58-3.62.33-1.37,1.19-2.47,1.52-3.8.36-1.45.85-2.86,1.23-4.3.26-1.02.44-2.07.63-3.11.16-.84.07-1.53-1.08-1.46.38-.03.76-.06,1.19-.1,0-2.58,0-5.1,0-7.62,0-1.54.04-3.09-.08-4.63-.12-1.41-.29-2.84-.7-4.19-.49-1.61-1.11-3.19-1.62-4.8-.09-.3-.51-.49-.78-.74.38-1.14-.33-2.49-1.6-2.61ZM45.37,58.24c-.42-2.07-.21-4.04.57-5.97.86-2.13,1.22-4.25.53-6.56-.33-1.09-.06-2.35-.06-3.09.23,1.35.69,3.1.8,4.89.08,1.26-.07,2.63-.53,3.8-1.08,2.77-1.21,5.53-.61,8.4.31,1.48.55,2.97.84,4.56h1.86c.3-1.01.62-1.98.89-2.96,1.05-3.76,1.08-7.58.64-11.43-.35-3.05-.62-6.1-.97-9.15-.03-.29-.34-.54-.52-.81-.09.29-.26.58-.26.87-.02,3.36-.01,6.71-.01,10.08.2,0,.4.02.66.03-.06.14-.1.25-.16.35-1.2,2-1.13,4.22-.99,6.41.07,1.06.55,2.1.6,3.16.05,1.04-.21,2.1-.34,3.25-.21-.16-.37-.22-.38-.3-.53-4.49-1.45-8.96,0-13.47.37-1.16.35-2.47.38-3.72.06-2.19.02-4.39.02-6.58-2.05-.19-3.79-.35-5.66-.53-.07.58-.17,1.11-.2,1.66-.22,3.53-.42,7.07-.62,10.6-.04.69-.14,1.4-.02,2.07.53,2.97.24,5.85-.73,8.68-.26.77,0,1.03.81.96.12-1.44.07-2.92,1.31-4.01-.28,1.38-.57,2.77-.87,4.28.66.17,1.17.3,1.72.44.6-2.15.33-4.09-.48-5.99.78,1.4,1.35,2.79,1.02,4.47-.31,1.58-.07,1.76,1.78,1.56-.34-2.04-.6-4-.99-5.93ZM174.57,16.66c-.83.12-1.34.19-1.96.27.13.38.22.69.33,1,.32.83.99,1.46,1.15,2.42.2,1.23.95,2.03,2.38,1.76-.46.06-.93.11-1.67.2,1.17,1.37.44,3.63,2.33,4.22-.1.24-.48.67-.4.98,1.33,5.15,1.05,10.37.96,15.62-.05,2.5-.78,4.84-1.1,7.27-.26,1.93-1.35,3.76-2.11,5.62-.46,1.12-.46,1.27.17,1.53-1.94.74-1.43,3.24-3.18,4.43.71.31,1.07.47,1.71.74-1.37-.32-1.89.18-2.28,1.23-.41,1.09-1.4,1.98-1.7,3.08-.43,1.6-1.95,2.44-2.38,4.1-.26,1-1.57,1.72-2.42,2.57.11.17.21.34.32.51.49-.23,1.13-.32,1.43-.7,2.02-2.51,4.18-4.94,5.9-7.66,2.63-4.16,4.55-8.7,5.15-13.63.22-1.81.99-3.33,1.49-4.99.61-2,1.02-4.14,1.04-6.23.03-3.48-.21-6.97-.58-10.44-.12-1.18.26-2.35-.19-3.51-.51-1.33-.87-2.7-1.35-4.04-.46-1.3-.95-2.58-1.49-3.84-.59-1.37-1.2-2.73-1.89-4.04-1.03-1.98-1.15-1.99-3.28-1.11.85,2.34.95,2.42,3.62,2.64Zm-105.24,34.15c2.57-.68,5.11-1.5,7.7-2.07,2.65-.59,5.35-.96,8.02-1.43,1.23-.22,2.46-.62,3.69-.64,2.83-.05,5.41-.82,7.98-1.96,1.33-.59,2.89-.91,4.35-.92,4.79-.01,9.58.15,14.37.3,2.72.09,5.44.22,8.14.46,1.59.14,1.26-.97,1.55-1.97-2.95,0-5.82-.28-8.61.06-5.56.67-11.11.76-16.68.53-1.97-.08-3.8.09-5.61,1.04-2.7,1.41-5.72,1.6-8.72,1.58-3.18-.02-6.25.46-9.33,1.26-3.25.85-6.58,1.41-9.89,2-2.11.37-2.12.29-1.73,2.92,1.66-.4,3.22-.76,4.77-1.17Zm-25.97,13.96c.2,6.34.4,12.55.6,18.77-.12,0-.23,0-.35.01-.22-6.31-.43-12.63-.64-18.94-.11-.02-.23-.05-.34-.07-.13.73-.39,1.46-.37,2.18.11,3.15.36,6.29.45,9.44.08,3.01.02,6.02.02,8.89.32.18.39.25.46.26,4.47.25,3.52.54,4.21-3.46.38-2.2.03-4.52-.07-6.79-.12-2.53-.37-5.06-.46-7.6-.03-.69.31-1.39.49-2.14-1.22-.17-2.44-.34-3.99-.55Zm-2.26,20.51c1.07.12,1.39-.4,1.37-1.34-.07-2.76-.11-5.52-.22-8.28-.1-2.67-.29-5.34-.37-8.01-.03-1.02.14-2.05.23-3.27-.52-.17-1.14-.37-2.09-.67-.2,1.42-.6,2.68-.51,3.91.26,3.75-.98,7.08-2.3,10.5-.76,1.97-.69,4.27-1.03,6.71,1.93.17,3.43.28,4.92.45Zm19.01-40.86c-.12,0-.24,0-.36,0v-5.36c-1.06.22-1.04.22-.86,1.88.09.85.11,1.71-.02,2.58-.12-1.02-.24-2.05-.36-3.07l-.4.05c.29,2.37.58,4.73.87,7.1-1.04-2.61-1.59-5.28-1.08-8.1-1.3-.12-1.51.76-1.44,1.49.19,1.83.37,3.7.88,5.46,1.42,4.83,1.62,9.74,1.34,14.71-.18-2.6-.21-5.22-.58-7.79-.41-2.85-1.19-5.64-1.71-8.48-.3-1.63-.41-3.3-.63-5.16-.51-.17-1.06.04-1.06.97,0,1.51,0,3.02.16,4.52.64,5.78,1.86,11.52,1.11,17.4-.02.16.04.33.06.52.17,0,.29,0,.41-.03,3.06-.77,2.99-.77,2.88-3.94-.12-3.23-.22-6.48-.05-9.7.1-1.83.86-3.61,1.12-5.44.25-1.75.23-3.54.33-5.32-.21,0-.42-.02-.63-.02v5.71Zm63.7-3.69c-4.93,1.16-9.97,1.2-14.96,1.03-9.7-.32-19.2,1.19-28.69,2.75-5.13.85-10.34,1.49-15.23,3.45-.25.1-.49.24-.74.35.03.13.07.26.1.39.31,0,.63.05.92,0,3.85-.74,7.69-1.55,11.55-2.25,2.5-.45,5.01-.99,7.53-1.05,4.06-.1,8.01-.42,11.66-2.44.52-.29,1.26-.23,1.89-.24,5.09-.06,10.18-.08,15.27-.15,3.62-.05,7.23-.2,10.85-.19,1.26,0,1.59-.49,1.5-1.66-.59,0-1.16-.1-1.67.02Zm-98.13,11.07c-1.07-.08-2.29-.06-3.22.39-2.17,1.05-4.35,1.22-6.53.45-1.51-.53-2.97-.61-4.44-.23-2.98.77-5.92,1.29-8.85-.14-.1-.05-.25,0-.39.02-.05.12-.14.24-.14.35.02,2.3.02,2.39,2.27,2.4,4.27.03,8.54.03,12.81-.09,4.26-.12,8.51-.43,12.77-.59,1.74-.07,1.96-.35,1.44-1.73-2.12-.32-3.91-.69-5.72-.83Zm37.07,34.28c-1.39.39-2.87.49-4.32.56-1.16.05-2.37.03-3.48-.26-2.71-.71-4.62.69-6.5,2.24-.93.76-.8,1.62.4,1.84,1.51.27,3.1.39,4.61.21,1.47-.17,2.86-.85,4.31-1.23,1.03-.27,2.09-.51,3.15-.57,1.55-.09,3.11-.03,4.66,0,.71.02,1.06-.21,1.26-.95.2-.76.69-1.45,1.08-2.23-1.89-.54-3.51-.07-5.18.39Zm143.61-48.19c-2.73.49-5.3-.12-7.9-.83-1.13-.31-2.37-.31-3.55-.28-2.23.06-4.45.19-6.67.41-1.08.11-2.13.45-3.19.75-.98.28-1.94.64-2.91.94-.45.14-.97.12-1.37.34-.25.14-.46.61-.43.9.02.18.58.47.83.41.79-.19,1.6-.43,2.31-.82,1.57-.86,3.21-1.09,4.88-.6,5.41,1.6,10.85.95,16.3.41,1.03-.1,2.06-.2,3.09-.34.69-.1,1.43-.2,1.25-1.31-.93,0-1.81-.13-2.63.02ZM30.15,48.42c-1.92-.31-3.72.23-5.36,1.12-3.69,1.99-7.35,1.78-11.26.58-2.25-.69-4.76-.65-7.15-.69-1.44-.02-2.88.43-4.29.67-.24.96,0,1.32.9,1.7,2.49,1.06,4.92.97,7.46.26,1.97-.56,3.92-.65,5.96.14,1.9.73,3.91.58,5.75-.5,1.33-.78,2.67-.7,4.12-.29,1.14.32,2.36.49,3.55.49,1.64,0,1.78-.28,1.44-2.11h-5.09c1.49-.98,3.33-.35,5.05-.53.02-.12.05-.24.07-.36-.38-.16-.74-.39-1.14-.46Zm33.78-3.94c-.01.15-.02.31-.03.46.44.08.9.27,1.33.21,2.47-.35,4.93-.8,7.41-1.13,4.15-.54,8.39-.67,12.45-1.6,4-.91,8.03-.96,12.04-1.46,3.59-.46,7.19-.9,10.78-1.36.19-.02.38-.07.56-.11-15.07-.21-29.83,2.13-44.53,4.98Zm-14.09-4.51c.63,8.08,2.75,16.15-.76,24.26.84-.06,1.26-.07,1.67-.12.38-.04.75-.12.89-.14,2.44-8,.67-15.94.44-24h-2.24Zm7.95,45.11c.85.42,1.22.15,1.16-.82-.18-2.84-.31-5.69-.54-8.53-.31-3.84-.62-7.67.3-11.47.03-.11-.04-.24-.06-.36-1.94-.03-2.62.4-2.63,2.13,0,2.88.32,5.76.31,8.63,0,2.23-.22,4.46-.52,6.67-.2,1.47-.04,2.71,1.32,4.09.21-1.07.54-1.87.49-2.65-.21-3.53-.58-7.05-.77-10.59-.12-2.1-.02-4.22-.02-6.33-.31,6.39,2.02,12.69.94,19.23Zm-6.97,1.16c-.63,0-1.04,0-1.44,0-3.14-.05-6.29-.03-9.43-.2-1.78-.1-3.31,1.58-3.75,2.84-.07.21.42.87.69.9,1.24.13,2.49.13,3.74.14,2.18.02,4.36,0,6.7,0-.07-2.03,2.16-2.27,3.49-3.68Zm141.55-44.43c2.06.23,4.2-.26,6.31-.36,2.8-.14,5.61-.2,8.41-.34,1.41-.07,1.61-.3,1.71-1.83-1.17.16-2.31.29-3.44.47-4.44.73-8.91,1.03-13.4.63-1.24-.11-2.45-.51-3.67-.78-1.62-.36-3.14-.22-4.64.59-.82.44-1.79.61-2.67.97-.3.12-.53.43-.8.65.11.13.22.26.33.39,3.93-.75,7.86-.83,11.84-.39Zm-117.92,10.88c4.97-.61,9.93-1.31,14.87-2.1,3.44-.55,6.84-1.33,10.26-2-.04-.22-.07-.43-.11-.64-11.65,1.6-23.3,3.2-34.94,4.8.02.28.04.56.07.83,3.29-.29,6.59-.48,9.86-.88ZM3.57,56.42c4.89.5,9.77.65,14.68.06,3.59-.43,7.23-.48,10.84-.66.68-.03,1.36.1,2.07.15.46-1,.1-1.36-.92-1.29-4.29.28-8.58.64-12.88.79-4.31.16-8.62.12-12.93.16-.63,0-1.26,0-1.89,0-.03.16-.05.31-.08.47.37.11.73.27,1.1.31Zm29.87,31.75c-1.93.06-3.76-.21-5.55-.97-.39-.17-1-.19-1.35,0-1.23.67-2.4,1.47-3.59,2.22.05.91.53,1.14,1.41,1.16,1.84.04,3.68.3,5.52.34.73.02,1.47-.28,2.19-.48.82-.23,1.64-.48,2.42-.82.46-.2.86-.57,1.28-.86-.06-.1-.12-.21-.18-.31-.72-.1-1.44-.31-2.16-.29Zm27.64-27.46c.04-2.33-.12-4.67.03-6.99.23-3.52.71-7.02.97-10.54.13-1.78.02-3.57.02-5.36-.11-.05-.22-.09-.33-.14-.22.34-.67.7-.64,1.01.33,3.81-.86,7.41-1.31,11.11-.47,3.94-.02,7.98.03,11.98.24.06.48.12.71.18.18-.42.5-.83.5-1.26Zm145.97-18.61c.18-.01.35-.19.68-.38-1.96,0-3.72-.08-5.47.02-2.11.12-4.21.52-6.32.54-2.97.03-5.94-.27-8.91-.24-1.93.02-3.86.38-5.79.59-.77.09-1.17.48-.94,1.52,8.97-.68,17.86-1.36,26.75-2.05ZM59.47,63.5c-1.92,7.37.43,14.52.07,21.73.22,0,.45.01.67.02,0-.51.02-1.02,0-1.53-.25-5.91-.43-11.82.61-17.69.16-.93.46-1.83.76-2.96-.87.18-1.53.31-2.11.43Zm-6.88-22.64c.04,1.59.11,3.19.18,4.78.19,4.04.45,8.07.55,12.11.03,1.23-.41,2.46-.6,3.69-.11.71-.14,1.43-.21,2.11,1.82.45,1.97.29,2.1-1.35.37-4.51-.36-8.94-.89-13.39-.31-2.6-.25-5.25-.37-7.88-.01-.32-.09-.63-.14-.94-.14-.01-.27-.03-.41-.04-.08.3-.23.6-.22.9Zm-35.58,5.9c-3.37.5-6.7.3-10.06.13-1.65-.08-3.32.22-4.98.41-.21.02-.37.46-.56.7.28.12.57.38.83.35,4.38-.46,8.76-.48,13.17-.33,2.8.09,5.63-.44,8.44-.69-.02-.22-.04-.43-.06-.65-2.27,0-4.57-.27-6.79.06Zm22.03,23.49c.03-2.18.22-4.36.35-6.81-.35.26-.86.44-1.04.8-.65,1.26-1.28,2.56-1.72,3.9-.2.62.14,1.39.11,2.09-.06,1.46-.21,2.92-.32,4.38.13.04.27.07.4.11.46-1.62.92-3.23,1.33-4.68.33,1.86-.52,3.65-1.27,5.49-.32.8-.47,1.67-.7,2.51.16.05.33.11.49.16,1.01-2.58,2.32-5.05,2.36-7.96Zm-20.18,19.05c-3.34-2.08-6.74-.58-10.25-.47.5,1.31,1.43,1.63,2.5,1.63,1.77,0,3.54-.11,5.3-.11,1.16,0,2.32.11,3.49.12.5,0,1.01-.14,1.51-.22,0-.1.02-.2.03-.3-.87-.2-1.86-.2-2.58-.64Zm103.74-48.77c.76-.14,1.55-.12,2.31-.28.27-.06.47-.45.7-.68-.1-.13-.19-.25-.29-.38-.87.2-1.73.47-2.62.6-1.52.23-3.06.47-4.59.55-5.03.27-10.07.48-15.11.72-.12,0-.24.08-.36.12,6.63-.08,13.33.59,19.96-.65Zm-82.67,1.95c-2.12.38-4.18.75-6.24,1.12.37,1.68.88,2.05,2.54,2.01,1.5-.03,2.99,0,4.78,0-.44-1.27-.75-2.15-1.08-3.13Zm15.89,18.11c-.06-2.24-.27-4.48-.4-6.72-.26-4.47-1.54-8.86-1.07-13.39.02-.16-.04-.32-.35-.54-.08.39-.25.78-.22,1.15.29,3.96.69,7.9.92,11.86.17,3.09.14,6.19.2,9.29,0,.4.04.8.06,1.2.16.02.32.03.47.04.14-.97.41-1.94.39-2.9Zm-25.62-1.37c-.3.37-.7.66-1.06.98-.31-.45-.61-.9-.92-1.35.1-.07.21-.13.31-.2.21.36.42.72.74,1.26.45-.68.8-1.23,1.21-1.84h-3.26c.39,1.07.71,2.04,1.12,2.98.31.73.97,1.5,1.6.55,1.59-2.42,3.93-4.65,2.64-8.07-.01,2.25-1.05,4.04-2.36,5.7Zm154.86-21.86c.96-.32,1.96-.6,2.96-.67,3.03-.21,6.07-.31,9.35-.47-1.53-1.67-16.23.69-17.01,2.42.06.13.13.26.19.39,1.5-.56,2.99-1.17,4.51-1.67Zm-145.45,4.76c-.4-2.02-3.23-2.53-6.77-1,1.54-.1,2.75-.17,3.96-.25-1.04.75-3.12-.45-3.27,2.25,2.22-.36,4.15-.68,6.08-.99Zm79.2,10.82c.33,1.47,1.01,1.9,2.55,1.67,1.6-.24,3.06-.75,4.17-2.16-1.25.38-2.35.73-3.47,1.05-1.18.34-1.99-.16-2.31-1.27-.3-1.03-.39-2.12-.59-3.17-.14-.76-.32-1.5-1.4-1.13.36,1.73.68,3.38,1.05,5.01Zm-81.51-2.03c.33.06.65.13.96.36-1-.04-2.01-.09-3.01-.13-.03.14-.05.28-.08.42,1.25.26,2.5.53,3.76.79,0,.07,0,.15,0,.22-1.14-.11-2.27-.21-3.57-.33.09.33.07.73.26.9.66.59,3.36.68,3.98.05.37-.37.63-1.02.61-1.54-.02-.34-.59-.85-.98-.92-.98-.19-2-.17-3.01-.23,0,.07-.01.14-.02.22.37.07.74.13,1.12.2Zm102.22,28.21c1.98-1.6,3.88-3.32,5.92-5.09-1-.39-1.65-.32-2.35.34-1.8,1.69-3.69,3.3-5.54,4.94.03.12.07.24.1.35.63-.17,1.4-.17,1.87-.54ZM62.97,42.56c4.43-.62,8.7-1.21,12.98-1.81,0-.07-.02-.14-.03-.21-4.22.22-8.43.43-12.75.66-.04.28-.1.69-.2,1.37Zm67.83-.14c-.5.06-.88.11-1.32.16-.06.54-.12,1.04-.17,1.54,1.06.32,2.04.61,3.07.91.18-1.13.36-2.29.57-3.65-1.05.05-2.23.1-3.42.16-.04.13-.07.27-.11.4.41.14.82.28,1.38.47ZM2.6,56.87c-.03.71-.05,1.21-.09,2.03,3.07-.4,6.02-.79,8.98-1.18,0-.05,0-.09,0-.14-2.93-.24-5.87-.47-8.88-.71Zm195.54-20.78c2.4,1.55,9.21,1.97,11.16.57-3.85-.2-7.46-.38-11.16-.57Zm-72.24-2.22c.06.25.12.52.25.73,1.7,2.73,2.12,5.78,2.39,8.93,0-.37.01-.73,0-1.1-.01-.43-.03-.86-.07-1.29-.28-2.51-.23-5.1-1.64-7.36-.18-.28-.33-.64-.34-.96-.05-1.01-.61-1.73-1.5-1.86-.75-.12-1.56.23-2.35.38.04.15.08.29.12.44,2.36-.55,2.61-.38,3.15,2.09Zm-94.45,7.02c-3.49-1.42-5.48,1.57-6.13,4.91.62-.49,1.11-.73,1.39-1.12.45-.62.79-1.33,1.15-2.02,1-1.93,3.04-2.06,4.29-.25.14.2.28.41.61.89.19-1.4-.2-1.96-1.3-2.41Zm-10.03,16.34c2.06-.08,4.13.03,6.2-.02,1.02-.02,2.03-.22,3.05-.34-.02-.24-.05-.47-.07-.71-5.3.35-10.6.69-15.9,1.04.01.16.03.33.04.49,2.23-.16,4.45-.39,6.69-.47Zm19.44-3.21c-.32,2.94-.65,5.87-.97,8.81.12.03.24.07.36.1,1.2-2.85,1.78-5.78.61-8.91Zm-5.09,2.04c-.03.57-.06,1.19-.09,1.88,1.31.15,2.52.29,3.85.45.05-.8.09-1.46.14-2.33h-3.9ZM147.75,4.25c.71,1.33,1.78.8,2.78.84-.72-2.35-2.24-3.12-5.3-2.42,1.04.5,2.08,1,2.94,1.42.08-.03-.15.05-.43.15Zm12.3,71.22c-.35.61-1.15.96-1.88,1.53,1.26.57,2.21.32,3.07-.42.16-.13.2-.4.35-.73.41-.27,1.04-.69,1.68-1.1-.07-.13-.13-.26-.2-.39-1.23-.32-2.25-.24-3.02,1.1ZM31.27,63c-.52.65-1.32,1.19-2.11,1.47-.93.33-1.61-.35-2.09-1.14-.18-.29-.34-.59-.61-.83.2,1.06.58,2.04,1.69,2.48,1.17.46,2.39.16,3.09-.72.98-1.25,1.64-2.77,2.43-4.17-.16-.07-.32-.15-.48-.22-.62,1.06-1.15,2.2-1.91,3.14Zm174.83-29.21c0-.14,0-.27,0-.41-3.75-.34-7.5.05-11.53.41h11.54Zm-168.33,30.84c-.94.2-1.68.36-2.68.58.14,1.34.28,2.73.45,4.41.83-1.85,1.5-3.35,2.23-4.99Zm120.47,8.79c2.31.81,3.03.43,4.33-2.3-1.04.23-1.85.41-2.64.62-.03,0,.06.44.09.61-.47.28-1.04.62-1.78,1.07ZM41.96,39.25c-.39.26-1.03.47-1.05.74-.1,1-.07,2.04.07,3.04.1.71.43,1.39.66,2.08.11,0,.21,0,.32,0v-5.87Zm119.79,34.38c1.09.37,1.07.36,2.23-.71.51-.47,1.11-.86,1.9-1.46q-2.53-.44-4.13,2.18Zm-39.32-24.5c-.15.46-.6.83-.99,1.33.54.98.96,1.09,1.71.08.64-.87,1.14-1.84,1.77-2.89-1.53-.2-2.13.39-2.48,1.47Zm44.17,16.93c1.8.67,2.69.25,3.3-1.67-2.43-.44-2.66-.32-3.3,1.67Zm40.44-30.9c.04-.1.08-.21.12-.31-.58-.21-1.15-.59-1.73-.61-2.63-.07-5.27-.03-7.9-.03,0,.06,0,.11,0,.17,3.17.26,6.35.52,9.52.78Zm-38.43,31.53c-2.13-.5-2.59-.25-3.38,1.92,2.33.37,2.66.17,3.38-1.92Zm-1.44,2.41c-1.94-.57-2.42-.35-3.56,1.73,2.13.5,2.43.35,3.56-1.73Zm-104.71-24.47c0,1.35.04,2.55-.01,3.75-.04.88-.18,1.76-.3,2.64-.06.43-.18.85-.27,1.27,1.29-.72,1.62-6.68.58-7.66Zm104.47,17.4c.42-.23.98-.36,1.21-.71.36-.53.48-1.22.73-1.84.24-.59.51-1.16.83-1.87-1.15-.1-1.62.6-2.77,4.42Zm-6.11,8.69c1.87.81,2.55-.06,3.23-1.65-1.72-.56-2.56.37-3.23,1.65Zm-7.51,9.6h-6.97c0,.13,0,.26,0,.39,2.33.04,4.67.45,6.96-.39Zm14.43-16.59c1.63.79,2.59.5,3.08-1-2.43-.69-2.66-.61-3.08,1Zm-5.05,4.7c1.83.76,2.27-.06,2.83-1.73-1.86-.19-2.14-.02-2.83,1.73Zm-30.98-35.38c.07-.11.13-.22.2-.33-.2-.3-.38-.85-.59-.87-1.37-.08-2.75-.04-4.12-.04,0,.22-.02.44-.03.66,1.51.19,3.03.39,4.54.58Zm-95.96,13.92c1.5-.06,3.01-.12,4.51-.24.28-.02.55-.25.82-.38-.25-.14-.51-.4-.77-.4-1.34,0-2.67.05-4.01.14-.44.03-.87.24-1.3.36.02.12.05.23.07.35.22.06.45.18.67.17Zm128.6,19.21c1.57.3,1.77.15,2.49-1.95-1.33-.34-1.82.06-2.49,1.95Zm-99.46-19.69c-.3.06-.53.5-.79.77.08.1.17.21.25.31,1.85-.56,3.71-1.11,5.56-1.67-.03-.09-.06-.17-.1-.26-1.65.28-3.3.52-4.93.86Zm-28.36,8.04c-.23-.04-.51-.02-.72.08-.09.04-.11.41-.04.56.43.83,3.38.75,3.86-.02-1.07-.21-2.09-.43-3.11-.61ZM147.4,1.77c-1.12-.9-2.46-.76-3.81-.61,1.09,1.15,2.47.76,3.81.61Zm-18.22,43.05c-.12.07-.26.32-.22.4.08.17.25.35.42.4,1.03.28,2.07.52,3.28.81-.35-1.09-2.7-2.08-3.48-1.61Zm42.67,7.79c-1.33-.56-1.56-.33-1.98,1.98,1.29.27,1.59-.02,1.98-1.98Zm26.11-17.26c0,.1-.01.19-.02.29,2.71.23,5.42.47,8.13.7.01-.15.02-.3.03-.45-2.71-.18-5.43-.36-8.14-.54Zm-46.44,38.75c-1.9-.52-2.55-.31-2.99.99,1.11-.02,2.36.5,2.99-.99Zm-3.09-.13c-1.2-.1-2.38-.49-3.18.83,1.63.67,2.42.49,3.18-.83Zm11.79.47c-1.54-.67-2.47-.4-3.11.94,1.23.27,2.35.32,3.11-.94ZM31.4,39.74c0,.11,0,.22,0,.33h6.84c.02-.11.05-.22.07-.33h-6.9Zm118.62,36.01c-1.57-.61-2.49-.34-3.02.89,1.14.15,2.32.5,3.02-.89Zm-2.27,3.75c1.46.49,2.32.25,3.23-.87-1.32-.61-2.26.05-3.23.87Zm11.15-3.31c-1.74-.72-2.34-.51-3,.74.07.15.13.31.2.46.84-.36,1.69-.72,2.8-1.2Zm10-19.14c1.63.13,1.45-1.14,2.04-2.07-1.83-.13-1.7,1.04-2.04,2.07Zm-16.9,13.23c1.49.73,2.05.61,2.84-.75-1.12.03-2.19-.5-2.84.75Zm-6.56,7.09c-1.61-1.26-2.11-1.19-3.1.3,1.16-.11,2.13-.2,3.1-.3Zm6.25-70.74c-.36-1.77-1.51-1.19-2.61-1.13.54,1.51,1.51,1.31,2.61,1.13Zm11.24,60.28c-1.19-.18-1.54.08-2.25,1.69,1.39.01,1.42-.02,2.25-1.69Zm-18.94,8.87c1.27.89,2,.87,3.12-.28-1.21.1-2.2-.69-3.12.28Zm7.89-6.22c-1.13-.03-2.23-.49-2.86.76.95-.06,2.16.81,2.86-.76Zm10.36-5.97c1.41.52,1.64-.48,2.08-1.47-1.48-.41-1.71.54-2.08,1.47Zm-35.76-32.67c0,.07-.01.15-.02.22h4.48c0-.07,0-.15,0-.22h-4.46Zm32.24,39.43c1.6.8,2.04-.24,2.58-1.12-.08-.12-.16-.25-.23-.37-.78.5-1.56.99-2.34,1.49Zm-7.59.65c-1.3-.24-2.25-.52-3.35.51,1.26.17,2.21.45,3.35-.51Zm-115.06-17.2c2.23,1.25,3.51,1.19,3.85,0h-3.85Zm144.06-17.35c.06.18.13.37.19.55,1.23.04,2.11-.9,3.2-1.25-.04-.11-.08-.22-.12-.33-1.09.34-2.18.69-3.27,1.03Zm-46.03,44.24c.03.13.05.27.08.4,1.11-.21,2.22-.43,3.33-.64-.05-.24-.11-.47-.16-.71-1.08.32-2.17.63-3.25.95Zm37.07-63.9c.16-1.42-.6-2.51-1.86-2.75.7,1.04,1.28,1.89,1.86,2.75Zm-11.68,52.92c-1.56-.79-2.05.08-2.65.68.08.19.15.37.23.56.71-.36,1.42-.73,2.42-1.24Zm6.27-6.05c1.3.55,1.6-.28,1.94-1.29-1.35-.39-1.65.41-1.94,1.29Zm-.78-2.12c1.36.32,1.73-.04,1.85-1.54-.12-.1-.23-.2-.35-.3-.48.58-.96,1.17-1.51,1.84Zm-10.23,8.62c1.33.75,1.45.69,2-.87-.67.29-1.34.58-2,.87Zm-8.99,7.07c0,.14.01.28.02.42h2.59c-.01-.14-.02-.28-.03-.42h-2.57Zm7.54,1.78c-.07-.19-.13-.37-.2-.56-.75.24-1.5.48-2.25.73.08.23.16.45.25.68.73-.28,1.47-.57,2.2-.85Zm1.86.24c.06.22.12.45.18.67.82-.23,1.64-.46,2.46-.7-.06-.2-.11-.41-.17-.61-.82.21-1.65.42-2.47.63Zm.28-4.71c-.09-.23-.18-.45-.27-.68-.72.28-1.44.56-2.16.84.1.24.2.48.3.72.71-.29,1.42-.59,2.13-.88Zm10.42-12.24c-1.35-.45-1.52.46-1.79,1.38,1.28.33,1.48-.53,1.79-1.38Zm5.94-45.36c-.17.09-.35.19-.52.28.36.76.72,1.51,1.08,2.27.21-.12.41-.25.62-.37-.4-.72-.79-1.45-1.19-2.17Zm-20.53,54.76c.82-.05,1.65-.09,2.47-.14-.01-.15-.02-.3-.03-.45-.83-.02-1.72-.65-2.44.59Zm3.86.79c-1.44-.48-1.6-.4-2.16.82.07.12.15.24.22.36.58-.35,1.16-.71,1.94-1.17Zm4.2,5.63c-.03-.22-.07-.43-.1-.65-.78.12-1.56.24-2.35.36.03.2.06.41.1.61.78-.11,1.57-.22,2.35-.33Zm8.27-21.48c1.01.22,1.22-.06,1.41-1.86-1.16.21-.99,1.23-1.41,1.86Zm.07-45.07c.69.91,1.18,1.55,1.67,2.19.14-.12.28-.24.42-.36-.46-.68-.49-1.77-2.09-1.83Zm-17.54,65.87c1.37.84,1.66.77,2.47-.46-.99.18-1.73.32-2.47.46Zm4.4-72.39c-.4-1.49-1.2-1.38-2.03-1.19-.05.18-.11.36-.16.54.65.19,1.31.39,2.18.65Zm2.68,69.47c-.11-.19-.23-.38-.34-.57-.57.33-1.14.65-1.7.98.13.23.27.45.4.68.55-.36,1.1-.73,1.64-1.09Zm30.57-39.69c.01.11.03.22.04.34,1.41-.2,2.81-.4,4.22-.6-.01-.09-.02-.18-.03-.27-1.41.18-2.82.36-4.23.54Zm-33.12,42.94c-.05-.19-.09-.38-.14-.56-.63.14-1.25.27-1.88.41.06.21.12.43.18.64.61-.16,1.23-.32,1.84-.49Z"/>
      <path class="cls-1" d="m169.94,94.94c-.97-.19-1.95-.38-2.9-.65-2.66-.75-2.76-.95-2.27-3.55-3.5.52-7.03,1.05-10.56,1.57.15.35.37.84.59,1.33-2.64-2.81-5.82-3.61-9.52-2.6-.52.14-1.12.16-1.66.07-2.92-.48-5.44.38-7.84,2.23,1.05,1.21,2.11,2.42,3.85,2.67,3.28.48,6.55,1.03,9.84,1.37,1.44.15,2.93-.08,4.38-.25.88-.1,1.37-.69,1.23-1.64-.1-.63-.21-1.26-.31-1.9.29,1.08.59,2.15.92,3.38,2.47-.36,4.89.65,7.25,1.83,1.19.6,2.06.37,3.12-.53,1.24-1.06,2.83-1.71,4.26-2.54-1.44.99-2.97,1.88-4.3,3.02-.92.79-1.76,1.01-2.82.54-.95-.42-1.87-.91-2.84-1.27-2.05-.78-4.13-1.29-6.23-.11-.14.08-.32.16-.47.14-.99-.07-1.98-.17-2.96-.27-2.62-.25-5.24-.44-7.84-.78-2.29-.3-4.69-.39-6.47-2.25-.21-.22-.61-.34-.93-.38-1.63-.19-3.26-.5-4.88-.45-2.47.07-4.46-.75-6.16-2.72-.54,1.12-1.18.77-1.9.28-.38-.26-.85-.43-1.3-.55-2.46-.64-4.92-1.23-7.52-.93-1.64.19-1.89-.16-2.08-1.77-.05-.42-.33-.83-.31-1.24.03-.64.04-1.42.4-1.87.56-.7,1.4-1.18,2.02-1.66-2.61-.29-5.38-.38-8.05-.94-2.59-.55-5.47-.28-7.67-2.21.86.16,1.64.58,2.48.76,1.6.34,3.24.5,4.85.82,5.25,1.02,10.5,1.78,15.82.18-1.43.49-2.85.98-4.25,1.46-.04-.06,0,.06.05.07,2.59.42,5.18,1.06,7.79,1.16,2.62.09,5.37.33,7.76-1.33.22-.15.74.13,1.13.21,0,.14-.02.29-.02.43-2.14.38-4.27.91-6.44,1.1-2.15.19-4.34.04-6.36.04.34.38.86.96,1.38,1.54-1.48-1.84-3.66-2.23-5.71-2.83-1.48-.43-2.79.05-3.99.97-1.11.85-.83,1.85-.44,2.9.06.16.08.34.06.51-.13,1.1.55,1.39,1.43,1.32,3.51-.28,6.85.33,10.31,2-.04-.79-.04-1.4-.11-2-.09-.81.2-1.23,1.06-1.23,2.5,0,5.03-.21,7.5.04,2.3.24,4.52,1.13,6.82,1.43,2.69.35,5.34,1.22,8.16.47,1.13-.3,2.45.15,3.69.23.63.04,1.27,0,2.02,0,.47,1.05,1.15,1.38,2.63,1.11.45-.08.92-.05,1.38-.13,1.83-.31,3.69-.5,5.46-.99,2.08-.58,4.11-.92,6.28-.68,1.62.17,3.28.05,4.92.08.46,0,.91.07,1.36.1,0,.14-.02.27-.03.41-.98,0-1.96.03-2.94,0-1.81-.08-3.62-.17-5.43-.31-1.12-.08-1.54.48-1.67,1.49-.13.98.05,1.7,1.16,1.95,1.39.32,2.77.67,4.14,1.05.33.09.61.37.91.56-.28.21-.56.42-.84.63.51-.55.28-.78-.36-.9Zm-37.45-1.23c.69.03,1.46-.07,2.08-.37,1.89-.91,3.72-1.93,5.46-2.86-3.69-1.15-7.63-2.09-11.79-1.61-.94.11-1.9.03-2.84.06-.51.02-1.33-.19-1.12.74.16.71.24,1.64,1.5,1.47,1.34-.18,2.69-.1,3.68,1.07-.42-.1-.85-.19-1.47-.34,1.36,1.77,2.46,1.81,4.07.72-.46.62-.25,1.09.44,1.12Z"/>
      <path class="cls-1" d="m11.69,78.35c.05,1.05-.9,1.12-1.4.98-1.84-.49-3.62-1.18-5.42-1.8,0-.19.01-.38.02-.57.95-.25,1.89-.59,2.86-.73,3.44-.48,6.9-.89,10.35-1.32.55-.07,1.11-.14,1.67-.14,2.03-.01,4.06-.11,6.08.05,1.34.1,2.64.59,3.96.9.79.18,1.59.34,2.38.51-4.32-2.52-9.09-2-13.74-1.8-2.82.12-5.6.92-8.41,1.34-1.59.24-3.3-.39-4.79.62-.36.25-.68.55-1.02.83.33.31.61.77,1.01.91,2.35.84,4.73,1.61,7.1,2.4.53.18,1.06.35,1.59.52,1.08.35,2.02.29,3.06-.37,2.13-1.35,4.41-2.34,7.05-1.86.17.03.35.06.52.03,3.32-.52,6.35.65,9.42,1.58.16.05.34.04.5.06.15.02.3.03.44.05-.82-.87-1.6-1.71-2.37-2.54.22.49.44.99.75,1.71-1.58-.38-3.03-.7-4.47-1.08-1.11-.29-2.14-.64-3.37-.21-.74.26-1.77.13-2.53-.18-.77-.3-1.32-.2-2,.09-1.58.67-3.17,1.29-4.77,1.9-.5.19-1.03.26-1.63.2,1.21-1.48,3.05-1.88,4.6-3.02-.38.04-.77.02-1.13.13-.27.08-.47.43-.73.47-1.33.22-2.66.38-4,.56-.52-.07-1.05-.15-1.57-.22Z"/>
      <path class="cls-1" d="m100.78,78.28c-.69.34-1.39.68-2.08,1.01.05.11.1.22.15.33,3.81,0,7.64-.14,11.44.04,3.82.18,7.62.69,11.43.87-.78-.28-1.57-.56-2.35-.85-.04-.01-.1-.04-.11-.07-.15-1.9-2.04-1.29-2.97-2.08-.26,1.05-1.01,1.42-2.32,1.15-.29.86-.58,1.22-1.72.83-1.49-.5-3.16-.52-4.76-.63-1.08-.07-2.09-.13-2.76-1.13-.07,0-.15-.01-.22-.02-.52.1-1.03.19-1.55.29-.67.56-1.31,1.42-2.19.25Z"/>
      <path class="cls-1" d="m80.02,82.41c-.34.36-.62.83-1.04,1.05-.55.28-1.2.36-1.75.7,2.79-.87,6.02-.33,8.32-2.73-.51-.19-1.03-.38-1.54-.57-1.04-.37-2.08-.77-3.14-1.08-.24-.07-.59.22-.88.34.83.25,1.66.51,2.63.81-.25.41-.42.69-.59.97-.67.17-1.34.34-2,.51Z"/>
      <path class="cls-1" d="m151.36,89.91c-.95-.25-1.89-.58-2.86-.72-3.87-.56-7.77-.92-11.62-1.61-2.44-.44-4.79-1.35-7.34-1.91.28.21.53.51.85.6,1.81.55,3.62,1.16,5.47,1.56,1.59.34,3.24.42,4.86.63,3.53.46,7.06.92,10.58,1.38.02.03.03.06.05.08Z"/>
      <path class="cls-1" d="m72.65,69.97c.39-1.74,1.65-1.51,2.85-1.38.81.09,1.65.14,2.43.36,3.28.94,6.57.65,9.88.28.9-.1,1.81-.12,2.71-.12-2.07,0-4.14.08-6.2-.02-2.05-.1-4.1-.38-6.14-.59-1.37-.14-2.74-.37-4.11-.42-1.16-.04-1.67.62-1.42,1.89Z"/>
      <path class="cls-1" d="m87.29,75.11c.32.02.65.12.95.06,2.26-.42,4.48-.48,6.8-.16,3.7.52,7.46.63,11.2.91,0-.12.02-.23.02-.35-1.95-.12-3.9-.19-5.85-.38-2.1-.2-4.19-.62-6.3-.74-2.25-.13-4.51-.03-6.77-.03-.02.23-.04.46-.05.69Z"/>
      <path class="cls-1" d="m65.73,82.45c3.57.63,6.81,1.21,10.04,1.78,0-.03.01-.06.02-.08-.7-.24-1.4-.48-2.28-.79.94-1.17,3.01-.34,3.41-2.35-1.09.51-2.41-.26-3.07,1.43-.35.87-1.56.86-2.56.67-1.47-.28-2.96-.49-4.45-.71-.24-.04-.5.02-1.11.05Z"/>
      <path class="cls-1" d="m93.51,87.86h.9c-.39-.82-.21-1.45.8-1.54,2.18-.21,4.37-.43,6.56-.52,2.3-.09,4.6-.02,6.64-.02-1.96.2-3.92-1.38-6.4-.38-1.63.65-3.65.29-5.49.43-2.21.16-2.45.35-2.98,2.06l-.03-.03Z"/>
      <path class="cls-1" d="m172.06,31.12c-.3,4.19-.72,9.96-1.09,15.18,1.39-5.14,1.08-10.97,1.09-15.18Z"/>
      <path class="cls-1" d="m165.9,9.95c-.1-.54-.21-1.08-.31-1.61-.33-.24-.66-.48-.99-.72-.19-.07-.4-.12-.58-.22-.94-.49-1.47-1.3-1.77-2.29l.04.03c-.3.02-.6.03-.9.05-.08.09-.16.18-.25.28,1.59,1.49,3.17,2.99,4.76,4.48Z"/>
      <path class="cls-1" d="m84.01,80.86c.51.19,1.03.38,1.54.57h1.32c.02-.11.05-.23.07-.34-1.46-.52-2.92-1.04-4.38-1.56-.05.09-.09.19-.14.28.53.35,1.05.7,1.58,1.05Z"/>
      <path class="cls-1" d="m104.52,77.75c.08,0,.15.01.22.02.78.06,1.56.13,2.34.19.02-.08.04-.15.06-.23-.9-.51-1.79-1.02-2.75-1.56-.17.47-.34.9-.5,1.34.21.08.41.16.62.25Z"/>
      <path class="cls-1" d="m100.78,78.28c.87,1.17,1.51.31,2.19-.25.12-.18.23-.37.34-.55-1.05-.37-1.96-.32-2.53.8Z"/>
      <path class="cls-1" d="m77.42,90.02h2.2c-.48.34-.68.49-.87.63.03.08.05.17.08.25.51-.1,1.01-.21,1.54-.31-.4-.48-.75-.88-1.1-1.29-.55-.12-1.1-.23-1.73-.37-.04.39-.08.74-.12,1.1Z"/>
      <path class="cls-1" d="m156.52,22.76c.24,1.85.48,3.7.72,5.56.03,0,.05,0,.08,0-.18-1.85-.37-3.69-.55-5.54-.08,0-.17,0-.25-.01Z"/>
      <path class="cls-1" d="m69.29,74.88s-.03-.11-.05-.12c-.9-.11-1.8-.22-2.42-.3.24.67.46,1.29.69,1.92.59-.5,1.18-1,1.77-1.5Z"/>
      <path class="cls-1" d="m11.69,78.35c.52.07,1.05.15,1.57.22-.08-.33-.16-.65-.28-1.17-1.26.26-2.47.51-3.68.76.02.12.05.24.07.37.77-.06,1.54-.12,2.32-.18Z"/>
      <path class="cls-1" d="m20.83,75.43c1.22.58,2.44,1.16,3.66,1.74.04-.08.08-.17.12-.25-1.21-.59-2.43-1.18-3.64-1.77-.05.09-.09.18-.14.27Z"/>
      <path class="cls-1" d="m134.77,32.05c-.07,1.63-.02,1.72,1.3,2.15-.18-.66-.33-1.2-.51-1.89.69-.39,1.4-.8,2.11-1.2.78-1.15,1.37-1.34,2.18-.29.11-.4.19-.74.29-1.08-1.09-.05-1.93.15-2.72,1.06-.57.66-1.69.83-2.64,1.25Z"/>
      <path class="cls-1" d="m121.19,74.31c.95.8,1.54,1.3,2.18,1.85.29-.06.84-.17,1.41-.28-.15-.94.06-1.16,1.51-1.22-.45-.39-.91-.77-1.36-1.16-.08.11-.16.23-.23.34.23.06.45.11.64.16-.94,2.39-2.55.86-4.13.3Z"/>
      <path class="cls-1" d="m129.29,24.91c-.41-.73-.76-1.35-1.18-2.1-.46.91-.94,1.88-1.51,3.02,1.09-.37,1.92-.65,2.69-.92Z"/>
      <path class="cls-1" d="m152.91,43c-.88-.11-1.92-.77-2.4.89,1.61-.47,2.95-.86,4.46-1.3-.36-.32-.78-.71-1.2-1.09-.27.48-.55.95-.86,1.5Z"/>
      <path class="cls-1" d="m130.78,21.1c-.22-.78-.41-1.44-.61-2.1-.11-.02-.22-.04-.34-.06-.39.9-1.79,1.23-1.25,2.81.3-1.55,1.25-.64,2.19-.65Z"/>
      <path class="cls-1" d="m134.21,45.66c.41-.49.82-.99,1.32-1.59.43.33.92.71,1.36,1.05-.15-.72-.52-1.39-.34-1.87.2-.55.88-.92,1.28-1.3-.1,0-.66-.17-.86.03-1.08,1.08-2.08,2.26-3.1,3.4.11.1.23.19.34.29Z"/>
      <path class="cls-1" d="m124.6,10.65c-.62.03-1.1.05-1.71.08.11.47.19.78.28,1.17,1.05-1.37,1.39.44,2.25.4v-2.59q-.33-.18-.83.96Z"/>
      <path class="cls-1" d="m133.28,25.81c-.24.45-.44.81-.72,1.34,1.9-1.16.33-1.94-.24-2.86.45-.16.75-.27,1.06-.38-.04-.09-.08-.18-.13-.26-.38.19-.86.28-1.12.58-.52.6-1.7.99-.84,2.26.5-.67.72-2.24,1.98-.67Z"/>
      <path class="cls-1" d="m138.33,36.07c.57-1.58,1.47-1.53,2.82-.38-.38-.67-.55-.99-.78-1.39.77-.5,1.56-1.01,2.36-1.52-.3.02-.82-.08-1.19.11-.86.44-1.7.96-2.46,1.56-.42.33-.66.88-.98,1.32.08.1.16.2.24.3Z"/>
      <path class="cls-1" d="m126.55,17.22c.36-.39.57-.63.79-.86.17-.17.36-.32.54-.48-.2-.18-.51-.55-.59-.51-.84.44-1.64.95-2.35,1.68.74-.35,1.34-.59,1.61.16Z"/>
      <path class="cls-1" d="m139.65,45.51c1.71-.28,2.4.3,2.7,2.22.23-.31.41-.54.63-.85.42.41.92,1.25,1.27-.07-1.89.51-2.14-1.54-3.38-2.15-.37.26-.74.52-1.22.85Z"/>
      <path class="cls-1" d="m147.99,49.76c-1.07-.86-1.13.66-1.84.79-.4-.49-.82-1-1.26-1.54-.26.4-.55.84-.89,1.35.53-.12,1.03-.4,1.27-.25.28.17.32.72.45,1.07.51-.1,1.02-.2,1.54-.3-.51-.76-.19-1.14.75-1.15l-.03.03Z"/>
      <path class="cls-1" d="m149.14,20.93c.96.26,1.92.52,3.02.82.06.15.22.52.37.9.09,0,.17-.02.26-.02-.04-.33.04-.75-.13-.97-.92-1.21-2.3-.65-3.52-.72Z"/>
      <path class="cls-1" d="m147.01,43.27c.33-.19.64-.38,1.1-.65-.76-.69-1.39-1.37-2.13-1.89-.27-.19-.8,0-1.2.02.03.12.02.28.1.34.12.11.3.24.44.22,1.5-.22,2.1.45,1.7,1.96Z"/>
      <path class="cls-1" d="m118.75,72.17c.91-.19,1.5-.48,1.98-.35.36.09.58.73.94,1.23.04-.22.24-.62.11-.83-.49-.81-1.2-1.35-2.2-.94-.32.14-.53.55-.82.88Z"/>
      <path class="cls-1" d="m117.03,34.56c0-.82.07-1.64,0-2.46-.06-.73-.27-1.44-.41-2.17-.11,0-.22,0-.34,0,0,.41-.18.99.03,1.21.92.99.73,1.9-.06,2.81.32.22.56.4.8.58,0,0-.03.03-.03.03Z"/>
      <path class="cls-1" d="m137.75,26.89s.27-.2.48-.36c-1.06-.3-2.16-.62-3.27-.94-.04.09-.08.18-.12.27.2.1.4.2.65.32-.14.34-.28.67-.46,1.11.49-.32.85-.7,1.26-.77.38-.07.82.19,1.46.36Z"/>
      <path class="cls-1" d="m119.15,32.67c.32-1.39.65-2.78.97-4.17-.19.13-.79.33-.84.62-.19,1.18-.22,2.39-.3,3.59.06-.02.11-.03.17-.05Z"/>
      <path class="cls-1" d="m142.44,27.78c-.06-.18-.19-.62-.32-1.03-2.19.19-2.73.73-2.61,2.08.4-.42.9-1.12,1.57-1.55.25-.16.9.32,1.36.5Z"/>
      <path class="cls-1" d="m121.52,27.61c.61-.98,1.28-2.04,1.85-2.95-1.09-.13-2.28,1.55-1.85,2.95Z"/>
      <path class="cls-1" d="m138.98,57.03c.41-.06.7-.11,1.19-.18-.36-.46-.59-.92-.97-1.2-.52-.39-1.06-1.06-1.97-.36,1.2.04,1.79.66,1.75,1.74Z"/>
      <path class="cls-1" d="m127.61,12.29c.16-.18.32-.36.48-.53.05.02.09.05.14.07-.13.32-.26.64-.39.97.64-.83,1.34-.72,2.1-.13.06-.15.12-.29.18-.44-.66-.29-1.29-.65-1.98-.84-.22-.06-.56.36-.84.56.11.11.21.22.31.33Z"/>
      <path class="cls-1" d="m142.71,13.45c-.07-1.69-1.68-2.73-3.17-2.3.35.17.73.36,1.41.7.92-.59,1.31.36,1.75,1.6Z"/>
      <path class="cls-1" d="m141.92,5.43c-.14.57-.24.98-.37,1.51.75-.07,1.43-.14,2.48-.24-.81-.48-1.37-.82-2.1-1.26Z"/>
      <path class="cls-1" d="m135.25,60.08c1.07-.09,1.68-.13,2.28-.18.06-.08.11-.16.17-.24-.47-.27-.93-.72-1.43-.76-.27-.02-.59.65-1.03,1.18Z"/>
      <path class="cls-1" d="m139.19,40.33c-.26-.3-.47-.67-.78-.88-.32-.21-.74-.25-1.11-.37-.05.23-.17.64-.13.66.37.15.21,1.13,1.02.64.18-.11.56.11.85.17.05-.07.11-.15.16-.22Z"/>
      <path class="cls-1" d="m117.3,23.32c-.47.61-.95,1.22-1.55,2q1.04.14,1.85-1.7c-.1-.1-.2-.2-.3-.3Z"/>
      <path class="cls-1" d="m120.33,67.71c.33-1.23-.19-1.61-2.29-1.33.8.46,1.52.88,2.29,1.33Z"/>
      <path class="cls-1" d="m137.68,51.57c.26-.55.53-1.1.86-1.78.45.29.87.55,1.28.81.05-.1.1-.21.15-.31-.58-.24-1.33-.82-1.69-.64-.52.27-.74,1.09-1.09,1.68.17.08.33.15.5.23Z"/>
      <path class="cls-1" d="m148.61,45.11c-.41-.27-.8-.68-1.25-.79-.68-.17-1.45-.23-1.84.66.95.58,2.15-1.23,2.86.54.08-.14.15-.28.23-.42Z"/>
      <path class="cls-1" d="m127.01,29.04c.87-.46.7-2.72,2.64-1.35-.02-.17-.04-.34-.06-.51-.56-.06-1.27-.36-1.64-.12-.59.37-.94,1.1-1.4,1.68.15.1.3.2.46.3Z"/>
      <path class="cls-1" d="m135.87,3.03c.6-.15,1.31-.34,2.2-.56,0,0,.11-.31.22-.62-1.61-.24-2.22.13-2.42,1.18Z"/>
      <path class="cls-1" d="m150.03,31.08c.04-.31.22-.83.1-.92-.61-.43-1.3-.75-2.04-.89.59.55,1.19,1.1,1.95,1.81Z"/>
      <path class="cls-1" d="m153.59,48.6c-.09-1.04-.91-.92-1.51-.79-.38.08-.66.6-.94.89.96-.05,1.72-.1,2.47-.13,0,0-.02.04-.02.04Z"/>
      <path class="cls-1" d="m133.22,3.93c.92.24,1.6.41,2.29.59-.19-.71-.69-1.23-1.61-1.12-.3.04-.56.43-.68.53Z"/>
      <path class="cls-1" d="m115.45,52.51c-.3-.43-.53-1.14-.91-1.23-.47-.11-1.07.28-1.71.48.59.41.93.64,1.32.9.05-.26.12-.6.26-1.31.38.63.59.98.81,1.33.08-.06.16-.11.24-.17Z"/>
      <path class="cls-1" d="m141.48,47.69c-.53.06-.94.1-1.33.15q-.46-1.63-1.28-1.43c.35.72.71,1.48,1.09,2.28.51-.33.95-.62,1.52-1Z"/>
      <path class="cls-1" d="m142.12,65.65c.04.32.07.61.1.85.51-.22,1.05-.64,1.56-.62.52.03,1.02.49,1.43.71q-.27-1.01-3.08-.94Z"/>
      <path class="cls-1" d="m134.45,23.99q.63-1.59,1.78-.7c.07-.1.14-.2.21-.3-.42-.29-.83-.58-1.25-.87-.37.56-.74,1.12-1.11,1.68.12.06.25.12.37.19Z"/>
      <path class="cls-1" d="m128.84,58.27c-.75.77-2.38.58-2,2.61.4-1.03.49-2.45,1.75-1.04.09-.54.16-.99.25-1.57Z"/>
      <path class="cls-1" d="m144.59,33.19c.41-1.39,1.14-1.03,1.91-.45.04-.15.07-.3.11-.45-.63-.24-1.26-.53-1.91-.66-.08-.02-.33.79-.5,1.22.13.11.26.23.39.34Z"/>
      <path class="cls-1" d="m117.57,67.98c.45.39.8.69,1.15,1,.08-.08.16-.16.24-.24-.5-.46-1-.92-1.49-1.38-.12.05-.24.1-.37.15-.06.53-.11,1.06-.17,1.6l.37.07c.08-.32.15-.64.28-1.19Z"/>
      <path class="cls-1" d="m123.35,60.13c-.01-.14,0-.81-.09-.83-.6-.1-1.22-.05-1.83-.05-.02.17-.04.34-.07.52.27.04.55.08.82.13.31.06.62.12,1.17.23Z"/>
      <path class="cls-1" d="m135.09,49.12h.87c-.1-.34-.19-.65-.26-.87-1.57.66-1.14,1.98-1.03,3.2.14-.76.27-1.52.42-2.33Z"/>
      <path class="cls-1" d="m144.83,54.06c-.93-.42-1.92-1-1.96.83,0,.47-.65.93-1,1.4.09.06.18.13.26.19.46-.74.92-1.48,1.51-2.42h1.19Z"/>
      <path class="cls-1" d="m143.53,69.33c.81-.5,1.54-.95,2.27-1.4,0-.07,0-.13,0-.2-.64.24-1.32.42-1.9.75-.24.14-.28.62-.36.85Z"/>
      <path class="cls-1" d="m115.11,32.13c-.16.36-.3.73-.49,1.08-.14.27-.28.6-.52.76-.75.5-.77.47-.3,1.58v-1.36c1.62.14,1.12-1.2,1.31-2.05Z"/>
      <path class="cls-1" d="m145.96,14.71c.16-.64-.27-1.2-1.07-1.32-.37-.05-.8.39-1.1.54.82.29,1.49.53,2.17.78Z"/>
      <path class="cls-1" d="m126,72.1c-.28-1.14-.89-1.37-2.21-.52.82.19,1.53.36,2.21.52Z"/>
      <path class="cls-1" d="m148.01,49.73c.1.19.17.41.3.58.34.42.72.81,1.09,1.22.09-.26.29-.82.48-1.39-.58-.12-1.24-.25-1.91-.38l.03-.03Z"/>
      <path class="cls-1" d="m136.62,20.73c.18-.44.36-.88.54-1.32.13-.09.26-.17.39-.26.19.38.38.77.56,1.15.07-.03.15-.05.22-.08.03-.29.05-.58.08-.87q-1.87-.32-1.8,1.38Z"/>
      <path class="cls-1" d="m126.19,28.18c-.26-.45-.51-.9-.91-1.6-.28.37-.59.77-.89,1.18.07.12.15.23.22.35.62-.42,1.22-.74,1.59.08Z"/>
      <path class="cls-1" d="m135.72,66.25c-.69-.2-1.17-.35-2.01-.59.31-.09.43-.13.55-.16-.03-.03-.06-.07-.3-.34-.16.7-.27,1.23-.37,1.67.58-.16,1.16-.31,2.14-.57Z"/>
      <path class="cls-1" d="m143.69,44.79c.1-.71.23-1.57.37-2.48q-1.32,1.59-.37,2.48Z"/>
      <path class="cls-1" d="m49.48,59.22c.11-2.1.21-4.2.32-6.3-.14,0-.27-.02-.41-.03-.15,2.11-.3,4.22-.45,6.33.18,0,.36,0,.54,0Z"/>
      <path class="cls-1" d="m102.29,46.26c-2.18.24-4.61.51-7.18.8,2.09.62,5.76.11,7.18-.8Z"/>
      <path class="cls-1" d="m54.16,65.85c0,1.31-.23,2.67.05,3.92.69,3.11,1.03,6.17.39,9.33-.21,1.04-.13,2.14-.16,2.92,1.68-5.22.32-10.69-.27-16.17Z"/>
      <path class="cls-1" d="m62.55,69.37c.38-2.07.77-4.14,1.15-6.21-.15-.02-.3-.04-.45-.07-.23,2.09-.46,4.18-.69,6.28,0,0-.01-.01-.01-.01Z"/>
      <path class="cls-1" d="m116.75,38.75c1.78-.14,3.57-.29,5.35-.43-.02-.13-.04-.26-.05-.4-1.75.29-3.51.57-5.27.86,0,0-.03-.03-.03-.03Z"/>
      <path class="cls-1" d="m198.63,39.15c-2.31-.13-4.72-.26-7.14-.4,0,.11,0,.23,0,.34,2.42-.02,4.83,1.11,7.15.05Z"/>
      <path class="cls-1" d="m7.97,51.61c-1.41-.15-3.08-.34-4.64-.51.8,1.03,3.47,1.27,4.64.51Z"/>
      <path class="cls-1" d="m30.57,50.73h-3.94c1.03.88,2.35.88,3.94,0Z"/>
      <path class="cls-1" d="m4.42,50.56h5.1v-.26h-5.12c0,.09,0,.17.01.26Z"/>
      <path class="cls-1" d="m50.94,74.72c.36-2.7.06-5.44-.82-7,.29,2.43.58,4.92.82,7Z"/>
      <path class="cls-1" d="m50.88,36.31c-.4-.05-.8-.1-1.2-.14,0-.05,0-.1,0-.15h2.29c-2.29-1.12-11.04-.81-12.92.58.85-.15,1.37-.29,1.9-.33,2.27-.16,4.54-.33,6.81-.39.53-.01,1.06.51,1.62.64.47.11.99.02,1.5.02,0-.08,0-.15.01-.23Z"/>
      <path class="cls-1" d="m55.54,36.8h-12.43c4.2.26,8.4,1.43,12.43,0Z"/>
    </g>
  </g>
</svg>