<?xml version="1.0" encoding="UTF-8"?>
<svg id="Capa_2" data-name="Capa 2" xmlns="http://www.w3.org/2000/svg" viewBox="0 0 39.98 40">
  <defs>
    <style>
      .cls-1 {
        fill: #1b1b1b;
      }
    </style>
  </defs>
  <g id="Layer_1" data-name="Layer 1">
    <g>
      <path class="cls-1" d="m39.97,11.5C39.95,5.02,34.93.02,28.46,0c-5.65,0-11.29,0-16.94,0C5.02.02,0,5.05,0,11.54c0,5.66,0,11.33,0,16.99,0,6.39,5.04,11.45,11.44,11.47,5.69.01,11.39,0,17.08,0,.58,0,1.17-.04,1.74-.13,5.72-.93,9.69-5.57,9.71-11.37.01-2.83,0-5.66,0-8.49,0-2.83.01-5.66,0-8.49Zm-3.43,16.96c0,4.61-3.48,8.09-8.1,8.09-2.83,0-5.66,0-8.49,0-2.82,0-5.63,0-8.45,0-4.58,0-8.07-3.5-8.08-8.07,0-5.65,0-11.29,0-16.94,0-4.6,3.49-8.09,8.1-8.09,5.65,0,11.29,0,16.94,0,4.58,0,8.07,3.5,8.07,8.07,0,5.65,0,11.29,0,16.94Z"/>
      <path class="cls-1" d="m20.04,9.77c-5.6-.05-10.25,4.52-10.29,10.13-.04,5.67,4.51,10.3,10.19,10.33,5.62.04,10.25-4.52,10.28-10.13.04-5.69-4.48-10.28-10.18-10.33Zm-.08,17.04c-3.74,0-6.77-3.05-6.77-6.8,0-3.76,3.04-6.81,6.8-6.81,3.74,0,6.8,3.04,6.8,6.77,0,3.78-3.05,6.84-6.84,6.84Z"/>
      <path class="cls-1" d="m30.65,6.71c-1.36,0-2.45,1.11-2.45,2.48,0,1.37,1.09,2.45,2.47,2.45,1.36,0,2.46-1.11,2.45-2.47,0-1.36-1.12-2.46-2.47-2.46Z"/>
    </g>
  </g>
</svg>