<?xml version="1.0" encoding="UTF-8"?>
<svg id="Capa_2" data-name="Capa 2" xmlns="http://www.w3.org/2000/svg" xmlns:xlink="http://www.w3.org/1999/xlink" viewBox="0 0 387.32 485">
  <defs>
    <style>
      .cls-1 {
        clip-path: url(#clippath);
      }

      .cls-2 {
        fill: none;
      }
    </style>
    <clipPath id="clippath">
      <rect class="cls-2" x="143.32" width="244" height="485"/>
    </clipPath>
  </defs>
  <g id="Layer_1" data-name="Layer 1">
    <g class="cls-1">
      <path d="m295.97,350.63c4.66-.01,8.64-.02,13.01-.04-.23,21.99-11.65,37-29.29,49.34,2.19.03,3.48.08,4.77.05,1.32-.04,2.63-.16,5.04-.32-.46,3.2-.55,6.12-1.33,8.84-4.53,15.84-25.15,32.23-41.55,31.75-8.4-.25-16.78-2.86-25.06-4.87-23.26-5.64-46.71-8.52-70.44-3.93-8.28,1.6-16.12-.39-24.16-.58-3.74-.09-7.49-.55-11.21-1.07-8.3-1.17-16.18-2.56-23.02-8.7-11.3-10.16-24.73-16.9-39.64-20.45-23.62-5.63-34.92-22.7-40.92-44.52-.53-1.92-.06-4.12-.05-6.35-8.05-9.17-13.42-19.85-11.83-32.97.77-6.3,1.79-6.83,9.06-6.91-.81-2.7-.96-5.56-2.36-7.54-7.37-10.45-5.98-21.56-2.95-32.83.89-3.29,2.51-6.25,6.79-5.82,5.11.51,9.02-1.43,11.33-5.23-3.48-5.02-7.93-9.58-10.12-15.04-3.04-7.56-1.51-15.35,3.27-22.22,2.57-3.69,5.34-7.26,7.66-11.1,2.29-3.78,4.12-7.84,6.44-12.34,1.33.43,3.36.85,5.17,1.72,3.13,1.5,4.47-.06,5.28-2.72.34-1.14.6-2.36.62-3.54.19-14.61,8.45-24.74,18.53-33.97,1.98-1.81,3.57-4.24,4.79-6.66,2.93-5.84,5.04-12.13,8.4-17.69,4.35-7.2,7.42-7.36,14.4-1.8.93-6.59,3.74-11.75,10.15-14.06,5.91-2.14,11.86-3.54,17.75.65,1-2.41,1.77-4.78,2.92-6.96,4.17-7.95,10.74-11.3,19.59-10.54,1.65.14,3.71-.52,5.05-1.53,7.92-5.98,16.59-9.55,26.65-9.1,5.07.23,7.45,2.53,8.48,7.59.91,4.48,2.01,8.93,3.04,13.41,5.2-.76,7.08-4.31,8.32-7.66,2.65-7.1,8.13-10.86,14.45-13.91,1.75-.85,3.51-1.71,5.33-2.41,11.95-4.62,14.13-3.95,21.74,6.32,1.96,2.65,4.03,5.21,6.64,8.57,5.92-4.98,11.74-9.97,17.71-14.78.9-.72,2.8-1.25,3.68-.79,10.89,5.74,19.34,14.07,25.24,24.87.69,1.27.64,3.17.41,4.69-.45,2.95-1.27,5.84-2,9,11.6-3.12,17.76,4.62,23.82,11.98,5.03,6.11,7.95,13.34,9.41,21.17.69,3.67.64,6.73-3.23,8.64-.98.48-1.67,1.56-2.54,2.42,14.26,3.76,15.83,16.61,20.42,27.19.35.81.39,1.75.6,2.63,1.42,5.81,2.59,11.55-4.14,15.18,4.52,2.76,8.77,4.95,12.55,7.76,5.32,3.95,5.81,5.77,3.33,11.84-2.48,6.08-5.12,12.13-8.25,17.88-1.93,3.54-.77,5.53,1.88,7.54.12.09.24.19.35.28,6.87,5.74,6.58,5.6,2.48,13.93-1.98,4.02-3.54,8.65-3.69,13.06-.24,7.05-3.61,11.47-9.13,14.94-1.38.87-2.74,1.79-4,2.83-2.58,2.15-2.82,4.32-.7,7.25,4.26,5.88,4.14,6.5-2.28,9.58-7.66,3.68-11.1,11.17-16.14,17.18-2.54,3.04-4.13,6.86-6.49,10.9Zm-52.14-23.05c.78.77,1.56,1.55,2.35,2.32,2.19,2.63,4.37,5.26,6.56,7.89-2.25,3.58-4.5,7.15-6.76,10.73.41.56.82,1.12,1.23,1.68,2.35-.95,4.7-1.89,7.05-2.84,1.19-.02,2.4.08,3.58-.08,2.59-.36,5.22-1.42,7.73-1.15,4.92.53,9.79,1.66,14.65,2.73,6.98,1.53,11.11.03,14.54-4.83-4.8-.58-10.36-.52-15.41-2.07-5.45-1.68-10.42-4.88-15.6-7.41-1.89-1.26-3.77-2.51-5.66-3.77-2.1-2.98-4.2-5.96-6.3-8.94-.37-.67-.75-1.33-1.2-2.15-1.63,2.08-3.04,3.86-4.44,5.64.83-1.72,1.42-3.62,2.55-5.12,1.64-2.17.82-3.1-1.3-3.78-1.01-.9-2.02-1.8-3.03-2.7-1.28-.91-2.47-2.35-3.86-2.59-2.02-.36-4.54-.44-6.16.52-.93.55-.97,3.51-.55,5.17.39,1.57,1.9,2.86,2.98,4.36,1.47-2.49,2.79-4.73,4.12-6.98-.53,2.18-1.71,4.09-2.36,6.16-.29.92.5,2.17.8,3.27.72.82,1.44,1.63,2.16,2.45.79.5,1.57,1,2.36,1.51Zm-204.15-8.94c-.64-1.08-1.13-2.96-1.95-3.12-3.51-.67-7.62,5.43-6.61,8.92,2.05-1.41,4.2-2.9,6.36-4.38-1.11,1.7-2.44,3.31-3.24,5.14-.51,1.18-.24,2.7-.31,4.06.69.14,1.38.27,2.08.41,1.23-3.68,2.45-7.35,3.68-11.03Zm-11.2-4.12c-.4,2.14-4.95,3.84-.79,6.6,1.89-2.52,3.69-4.92,5.49-7.32-.2-.34-.39-.67-.59-1.01-1.43.62-2.85,1.24-4.28,1.86-.35-.8-.63-2.25-1.05-2.3-3.62-.37-7.27-.47-11.95-.71,3.45,2.47,6.22,4.46,8.8,6.31,1.54-1.2,2.95-2.31,4.37-3.42Zm223.07,84.73c1.5-1.03,3.12-1.91,4.46-3.12,2.26-2.04,4.34-4.28,6.5-6.44-1.96,2.46-3.92,4.92-6.7,8.4,5.69-1.37,10.04-2.42,14.39-3.47-.4.77-.79,1.53-1.19,2.3.45.57.9,1.15,1.35,1.73,2.57-2.04,5.14-4.09,7.71-6.13-.12-.28-.25-.55-.37-.83-1.38.29-2.77.58-4.15.87-.05-.53.11-1.33-.18-1.56-2.45-1.96-4.97-3.82-7.48-5.7-.75-1.68-1.27-3.79-3.85-2.1.22-.96.44-1.93.66-2.89-.35-.11-.7-.21-1.05-.32-4.52,6.63-9.05,13.27-14.09,20.67,2.07-.73,3.04-1.07,4-1.41Zm-208.22-95.74c-.81,2.2-1.63,4.41-2.5,6.79,1.17.93,2.29,1.82,3.56,2.82.92-2.44,1.73-4.59,2.56-6.8-1.4-1-2.6-1.85-3.79-2.71-2.51-3.29-6.31-5.73-6.12-10.37-1.72,2.69-3.25,5.09-4.78,7.49,4.23-10.64,4.27-17.39-.13-23.05-.93,5.12-1.81,9.93-2.68,14.74.43.08.87.17,1.3.25.34-.68.69-1.35.53-1.03.27,2.53.63,5.81.99,9.09,1.37,1.92,2.74,3.85,4.26,5.97.6-1.22.96-1.95,1.27-2.58.31,1.75.61,3.44.94,5.36,1.89-2.46,3.25-4.21,4.59-5.96Zm160.59,57.4c.23.53.46,1.07.69,1.6,1.43-1.05,2.86-2.11,4.11-3.03-.01.3-.06,1.26-.17,3.62,2.29-2.53,3.79-4.18,5.6-6.18-2.61-.6-4.6-1.05-6.72-1.54-.67.9-1.37,1.82-2.07,2.75.29-1.25.57-2.49.81-3.51-3.06-1.48-5.64-2.72-8.66-4.18-1.6,4.96-3.14,9.72-4.68,14.48.4.32.8.64,1.2.96,3.29-1.66,6.58-3.31,9.88-4.97Zm14.08-241.54c.01-1.27.02-2.55.03-3.82,5.98-3,11.96-5.99,18.43-9.23-3.23-3.98-6.67-9.05-10.99-13.22-2.25-2.17-6.2-4.09-9.1-3.75-7.76.92-14.65,4.64-21.61,9.82,4,4.52,7.7,8.71,10.96,12.39-4.51,7.41-10.65,13.88-8.82,23.86,2.17-1.44,4.2-2.42,5.74-3.9,2.42-2.32,4.13-6.17,6.89-7.06,1.88-.61,2.15-1.18,3.02-2.46,1.57-2.32,3.62-4.32,5.48-6.46-1.52,3.17-6.37,4.72-4.28,10.36,1.65-2.52,3.01-4.6,4.37-6.68-.52,1.52-1.03,3.04-1.54,4.54l3.37.77c.52-1.33.96-2.47,1.83-4.69-.22,2.27-.32,3.37-.43,4.53,11.31-1.53,16.03-6.44,13.79-14.4-6.3,2.07-13.81,1.73-17.13,9.39Zm36.12-12.52c-.16-3.32-.33-6.64-.53-10.63-3.24,3.64-5.71,6.41-8.18,9.18-1.66,1.87-3.35,3.72-4.94,5.64-.06.07.76.85,1.16,1.31-1.1,2.41-2.21,4.82-3.31,7.23.38.37.75.74,1.13,1.11,3.21-1.41,7.35-4.82,9.46-3.84,5.25,2.42,5.08-2.92,7.78-4.12-.6,1.61-1.1,2.96-1.45,3.89,2.19,1.76,4.09,3.28,6.79,5.44-1.29-6.52-3.44-11.45-7.93-15.21Zm-99.05,188.54c-.73-.71-1.43-1.47-2.21-2.12-6.2-5.18-12.61-10.13-18.55-15.59-3.4-3.14-6.04-7.1-9.39-11.14,3.19,11.48,16.88,27.09,21.41,24.82-.84,2.92,3.97,7.58,7.68,7.41-.12.71-.56,1.89-.31,2.06,5.67,3.91,11.42,7.71,17.06,11.47,1.86-3.01,3.14-5.09,4.43-7.17-.79,2.21-1.58,4.42-2.36,6.62,5.87,2.94,11.03,1.99,15.58-3.62-.89,2.2-1.35,3.35-1.82,4.5,25.16,3.44,44-10.19,44.5-31.76-7.89,5.4-15.69,11.46-24.19,16.29-5.87,3.34-12.5,5.22-14.65,12.68-.16.55-.91.93-1.39,1.39-.15-.1-.29-.19-.44-.29,1.62-2.9,3.24-5.81,4.91-8.79-6.38.17-12.41.33-18.64.49-.41.65-1.03,1.63-1.66,2.61.19-1.08.38-2.17.5-2.82-7.11-2.45-13.78-4.74-20.45-7.04Zm139.35-62.65c-1.69-3.93-6.12-5.17-9.11-2.08-3.48,3.6-4.22,4.2,2.82,9,2.07,3.57,4.15,7.14,6.36,10.95,1.56-2.63,2.81-4.73,4.06-6.83-.22,1.41-.48,2.87-1.3,3.85-3.1,3.67-.7,5.54,2.14,7.38,2,1.3,4.42,1.04,6.64,2.39,3.78,2.31,7.71,1.17,10.25-2.93.25.46.59,1.34.74,1.31,3.1-.64,6.18-1.38,9.26-2.11,1.09-.26,2.17-.54,3.25-.82-.08-.38-.17-.76-.25-1.14-3.13.44-6.65,1.95-9.29,1.01-2.87-1.02-2.73.96-3.82,1.83.94-1.58,1.06-2.67-1.26-3.11-1.89-.36-3.84-.92-5.52-1.84-6.95-3.84-10.57-10.71-14.97-16.87Zm-184.22,88.71c-1.4-.7-2.81-1.39-4.21-2.09-8.43-6.48-14.05-15.14-18.91-24.4-1.19-2.26-2.43-4.5-3.45-6.38-1.73,3.1-3.25,5.82-4.78,8.55.9-2.84,2-5.63,2.63-8.53.32-1.46-.22-3.1-.37-4.66-2.64,4.32-5.77,8.41-2.15,13.14,1.51,6.65,1.71,13.22-1.3,19.58.81-1.34,1.61-2.68,2.41-4.02.19.09.37.19.56.29-1.15,3.75-2.31,7.5-3.46,11.25.46.12.91.25,1.37.37,1.49-2.88,2.92-5.8,4.49-8.65,1.55-2.81,3.23-5.55,4.85-8.32-1.64,5.02-3.97,9.64-6.34,14.24-3.2,6.21-2.81,7.65,3.16,11.62,1.41-2.15,2.82-4.3,4.23-6.45-.13,1.91-.79,3.54-1.7,5.01-2.18,3.54-.51,4.43,2.81,4.31h-.05c-.14.04-.29.07-.41.15-.09.06-.2.26-.18.29,2.03,2.44,3.42,1.03,4.72-.81,2.77-3.91,5.54-7.81,8.31-11.72-1.64,3.12-3.28,6.25-5.23,9.94,2.41-.86,4.22-1.51,6.04-2.17,6.15,2.02,7.3-3.97,10.7-6.51-1,1.83-2,3.65-3.47,6.35,7.83-2.71,16.07.22,21.95-6.16-.86,1.18-1.71,2.35-3.15,4.32,6.48-1.18,7.09-7.05,11.18-9.45-1.91,2.9-3.81,5.79-5.91,8.98,5.96.79,5.59-5.96,9.77-7.46-1.66,2.68-3.21,5.19-4.96,8.02,8.09-.83,11.03-5.85,7.85-12.63-3.02.46-6.1.99-9.19,1.39-6.84.87-13.68,1.74-20.54,2.47-2.41.26-4.86.09-7.3.12Zm-54.29-134.56c-4.37.46-5.54,3.42-4.59,6.98.77,2.88,2.6,5.47,4.01,8.28.57-3.91,1.08-7.42,1.58-10.92,2.4,5.78,2.08,12.96,9.08,16.62,3.87-6.65,8.68-12.75,17.86-14.07-2.39-4.12-4.41-7.58-6.4-11.06-1.09-1.9-2.32-2.8-4.72-1.87-5.55,2.16-11.2,4.04-16.81,6.04Zm175.28-12.36c.43-2.2,1.19-4.4,1.22-6.61.04-3.67.93-8.29-.89-10.85-5.62-7.94-12.35-15.09-18.86-22.79q-2.62,8.82-.12,10.67c.48-1.36.94-2.67,1.35-3.82.17,1.9-.4,4.49.64,5.63,3.89,4.3,8.29,8.13,12.54,12.17.26-.52.64-1.26.95-1.89.29,4.71.45,9.5.99,14.25.13,1.12,1.54,2.1,2.36,3.14.44,1,.88,2,1.32,3,1.3-.89,3.37-1.53,3.75-2.72.87-2.68.91-5.62,1.28-8.45.22.03.43.07.65.1-.44,3.41-.89,6.83-1.33,10.24.45.12.89.24,1.34.37.89-3.9,1.79-7.8,2.68-11.7.43.1.85.21,1.27.31-.78,3.42-1.57,6.83-2.36,10.3,11.51.52,28-13.03,27.07-26.81-5.68,2.2-11.23,4.96-17.11,6.48-9.15,2.37-14.02,8.37-16.75,16.85-.27.83-1.29,1.42-1.98,2.14Zm-86.74-22.34c.5-.95.99-1.89,1.49-2.83,1.44,2.56,2.97,1.41,4.51.11h-.07c.5-.41.99-.81,1.48-1.2h.01c1.45-.9,2.9-1.8,4.35-2.7l-.1.05c3.13-2.85,7.16-5.05,6.62-10.35-.16-1.53.47-3.14.73-4.72.24.05.49.1.73.15-.1,2.39-.19,4.77-.29,7.16.22.03.45.06.67.09.42-1.82.84-3.64,1.25-5.46.14.03.29.06.43.1-.13,1.52-.25,3.04-.45,5.46,1.35-1.26,1.94-2.29,2.63-2.36,2.15-.23,4.72.6,6.38-.32,1.34-.75,2.02-3.39,2.22-5.28.2-1.85-.66-3.79-.89-5.71-.41-3.57-2.62-4.95-5.92-5.54-13.94-2.45-29.09,10.06-28.84,24.32.05,3.03,1.97,6.03,3.04,9.04Zm-52.59,77.91c-3.31-4.99-6.61-9.98-10.64-16.06-.09,3.95-.15,7.01-.22,10.07.4,0,.79,0,1.19,0,.45-.5.89-.99,1.08-1.2.14,2.06.27,4.18.47,7.25,1.44-1.55,1.94-2.08,1.91-2.05.44,2.5.92,5.21,1.56,8.89,2.06-3.06,3.35-5,4.65-6.93-3.41,5.03-2.98,9.62.88,14.42,2.21,2.74,5.74,5.11,4.39,9.89,1.14-.81,1.64-1.17,2.91-2.07-1.56,2.63-2.58,4.34-3.59,6.05.24.36.48.72.73,1.08,1.58-.71,3.15-1.43,4.53-2.05-.03.46-.08,1.4-.16,2.73,4.7-1.67,11.09,2.7,13.44-4.9.02.82.04,1.64.07,3.07,3.12-5.18,5.92-9.83,8.72-14.48.17.08.35.17.52.25-1,1.98-2,3.96-3,5.94.23.2.47.41.7.61,1.86-1.6,3.72-3.2,5.39-4.64.02.34.06,1.04.1,1.63,5.5-2.4,10.92-4.76,17.51-7.63-10.66-2.19-19.72-.72-28.59,1.28-11.16,2.52-19.33-2.78-24.55-11.15Zm144.79,29.05c-2.22-3.82-4.44-7.65-6.71-11.57-6.62,7.63-6.64,15.36-.53,19.55,2.49-2.71,4.96-5.4,7.43-8.09-1.89,3.14-3.78,6.28-5.9,9.78,5.76,2.57,5.94,6.55,4.7,11.84-1.18,5.01-1.97,10.49,1.05,16,3.73-5.14,7.17-9.87,10.61-14.61.23.17.47.34.7.52-3.23,4.79-6.46,9.58-9.7,14.38.41.31.83.61,1.24.92,2.34-3.1,4.68-6.2,7.02-9.3.18.13.37.25.56.38-1.74,2.76-3.48,5.53-5.22,8.29,7.77-2.24,10.69-9.65,16.33-14.27-3.08,4.14-6.17,8.27-9.99,13.4,8.52-3.89,11.89-11,17.1-16.48-2.46,3.87-4.91,7.75-7.65,12.06,7.21-3.06,10.2-8.68,12.07-14.58-4.92-1.7-9.89-2.88-14.34-5.1-4.61-2.29-8.72-5.58-13.05-8.44-.78.99-1.57,2-2.86,3.64,2.2-5.33,1.62-6.73-2.86-8.33Zm-83.13-61.54c-.79-2.29-1.57-4.57-2.36-6.86-.52-.03-1.04-.06-1.56-.1-1.75,6.23-3.7,12.41-5.15,18.7-.72,3.12,1.42,5.53,4.02,5.52-.44,3.58.4,6.67,3.49,9.05.49-1.49.94-2.88,1.39-4.26-2.79,6.92,2.77,9.26,6.92,13.16,1.09-4.77,2.05-8.94,3.01-13.12-.24,4.08-2.45,8.3-1.65,11.85.7,3.1,4.78,5.45,8.16,8.95,1.31-5.7,2.25-9.79,3.18-13.88.2,2.05-.25,3.93-.67,5.83-1.76,8.03-1.79,8.1,5.75,11.54.96.44,2.42-.22,3.12-.3,1.37.75,2.82,1.55,4.57,2.5.8-4.68,1.44-8.45,2.08-12.23.12.02.23.04.35.06-.38,3.97-.76,7.94-1.14,11.85,4.49,1.44,8.73,2.76,12.94,4.16,8.08,2.69,17.92-2.34,19.69-10.69.96-4.5.6-9.28.84-13.89-5.83,2.04-10.75,4.77-15.91,5.37-17.34,2-31.26-4.65-41.57-18.64-3.44-4.66-6.35-9.7-9.51-14.57Zm-28.53,58.55c1.83,2.36,3.3,4.24,4.75,6.14,7.67,9.99,15.34,20.1,26.2,26.87,16.37,10.22,33.71,13.58,51.38,3.72,9.35-5.21,17.87-11.91,27.22-18.25-1.51-1.67-2.4-3.08-3.66-3.98-10.76-7.71-22.36-13.77-34.95-17.98-14.01-4.69-28.54-4.5-43.01-5.62-10.8-.83-19.12,3.37-27.94,9.1Zm28.23,57.88c-1.52-2.69-2.73-5.64-4.62-8.06-6.28-8.02-12.34-16.29-19.33-23.66-16.6-17.51-37.11-23.53-60.92-19.23,3.64,4.02,7.6,7.51,10.47,11.73,6.05,8.93,11.75,18.11,17.2,27.42,7.52,12.85,18.42,17.65,32.96,15.17,7.79-1.33,15.65-2.2,24.25-3.38Zm20.89,72.06c7.08,8.8,16.43,14.56,26.41,19.51,9.39,4.66,18.94,4.93,27.97-.25,7.24-4.16,13.88-9.38,20.68-14.28,1.4-1.01,2.62-2.55,3.36-4.12.5-1.05.53-3-.13-3.8-5.77-7.01-12.37-12.89-21.17-16.06-17.46-6.28-44.61,1.35-57.11,19Zm-8.63,30.28c-22.98-29.92-55.93-36.36-89.19-43.3,6.63,22.52,16.41,38.53,38.95,45.81,16.77,5.41,33.14,4.34,50.23-2.52Zm-65.46-79.26c2.44,3.34,4.69,6.33,6.84,9.39,4.65,6.62,9.03,13.45,13.96,19.87,3.82,4.97,9.1,8.13,15.61,7.05,7.63-1.27,15.31-2.7,22.65-5.06,8.36-2.68,16.61-5,25.48-3.98,1.21.14,2.45-.06,4.2-.12-8.94-13.65-20.51-22.92-35.4-27.86-17.77-5.9-35.46-3.02-53.35.71Zm221.44-18.72c-7.57-11.14-14.79-21.73-26.24-28.49-9.52-5.61-16.35-4.61-24.31,2.76-3.31,3.07-7.48,5.26-11.37,7.67-3.35,2.08-6.85,3.9-10.29,5.85,3.56,4.52,6.76,8.1,9.42,12.05,5.8,8.61,13.42,14.71,23.11,18.46,8.21,3.18,14.3,2.07,20.29-4.51,5.36-5.89,10.57-11.92,19.39-13.78Zm-151.13,2.04c3.37,2.94,6.14,5.34,8.9,7.77,6.29,5.53,12.26,11.49,18.92,16.54,16.61,12.6,33.61,9.05,48.59-2.68,2.05-1.61,3.54-3.77.44-5.78-8-5.21-15.64-11.24-24.23-15.2-17.08-7.87-34.68-3.76-52.62-.64Zm63.52-75.36c7.52,12.83,17.32,21.73,28.27,25.8,10.05,3.74,21.78.14,27.85-8.62.57-.82.99-1.9,1.07-2.89.65-8.38-1.1-15.8-8.49-20.96-6.25-4.36-13.16-6.41-20.74-6.05-10.9.51-19.54,6.04-27.95,12.72Zm50.2-50.23c-.73,1-1.65,2.28-2.58,3.55-2.39,3.24-4.46,6.8-7.26,9.64-3.6,3.65-5.22,7.5-3.81,12.51.23.82.18,1.73.25,2.59-1.77-1.79-2.54-3.95-3.83-5.71-1.44-1.97-3.17-4.83-5.12-5.14-13.17-2.13-24.78-7.61-35.67-15.03-.89-.61-2.36-.36-3.69-.53-.02.2.22-.49.04-.64-3.9-3.07-7.58-6.56-11.88-8.93-2.72-1.5-7.67,2.54-7.13,5.18,1.08,5.24,3.72,9.45,8.62,12.57.26-2.56.48-4.72.8-7.87,1.52,4.54-1.71,8.66,2.25,11.83,3.05,2.45,5.75,5.32,8.72,8.12.39-.97.74-1.83,1.45-3.6-.09,4.93-1.88,9.21,2.3,12.77.61-5.95,1.18-11.51,1.76-17.07.5,5.12.09,10.15-.43,15.17-.29,2.78.33,4.19,3.32,5.68,8.16,4.04,15.5-.38,23.26-.42-.36-4.04-.65-7.37-.95-10.71.23-.03.45-.06.68-.09.54,3.4,1.09,6.81,1.6,10.01,3.26-.24,6.08-.54,8.91-.64,7.47-.29,14.69-1.43,20.71-6.3,2.12-1.72,3.11-3.55,2.03-6.93-2.03-6.33-2.9-13.03-4.34-19.99Zm-202.75,4.23c1.17,3.23,2.34,6.47,3.52,9.69,3.34,9.07,7.44,17.75,14.27,24.77,5.56,5.72,10.6,7.06,16.54,3.84,9.64-5.24,19.69-7.75,30.72-6.14-4.98-16.45-42.03-40.2-65.05-32.16Zm6.53,47.14c-6.88-14-14.98-26.54-26.01-36.96-1.94-1.83-4.75-3.31-7.36-3.76-7.84-1.35-15.79-2.12-23.78-3.13-.11,14.67,3.68,28.72,11.81,41.43,15.43-5.96,30.15-3.16,45.33,2.42Zm67.86-57.19c4.1,6.7,7.81,13.18,11.92,19.39,6.28,9.48,15.84,14.72,26.32,17.64,9.65,2.7,18.6.29,25.16-8.14-11.11-19.93-44.75-37.04-63.4-28.89ZM18.14,356.97c-.29.47-.58.94-.87,1.41,4.12,14.5,10.98,27.87,25.08,34.5,12.11,5.7,25.6,8.46,39.7,12.9-1.85-2.77-3.03-4.59-4.27-6.37-4.52-6.53-8.66-13.37-13.7-19.47-4.11-4.98-8.56-10.74-14.15-13.2-10.08-4.43-21.14-6.64-31.79-9.78Zm288.7-3.96c-1.26-.11-1.86-.28-2.41-.19-10.01,1.64-19.77.65-29.76-1.15-5.82-1.05-12.48.45-18.33,2.23-6.49,1.97-6.46,6.57-1.17,10.87,3.63,2.94,6.72,6.61,9.78,10.18,2.23,2.6,3.83,5.74,6.11,8.29,1.32,1.47,3.45,3.23,5.15,3.17,6.27-.23,12.52-.95,17.08-6.32,6.62-7.8,10.39-16.94,13.55-27.09Zm-22.98-161.46c-5.04-3.05-9.91-6.37-15.1-9.06-7.23-3.76-14.85-4.76-23.02-2.97-7.85,1.72-15.89,2.62-23.87,3.7-2.54.34-5.16.1-9.01.14,5.51,4.04,9.77,7.48,14.33,10.45,9.53,6.21,19.37,11.89,30.79,13.97,7.5,1.37,13.93-.39,18.62-6.87,2.09-2.88,4.35-5.62,7.26-9.36ZM27.01,260.58c6.4,5.06,8.96,12.04,11.04,19.26.83,2.87,1.34,5.83,2.05,8.73,1.87,7.63,6.19,13.48,13.66,16.07,6.19,2.14,12.69,3.44,19.13,4.74.84.17,3.19-2.03,3.05-2.81-1.27-7-1.55-14.66-4.76-20.73-9.2-17.38-25.87-23.05-44.16-25.25ZM252.93,122.05c-.25-.03-.72-.21-1.13-.13-11.23,2.26-22.51,4.32-33.65,6.99-2.98.71-3.29,3.51-.92,6.04,5.02,5.35,10.16,10.62,14.86,16.24,3.63,4.34,7.88,5.18,12.83,3.49,6.23-2.12,12.33-4.6,18.55-6.77,3.91-1.36,5.25-4.15,4.99-7.98-.45-6.61-8.85-16.34-15.52-17.88ZM42.07,324.73c3.04,7.82,5.62,15.13,8.7,22.23,3.08,7.12,8.73,10.16,16.59,9.71,5.05-.29,10.2-.11,15.22.53,9.12,1.15,17.57,4.43,25.82,10.09-16.34-25.78-40.15-45.42-66.34-42.56Zm181.25-164.79c-15.15-15.19-32.01-27.05-56.42-19.03,1.87,5.17,3.2,10.62,5.71,15.45,7.6,14.66,17.85,17.06,30.76,11.85,6.61-2.67,13.17-5.45,19.96-8.27Zm92.83,88.96c13.1,2.89,22.22-2.47,23.97-14.55.36-2.49-.39-6.19-2.09-7.74-9.47-8.71-24.34-14.84-37.95-8.22-5.77,2.8-5.91,2.96-3.5,9.03,1.16,2.91,2.18,5.94,3.78,8.61,3.67,6.15,8.11,11.55,15.79,12.88Zm-157.33-81.16c.18.12.36.23.54.35-1.2,1.98-2.96,3.84-3.45,5.99-.42,1.85.18,4.28,1.18,5.96.65,1.09,3.01,2.08,4.24,1.75,2.85-.77,6.28,2.82,8.58-1.14.87,4.97,5.14,1.2,7.46,2.79.74.51,2.55-.55,3.88-.89.25,1.9,8.42,6.89,10.67,5.31,3.52-2.47,6.9-5.41,9.5-8.8,1.63-2.12,2.39-3.21,5.17-2.1,11.47,4.56,15.97,2.18,18.57-9.53.2-.92.42-1.84.99-4.31-9.69,3.29-18.13,6.12-26.55,9.01-6.77,2.33-7.92,3.88-8.37,10.96-.07,1.06-.03,2.13-.04,3.19-1.28-1.9-1.48-4.01-2.27-5.86-1.16-2.69-2.12-6.5-4.27-7.53-6.1-2.91-10.81-7.04-14.84-13.22-4.06,6.76-7.79,12.94-11.51,19.13-.41-.26-.81-.52-1.22-.78,3.66-5.67,7.37-11.31,10.92-17.04.67-1.07,1.27-2.72.93-3.79-1.25-3.89-2.91-7.66-4.41-11.46-10.29,7.84-15.37,18.61-11.56,24.68,1.63-2.24,3.23-4.46,4.84-6.68.21.13.41.25.61.38-1.69,2.86-3.38,5.72-5.06,8.57.36.23.72.46,1.08.69,1.46-1.88,2.92-3.75,4.39-5.63Zm126.57,236.6c-4.35-1.22-8.38-2.22-12.32-3.48-5.73-1.84-11.46-1.64-16.53,1.35-4.85,2.86-9.2,6.61-13.61,10.16-6,4.83-11.86,9.85-17.48,14.55,19.95,11.42,51.69-.11,59.95-22.59Zm53.92-137.22c-3.03-2.85-5.74-5.2-8.21-7.77-2.86-2.97-6.01-3.54-9.75-1.97-6.56,2.76-12.09,6.87-15.36,13.2-1.38,2.67-2.13,6.39-1.47,9.24,1.86,8,7.19,14.05,13.32,19.22,1.26,1.06,4.18,1.31,5.75.62,4.13-1.81,7.13-4.87,7.09-9.95-.05-6,1.62-11.48,5.07-16.45,1.34-1.94,2.38-4.09,3.55-6.15ZM43.12,354.49c.33-.52.65-1.05.98-1.57-2.01-4.26-3.6-8.79-6.12-12.72-6.1-9.49-12.61-18.85-23.81-22.95-2.63-.96-6.95-1.27-8.64.22-1.77,1.56-2.32,5.92-1.61,8.58,1.4,5.3,3.79,10.38,6.24,15.32.97,1.96,2.91,4.13,4.87,4.78,9.27,3.05,18.71,5.61,28.09,8.34Zm98.34-185.38c-1.09-5.72-2.32-10.91-3.02-16.16-1-7.57-3.72-10.16-11.32-10.53-5.66-.28-10.21,2.07-14.32,5.51-5.31,4.44-5.89,10.89-1.53,16.34,2.05,2.56,4.28,4.97,6.44,7.48,8.07-.89,16.22-1.8,23.75-2.64Zm-.93,28.04c3.35-4,5.59-7.21,8.36-9.86,3.84-3.67.99-7.16-.37-10.14-.88-1.92-4.04-3.85-6.22-3.9-5.79-.13-11.62.6-17.4,1.28-6.25.74-8.72,3.69-7.01,9.81,1.27,4.55-.83,9.83,3.72,13.88,1.96,1.75,6.08,6.24,8.9,5.89,3.9-.48,9.17-5.62,9.31-8.83.16-3.52.58-7.03.89-10.54l.68.06c-.26,3.77-.53,7.54-.87,12.35Zm-1.87-82.85c-.12,1.22-.74,3.11-.34,4.76.37,1.56,1.56,3.21,2.87,4.15.7.51,2.93.08,3.59-.68,5.45-6.3,12.93-8.16,20.5-10.13,6.2-1.61,10.09-8.9,7.92-14.98-.65-1.81-3.28-4.18-4.97-4.15-13.49.27-25.84,5.51-29.57,21.03Zm155.7,46.62c5.28.35,11.72.77,18.54,1.22-.54-2.45-.86-5.13-1.72-7.62-3.69-10.65-9.61-19.66-20.16-24.59-6.25-2.92-11.46,1.09-10.08,7.88.65,3.17,2.92,6.04,4.64,8.94,2.69,4.52,5.53,8.94,8.78,14.18Zm-222.9,95.51c6.76,1.06,12.98-.25,19.35.1-2.67-3.01-5.5-5.57-8.72-7.49-9.55-5.7-19.9-7.11-30.51-3.91-2.56.77-5.94,3.73-6.21,6.02-.42,3.53.47,8.25,2.7,10.81,2.64,3.03,7.3,4.3,10.05,5.77,3.55-4.27,6.81-8.19,10.07-12.12.45.99.77,1.69,1.09,2.4,1.08-.79,2.16-1.58,2.17-1.58Zm29.64-116.16c2.96-5.27,7.71-7.75,12.36-10.34,4.11-2.29,4.36-4.4.92-7.56-4.83-4.43-18.31-2.63-21.9,3.07-.61.96-.75,2.64-.37,3.73,1.42,4.14,3.15,8.18,4.82,12.39-2.74,2.09-4.04,15.26-1.65,18.05.6-3.57,1.24-7.39,1.87-11.2.39.04.78.08,1.16.12.39,4.11.78,8.22,1.17,12.32.38.08.75.17,1.13.26.79-2.52,1.58-5.03,2.35-7.49.05.73.12,1.55.26,3.48,3.08-7.46,5.71-13.85,8.26-20.03-.05,2.09-.11,4.46-.16,6.85.58.13,1.17.26,1.75.39,1.42-4.2,2.85-8.39,4.27-12.59-.54-.38-1.08-.76-1.62-1.14-4.75,3.14-9.5,6.29-14.63,9.67Zm202.01,50.06c-.39-5.85.91-12.01-1.44-16.06-4.67-8.06-12.4-13.73-21.66-16.09-2.54-.65-5.99.97-8.47,2.46-.59.35.59,4.68,1.77,6.73,6.46,11.25,16.33,18.31,29.81,22.96Zm-202.38,2.32c-.51-6.94-.8-14.17-1.67-21.33-.53-4.28-8.03-10.77-11.99-10.83-5.64-.08-6.17,4.76-7.76,8.52-.29.69-.67,1.35-.95,2.04-1.35,3.46-1.44,6.76,1.43,9.58,3.4,3.34,6.83,6.66,10.26,9.98,2.6,2.51,5.53,3.91,10.7,2.04Zm-73.17,116.13c-1.32-4.16-2.89-8.31-3.93-12.59-1.09-4.5-2.02-9.09-2.41-13.69-.69-8.23-6.66-11.33-13.09-14.84-2.77,7.29-3.51,14.32-2.19,21.51,2.09,11.33,9.04,20.59,21.62,19.62Zm51.85-147.79c.86-2.6-.22-4.73-3.05-3.98-4.97,1.3-10.68,2.2-14.38,5.29-5.23,4.38-9.03,10.52-13.13,16.13-.76,1.04-.64,3.72.18,4.62.85.92,3.25,1.17,4.65.71,6.25-2.01,12.39-4.35,18.54-6.63.76-.28,1.77-.78,2.01-1.43,1.81-4.87,3.46-9.81,5.16-14.72Zm81.25,242.02c2.88-.12,6.13-2.61,6.16,2.26,0,.35,1.19.91,1.88,1.02,3.1.5,6.22.87,9.75,1.35-5.35,4.67-10.29,8.99-14.97,13.07,5.25.81,11.18-.37,17.03,1.01,2.11.5,5.19.43,6.72-.78,3.66-2.92,6.67-6.67,9.97-10.12-3.41-1.87-6.33-3.36-9.15-5.04-2.95-1.76-5.74-3.78-8.69-5.54-6.26-3.73-13.03-2.84-18.71,2.78Zm119.75-290.05c-2.85-8.58-14.94-20.13-23.91-22.07.96,5.46,1.01,10.86,2.91,15.51,4.56,11.11,8.23,12.4,21,6.56Zm11.06,77.99c-4.9,6.69.13,11.85,2.72,18.27,2.56-5.88,4.82-11.06,6.94-15.95-6.7-3.9-13.24-7.36-19.42-11.4-6.14-4.01-10.12-10.11-13.59-16.86-4.53,8.7-3.66,10.74,3.83,15.57,6.15,3.96,11.74,8.79,17.52,13.19.33-.47,1.17-1.65,2-2.82Zm16.09,71.79c-4.18.16-8.21-.59-11.53.62-7.69,2.79-13.38,8.55-18.4,14.89-.06.08.93,1,.95,1.02-1.24.85-2.55,1.74-3.85,2.63,13.87-.73,20.8-4.96,32.83-19.16Zm19.83-51.6c.13-.53.27-1.05.4-1.58-5.1-3.46-10.14-7.02-15.35-10.31-.86-.54-2.74-.37-3.63.23-3.17,2.12-6.12,4.57-9.29,7.01,5.75,6.79,13.58,6.06,20.5,7.39,2.2.42,4.91-1.76,7.38-2.75ZM55.87,321.87c7.06,2.5,11.13.64,13.07-5.89.78-2.63.32-4.24-2.82-4.71-5.99-.9-11.95-2.07-18.12-3.17q-2.38,4.91,1.94,12.9c.49-1.08.89-1.98,1.26-2.8.26,1.12.5,2.14.73,3.17,1-.42,2.26-.59,2.96-1.3,1.63-1.64,2.99-3.55,4.46-5.35.22.15.43.29.65.44-1.32,2.14-2.64,4.28-4.14,6.71Zm117.54,47.05c-.23-.41-.47-.81-.7-1.22-6.98,2.97-13.88,6.18-20.99,8.81-2.91,1.08-4.28,2.94-5.29,5.46-.76,1.89-1.4,3.83-2.3,6.32,2.37,0,4.56.21,6.69-.07,3.75-.49,6.42-1.96,6.85-6.5.25-2.62,2.1-5.09,3.23-7.63.21.09.42.19.63.28-1.35,3.7-2.71,7.39-4.3,11.76,6.7-1.77,4.34-7.87,7.15-11.4-.51,2.97-.98,5.64-1.44,8.31.19.05.38.1.58.15,1.07-2.8,2.15-5.59,3.56-9.26.08,1.49.09,1.94.15,2.38.01.1.21.17.53.4,1.88-2.6,3.77-5.2,5.65-7.8Zm-68.14-194.28c.23.11.46.22.7.33-.63,2.77-1.27,5.53-1.9,8.3.26.04.52.09.78.13.28-.51.56-1.03.84-1.54.17.07.34.14.5.2-.31,1.34-.62,2.68-.92,4.03.29.06.59.12.88.18.97-4.22,1.93-8.43,2.9-12.65.43,7.51-5.95,15.1,1.08,22.29,4.19-.29,4.38-3.76,4.55-6.53.56-8.98-.29-17.61-8.62-23.9-1.9,4.16-4.99,7.9-2.15,13.47.57-1.82.96-3.06,1.35-4.29Zm207.19,20.07c5.21,3.51,10.03,6.76,15.09,10.17-1.21-10.44-4.94-19.44-10.91-28.42-1.54,6.69-2.87,12.49-4.19,18.25Zm-118.74-92.48c-2.06,3.7-3.53,7.56-6.04,10.55-4.2,5-2.63,9.37-.13,13.31,4.71-4.83,9.54-9.78,14.42-14.79-2.47-2.72-5.22-5.75-8.25-9.07Zm-17.22,243.17c1.04-2.78,1.31-4.16,2.02-5.27,1.99-3.08,1.55-5.45-1.65-7.32-3.42-2.01-6.7-4.31-10.26-6.02-1.52-.73-3.61-.27-5.45-.35.03,1.95.05,3.91.09,6.64,1.49-1.9,2.36-3,3.23-4.1-.64,2.95-1.17,7,.22,7.84,2.66,1.6,5.44,4.67,9.44,4.1.34.65,1.1,2.09,2.36,4.48ZM25.12,211.79c-12.15,17.68-13.46,21.89-9.5,30.62,4.71-3.2,7.72-7.48,8.29-13.14.58-5.73.81-11.49,1.21-17.49Zm253.73-94.36c-2.05.56-3.75,1.04-5.46,1.5-6.06,1.65-7.25,4-5.21,10.19,1.4,4.25,2.79,8.52,4.33,13.22,5.03-7.67,6.24-15.92,6.33-24.92Zm-194.63,37.93c2.19-8.68,1.3-15.97-2.65-20.11.04,5.82.07,11.28.11,16.74-.23.03-.45.07-.68.1-1.04-5.91-2.08-11.81-3.12-17.72-.52-.05-1.04-.11-1.56-.16-1.13,6.27-2.26,12.55-3.34,18.57,4.43,1.02,7.69,1.76,11.25,2.58Zm51.69-50.45c-5.76-.61-10.05.41-13.21,4.11-2.75,3.22-.95,6.07,1.33,8.73,2.46,2.86,4.72,1.36,6.35-.66,2.31-2.87,4.26-6.06,6.08-9.27.41-.72-.38-2.11-.55-2.9Zm170.44,70.11c-.23,5.96-.45,11.9-.72,19.05,2.25-1.27,4.15-1.68,4.66-2.76,1.27-2.67,2.21-5.58,2.76-8.5,1.78-9.5,1.33-7.74-6.7-7.79Zm-100.43,237.81c-1.21.72-2.42,1.43-3.78,2.24.26-.81.52-1.63.84-2.66-1.85-.42-3.4-.78-4.76-1.09-3.13,3.68-6.09,7.15-9.28,10.9,7.86.92,13.98-.92,16.98-9.39Zm-59.33-33.9c-4.67.01-9.32.02-14.21.03-.55,1.3-1.17,2.76-1.96,4.63,4.27,1.56,8.34,3.05,12.5,4.58.84-2.05,1.46-3.55,2.06-5.06.59-1.49,1.16-2.98,1.62-4.18Zm-24.79-243.86c.49.17.97.33,1.46.5.87-1.72,2.3-3.38,2.53-5.19.91-7.21-.33-9.46-6.78-13.58-.26,2.45-.5,4.72-.73,6.99.38.04.76.08,1.14.12.28-.51.56-1.01.5-.9.57,3.64,1.23,7.85,1.89,12.05ZM15.8,247.01c3.65,2.39,6.39,4.18,9.47,6.19-.39-1.87-.65-3.12-.91-4.37.19-.05.37-.1.56-.15.97,1.99,1.93,3.98,2.9,5.97.21-.16.43-.31.64-.47-.81-4.16-1.63-8.31-2.66-13.56-3.38,2.16-6.46,4.13-10,6.39Zm268.52-95.77c-2.38-3.31-4.29-5.97-6.92-9.61-1.93,4.68-3.58,8.69-5.23,12.69.42.3.85.6,1.27.89,1.55-1.05,3.1-2.1,4.64-3.15-.29.75-.57,1.5-.86,2.25.21.27.42.55.63.82,2-1.2,4-2.41,6.47-3.89Zm-191,218.65c-.16,3.95,2.89,5.5,10.98,5.49.32-1.38.64-2.78,1.04-4.55-2.29-.11-4.44-3.6-6,.31-.31-.56-.72-1.32-1.13-2.08-.6.63-1.21,1.27-1.73,1.82-1-4.29-4.86-2.65-7.59-3.92l-1.13,4.94c1.53.27,2.89.51,4.27.76.46-.98.88-1.87,1.29-2.76Zm33.24-248.98c.5,4.06.96,7.89,1.43,11.72,1.99-5.11,8.59-8.46,5.5-15.09-2.26,1.1-4.51,2.19-6.93,3.37Zm54.3,216.01c-1.02,3.26-1.91,6.12-2.8,8.98.43.15.86.31,1.29.46.78-1.17,1.57-2.33,2.35-3.5.13.08.26.16.39.25-.56,1.44-1.11,2.88-1.7,4.39,1.22,1.07,2.32,2.03,3.43,3.01,4.1-7.15,4.07-7.31-2.96-13.58Zm29.13-193.66c-1.01-4.54,4.11-8.46-.43-12.66-4.86,5.28-4.99,9.88.43,12.66Zm-82.44,233.68c-2.95-2.02-5.52-3.78-8.15-5.59q-1,2.46,2.81,5.05c-.43,1.03-.86,2.07-1.36,3.28,1.53.42,2.79.77,4.03,1.11.89-1.27,1.63-2.34,2.68-3.85Zm129.86-3.62c-1.95-1.55-3.74-2.99-5.71-4.56-1.08,1.97-1.98,3.59-2.94,5.34,1.29,1.75,2.59,3.52,4.1,5.58,1.58-2.21,2.99-4.18,4.55-6.36Zm-65.23-13.19c1.45-3.61,2.81-6.98,4.25-10.56-1.51-.87-2.72-1.57-4.35-2.51-.16,4.55-4.97,8.42.1,13.07Zm-109.35,10.32c.67-2.14.98-3.16,1.25-4.02-4-.9-7.42-.73-9.36,3.28,3.95.64,7.84,1.28,11.97,1.95.13-2.01.23-3.58.34-5.16-.29-.06-.58-.12-.87-.18-.85,1.06-1.7,2.11-3.32,4.13Zm-18.63,3.34c.3.28.61.56.91.84,2.83-2.95,5.66-5.89,8.44-8.78-8.51-.17-12.04,2-10.43,6.85,1.46-1.39,2.83-2.69,4.2-4,.14.14.29.27.43.4-1.19,1.56-2.37,3.12-3.56,4.68Zm25.56-223.07h1.16c.44-1.04.88-2.07,1.65-3.85-.43,3.39-.74,5.91-1.06,8.42,1.23-3.86,2.34-7.65,2.9-11.53.29-2.03-.38-4.2-.61-6.31-.63.03-1.26.07-1.89.1-.71,4.39-1.43,8.78-2.14,13.17Zm15.25,207.3c3.17-4.12,1.81-7.1-5.7-13.3-.39.19-.79.37-1.18.56,2.26,4.2,4.53,8.39,6.87,12.74Zm107.92,60.73c.45.78.91,1.57,1.37,2.35,4.74-2.98,9.47-5.95,14.21-8.93-.32-.53-.64-1.05-.97-1.57-4.87,2.71-9.74,5.43-14.61,8.15Zm-10.95,3.04c5.97,1.47,7.57-3.59,11.15-6.62-7.56-2.93-7.28,4.94-11.15,6.62Zm94.36-258.24c4.67,4.99,9.62,5.28,15.64,1.06-5.56-.38-10.01-.68-15.64-1.06Zm-107.73,191.01c-1.18-3.46,6.42-7.58-1.24-10.99.28,3.96-4.3,7.65,1.24,10.99Zm112.99-75.17c-3.26,2.85-7.88,1.22-9.01,5.92,5.93,2.05,8.15.87,9.01-5.92ZM45.62,187.1c-.34,4.79-.69,9.59-1.03,14.29,3.12-1.17,4.32-9.25,1.03-14.29Zm29.85,101.41c.46-.02.91-.04,1.36-.06q3.04-7.63-1.14-9.3c-.08,3.3-.15,6.33-.22,9.36Zm40.37,78.53c.48,3.71-5.57,5.47-.34,9.01,3.53-3.59,3.69-4.74.34-9.01Zm190.36-75.64c-.48.45-.95.89-1.43,1.34,3.09,3.33,6.17,6.67,9.26,10.01.31-.28.63-.57.94-.85-2.93-3.5-5.85-6.99-8.78-10.49Zm-85.54,67.02q-5.38-2.1-8.12,3.76c3.35-1.55,5.73-2.65,8.12-3.76ZM26.56,280.5c4.11-6.53,4.11-8.1.55-10.67l-1.43,6.23c.99-1.53,1.32-2.05,1.91-2.96-.35,2.52-.63,4.53-1.03,7.39Zm5.01-5.95c-.48-.08-.96-.15-1.45-.23.91,3.71-3.96,6.64-1.09,11.3.96-4.17,1.75-7.62,2.54-11.07Zm49.37-65.15c-.89-.03-1.77-.06-2.66-.1.13,2.66.26,5.31.4,7.97.59.01,1.19.03,1.78.04.16-2.64.32-5.28.49-7.92Zm29.01,158.26c.78-.03,1.55-.05,2.33-.08-.25-2.44-.5-4.88-.75-7.32-.69.06-1.39.12-2.08.18.17,2.41.33,4.81.5,7.22Z"/>
    </g>
  </g>
</svg>