<?xml version="1.0" encoding="UTF-8"?>
<svg id="Capa_2" data-name="Capa 2" xmlns="http://www.w3.org/2000/svg" xmlns:xlink="http://www.w3.org/1999/xlink" viewBox="0 0 428 608">
  <defs>
    <style>
      .cls-1 {
        clip-path: url(#clippath);
      }

      .cls-2 {
        fill: none;
      }
    </style>
    <clipPath id="clippath">
      <rect class="cls-2" width="194" height="608"/>
    </clipPath>
  </defs>
  <g id="Layer_1" data-name="Layer 1">
    <g class="cls-1">
      <path d="m91.01,445.24c-6.26-6.21-10.88-14.25-19.84-17.57-7.51-2.79-7.71-3.47-3.54-10.5,2.08-3.5,1.59-5.9-1.52-8.04-1.51-1.04-3.13-1.93-4.77-2.76-6.54-3.32-10.77-7.92-11.76-15.79-.62-4.92-2.85-9.95-5.48-14.24-5.45-8.9-5.76-8.72,1.34-15.85.12-.12.24-.24.36-.35,2.76-2.52,3.85-4.87,1.32-8.64-4.1-6.12-7.68-12.62-11.08-19.18-3.39-6.54-3.04-8.64,2.51-13.6,3.95-3.54,8.49-6.43,13.26-9.98-7.91-3.37-7.19-9.92-6.2-16.57.15-1,.09-2.06.4-3,4.05-12.32,4.48-26.87,20.07-32.55-1.07-.87-1.94-2.01-3.09-2.44-4.54-1.74-4.9-5.16-4.51-9.34.83-8.92,3.36-17.32,8.36-24.68,6.03-8.87,12.13-18.17,25.44-15.87-1.14-3.46-2.36-6.61-3.16-9.87-.42-1.68-.68-3.8-.03-5.29,5.49-12.7,14.1-22.9,25.7-30.45.93-.6,3.12-.21,4.2.51,7.18,4.78,14.21,9.77,21.35,14.73,2.57-4.03,4.63-7.11,6.55-10.28,7.47-12.29,9.84-13.26,23.69-9.32,2.11.6,4.17,1.38,6.22,2.15,7.4,2.77,13.92,6.41,17.62,14.09,1.74,3.62,4.21,7.4,10.11,7.72.68-5.13,1.46-10.21,2.02-15.33.63-5.77,3.07-8.59,8.71-9.37,11.22-1.53,21.3,1.56,30.78,7.45,1.6.99,3.98,1.52,5.81,1.19,9.84-1.76,17.54,1.31,23.03,9.79,1.51,2.32,2.62,4.9,3.98,7.5,6.17-5.3,12.97-4.34,19.81-2.56,7.42,1.93,11.1,7.42,12.82,14.7,7.24-6.94,10.7-7.08,16.31.54,4.33,5.88,7.34,12.72,11.23,18.95,1.61,2.59,3.64,5.14,6.04,6.96,12.25,9.3,22.54,19.8,24.25,36.14.14,1.33.56,2.66,1.06,3.9,1.17,2.9,2.84,4.5,6.19,2.5,1.94-1.16,4.17-1.84,5.61-2.45,3.07,4.8,5.53,9.16,8.48,13.16,3,4.06,6.47,7.77,9.72,11.64,6.06,7.2,8.57,15.76,5.94,24.54-1.9,6.34-6.41,11.9-9.79,17.88,2.99,4.03,7.57,5.8,13.23,4.7,4.74-.92,6.87,2.23,8.2,5.82,4.55,12.3,7.24,24.6.07,37.06-1.36,2.36-1.25,5.58-1.87,8.69,8.16-.66,9.35-.17,10.86,6.81,3.14,14.52-1.77,27.04-9.85,38.13.24,2.5.99,4.91.6,7.11-4.48,25.05-15.38,45.33-41.25,54.06-16.34,5.52-30.68,14.45-42.29,26.98-7.02,7.58-15.71,9.95-24.88,12.11-4.11.97-8.26,1.87-12.44,2.35-8.99,1.04-17.57,4.08-27,3.14-27.04-2.7-53,2.95-78.47,11.65-9.06,3.1-18.18,6.89-27.56,8.03-18.32,2.22-43.09-14.01-49.8-31.28-1.15-2.97-1.55-6.22-2.4-9.76,2.71-.07,4.19-.07,5.67-.16,1.45-.09,2.88-.29,5.34-.55-21.03-12-35.36-27.63-37.88-52.23,4.9-.44,9.35-.83,14.57-1.3-3.05-4.27-5.23-8.4-8.39-11.54Zm66.89-21.57c.72-.99,1.44-1.98,2.17-2.96.22-1.26.98-2.75.56-3.75-.94-2.25-2.45-4.27-3.27-6.66,1.72,2.38,3.43,4.76,5.33,7.39,1.06-1.79,2.61-3.39,2.89-5.19.29-1.9-.05-5.21-1.15-5.73-1.91-.91-4.73-.56-6.95.05-1.54.42-2.72,2.16-4.06,3.3-1.04,1.11-2.08,2.23-3.11,3.34-2.31.98-3.12,2.1-1.07,4.36,1.42,1.56,2.27,3.63,3.38,5.47-1.75-1.85-3.51-3.7-5.55-5.86-.43.96-.77,1.74-1.12,2.53-2.05,3.55-4.09,7.11-6.14,10.66-1.98,1.6-3.97,3.2-5.95,4.8-5.54,3.37-10.78,7.47-16.71,9.91-5.5,2.26-11.73,2.76-17.05,3.91,4.35,5.09,9.13,6.35,16.78,3.92,5.32-1.69,10.66-3.47,16.12-4.56,2.78-.56,5.84.36,8.77.5,1.33.06,2.68-.17,4.02-.27,2.73.82,5.45,1.63,8.18,2.45.4-.67.8-1.34,1.2-2.01-2.89-3.77-5.78-7.55-8.67-11.32,2.18-3.17,4.36-6.34,6.53-9.51.8-.95,1.59-1.89,2.39-2.84.83-.64,1.65-1.29,2.48-1.93Zm230.47-17.12c.76-.22,1.52-.44,2.28-.66-.23-1.52-.07-3.25-.77-4.52-1.08-1.97-2.74-3.63-4.15-5.43,2.57,1.44,5.14,2.88,7.57,4.25.76-4.01-4.46-10.41-8.32-9.31-.9.26-1.26,2.41-1.87,3.69,1.75,3.99,3.5,7.98,5.25,11.97Zm12.11-14.36c2.7-2.34,5.6-4.85,9.21-7.97-5.22.75-9.29,1.25-13.31,2.03-.47.09-.64,1.75-.94,2.68-1.66-.55-3.32-1.09-4.98-1.64-.18.4-.37.8-.56,1.2,2.26,2.5,4.52,5,6.9,7.63,4.37-3.52-.9-4.95-1.57-7.31,1.71,1.1,3.4,2.19,5.25,3.38Zm-241.71,115.62c-6.41-7.77-12.16-14.73-17.91-21.69-.38.15-.77.31-1.15.46.35,1.06.69,2.12,1.04,3.17-3.07-1.63-3.43.79-4.1,2.74-2.61,2.37-5.25,4.71-7.78,7.15-.3.29-.04,1.16-.05,1.76-1.58-.18-3.16-.36-4.74-.54-.11.32-.22.64-.33.97,3.09,2.02,6.18,4.05,9.27,6.07.44-.69.89-1.38,1.33-2.07-.52-.82-1.04-1.64-1.57-2.46,4.98.73,9.95,1.45,16.47,2.4-3.47-3.61-5.92-6.16-8.37-8.71,2.64,2.19,5.2,4.49,7.94,6.54,1.62,1.21,3.53,2.03,5.31,3.03,1.11.28,2.22.56,4.62,1.17Zm224.45-123.61c.18-2.18.34-4.11.5-6.1.41.67.89,1.45,1.69,2.76,1.48-2.54,2.81-4.83,4.15-7.12.07-3.71.13-7.41.17-10.28-.21-.34.24.38.7,1.11.48-.14.96-.28,1.43-.42-1.47-5.3-2.95-10.59-4.52-16.23-4.34,6.8-3.61,14.35,2.23,25.83-1.96-2.53-3.93-5.06-6.12-7.89.69,5.17-3.31,8.3-5.78,12.24-1.25,1.08-2.5,2.16-3.97,3.42,1.16,2.38,2.29,4.71,3.57,7.35,1.32-1.26,2.49-2.37,3.7-3.53-1.23-2.57-2.37-4.96-3.5-7.34,1.69,1.82,3.38,3.65,5.75,6.21Zm-168.12,79.14c.42-.4.83-.8,1.25-1.2-2.21-5.17-4.42-10.34-6.73-15.73-3.22,1.94-5.99,3.6-9.26,5.57.37,1.12.82,2.49,1.26,3.85-.87-.96-1.75-1.93-2.6-2.86-2.32.76-4.5,1.48-7.36,2.41,2.23,2.05,4.08,3.74,6.91,6.34-.36-2.63-.51-3.7-.56-4.04,1.5.9,3.21,1.94,4.91,2.97.2-.62.41-1.24.61-1.86,3.86,1.51,7.72,3.03,11.57,4.54Zm-72.33-282.34c-1.68,9.15,4.11,14.16,16.93,14.71-.25-1.29-.47-2.51-.95-5.03,1.2,2.39,1.81,3.62,2.53,5.06,1.18-.39,2.29-.75,3.7-1.21-.73-1.63-1.46-3.28-2.2-4.93,1.73,2.19,3.47,4.38,5.58,7.03,1.75-6.52-3.83-7.77-5.86-11.16,2.29,2.2,4.8,4.23,6.8,6.67,1.1,1.34,1.47,1.96,3.63,2.44,3.18.71,5.49,4.86,8.45,7.2,1.89,1.5,4.26,2.39,6.83,3.78,1.03-11.37-6.52-17.99-12.33-25.82,3.27-4.46,6.99-9.53,11-15-8.33-5.09-16.42-8.54-25.21-8.77-3.29-.09-7.52,2.48-9.81,5.13-4.41,5.11-7.75,11.14-10.95,15.93,7.57,2.96,14.57,5.7,21.58,8.44.14,1.42.29,2.85.43,4.27-4.5-8.24-12.87-7.08-20.15-8.75Zm-28.9,16.29c2.8-2.7,4.77-4.6,7.05-6.79-.48-1-1.18-2.46-2.02-4.21,3.15,1.06,3.5,7.07,9.14,3.81,2.27-1.31,7.24,2.08,10.99,3.33l1.15-1.36c-1.48-2.58-2.97-5.17-4.45-7.75.41-.55,1.24-1.51,1.17-1.58-1.98-1.99-4.05-3.89-6.11-5.81-3.05-2.85-6.1-5.7-10.1-9.44.19,4.48.35,8.22.5,11.95-4.64,4.67-6.54,10.41-7.31,17.84Zm115.46,193.09c.2.72.52,1.91.85,3.11-.81-1.04-1.6-2.07-2.13-2.75-7,.46-13.76.9-20.93,1.37,2.17,3.17,4.29,6.25,6.4,9.34-.15.12-.31.25-.46.37-.58-.46-1.47-.81-1.7-1.41-3.18-8.13-10.79-9.55-17.71-12.69-10.01-4.54-19.37-10.52-28.76-15.75,2.78,24.09,25.28,37.43,53.1,30.98-.64-1.24-1.28-2.49-2.5-4.85,5.67,5.8,11.55,6.34,17.82,2.45-1.11-2.38-2.22-4.78-3.33-7.17,1.65,2.2,3.3,4.4,5.7,7.58,5.93-4.79,11.98-9.64,17.93-14.6.26-.22-.36-1.49-.57-2.27,4.16-.2,9.08-5.9,7.83-9.09,5.3,2.08,19.03-16.81,21.42-30-3.34,4.86-5.88,9.58-9.37,13.44-6.08,6.73-12.76,12.93-19.17,19.37-.81.81-1.51,1.73-2.25,2.6-7.23,3.26-14.46,6.51-22.17,9.99Zm-155.34-45.37c-1.78,1.21-3.91,2.04-5.99,2.63-2.55.73-2.31,1.93-1.09,3.61-1.31-.86-1.36-3.09-4.47-1.66-2.86,1.32-6.96-.01-10.51-.17-.05.43-.11.87-.16,1.3,1.24.19,2.48.4,3.73.58,3.52.5,7.05,1.01,10.58,1.41.17.02.46-1,.69-1.54,3.27,4.33,7.78,5.21,11.78,2.23,2.34-1.74,5.08-1.7,7.19-3.36,2.99-2.36,5.49-4.7,1.64-8.49-1.02-1.01-1.46-2.61-1.85-4.17,1.62,2.23,3.24,4.45,5.25,7.24,2.09-4.49,4.04-8.71,5.99-12.92,7.39-6.1,6.49-6.7,2.23-10.37-3.67-3.16-8.5-1.31-9.99,3.27-4.29,7.35-7.63,15.42-15.02,20.43Zm222.27,60.57c-7.75-.11-15.5-.38-23.25-.65-3.5-.12-7-.41-10.44-.61-2.87,7.91.94,13.24,10.09,13.33-2.25-2.99-4.24-5.64-6.38-8.47,4.84,1.25,5.12,8.85,11.71,7.35-2.67-3.35-5.1-6.4-7.54-9.45,4.83,2.27,6.12,8.78,13.5,9.44-1.81-2.06-2.89-3.29-3.97-4.52,7.25,6.54,16.17,2.41,25.22,4.64-1.93-2.87-3.24-4.81-4.54-6.76,4.07,2.5,5.98,9.09,12.65,6.19,2.1.54,4.2,1.09,6.99,1.8-2.55-3.93-4.71-7.26-6.87-10.59,3.5,4.09,7,8.18,10.51,12.27,1.65,1.93,3.35,3.36,5.37.42.02-.04-.12-.24-.23-.31-.14-.08-.32-.1-.48-.14l-.06.02c3.73-.21,5.52-1.37,2.71-5.11-1.17-1.56-2.07-3.31-2.41-5.44,1.8,2.26,3.6,4.53,5.4,6.79,6.27-5.06,6.56-6.71,2.34-13.34-3.13-4.91-6.22-9.85-8.57-15.3,2.1,2.94,4.27,5.83,6.29,8.82,2.05,3.02,3.95,6.14,5.92,9.22.5-.19,1-.37,1.5-.56-1.68-4.08-3.35-8.16-5.03-12.24.2-.13.4-.25.6-.38,1.04,1.42,2.08,2.84,3.12,4.26-4.02-6.81-4.47-14.19-3.47-21.79,3.57-5.66-.35-9.93-3.76-14.49,0,1.76-.44,3.66.06,5.26,1,3.18,2.52,6.2,3.82,9.28-1.99-2.9-3.98-5.8-6.24-9.09-.95,2.21-2.11,4.84-3.2,7.49-4.49,10.86-9.89,21.14-18.67,29.27-1.5.92-3,1.85-4.5,2.77-2.73.22-5.46.65-8.18.61Zm35.69-161.91c-2.79-.8-4.08.34-5.1,2.58-1.87,4.1-3.78,8.18-6.03,13.04,10.41.53,16.44,6.86,21.45,13.91,7.47-4.82,6.36-12.83,8.46-19.55.93,3.87,1.86,7.75,2.9,12.07,1.29-3.29,3.07-6.38,3.64-9.68.7-4.08-.92-7.28-5.86-7.35-6.49-1.66-13.02-3.18-19.45-5.03Zm-180.55,7.04c-3.94-9.21-10.01-15.43-20.5-17.15-6.73-1.1-13.24-3.62-19.82-5.5.37,15.53,20.23,29.01,33.07,27.24-1.25-3.8-2.48-7.54-3.71-11.29.47-.16.93-.32,1.4-.48,1.4,4.28,2.81,8.55,4.21,12.83.49-.18.97-.37,1.46-.55-.85-3.78-1.7-7.55-2.54-11.33.24-.06.47-.12.71-.18.72,3.14,1.06,6.43,2.31,9.33.55,1.29,2.93,1.8,4.48,2.66.39-1.17.78-2.33,1.17-3.5.81-1.25,2.3-2.49,2.32-3.76.11-5.38-.2-10.76-.36-16.07.41.67.91,1.46,1.26,2.02,4.34-4.97,8.88-9.71,12.79-14.92,1.04-1.39.14-4.23.13-6.38.58,1.25,1.23,2.67,1.91,4.14q2.6-2.33-1.24-11.94c-6.5,9.3-13.3,18-18.78,27.47-1.77,3.05-.29,8.14.13,12.24.25,2.47,1.33,4.86,2.04,7.28-.85-.73-2.06-1.28-2.44-2.19Zm99.74-42.2c-1.2-16-19.45-28.45-34.8-24.27-3.64.99-5.96,2.77-6.06,6.81-.05,2.17-.82,4.43-.41,6.48.42,2.09,1.45,4.99,3.03,5.68,1.95.86,4.75-.33,7.18-.3.78,0,1.54,1.1,3.18,2.38-.47-2.69-.77-4.38-1.07-6.07.16-.05.31-.1.47-.15.65,2,1.31,3.99,1.96,5.99.25-.06.5-.11.75-.17-.35-2.66-.71-5.33-1.06-7.99.27-.08.54-.16.8-.24.46,1.74,1.32,3.47,1.31,5.21-.06,5.99,4.68,8.05,8.48,10.91l-.11-.04c1.72.86,3.44,1.72,5.15,2.57h.02c.6.4,1.19.8,1.78,1.19l-.08.02c1.85,1.3,3.69,2.44,5.04-.58.65,1.01,1.31,2.01,1.96,3.02.88-3.48,2.72-7.04,2.47-10.44Zm38.1,107.28c-10.13-1.33-20.43-2.05-32.14,1.5,7.67,2.54,13.98,4.62,20.39,6.74-.02-.66-.04-1.44-.06-1.83,2.02,1.44,4.27,3.04,6.52,4.64.24-.25.48-.5.73-.75-1.32-2.11-2.65-4.23-3.97-6.34.19-.11.37-.22.56-.34,3.61,4.92,7.23,9.84,11.25,15.32-.11-1.61-.18-2.53-.24-3.45,3.41,8.28,10.12,2.72,15.55,4.11-.23-1.48-.39-2.53-.46-3.04,1.6.56,3.44,1.2,5.28,1.83.24-.43.47-.85.7-1.28-1.31-1.81-2.62-3.62-4.64-6.41,1.51.88,2.12,1.23,3.47,2.02-2-5.21,1.71-8.22,3.9-11.52,3.83-5.77,3.84-10.95-.5-16.24,1.65,2.03,3.3,4.06,5.92,7.28.35-4.18.6-7.27.84-10.11-.04-.04.58.51,2.35,2.1-.09-3.46-.15-5.84-.22-8.17.23.21.78.72,1.33,1.23.44-.04.89-.08,1.33-.13-.39-3.42-.78-6.83-1.28-11.25-3.89,7.23-7.08,13.16-10.27,19.08-4.98,9.91-13.59,16.68-26.35,15.01Zm-135.15,42.03c-1.6-1.7-2.6-2.75-3.57-3.78-4.56,3.64-8.82,7.75-13.75,10.79-4.76,2.94-10.2,4.78-15.54,7.19,2.69,6.42,6.62,12.4,15.01,15.09-3.51-4.55-6.66-8.64-9.81-12.72,6.39,5.59,10.89,13.21,20.84,16.69-4.81-5.35-8.69-9.67-12.57-13.98,6.78,4.6,10.82,12.59,19.75,14.3-2.23-2.92-4.47-5.83-6.7-8.75.2-.16.39-.32.58-.48,2.94,3.23,5.88,6.46,8.82,9.69.43-.39.87-.77,1.3-1.16-4.11-5.04-8.23-10.07-12.34-15.1.24-.22.49-.43.73-.65,4.34,4.95,8.68,9.9,13.39,15.27,2.82-6.48,1.37-12.53-.46-18.02-1.94-5.8-2.15-10.28,4.04-13.75-2.73-3.71-5.17-7.02-7.61-10.34,3.04,2.76,6.08,5.51,9.15,8.3,6.41-5.32,5.59-13.97-2.61-21.83-2.14,4.63-4.23,9.14-6.32,13.65-4.85,2.25-5.35,3.88-2.34,9.62Zm79.95-69.79c-10.11,16.72-25.02,25.6-44.64,25.15-5.84-.13-11.63-2.7-18.37-4.38.74,5.13.83,10.53,2.36,15.47,2.85,9.17,14.38,13.79,23.16,9.94,4.57-2,9.19-3.92,14.07-5.99-.82-4.34-1.66-8.75-2.5-13.15.13-.03.26-.07.39-.1,1.11,4.16,2.22,8.33,3.59,13.48,1.86-1.25,3.4-2.29,4.86-3.27.8.02,2.5.61,3.53.02,8.09-4.62,8.06-4.69,5.25-13.51-.66-2.08-1.36-4.14-1.35-6.45,1.47,4.48,2.94,8.96,4.99,15.21,3.42-4.27,7.75-7.31,8.22-10.86.53-4.06-2.38-8.56-3.06-13.1,1.5,4.57,3,9.15,4.72,14.38,4.25-4.8,10.23-7.99,6.39-15.45.65,1.5,1.29,3,1.99,4.62,3.22-2.98,3.84-6.53,2.98-10.49,2.91-.26,5.06-3.18,3.94-6.6-2.27-6.9-5.09-13.62-7.69-20.42-.58.09-1.16.18-1.74.27-.65,2.64-1.3,5.28-1.94,7.92-3.03,5.78-5.78,11.72-9.15,17.3Zm14.9,38.03c-16.09,2.74-32.38,4.02-47.59,10.72-13.67,6.02-26.03,13.99-37.28,23.73-1.32,1.14-2.17,2.81-3.69,4.83,11.12,6.14,21.35,12.76,32.36,17.64,20.81,9.22,39.87,3.67,57.16-9.46,11.46-8.7,19.01-20.8,26.58-32.79,1.43-2.27,2.89-4.53,4.69-7.36-10.47-5.5-20.22-9.36-32.22-7.31Zm34.06,76.32c16.54,1.29,28.25-5.21,35.35-20.38,5.14-10.99,10.58-21.86,16.44-32.48,2.77-5.03,6.85-9.34,10.51-14.22-27.11-2.36-49.46,6.5-66.25,27.81-7.07,8.98-13,18.86-19.21,28.48-1.87,2.9-2.93,6.33-4.35,9.5,9.75.44,18.64.6,27.5,1.29Zm-109.38,66.15c-9.53,4.45-16.32,11.72-22.06,20.17-.66.97-.42,3.15.25,4.27.99,1.67,2.51,3.28,4.18,4.26,8.12,4.79,16.09,9.95,24.63,13.87,10.64,4.88,21.31,3.58,31.35-2.59,10.67-6.57,20.54-13.99,27.56-24.57-15.81-18.48-47-24.23-65.91-15.4Zm135.21,46.07c24.5-10.47,33.8-29.41,38.91-55.31-36.53,11.19-72.77,21.8-95.42,57.66,19.85,5.92,38.29,5.44,56.51-2.35Zm-51.18-88.45c-16.17,7.07-28.16,18.63-36.77,34.84,1.97-.11,3.38-.02,4.72-.3,9.84-2.06,19.3-.3,28.95,1.84,8.46,1.88,17.22,2.69,25.89,3.33,7.4.55,12.99-3.53,16.75-9.49,4.85-7.69,9.05-15.79,13.58-23.69,2.09-3.64,4.31-7.22,6.7-11.22-20.42-2.34-40.52-3.74-59.82,4.69Zm-166.96,10.56c7.39,6.75,14.32,7.37,23.19,2.96,10.46-5.2,18.37-12.81,23.98-23.05,2.57-4.7,5.79-9.04,9.31-14.46-4.06-1.82-8.17-3.51-12.13-5.49-4.6-2.3-9.49-4.32-13.52-7.42-9.67-7.43-17.42-7.85-27.51-.58-12.13,8.75-19.13,21.35-26.46,34.61,10.08,1.17,16.53,7.39,23.13,13.43Zm87.46-20.57c-9.21,5.32-17.15,12.86-25.57,19.51-3.26,2.58-1.38,4.84,1.09,6.43,17.99,11.59,37.39,13.82,54.69-2,6.93-6.34,13.01-13.62,19.48-20.47,2.84-3,5.7-5.97,9.17-9.61-20.42-1.65-40.55-4.44-58.86,6.13Zm-52.63-95.36c-8.53.38-16.06,3.38-22.61,8.91-7.74,6.54-8.94,15.03-7.35,24.35.19,1.1.77,2.27,1.49,3.13,7.7,9.19,21.21,12.01,32.07,6.79,11.84-5.69,21.9-16.66,29-31.81-10.1-6.61-20.35-11.92-32.61-11.37Zm-31.58-16.89c-.87,3.9.43,5.85,2.98,7.55,7.24,4.83,15.45,5.37,23.84,4.92,3.18-.17,6.37-.13,10.04-.2.24-3.64.5-7.51.76-11.38.26.01.51.02.77.03.01,3.76.02,7.53.04,12.09,8.69-.76,17.36,3.44,26.09-1.92,3.2-1.97,3.74-3.62,3.14-6.7-1.1-5.56-2.08-11.15-2.04-16.94,1.21,6.17,2.42,12.33,3.72,18.93,4.32-4.42,1.87-9.03,1.26-14.54.98,1.91,1.46,2.84,2,3.89,3.04-3.44,5.77-6.94,8.93-9.99,4.1-3.96.06-8.24,1.3-13.48.68,3.49,1.15,5.89,1.7,8.73,5.17-3.99,7.7-8.98,8.36-14.97.33-3-5.63-7.02-8.52-5.06-4.57,3.1-8.33,7.38-12.38,11.22-.19.19.15.93.11.71-1.47.32-3.14.2-4.08.97-11.42,9.44-23.87,16.77-38.4,20.51-2.15.55-3.79,3.93-5.2,6.28-1.27,2.11-1.91,4.6-3.71,6.79,0-.98-.16-1.98.02-2.93,1.07-5.75-1.15-9.9-5.55-13.61-3.43-2.89-6.11-6.66-9.12-10.04-1.18-1.33-2.34-2.66-3.26-3.71-.9,7.95-1.18,15.54-2.8,22.83Zm160.76,3.75c12.19-2.94,23.7-1.15,35.04,3.72,6.97,3,12.49.97,18.12-6,6.92-8.57,10.62-18.7,13.43-29.21,1-3.73,1.97-7.48,2.95-11.21-26.61-6.64-65.65,23.77-69.54,42.71Zm117.59,3.38c7.8-15.08,10.6-31.19,8.97-47.61-8.85,1.95-17.66,3.62-26.31,5.95-2.88.77-5.87,2.72-7.86,4.97-11.27,12.8-19.06,27.68-25.32,44.07,16.42-7.8,32.62-12.46,50.52-7.37Zm-200.42-10.8c8.21,8.76,18.49,10.54,29.01,6.53,11.43-4.36,21.6-11.2,27.65-22.47,3.97-7.38,7.46-15.01,11.35-22.94-21.72-7.2-57.63,15.42-68.02,38.88Zm204.72,149.27c-6.01,3.33-10.4,10.24-14.49,16.24-5.01,7.35-8.95,15.43-13.34,23.21-1.2,2.12-2.34,4.28-4.12,7.57,15.33-6.43,30.16-10.9,43.13-18.53,15.1-8.88,21.41-24.56,24.53-41.22-.37-.5-.74-1-1.12-1.49-11.6,4.61-23.76,8.23-34.6,14.23Zm-271.16,39.99c5.66,5.54,12.73,5.7,19.78,5.31,1.91-.1,4.12-2.29,5.44-4.08,2.29-3.09,3.76-6.78,5.99-9.92,3.07-4.31,6.15-8.74,9.91-12.41,5.49-5.36,5.05-10.52-2.42-12.06-6.74-1.38-14.35-2.38-20.76-.61-11,3.05-21.83,5.16-33.21,4.35-.63-.05-1.28.21-2.68.47,4.58,11.05,9.74,20.89,17.96,28.94Zm.25-202.4c5.92,6.77,13.3,8.08,21.56,5.78,12.57-3.5,23-10.87,33.04-18.81,4.8-3.8,9.22-8.08,14.98-13.17-4.32.35-7.23.89-10.11.77-9.05-.39-18.15-.57-27.12-1.69-9.34-1.16-17.76.75-25.47,5.7-5.53,3.56-10.65,7.77-15.97,11.7,3.64,3.88,6.46,6.72,9.1,9.73Zm238.79,73.97c-2.97,7.13-2.5,15.74-3.2,23.71-.08.88,2.77,3.11,3.7,2.83,7.08-2.12,14.23-4.24,20.94-7.27,8.1-3.67,12.33-10.66,13.64-19.4.5-3.32.77-6.69,1.4-9.98,1.59-8.3,3.73-16.38,10.38-22.7-20.25,4.34-38.34,12.41-46.85,32.82ZM108.52,217.99c.1,4.31,1.89,7.29,6.41,8.42,7.18,1.78,14.27,3.93,21.47,5.67,5.72,1.38,10.39,0,14.01-5.23,4.69-6.78,9.9-13.2,14.97-19.71,2.39-3.08,1.75-6.18-1.66-6.67-12.74-1.83-25.59-2.98-38.4-4.36-.48-.05-.99.2-1.26.26-7.31,2.41-15.72,14.17-15.54,21.62Zm202.63,238.13c8.67-7.18,17.79-11.72,27.88-13.95,5.56-1.23,11.3-1.96,16.99-2.15,8.85-.3,14.86-4.29,17.58-12.58,2.72-8.27,4.86-16.73,7.46-25.79-29.61-.52-54.26,23.93-69.91,54.48Zm-126.82-213.16c14.99,4.51,26.22.77,33.22-16.43,2.31-5.67,3.24-11.91,4.8-17.89-28.16-6.46-45.82,8.55-61.23,27.12,7.89,2.46,15.53,4.9,23.2,7.2Zm-101.64,85.93c1.51-3.15,2.35-6.65,3.35-10.03,2.08-7.04,1.9-7.21-4.84-9.75-15.93-6.01-31.95,2.38-41.66,13.11-1.74,1.92-2.2,6.14-1.54,8.89,3.2,13.34,13.97,18.4,28.34,13.82,8.47-2.27,12.88-8.78,16.36-16.04Zm156.96-85.18c.38-.29.76-.58,1.14-.88-2.19-3.03-4.37-6.05-6.55-9.08.22-.16.43-.32.65-.49,2.03,2.32,4.06,4.64,6.11,6.98,3.64-7.19-3.16-18.73-15.49-26.45-1.29,4.41-2.76,8.79-3.76,13.28-.27,1.23.57,3.02,1.43,4.15,4.57,6.06,9.31,11.98,13.99,17.96-.43.33-.86.66-1.28.99-4.81-6.55-9.61-13.09-14.86-20.24-3.88,7.33-8.73,12.44-15.26,16.33-2.3,1.37-2.99,5.74-4,8.87-.7,2.16-.71,4.54-1.94,6.8-.12-1.19-.19-2.39-.38-3.57-1.23-7.89-2.68-9.5-10.5-11.42-9.72-2.37-19.46-4.68-30.65-7.36.89,2.71,1.23,3.72,1.55,4.73,4.11,12.84,9.4,15.05,21.77,8.76,3-1.53,3.97-.39,6.01,1.82,3.25,3.53,7.35,6.48,11.54,8.88,2.68,1.54,11.32-4.89,11.4-7.04,1.52.25,3.66,1.24,4.43.59,2.43-2.02,7.6,1.76,8.07-3.89,2.99,4.21,6.46-.16,9.73.4,1.41.24,3.95-1.1,4.57-2.39.94-1.98,1.36-4.77.7-6.79-.76-2.35-2.92-4.26-4.47-6.36.19-.15.38-.3.56-.45,1.83,1.95,3.66,3.9,5.49,5.85Zm-53.43,291.26c-6.79-4.69-13.86-9.7-21.08-14.5-5.31-3.53-10.56-7.27-16.29-9.98-5.98-2.83-12.42-2.45-18.65.19-4.29,1.82-8.7,3.35-13.44,5.16,11.56,24.32,48.29,33.96,69.45,19.13ZM46.88,374.24c4.37,5.21,6.81,11.17,7.37,17.9.48,5.69,4.15,8.8,8.96,10.41,1.84.61,5.08.03,6.38-1.29,6.34-6.41,11.68-13.74,12.94-22.89.45-3.26-.78-7.35-2.59-10.2-4.3-6.75-10.93-10.79-18.55-13.2-4.36-1.38-7.82-.41-10.72,3.21-2.51,3.13-5.29,6.04-8.4,9.55,1.53,2.18,2.91,4.48,4.61,6.52Zm366.67,48.59c2.14-.93,4.08-3.56,4.97-5.85,2.23-5.79,4.39-11.73,5.41-17.8.51-3.05-.55-7.88-2.69-9.44-2.04-1.49-6.85-.71-9.7.64-12.12,5.75-18.45,16.9-24.3,28.16-2.42,4.66-3.73,9.9-5.55,14.87.42.55.84,1.11,1.26,1.66,10.22-4.03,20.53-7.86,30.6-12.24Zm-132.94-184.74c2.17-3.02,4.42-5.96,6.45-9.04,4.31-6.55,3-13.71-3.4-18.14-4.96-3.43-10.3-5.59-16.6-4.7-8.48,1.2-11.26,4.39-11.6,12.96-.24,5.95-1.08,11.89-1.71,18.41,8.52.16,17.74.34,26.87.51Zm-25.18,17.05c.25-.05.51-.09.76-.14.71,3.9,1.54,7.79,2.08,11.72.5,3.59,6.93,8.8,11.34,8.93,3.19.1,7.34-5.35,9.36-7.51,4.68-5,1.78-10.7,2.74-15.93,1.29-7.04-1.79-10.09-8.86-10.27-6.54-.17-13.15-.39-19.62.36-2.44.28-5.78,2.77-6.56,5.01-1.22,3.48-4.04,7.69.63,11.4,3.37,2.68,6.21,6.04,10.37,10.18-.87-5.35-1.55-9.55-2.24-13.74Zm-39.47-99.74c-1.89.13-4.6,3.06-5.14,5.15-1.8,7.03,3.31,14.79,10.41,15.96,8.69,1.43,17.25,2.74,24,9.24.82.79,3.35,1.04,4.09.4,1.37-1.2,2.53-3.16,2.79-4.95.27-1.89-.61-3.94-.87-5.3-5.77-16.99-20.15-21.59-35.28-20.51Zm-125.91,71.95c1.63-3.42,3.88-6.87,4.28-10.48.85-7.74-5.4-11.7-12.09-7.78-11.31,6.61-17.01,17.31-20.05,29.61-.71,2.88-.79,5.91-1.14,8.71,7.59-1.2,14.76-2.34,20.63-3.27,3.11-6.2,5.83-11.45,8.37-16.78Zm253.66,102.35c.29-.83.57-1.65.97-2.8,4.06,4.06,8.12,8.12,12.53,12.53,2.93-1.94,8.02-3.84,10.66-7.5,2.24-3.09,2.74-8.47,1.91-12.38-.54-2.53-4.63-5.5-7.58-6.1-12.2-2.49-23.65.15-33.76,7.52-3.4,2.48-6.31,5.63-8.99,9.28,7.11-1.05,14.2-.22,21.66-2.1,0,0,1.3.78,2.59,1.55Zm-65.11-137.91c-.56.48-1.13.97-1.69,1.45,2.03,4.55,4.05,9.1,6.08,13.66.64-.21,1.28-.41,1.92-.62-.31-2.66-.61-5.32-.88-7.65,3.49,6.65,7.1,13.54,11.31,21.58-.04-2.18-.06-3.11-.07-3.93,1.11,2.67,2.26,5.41,3.4,8.14.41-.14.83-.27,1.24-.41.01-4.64.03-9.28.04-13.92.43-.09.86-.17,1.29-.26,1.11,4.2,2.21,8.41,3.25,12.35,2.38-3.37-.42-17.99-3.71-20.04,1.43-4.89,2.95-9.59,4.12-14.38.31-1.26-.02-3.12-.8-4.14-4.61-6.01-19.89-6.64-24.84-1.18-3.52,3.89-3.03,6.22,1.81,8.37,5.48,2.42,11.05,4.71,14.91,10.31-6.08-3.27-11.73-6.3-17.37-9.33Zm-172.67,57.39c1.1-2.41,1.98-7.38,1.29-7.71-2.93-1.42-6.97-2.87-9.74-1.89-10.13,3.59-18.2,10.75-22.6,20.25-2.21,4.77-.12,11.54.04,18.13,14.62-6.6,24.95-15.52,31.02-28.78Zm207.62,7.16c3.5-4.07,6.99-8.13,10.46-12.23,2.92-3.45,2.48-7.14.61-10.87-.38-.75-.87-1.45-1.27-2.19-2.17-4.05-3.26-9.42-9.57-8.75-4.43.47-12.17,8.52-12.32,13.37-.25,8.11.18,16.24.32,24.06,5.98,1.56,9.12-.31,11.77-3.39Zm104.31,101.71c.74-8.18-.81-15.98-4.66-23.86-6.83,4.6-13.21,8.68-13.13,17.97.04,5.19-.53,10.43-1.29,15.58-.72,4.9-2.05,9.7-3.11,14.51,14.18-.2,21.02-11.29,22.19-24.19Zm-88.16-120.02c.33.7,1.52,1.16,2.4,1.39,7.13,1.92,14.25,3.91,21.45,5.51,1.62.36,4.28-.16,5.14-1.28.83-1.09.69-4.11-.27-5.2-5.17-5.86-10.06-12.34-16.36-16.71-4.46-3.09-10.95-3.51-16.65-4.45-3.25-.54-4.24,1.96-3.01,4.78,2.41,5.33,4.76,10.69,7.3,15.96Zm-94.61,262.25c-3.12,2.27-6.04,4.82-9.16,7.1-2.98,2.17-6.1,4.15-9.73,6.59,4.06,3.52,7.8,7.41,12.2,10.3,1.83,1.2,5.29.96,7.6.18,6.41-2.14,13.17-1.44,18.97-2.89-5.66-4.09-11.63-8.41-18.11-13.09,3.91-.89,7.36-1.63,10.78-2.51.77-.2,2.04-.94,2.01-1.33-.46-5.46,3.44-3,6.67-3.16-6.93-5.71-14.61-6-21.23-1.18ZM115.21,179.49c1.65-5.4,1.15-11.45,1.67-17.66-9.84,3.09-22.2,17.28-24.5,27.18,14.9,5.22,18.88,3.4,22.84-9.51Zm-24.67,100.94c6.02-5.52,11.78-11.5,18.26-16.58,7.9-6.18,8.66-8.55,2.69-17.83-3.2,7.91-7.03,15.15-13.49,20.28-6.5,5.15-13.47,9.71-20.57,14.76,2.89,5.25,5.94,10.82,9.42,17.14,2.24-7.46,7.34-13.75,1.16-20.74,1.05,1.23,2.11,2.46,2.53,2.95Zm25.58,97.17c-1.55-.86-3.1-1.73-4.58-2.55.02-.02,1.04-1.15.95-1.24-6.27-6.59-13.24-12.45-22.14-14.78-3.84-1.01-8.28.24-12.97.49,14.94,14.66,23.13,18.69,38.74,18.08Zm-57.71-71.5c7.61-2.2,16.45-2.19,22.19-10.38-3.81-2.4-7.36-4.84-11.13-6.89-1.07-.58-3.19-.58-4.09.12-5.5,4.22-10.78,8.72-16.13,13.12.21.57.41,1.15.61,1.72,2.87.85,6.12,3.02,8.55,2.32Zm301.57,86.67c.23-.19.45-.37.68-.56,1.83,1.86,3.55,3.86,5.54,5.53.86.73,2.28.79,3.45,1.15.16-1.17.32-2.34.5-3.62.5.88,1.05,1.85,1.7,3q4.02-9.4.85-14.65c-6.79,1.86-13.34,3.79-19.96,5.41-3.47.85-3.83,2.7-2.68,5.57,2.84,7.12,7.6,8.78,15.25,5.25-1.93-2.57-3.63-4.83-5.32-7.09Zm-114.32,80.03c.33-.29.55-.39.55-.5.02-.5-.02-1.01-.08-2.68,1.95,3.95,3.45,6.98,4.94,10,.21-.08.42-.15.63-.23-.79-2.94-1.58-5.88-2.47-9.16,3.51,3.66,1.49,10.73,9.18,12.03-2.24-4.73-4.13-8.73-6.03-12.73.23-.13.46-.25.68-.38,1.53,2.73,3.85,5.3,4.4,8.21.96,5.04,4.1,6.41,8.34,6.57,2.41.09,4.84-.38,7.5-.61-1.26-2.7-2.17-4.81-3.22-6.85-1.39-2.71-3.12-4.66-6.49-5.56-8.23-2.21-16.28-5.09-24.41-7.7-.22.48-.44.96-.66,1.44,2.38,2.72,4.76,5.44,7.14,8.16Zm51.13-228.07c2.6-6.53-1.24-10.4-3.79-14.86-8.67,7.9-8.75,17.66-7.19,27.65.48,3.08,1.05,6.95,5.78,6.85,7.14-8.77-.79-16.62-1.08-25.07,1.52,4.62,3.03,9.25,4.55,13.87.32-.1.65-.19.97-.29-.48-1.47-.97-2.94-1.45-4.42.18-.09.36-.19.54-.28.37.55.74,1.09,1.11,1.64.29-.07.57-.15.86-.23-1-3.03-1.99-6.06-2.99-9.1.25-.15.5-.29.75-.44.56,1.34,1.12,2.69,1.95,4.67Zm-238.47,19.12c-5.76,10.68-9,21.13-9.29,32.95,5.32-4.35,10.39-8.48,15.85-12.94-2.07-6.31-4.16-12.67-6.56-20.01Zm121.71-84.76c5.98,5.1,11.9,10.15,17.67,15.08,2.39-4.68,3.7-9.72-1.52-14.9-3.12-3.09-5.16-7.26-7.85-11.19-3.04,4.04-5.81,7.71-8.3,11.01Zm54.79,254.27c4.54.23,7.33-3.5,10.15-5.57,1.48-1.08.46-5.56-.56-8.8,1.09,1.15,2.17,2.29,4.04,4.26-.24-3.06-.41-5.26-.58-7.45-2.05.28-4.44-.02-6.07.95-3.82,2.28-7.24,5.2-10.87,7.8-3.39,2.43-3.63,5.12-1.09,8.37.91,1.16,1.35,2.68,2.8,5.69,1.16-2.81,1.86-4.5,2.18-5.26Zm156.72-140.49c1.23,6.28,5.03,10.76,10.64,13.86,3.55-10.19,1.64-14.77-13.79-33.32,1.06,6.68,1.91,13.11,3.15,19.46ZM104.23,221.1c1.24-5.43,2.36-10.35,3.49-15.26,1.65-7.15.07-9.65-6.88-10.87-1.96-.35-3.91-.7-6.27-1.12,1.03,10.07,3.24,19.18,9.66,27.25Zm224.53-8.84c-1.83-6.64-3.74-13.55-5.65-20.45-.58.11-1.15.23-1.73.34-.56,6.72-1.11,13.44-1.67,20.16-.26-.02-.52-.03-.77-.04-.52-6.12-1.04-12.24-1.6-18.76-4,5.05-4.25,13.3-.9,22.79,3.9-1.28,7.48-2.45,12.33-4.05Zm-75.73-43.82c2.37,3.41,4.88,6.78,7.77,9.76,2.04,2.1,4.72,3.55,7.18.09,2.29-3.21,4-6.59.59-9.91-3.92-3.82-8.83-4.52-15.22-3.24-.11.9-.85,2.54-.32,3.3Zm-190.03,102.17c.91,3.21,2.26,6.38,3.96,9.24.69,1.15,2.85,1.42,5.51,2.61-1.04-7.98-1.9-14.61-2.77-21.26-8.99.89-9.67-1.04-6.7,9.42Zm163.61,255.33c-3.96-3.87-7.63-7.46-11.52-11.25-1.49.49-3.19,1.05-5.22,1.71.47,1.12.84,2.01,1.22,2.9-1.62-.77-3.04-1.44-4.47-2.12,4.23,9.17,11.28,10.61,19.99,8.77Zm45.2-48.33c.83,1.63,1.68,3.25,2.83,5.46,4.5-2.13,8.9-4.22,13.53-6.41-1.08-2.01-1.92-3.59-2.68-4.99-5.48.49-10.69.96-15.91,1.43.64,1.28,1.42,2.9,2.24,4.51Zm1.3-293.84c-.09-.12.28.41.65.95.42-.09.84-.17,1.27-.25-.5-2.52-1-5.03-1.54-7.75-6.8,5.27-7.95,7.92-6.2,15.9.44,2,2.21,3.71,3.36,5.55.53-.24,1.06-.47,1.58-.71.31-4.78.61-9.55.87-13.69Zm117.5,122.01c-.61,5.99-1.09,10.72-1.58,15.46.26.15.51.31.77.46.88-2.33,1.75-4.66,2.63-6.99.21.04.43.08.64.11-.16,1.42-.33,2.85-.57,4.99,3.25-2.57,6.12-4.86,9.97-7.91-4.19-2.17-7.85-4.06-11.86-6.13ZM99.56,235.98c.21-.33.42-.66.62-.98-.4-.81-.8-1.62-1.2-2.43,1.83,1.02,3.67,2.03,5.51,3.05.45-.38.89-.75,1.33-1.13-2.26-4.31-4.52-8.62-7.16-13.67-2.56,4.35-4.43,7.52-6.76,11.48,2.92,1.41,5.28,2.55,7.64,3.69Zm230.48,224.47c1.52-.42,3.02-.83,4.7-1.29-.56-1.7-1.11-3.37-1.78-5.42-2.93,1.71-7.41.26-8.1,5.17-.64-.56-1.38-1.21-2.12-1.86-.38.89-.77,1.79-1.05,2.45-2.15-4.22-4.2-.1-6.75.27.64,1.94,1.14,3.48,1.64,4.99,9.06-.82,12.33-2.86,11.73-7.27.56.95,1.12,1.91,1.73,2.96Zm-72.67-281.42c-2.79,7.75,4.96,10.82,7.71,16.34.13-4.34.26-8.67.39-13.28-2.82-1.07-5.46-2.06-8.1-3.06Zm-32.39,266.06c1.15-1.21,2.28-2.41,3.53-3.73-.81-1.63-1.58-3.19-2.35-4.74.14-.11.27-.21.41-.31,1,1.23,2,2.45,2.99,3.68.47-.21.93-.43,1.4-.65-1.29-3.11-2.59-6.21-4.06-9.76-7.23,7.75-7.25,7.94-1.92,15.51Zm-51.45-243.6c-4.66,5.17,1.48,9.02.82,14.22,5.78-3.67,5.17-8.81-.82-14.22Zm120.59,271.46c1.36-.51,2.72-1.03,4.4-1.66-.69-1.31-1.27-2.42-1.86-3.53q4-3.3,2.62-5.94c-2.76,2.29-5.47,4.54-8.56,7.1,1.34,1.59,2.28,2.71,3.4,4.04Zm-143.45,11.93c1.48-2.46,2.76-4.58,4.02-6.67-1.26-1.86-2.43-3.58-3.84-5.67-2.04,1.96-3.9,3.75-5.92,5.69,1.97,2.28,3.75,4.34,5.75,6.65Zm64.7-42.78c-1.74,1.23-3.02,2.13-4.62,3.26,1.98,3.86,3.85,7.5,5.85,11.39,5.19-5.74-.59-9.57-1.24-14.65Zm120.61,10.68c-.32.1-.64.2-.95.29.28,1.75.55,3.5.9,5.74,4.55-1.18,8.84-2.28,13.2-3.41-2.59-4.29-6.44-4.12-10.82-2.71.39.93.85,2.04,1.81,4.37-2.03-2.09-3.09-3.19-4.15-4.29Zm20.89,1.23c.15-.17.3-.33.44-.5,1.66,1.32,3.33,2.63,5.11,4.04,1.31-5.61-2.87-7.67-12.38-6.6,3.41,2.95,6.88,5.96,10.36,8.96.31-.34.62-.69.93-1.03-1.49-1.63-2.98-3.25-4.47-4.88Zm-50.86-256.82c-.71.03-1.42.05-2.13.08-.05,2.38-.58,4.88-.04,7.13,1.02,4.29,2.65,8.43,4.43,12.62-.61-2.79-1.23-5.58-2.05-9.32,1.04,1.92,1.64,3.03,2.24,4.15.43-.04.87-.08,1.3-.12-1.25-4.84-2.5-9.69-3.75-14.53Zm14.39,233.26c-.46-.17-.92-.34-1.38-.51-7.77,7.72-8.99,11.2-5.01,15.49,2.18-5.12,4.28-10.05,6.39-14.98Zm-138.19,86.47c-.31.62-.62,1.24-.92,1.86,5.61,2.85,11.22,5.69,16.83,8.54.43-.93.86-1.85,1.29-2.78-5.73-2.54-11.46-5.08-17.2-7.62Zm16.61,3.63c4.31,3.03,6.63,8.53,13.16,6.27-4.5-1.48-5-10.32-13.16-6.27ZM62.32,250.12c7.18,4.11,12.69,3.27,17.41-2.8-6.27,1.01-11.23,1.81-17.41,2.8Zm157.96,187.59c-8.23,4.61.71,8.44-.26,12.43,5.86-4.3.35-7.97.26-12.43Zm-123.82-54.42c-1.75-5.14-6.76-2.85-10.7-5.7,1.67,7.52,4.28,8.61,10.7,5.7Zm269.08-119.5c-.86-5.24-1.74-10.57-2.62-15.9-3.17,5.99-.99,14.91,2.62,15.9Zm-26.82,90.27q-4.51,2.3-.32,10.53c.51-.03,1.02-.05,1.53-.08-.39-3.38-.78-6.77-1.21-10.46Zm-34.6,112.61c5.48-4.5-1.46-5.85-1.31-10.06-3.31,5.13-3.01,6.39,1.31,10.06Zm-231.01-62.52c.38.29.76.57,1.14.86,3.11-4.05,6.23-8.11,9.34-12.16-.58-.45-1.16-.9-1.74-1.35-2.92,4.22-5.83,8.43-8.75,12.65Zm120.92,56.98q-3.67-6.28-9.48-3.37c2.79.99,5.57,1.98,9.48,3.37Zm197.93-118.77c.75.96,1.18,1.51,2.45,3.12-1.01-3.06-1.63-4.95-2.24-6.83-3.72,3.24-3.55,4.99,1.72,11.89-.74-3.16-1.26-5.39-1.92-8.18Zm-.32,14.16c2.73-5.52-3.02-8.29-2.39-12.54-.53.13-1.06.27-1.6.4,1.24,3.78,2.48,7.57,3.98,12.14Zm-64.61-71.2c.66-.08,1.32-.15,1.99-.23-.13-2.99-.25-5.98-.38-8.97-.99.13-1.98.25-2.97.38.45,2.94.91,5.88,1.36,8.82Zm-17.74,163.26c-.78,0-1.56.01-2.34.02-.03,2.76-.06,5.51-.09,8.27.87-.05,1.74-.1,2.61-.15-.06-2.71-.12-5.42-.19-8.13Z"/>
    </g>
  </g>
</svg>