<?xml version="1.0" encoding="UTF-8"?>
<svg id="Capa_2" data-name="Capa 2" xmlns="http://www.w3.org/2000/svg" viewBox="0 0 181.57 92.46">
  <defs>
    <style>
      .cls-1 {
        letter-spacing: -.02em;
      }

      .cls-2 {
        letter-spacing: -.01em;
      }

      .cls-3 {
        fill: #0a090a;
      }

      .cls-4 {
        font-size: 15.11px;
      }
    </style>
  </defs>
  <g id="Layer_1" data-name="Layer 1">
    <g>
      <g>
        <path class="cls-3" d="m18.05,27.64c.47-.18.94-.35,1.41-.53.16-.04.33-.09.5-.13,1.94-.42,3.86-.9,5.9-.48,2.25.47,3.72,2.09,4.15,4.86.04.27.25.52.38.77-.06,1,.63,1.94.34,3.01-.96-.34-.37-1.74-1.14-2.15-.42-1.29-.1-2.97-1.48-3.76-.53-1.41-1.64-1.54-2.61-1.67-4.99-.66-9.22,1.41-12.94,4.96-3.48,3.32-5.84,7.81-8.1,12.34-1.61,3.23-2.78,6.73-3.11,10.59-.38,4.51,2.42,8.43,6.18,7.84,2-.31,3.42-1.84,5.03-3,1.46-1.05,2.25-2.62,2.55-4.68.17-1.2.51-2.39.97-3.46,1.67-3.87,3.37-7.72,5.7-11.08.89-1.29,1.62-2.75,2.47-4.11.28-.46.67-.96,1.23-.6.49.31.22.88.23,1.35.04,1.22-.23,2.36-.47,3.5-.88,4.16-2.07,8.11-4.3,11.49-1.24,1.87-2.68,3.45-4.24,4.85-1.94,1.74-2.1,4.6-1.42,6.55.53,1.53,1.63,2,2.71,1.14,2.85-2.27,5.34-5.06,7.86-7.81.35-.38.46-.89.57-1.42.37-1.81,1.01-3.51,1.73-5.11,3.55-7.89,7-15.84,9.75-24.24.16-.5.27-1.04.71-1.3,1.28.54.25,1.69.56,2.49-.39,1.74-.61,3.51-.53,5.34v.03c-.6.58-.37,1.49-.45,2.22-.63,5.99-2.72,11.05-5.97,15.39-1.24,1.65-2.46,3.32-3.78,4.86-1.28,1.49-.97,2.7-.39,3.86.64,1.28,2.62,2.15,3.65,1.56,2.02-1.15,3.77-2.81,5.27-4.77.81-1.06.66-2.79,1.08-4.17.27-.87.42-1.8.67-2.68.12-.43.26-1.11.76-.89.42.18.22.78.12,1.19-.29,1.21-.6,2.42-.9,3.63-.06.24-.1.47.13.88,4.46-6.12,6.45-13.65,8.07-21.43.55,1.96-.03,3.69-.43,5.41-.77,3.32-1.97,6.41-3.17,9.5-.27.7-.36,1.14.31,1.73.95.84.95,2.24,1.02,3.46.08,1.42.58,1.64,1.51,1.2,1.09-.51,2.19-.99,3.26-1.54.61-.31.93-.95,1.19-1.72.77-2.27,1.83-4.33,3.38-5.94.32-.33.68-.82,1.18-.48.47.33.43.96.39,1.5-.21,2.77-1.72,4.44-3.41,5.86-.61.52-1.01,1-.65,1.9.36.91,1.08.78,1.63.55,3.27-1.37,6.17-3.33,7.81-7.24.35-.82.73-1.62,1.43-.25.37.72.6.31.79-.09.43-.93.84-1.89,1.23-2.85.16-.39.23-.96.74-.66.44.27.28.78.16,1.2-.29.96-.63,1.91-.89,2.89-.2.75-.26,1.57.25,2.23.53.69,1.18.46,1.72.16,1.62-.88,3.21-1.56,4.06-3.91,1.12-3.06,2.42-6.03,3.63-9.05.45-1.12.07-1.46-.8-1.43-1.55.06-3.09.09-4.64-.27-.48-.11-1.13-.04-1.06-.91.08-.96.7-.3,1.07-.26,1.64.16,3.28.45,4.92.42.99-.01,1.44-.5,1.68-1.62.58-2.71,1.28-5.38,1.47-8.22.01-.2.08-.38.11-.58.07-.44.13-1.03.6-.9.5.14.48.74.41,1.26-.21,1.56-.41,3.12-.64,4.68-.2,1.31-.43,2.61-.67,3.91-.2,1.03.03,1.44.98,1.39,1.35-.06,2.71.06,4.06.12.22.01.5-.07.67.48-.93.22-1.86.13-2.78.07-3.1-.23-3.84.51-4.47,4.09-.52,2.94-1.67,5.53-3.31,7.68-1.16,1.53-1.98,3.25-2.59,5.17-.1.33-.26.65-.04.98.25.37.52.13.78,0,2.34-1.08,4.57-2.39,6.75-3.85.44-.3.64-.82.8-1.4.62-2.18,1.4-4.26,2.48-6.16.43-.75.81-1.48,1.55-.29.24.39.59.27.92.28,1.36.03,1.88.57,2,2.22.17,2.43-.74,4.3-2.06,5.87-.91,1.08-.89,1.35.38,1.99,5.35,2.69,10.82,2.74,16.31,2.12.96-.11,1.96-.37,1.94-2.08.76,1.18.58,2.11-.44,2.65-.55.28-1.17.42-1.77.52-5.07.9-10.12.35-15.13-1.5-.63-.23-1.28-.51-1.86-.91-.92-.63-1.77-1.3-2.89-.9-.36.13-.97.09-1.2-.54-.46-1.25-1.04-1.08-1.77-.49-1.83,1.5-3.96,2.29-5.96,3.38-.48.26-.98.63-1.49.12-.54-.54-.46-1.28-.29-1.95.21-.81.49-1.59.82-2.61-2.04.62-4,3.61-5.79-.73-.94,2.15-1.97,4.13-3.11,6.02-.43.71-.94,1.31-1.47,1.9-.16.18-.42.35-.67.11-.24-.23-.18-.53-.12-.83.14-.63.46-1.13.77-1.64.72-1.16,1.47-2.3,2.04-3.74-.47-.06-.67.34-.93.55-2.08,1.79-4.13,3.65-6.68,4.44-1.08.34-2.05.13-2.65-1.27-.26-.6-.58-.62-1.01-.37-1.2.7-2.4,1.36-3.75,1.59-.68.11-.83.82-.93,1.53-.54,3.79-2.56,6.2-5.05,8.11-.74.56-1.77.95-2.55.12-.95-1.03-.85-2.55-.74-3.92.07-.91.43-1.77.22-2.76-.5.07-.74.47-1.04.78-1.14,1.22-2.41,2.18-3.74,3.08-1.39.94-2.44.18-3.53-.71-.67-.54-1.25-1.25-1.54-2.19-.27-.87-.62-.82-1.08-.3-2.08,2.33-4.22,4.57-6.55,6.55-.96.81-1.86,1.66-3.1,1-1.22-.66-1.53-2.07-1.68-3.51,0-.1-.01-.21-.04-.3-.25-.82.39-2.07-.21-2.37-.7-.35-1.23.87-1.87,1.33-1.63,1.19-3.06,2.79-5.22,2.73-4.05-.11-7.17-4.55-6.56-9.42.53-4.16,1.79-7.95,3.6-11.42,2.31-4.44,4.75-8.79,8.26-12,1.81-1.66,3.62-3.37,5.93-4.04m-1.98,28.77c.49.01.83-.35,1.15-.71,2.26-2.49,4.24-5.23,5.45-8.72.88-2.54,1.61-5.14,2.09-7.87-.39-.15-.51.07-.62.26-1.74,3.07-3.74,5.92-5.26,9.18-1.16,2.47-2.47,4.88-2.84,7.83-.04.07-.09.14-.13.21.05.03.11.05.16.08v-.26Zm22.52,7.95c.21-.13.53-.32.85-.52,2.45-1.56,3.61-4.24,4.24-7.42.15-.76.08-1.22-.48-1.6-.71-.49-1.03-1.29-1.2-2.2-.05-.28,0-.65-.3-.77-.35-.13-.49.26-.66.5-.57.81-1.05,1.73-1.69,2.45-1.96,2.21-2.16,5.21-2.25,8.24-.03.99.56,1.4,1.49,1.3m-10.42-10.04c6.02-6.01,9.26-13.78,9.54-23.42-2.84,8.03-6.72,15.39-9.54,23.42m51.44-6.18c.19,1.42.54,1.76,1.3,1.32,1.27-.73,2.55-3.52,2.43-5.25-.06-.87-.39-1.44-1.11-1.58-.7-.13-1.2.2-1.35,1.08-.19,1.07-.55,2.04-1.05,2.93-.26.45-.31,1-.21,1.5m-25.15-1.61c-.94.41-1.87,1.99-2.37,4.05,1.72-1.23,2.25-2.14,2.37-4.05m-10.5,7.39c-.25-1.23-.09-2.15-.67-2.92-.03-.04-.27.04-.28.11-.14.94-.11,1.84.95,2.81m35.21-4.08c-.29-.28-.24-1.01-.7-1.07-.34-.04-.36.44-.3.79.09.49.36.78.77.79.26,0,.35-.16.22-.51"/>
        <path class="cls-3" d="m38.25,65.82c-.47.07-.97-.04-1.43-.53-1.04-1.13-.92-2.79-.81-4.13.03-.32.08-.63.14-.93.1-.51.19-1,.12-1.52-.24.09-.41.28-.59.5-.06.07-.11.13-.17.19-1.25,1.34-2.61,2.32-3.78,3.11-1.55,1.05-2.76.06-3.73-.72-.8-.65-1.34-1.43-1.61-2.31-.09-.29-.19-.47-.29-.5-.07-.03-.22,0-.48.31-2.53,2.83-4.55,4.85-6.57,6.57l-.12.1c-.93.79-1.88,1.61-3.17.91-1.31-.71-1.64-2.2-1.8-3.71v-.09c-.01-.06-.02-.12-.03-.16-.13-.41-.07-.88,0-1.3.07-.56.09-.83-.08-.92-.33-.17-.62.14-1.05.66-.2.24-.41.49-.65.66-.33.24-.66.5-.98.76-1.26,1.01-2.56,2.05-4.34,2-1.99-.05-3.88-1.15-5.18-3.01-1.3-1.86-1.87-4.3-1.57-6.68.5-3.98,1.72-7.85,3.63-11.51,2.24-4.31,4.73-8.78,8.3-12.06l.19-.18c1.74-1.6,3.53-3.25,5.79-3.9.47-.18.94-.35,1.4-.53l.88-.22c1.8-.39,3.66-.8,5.61-.4,2.38.49,3.87,2.24,4.32,5.06.02.13.11.28.2.43.05.08.1.17.15.25l.04.07v.08c-.03.38.08.77.19,1.18.16.59.32,1.21.13,1.88l-.06.2-.17-.06c-.63-.23-.73-.84-.8-1.33-.07-.43-.12-.7-.37-.84l-.08-.04-.03-.09c-.13-.41-.19-.85-.25-1.28-.13-.99-.25-1.84-1.12-2.33l-.07-.04-.03-.09c-.47-1.27-1.47-1.4-2.43-1.52-4.55-.6-8.74,1.01-12.83,4.91-3.4,3.25-5.75,7.67-8.06,12.28-1.78,3.57-2.79,7-3.09,10.49-.19,2.25.41,4.38,1.66,5.86,1.14,1.36,2.68,1.97,4.29,1.71,1.49-.23,2.63-1.14,3.84-2.11.37-.29.74-.58,1.11-.86,1.36-.98,2.16-2.46,2.46-4.53.18-1.21.52-2.43.99-3.52,1.79-4.16,3.46-7.86,5.72-11.12.53-.77,1.02-1.62,1.49-2.44.31-.55.64-1.12.97-1.66.21-.34.71-1.14,1.47-.66.48.31.42.82.37,1.2-.01.12-.03.25-.03.36.04,1.17-.2,2.27-.42,3.33l-.05.24c-.73,3.43-1.88,7.84-4.34,11.57-1.15,1.74-2.55,3.34-4.27,4.89-1.85,1.66-2.01,4.42-1.36,6.29.24.69.6,1.15,1.04,1.33.43.18.91.07,1.38-.31,2.65-2.11,5.03-4.72,7.34-7.24l.5-.55c.29-.32.4-.75.52-1.31.33-1.59.88-3.23,1.75-5.16,3.22-7.16,6.89-15.53,9.74-24.22l.07-.21c.13-.44.29-.95.74-1.2l.07-.04.07.03c.98.41.83,1.22.71,1.8-.06.31-.12.61-.03.82l.03.08-.02.08c-.42,1.89-.59,3.61-.53,5.27v.06s-.08.15-.08.15c-.36.35-.36.87-.35,1.42,0,.22,0,.44-.02.66-.61,5.78-2.64,11-6.02,15.51l-.4.54c-1.09,1.45-2.21,2.95-3.39,4.33-1.13,1.33-.98,2.35-.36,3.58.59,1.19,2.47,1.99,3.4,1.46,1.89-1.08,3.64-2.67,5.22-4.72.47-.62.59-1.49.72-2.42.08-.56.16-1.14.32-1.67.14-.46.25-.94.36-1.41.1-.42.19-.85.31-1.27l.03-.11c.12-.42.33-1.19.96-.91.56.25.37.98.28,1.37l-.03.12c-.23.96-.47,1.93-.72,2.89l-.19.74c-.03.12-.06.23-.02.39,4.51-6.32,6.42-14.19,7.85-21.08l.15-.75.21.75c.5,1.76.12,3.33-.26,4.85-.06.23-.12.47-.17.71-.77,3.33-1.99,6.47-3.17,9.51-.27.7-.32.98.23,1.46.97.85,1.03,2.19,1.09,3.38v.26c.04.57.15.94.33,1.08.18.14.48.11.93-.1.3-.14.6-.28.91-.42.77-.36,1.58-.72,2.35-1.12.58-.3.87-.95,1.09-1.6.87-2.57,1.99-4.54,3.43-6.02l.1-.11c.31-.33.73-.78,1.29-.39.59.41.53,1.17.49,1.73-.22,2.9-1.81,4.61-3.49,6.02-.63.53-.88.9-.6,1.62.23.59.66.72,1.39.41,2.67-1.12,5.95-2.94,7.72-7.13.26-.61.48-1.12.9-1.11.29,0,.57.27.87.86.12.23.19.27.21.27.04.02.1-.04.25-.37.39-.84.78-1.74,1.23-2.84.03-.06.05-.13.07-.2.09-.26.19-.54.42-.64.14-.06.31-.03.49.08.6.36.39,1.1.27,1.49-.12.4-.24.79-.37,1.17-.18.56-.37,1.13-.52,1.71-.23.87-.17,1.51.2,2,.44.57.98.38,1.5.1l.38-.2c1.46-.78,2.83-1.51,3.6-3.6.75-2.05,1.59-4.1,2.41-6.08.41-.99.82-1.99,1.22-2.98.17-.42.21-.73.13-.88-.06-.1-.23-.23-.74-.2-1.66.06-3.15.09-4.69-.28-.08-.02-.16-.03-.24-.04-.3-.05-.64-.1-.84-.4-.12-.18-.17-.43-.14-.73.03-.32.12-.53.27-.64.22-.16.48-.03.72.08.1.05.21.1.28.11.46.04.93.1,1.39.16,1.15.14,2.34.28,3.52.26.89-.02,1.28-.4,1.51-1.46.11-.53.23-1.05.35-1.58.47-2.13.97-4.33,1.12-6.6,0-.13.04-.26.07-.39.02-.07.03-.14.04-.21v-.06c.07-.41.19-1.18.82-1.01.75.21.62,1.21.57,1.53l-.18,1.31c-.15,1.12-.3,2.25-.47,3.36-.19,1.24-.41,2.53-.67,3.92-.09.46-.08.75.02.9.1.15.36.22.76.2,1.01-.05,2.04.01,3.04.07.34.02.69.04,1.04.05h.08c.22,0,.58,0,.78.65l.07.25-.21.05c-.91.21-1.82.15-2.7.08h-.13c-2.98-.23-3.66.39-4.28,3.91-.51,2.91-1.64,5.53-3.35,7.78-1.07,1.41-1.91,3.08-2.55,5.1l-.04.13c-.11.31-.14.46-.04.61.09.14.16.14.42,0,.04-.02.09-.05.13-.07,2.15-.99,4.35-2.25,6.72-3.84.37-.25.55-.67.72-1.28.69-2.44,1.51-4.47,2.5-6.21l.03-.05c.28-.5.55-.96.96-.96.28,0,.57.24.87.73.12.2.28.2.55.19.07,0,.14,0,.2,0,1.48.03,2.07.7,2.2,2.45.15,2.2-.54,4.18-2.12,6.05-.2.24-.62.73-.58.96.04.23.63.52.88.65,5.63,2.83,11.36,2.65,16.22,2.1,1.15-.13,1.79-.47,1.78-1.86v-.67s.34.54.34.54c.41.65.58,1.25.48,1.78-.09.52-.43.93-.99,1.22-.57.3-1.21.43-1.81.54-5,.88-10.12.37-15.21-1.51-.55-.2-1.25-.49-1.9-.93l-.18-.12c-.85-.59-1.59-1.1-2.56-.76-.42.16-1.15.1-1.44-.68-.16-.44-.34-.69-.53-.77-.22-.09-.52.03-.95.39-1.29,1.06-2.75,1.78-4.16,2.47-.6.3-1.23.6-1.83.93l-.14.08c-.44.25-.99.56-1.55,0-.66-.65-.52-1.58-.36-2.21.15-.56.32-1.1.53-1.72.05-.15.1-.29.15-.44-.37.16-.74.38-1.1.6-.91.55-1.84,1.11-2.77.71-.59-.26-1.12-.89-1.59-1.91-.88,1.98-1.85,3.84-2.96,5.67-.46.76-1.01,1.4-1.49,1.93-.3.33-.64.37-.91.12-.36-.34-.25-.8-.19-1.08.15-.66.47-1.17.78-1.68l.27-.44c.56-.89,1.13-1.82,1.6-2.89-.1.06-.18.15-.27.25-.06.07-.13.14-.19.19l-.4.35c-1.93,1.66-3.92,3.38-6.34,4.13-1.34.42-2.3-.06-2.88-1.39-.18-.43-.36-.49-.76-.26-1.23.72-2.45,1.38-3.81,1.61-.51.08-.67.54-.78,1.35-.48,3.35-2.06,5.9-5.13,8.26-.27.21-.78.54-1.35.62m-1.69-7.64l.04.21c.15.71.03,1.35-.08,1.97-.06.3-.11.58-.13.87-.1,1.29-.21,2.76.68,3.72.8.86,1.88.18,2.31-.15,2.98-2.29,4.52-4.74,4.97-7.96.08-.58.22-1.56,1.09-1.71,1.31-.22,2.5-.87,3.7-1.57.21-.12.85-.5,1.27.48.49,1.14,1.26,1.51,2.42,1.14,2.36-.73,4.33-2.43,6.23-4.06l.4-.34c.06-.05.11-.1.16-.16.2-.21.44-.49.89-.43l.28.04-.12.31c-.51,1.3-1.17,2.36-1.81,3.38l-.25.4c-.33.53-.61.99-.74,1.57-.08.34-.07.47.04.57.15.14.31.02.42-.1.47-.53,1-1.14,1.44-1.87,1.17-1.93,2.18-3.89,3.1-5.99l.17-.39.17.41c.47,1.14.98,1.81,1.54,2.06.77.34,1.6-.16,2.47-.69.5-.3,1.03-.62,1.56-.78l.37-.11-.14.43c-.1.33-.2.63-.3.91-.2.61-.37,1.14-.52,1.68-.21.82-.14,1.33.22,1.7.34.34.66.19,1.14-.08l.15-.08c.61-.33,1.23-.64,1.84-.94,1.39-.68,2.83-1.39,4.09-2.43.38-.31.83-.61,1.27-.44.31.12.57.46.79,1.04.2.54.77.47.96.4,1.12-.4,2.01.21,2.86.8l.18.12c.61.42,1.29.69,1.82.89,5.04,1.86,10.1,2.37,15.04,1.49.58-.1,1.19-.22,1.72-.5.45-.23.71-.54.78-.91.05-.25,0-.53-.12-.83-.26,1.43-1.4,1.56-2.06,1.63-4.91.55-10.7.73-16.41-2.14-.67-.34-1.05-.59-1.12-1-.07-.4.17-.78.68-1.38,1.52-1.8,2.15-3.61,2.01-5.7-.1-1.51-.52-1.97-1.8-2-.06,0-.12,0-.18,0-.28.02-.63.04-.89-.38-.22-.35-.41-.53-.55-.53-.22,0-.44.39-.66.77l-.03.05c-.97,1.71-1.78,3.7-2.46,6.1-.16.55-.37,1.17-.88,1.52-2.39,1.6-4.6,2.86-6.77,3.86-.04.02-.08.04-.12.06-.22.12-.58.31-.88-.15-.26-.4-.13-.8-.03-1.09l.04-.12c.66-2.07,1.52-3.79,2.62-5.24,1.67-2.2,2.77-4.75,3.27-7.58.66-3.74,1.48-4.5,4.66-4.26h.13c.77.07,1.57.13,2.35-.01-.07-.07-.15-.07-.28-.07h-.09c-.35-.02-.69-.03-1.04-.05-.99-.05-2.01-.11-3.01-.07-.55.02-.88-.09-1.08-.38-.25-.36-.19-.89-.11-1.31.26-1.39.48-2.66.67-3.9.17-1.12.32-2.23.47-3.35l.18-1.32c.1-.73-.03-.92-.26-.98-.2-.06-.28.07-.37.66v.06c-.02.09-.04.17-.06.25-.02.1-.05.2-.05.3-.15,2.31-.65,4.54-1.13,6.69-.12.52-.23,1.05-.35,1.57-.27,1.25-.8,1.75-1.85,1.78-1.19.02-2.4-.12-3.56-.26-.46-.05-.92-.11-1.38-.16-.13-.01-.27-.08-.4-.14-.14-.06-.31-.15-.39-.11-.04.03-.08.15-.09.31-.01.17,0,.3.05.37.09.15.34.18.57.22.09.01.18.03.27.05,1.5.35,2.97.33,4.6.27.36-.01.86.01,1.09.43.17.31.14.75-.1,1.34-.4,1-.81,2-1.22,2.99-.81,1.97-1.66,4.01-2.4,6.05-.82,2.24-2.26,3.01-3.78,3.82l-.37.2c-.38.2-1.26.68-1.95-.22-.48-.62-.57-1.43-.29-2.47.16-.59.35-1.17.53-1.74.12-.39.25-.77.36-1.16.16-.54.18-.76-.06-.9-.06-.04-.15-.08-.2-.05-.08.03-.15.23-.21.39-.03.08-.05.15-.08.23-.45,1.1-.85,2.01-1.24,2.85-.14.29-.31.59-.57.6-.19,0-.37-.17-.55-.51-.2-.4-.39-.63-.53-.62-.2,0-.44.57-.58.87-1.82,4.33-5.19,6.2-7.91,7.35-.92.38-1.55.16-1.87-.68-.44-1.1.14-1.7.71-2.18,1.61-1.36,3.13-2.99,3.33-5.7.05-.61.05-1.03-.28-1.26-.3-.21-.53,0-.86.35l-.11.11c-1.39,1.44-2.48,3.35-3.33,5.86-.25.74-.58,1.47-1.28,1.83-.78.4-1.58.77-2.36,1.13-.3.14-.61.28-.9.42-.36.17-.89.36-1.28.05-.3-.24-.46-.71-.5-1.46v-.27c-.07-1.13-.13-2.31-.93-3.01-.81-.71-.66-1.31-.38-2.03,1.19-3.05,2.4-6.18,3.16-9.47.05-.24.11-.47.17-.71.29-1.17.58-2.38.44-3.65-1.45,6.82-3.43,14.45-7.92,20.62l-.16.22-.14-.25c-.28-.48-.23-.8-.16-1.08l.18-.74c.24-.96.48-1.92.72-2.88l.03-.12c.14-.53.13-.71-.02-.78-.22-.1-.32.04-.49.65l-.03.11c-.12.4-.21.83-.31,1.24-.11.48-.22.97-.36,1.44-.15.49-.23,1.05-.3,1.59-.13.95-.27,1.94-.81,2.65-1.6,2.09-3.39,3.71-5.32,4.81-1.11.63-3.2-.25-3.9-1.66-.57-1.14-.97-2.53.42-4.15,1.17-1.37,2.29-2.87,3.37-4.31l.4-.54c3.38-4.51,5.32-9.5,5.93-15.27.02-.18.02-.39.02-.6,0-.58,0-1.23.43-1.71-.06-1.65.11-3.37.52-5.24-.1-.34-.03-.7.04-1.04.11-.58.18-.93-.37-1.2-.27.19-.37.53-.49.91l-.07.22c-2.85,8.71-6.53,17.09-9.75,24.26-.85,1.9-1.4,3.5-1.72,5.06-.11.52-.23,1.1-.62,1.53l-.5.54c-2.32,2.53-4.72,5.15-7.39,7.28-.57.46-1.17.58-1.71.36-.55-.22-1.01-.8-1.29-1.61-.7-2.02-.53-5.02,1.48-6.83,1.7-1.52,3.08-3.09,4.21-4.81,2.42-3.66,3.55-8.02,4.27-11.41l.05-.24c.22-1.03.45-2.09.41-3.19,0-.15.01-.3.03-.45.05-.41.05-.57-.16-.7-.39-.25-.67.02-1,.54-.33.54-.65,1.1-.96,1.64-.47.83-.96,1.69-1.51,2.47-2.23,3.22-3.89,6.91-5.68,11.04-.46,1.06-.79,2.23-.96,3.39-.32,2.21-1.18,3.79-2.63,4.84-.37.27-.74.56-1.1.85-1.19.95-2.42,1.93-3.99,2.18-1.76.27-3.39-.38-4.62-1.85-1.34-1.59-1.98-3.87-1.78-6.26.3-3.56,1.33-7.05,3.14-10.68,2.32-4.65,4.69-9.1,8.14-12.4,4.17-3.98,8.45-5.62,13.08-5.01.98.13,2.16.28,2.74,1.73,1,.61,1.15,1.7,1.28,2.66.05.39.11.76.2,1.1.39.26.46.75.53,1.15.06.42.12.69.33.85.06-.45-.06-.9-.18-1.36-.11-.41-.22-.83-.21-1.28-.03-.05-.06-.1-.09-.16-.11-.18-.24-.39-.28-.63-.41-2.63-1.75-4.2-3.99-4.66-1.89-.39-3.63,0-5.48.4l-.85.21c-.46.18-.93.35-1.4.53h-.01c-2.19.64-3.96,2.26-5.67,3.83l-.19.18c-3.52,3.23-5.99,7.67-8.21,11.95-1.88,3.61-3.08,7.43-3.58,11.34-.28,2.25.26,4.54,1.48,6.3,1.22,1.75,3,2.79,4.88,2.84,1.65.05,2.85-.92,4.12-1.93.33-.26.66-.52.99-.77.2-.14.39-.37.58-.6.41-.49.88-1.04,1.46-.75.49.25.41.89.33,1.45-.05.38-.1.77-.01,1.06.03.1.04.19.04.28v.07c.17,1.58.5,2.75,1.57,3.32,1.09.58,1.92-.13,2.8-.88l.12-.1c2-1.7,4.01-3.71,6.53-6.53.2-.23.51-.51.83-.4.24.08.42.34.57.81.24.79.73,1.48,1.45,2.07,1.16.94,2.08,1.54,3.33.7,1.15-.78,2.49-1.75,3.71-3.06.05-.06.11-.12.16-.18.24-.28.51-.59.98-.66l.17-.03Zm2.1,6.41h-.04c-.61.07-1.07-.08-1.37-.42-.24-.28-.35-.66-.34-1.13.09-3.16.34-6.18,2.3-8.4.4-.45.75-1,1.08-1.53.19-.31.39-.61.59-.9.03-.04.06-.09.09-.14.14-.23.36-.59.77-.43.36.14.39.53.41.76,0,.07.01.13.02.18.19,1.02.53,1.65,1.09,2.04.7.48.74,1.09.58,1.87-.74,3.75-2.12,6.15-4.33,7.56-.21.14-.43.27-.61.38l-.27.16Zm2.9-12.53c-.08.01-.15.1-.27.29-.03.06-.07.11-.1.16-.2.28-.39.59-.58.89-.35.55-.7,1.11-1.12,1.59-1.87,2.11-2.1,4.91-2.19,8.09,0,.33.06.59.21.76.2.23.55.33,1.03.29l.2-.12c.18-.11.39-.24.6-.37,2.12-1.35,3.44-3.66,4.15-7.28.14-.72.05-1.03-.38-1.33-.88-.6-1.16-1.64-1.3-2.36-.01-.08-.02-.16-.03-.24-.02-.26-.04-.31-.13-.34-.04-.01-.07-.02-.1-.02m37.5-1.48s-.06,0-.1,0c-.51-.01-.86-.37-.97-.99-.03-.18-.09-.62.11-.89.07-.09.19-.19.39-.17.39.05.53.44.62.74.05.16.1.31.18.38l.04.04.02.06c.1.25.1.46.02.62-.04.08-.13.18-.31.21m-.63-1.57s-.04.02-.04.02c-.04.06-.07.25-.02.49.07.39.26.59.58.59.06,0,.09-.01.1-.02,0,0,0-.04-.03-.12-.13-.15-.2-.36-.26-.54-.09-.29-.15-.41-.28-.43-.01,0-.03,0-.04,0m2.07.87c-.15.02-.31,0-.46-.1-.31-.21-.5-.69-.62-1.59-.11-.59-.02-1.2.24-1.67.51-.91.85-1.84,1.02-2.85.17-.96.72-1.4,1.56-1.25.78.14,1.21.75,1.28,1.8.13,1.84-1.19,4.7-2.53,5.46-.14.08-.32.17-.5.19m1.32-7.01c-.41.06-.66.37-.76.92-.18,1.07-.54,2.05-1.08,3.01-.21.37-.28.85-.19,1.31v.02c.1.71.23,1.12.41,1.25.13.08.33.05.61-.11,1.2-.69,2.44-3.36,2.33-5.03-.06-.83-.35-1.25-.94-1.36-.14-.02-.27-.03-.39-.01m-37.55,11.64l-.42-.39c-1.08-.99-1.19-1.94-1.03-3.05,0-.04.02-.19.28-.27.06-.02.22-.07.32.07.43.57.5,1.23.57,1.92.04.35.07.71.15,1.11l.12.62Zm-1.08-3.25c-.11.78-.05,1.41.48,2.07-.02-.18-.04-.35-.05-.52-.06-.63-.11-1.13-.4-1.56,0,0-.02,0-.02,0m-26.94,5.77l-.64-.32.25-.41c.33-2.58,1.38-4.76,2.39-6.88.16-.33.31-.65.47-.98,1-2.13,2.22-4.12,3.39-6.05.63-1.02,1.27-2.08,1.88-3.14.12-.21.31-.54.82-.35l.18.07-.04.22c-.44,2.52-1.13,5.1-2.1,7.91-1.07,3.07-2.76,5.79-5.49,8.8-.28.31-.62.69-1.1.75v.38Zm8.25-17.71c-.1.01-.14.09-.21.21-.61,1.08-1.26,2.14-1.89,3.17-1.17,1.91-2.38,3.9-3.37,6-.15.33-.31.66-.47.98-.97,2.02-1.97,4.1-2.31,6.5.33-.08.58-.36.83-.63,2.69-2.97,4.36-5.63,5.4-8.65.93-2.68,1.6-5.17,2.03-7.58,0,0-.01,0-.02,0m3.16,15.82l.32-.9c1.42-4.05,3.14-7.99,4.81-11.81,1.64-3.75,3.33-7.64,4.74-11.61l.41-1.15-.04,1.27c-.28,9.57-3.52,17.51-9.61,23.59l-.62.62Zm9.79-22.95c-1.32,3.58-2.85,7.08-4.33,10.47-1.53,3.51-3.11,7.13-4.46,10.83,5.33-5.63,8.28-12.78,8.78-21.31m14.29,18.91l.14-.58c.51-2.12,1.49-3.76,2.48-4.19l.29-.12-.02.37c-.12,1.98-.7,2.96-2.46,4.22l-.43.31Zm2.47-4.17c-.69.5-1.35,1.64-1.79,3.11,1.2-.94,1.65-1.72,1.79-3.11"/>
        <path class="cls-3" d="m105.68,41.17c-2.01,1.89-3.84,3.93-6.23,4.98-.66.29-1.34.42-2.05.18-.31-.11-.73-.28-.63-.76.07-.37.47-.65.79-.49,1.46.74,2.48-.31,3.47-1.12,1.55-1.27,3.13-2.52,4.42-4.22.67-.88.8-1.72.39-2.94-1.22-3.67-2.98-6.94-5.15-9.9-1.2-1.63-1.86-3.48-1.99-5.6-.04-.73-.38-1.39-.36-2.18.11-4.21,1.94-7.25,4.32-9.8,3.87-4.15,8.71-6.03,13.68-7.61,3.57-1.14,7.24-1.31,10.92-1.47,1.85-.08,3.61.53,5.24,1.66,1.36.95,1.88,2.54,2.06,4.32.31,3.07-.51,5.82-1.48,8.44-2.98,8.02-7.46,14.6-13.03,20.1-.43.43-.86.86-1.3,1.29-.34.34-.69.79-1.17.34-.36-.34-.48-.86-.28-1.36.23-.56.48-1.34,1.11-1.04.61.28.9-.04,1.29-.39,3.63-3.29,6.58-7.36,9.06-11.93,1.91-3.52,3.7-7.14,4.59-11.33.3-1.44.5-2.91.32-4.42-.29-2.47-2.03-4.22-4.75-4.53-4.94-.57-9.7.41-14.4,1.82-2.96.89-5.72,2.34-8.35,4.09-3.02,2.02-5.3,4.97-6.54,8.94-1.22,3.91-.11,7.42,2.07,10.59,1.77,2.57,3.41,5.22,4.4,8.35.12.36.19.91.58.91.47,0,.44-.6.53-1,.61-2.86,1.38-5.65,2.2-8.42.13-.45.23-1.12.75-.89.52.22.33.88.22,1.31-.95,3.6-1.41,7.4-2.65,10.87-.35.99-.18,1.93.03,2.92.33,1.52.67,3.04.28,4.58-.17.66-.34,1.43-1.06,1.37-.8-.06-1.15-.87-1.21-1.69-.09-1.28-.04-2.58-.06-3.95m1.28.31c-.38,1.54-.38,2.67.02,4.18.54-1.47.18-2.62-.02-4.18"/>
        <path class="cls-3" d="m107.17,47.05c-.07,0-.14.01-.22,0-.78-.06-1.32-.8-1.4-1.92-.07-.91-.06-1.8-.06-2.75,0-.24,0-.48,0-.73-.23.23-.47.45-.7.68-1.67,1.62-3.25,3.15-5.27,4.04-.81.35-1.49.41-2.16.18-.19-.07-.56-.19-.71-.52-.08-.16-.1-.34-.06-.54.05-.25.21-.48.43-.61.2-.12.42-.13.61-.04,1.24.63,2.15-.15,3.04-.89l.6-.5c1.41-1.15,2.86-2.35,4.04-3.9.63-.83.73-1.58.36-2.7-1.17-3.51-2.84-6.73-5.11-9.83-1.24-1.69-1.91-3.57-2.04-5.74-.02-.3-.09-.58-.17-.89-.1-.41-.21-.83-.19-1.31.1-3.69,1.49-6.86,4.38-9.96,4.01-4.31,8.99-6.15,13.76-7.66C119.9.33,123.62.16,127.23,0c1.82-.08,3.62.49,5.35,1.7,1.25.87,1.94,2.31,2.16,4.51.31,3.15-.53,5.97-1.5,8.56-2.87,7.72-7.15,14.32-13.08,20.18l-1.39,1.38c-.32.32-.75.77-1.32.24-.44-.42-.58-1.06-.34-1.66l.05-.11c.22-.55.55-1.38,1.3-1.04.48.22.7.02,1.03-.29l.07-.07c3.41-3.09,6.36-6.98,9.02-11.88,1.73-3.19,3.65-6.96,4.56-11.26.25-1.17.51-2.72.31-4.33-.28-2.41-1.99-4.03-4.57-4.33-5.33-.61-10.46.65-14.34,1.81-2.7.81-5.41,2.14-8.3,4.07-3.11,2.08-5.29,5.05-6.46,8.83-1.07,3.43-.4,6.81,2.04,10.35,1.7,2.47,3.41,5.19,4.43,8.42.02.06.04.13.06.2.11.39.18.55.33.56.2,0,.24-.13.31-.56.01-.1.03-.19.04-.28.66-3.07,1.48-5.99,2.2-8.44l.05-.17c.11-.42.3-1.12.94-.85.19.08.33.22.41.4.16.37.04.84-.05,1.18-.37,1.4-.66,2.83-.95,4.21-.47,2.24-.95,4.55-1.71,6.71-.32.91-.18,1.79.04,2.77.34,1.55.68,3.12.28,4.71-.16.64-.36,1.43-1.03,1.52m-1.3-6.35v.49c0,.42,0,.83,0,1.23,0,.93,0,1.82.05,2.7.03.42.19,1.4,1.03,1.47.51.04.67-.43.86-1.17.38-1.51.07-2.95-.26-4.46-.24-1.1-.4-2.06-.03-3.1.76-2.13,1.23-4.42,1.69-6.65.29-1.39.58-2.82.95-4.2.08-.29.17-.65.09-.85-.01-.03-.04-.11-.18-.16-.23-.1-.31,0-.47.58l-.05.18c-.72,2.44-1.54,5.34-2.19,8.4-.01.07-.02.16-.04.24-.05.37-.13.93-.67.93-.46,0-.61-.54-.71-.9-.02-.06-.03-.12-.05-.18-1-3.16-2.69-5.84-4.36-8.28-2.54-3.69-3.23-7.23-2.11-10.83,1.21-3.88,3.44-6.93,6.62-9.05,2.92-1.95,5.66-3.29,8.39-4.11,3.91-1.17,9.08-2.44,14.47-1.82,2.77.32,4.62,2.09,4.93,4.75.2,1.69-.07,3.3-.32,4.51-.92,4.37-2.86,8.17-4.61,11.4-2.68,4.95-5.66,8.86-9.1,11.99l-.07.07c-.35.32-.72.66-1.39.35-.39-.19-.59.21-.83.82l-.05.12c-.16.39-.08.79.22,1.07.28.27.47.13.84-.24l1.4-1.39c5.89-5.82,10.13-12.37,12.97-20.03.94-2.52,1.77-5.28,1.47-8.32-.2-2.04-.82-3.35-1.96-4.14-1.67-1.16-3.4-1.71-5.14-1.63-3.58.16-7.28.32-10.87,1.46-4.72,1.5-9.65,3.32-13.61,7.56-2.81,3.01-4.16,6.08-4.26,9.64,0,.4.08.77.18,1.16.08.32.16.65.18.99.12,2.06.76,3.85,1.94,5.45,2.31,3.14,4,6.4,5.19,9.97.43,1.29.31,2.21-.42,3.17-1.2,1.59-2.68,2.8-4.1,3.97l-.6.49c-.92.77-1.96,1.65-3.4.93-.09-.04-.2-.03-.3.03-.12.07-.21.19-.24.32-.02.1,0,.15,0,.18.07.15.35.25.48.29.59.2,1.2.15,1.93-.17,1.96-.86,3.52-2.37,5.16-3.97.34-.33.67-.66,1.02-.98l.31-.29Zm1.08,5.63l-.16-.59c-.41-1.55-.42-2.72-.02-4.32l.25-.99.13,1.05c.04.31.08.6.12.88.18,1.18.33,2.19-.12,3.44l-.2.55Zm-.02-3.68c-.1.77-.08,1.47.06,2.23.14-.75.06-1.44-.06-2.23"/>
        <path class="cls-3" d="m147.98,32.34c-.09.21-.18.43-.26.64-.58.89-.94,1.98-1.64,2.79-.91,1.06-.86,2.31.07,3.73,1.3.84,2.14-.32,2.86-1.09,1.16-1.23,2.09-2.75,2.45-4.72.17-.94.61-1.79.96-2.66.15-.37.46-.58.82-.34.28.2.43.59.26.91-.78,1.43-.87,3.29-1.96,4.55-.85.98-1.32,2.39-2.3,3.3-.38.35-.77.66-1.16,1.01-.93.83-1.85.82-2.76-.21-.5-.72-.42-2.13-1.17-2.29-.6-.13-1.29.64-1.95,1-1.18.65-2.33,1.2-3.46-.4-.4-.57-.65-.01-.83.33-.55,1.02-1.06,2.06-1.61,3.08-.19.35-.44.83-.87.53-.49-.35-.29-.91-.11-1.33.4-.95.88-1.86,1.3-2.8.28-.63.63-1.25.52-2.31-.92,1.01-1.77,1.89-2.57,2.84-1.12,1.33-2.27,2.49-3.84,3.09-.92.35-1.55,1.46-2.44,2.05-1.27.85-2.54,1.33-3.91.17-1.2-1.01-1.63-2.84-1.17-4.9.7-3.16,2.07-5.84,4.03-7.99,1.72-1.89,3.66-1.76,5.53.18.88.91,1.67,1.89,2.26,3.09.43.88.99.98,1.51.33.75-.93,1.34-1,1.84.55.46-.93.84-1.7,1.23-2.47.15-.29.34-.65.66-.48.46.24.22.69.11,1.02-.38,1.08-.83,2.12-.89,3.34-.07,1.38.42,2.03,1.46,1.6,1.74-.71,3.57-1.3,3.82-4.18.12-1.39.74-2.68,1.12-4.03.1-.35.42-.74.15-1.09-.28-.36-.63-.05-.88.18-.47.42-1.01.3-1.53.28-.28-.01-.45-.25-.48-.59-.03-.3.14-.46.34-.53.39-.14.78-.35,1.18-.33,1.7.06,2.39-1.22,2.86-2.92,1.05-3.8,2.15-7.57,3.22-11.37.16-.57.32-1.12.81-1.38.36.3.36.69.35,1.18-.06,3.82-.87,7.4-1.74,10.97-.11.45-.44.95-.14,1.4.32.48.79.15,1.14,0,1.13-.49,2.48.03,3.5-1.13.5-.57,1.28-.15,1.62.74.35.91.03,1.69-.54,2.2-.26.23-.81.35-1.06-.26-.6-1.45-1.56-1.36-2.56-1.09-.43.12-.84.34-1.28.44-1.23.27-1.78,1.26-2.05,2.65-.17.85-.48,1.64-.73,2.46-.04.09-.07.18-.11.27m-15.95,7.62c.88-.47,2.39-2.02,2.68-2.56.36-.71.12-1.49-.25-1.92-.75-.87-1.22-1.95-1.85-2.9-1.02-1.54-2.87-2.23-3.97-1.24-2.66,2.41-4.37,5.59-4.69,9.78-.08,1.07.42,1.84,1.14,2.36,1.14.83,4.27-.62,4.62-2.1.04-.18.01-.4-.01-.59-.32-2.53.58-4.52,1.68-6.42.29-.5.65-.96,1.2-.71.67.3.58,1.05.54,1.68-.1,1.54-.5,2.97-1.08,4.61m18.46-21.52c-.79,2.58-1.58,5.16-2.36,7.75-.08.25-.25.6.08.76.23.11.49-.05.59-.35.9-2.59,1.48-5.3,1.69-8.16m-4.49,15.76c.95-1.2,1.36-2.59,1.86-3.88.23-.6.77-1.65.28-1.94-.78-.45-.72.87-1.01,1.41-.28.52-.47,1.13-.63,1.73-.21.79-.74,1.49-.49,2.68m-15.33,5.91c.9-1.17,1.4-2.57,1.4-4.22-.89,1.17-1.44,2.53-1.4,4.22"/>
        <path class="cls-3" d="m126.43,45.09c-.68.09-1.4-.08-2.15-.71-1.27-1.07-1.74-3-1.26-5.16.7-3.17,2.08-5.89,4.09-8.1,1.76-1.93,3.81-1.86,5.78.19,1.06,1.1,1.77,2.07,2.3,3.15.13.26.34.57.59.62.24.04.47-.16.61-.35.47-.59.86-.81,1.23-.71.3.09.55.39.78.92l.23-.47c.29-.58.55-1.1.82-1.63.14-.28.41-.81.89-.56.18.09.3.23.36.4.1.29-.01.59-.1.82l-.04.11c-.06.17-.12.35-.19.52-.33.91-.64,1.76-.69,2.75-.04.66.07,1.12.29,1.33.24.23.63.15.91.03l.26-.1c1.65-.66,3.21-1.29,3.44-3.89.09-.96.4-1.88.71-2.77.15-.43.3-.87.42-1.31.03-.1.07-.21.12-.32.13-.31.16-.42.08-.53-.13-.17-.31-.07-.62.21-.45.4-.96.36-1.41.33-.08,0-.16-.01-.24-.01-.37-.01-.63-.33-.67-.81-.03-.36.14-.65.46-.77.08-.03.16-.06.24-.09.32-.13.66-.26.99-.25,1.68.06,2.28-1.3,2.68-2.77.64-2.3,1.29-4.59,1.95-6.89.43-1.49.85-2.99,1.27-4.48.16-.56.34-1.2.9-1.51l.1-.05.09.08c.46.38.45.89.44,1.39-.06,3.8-.86,7.39-1.75,11.03-.03.12-.07.24-.12.37-.13.36-.2.59-.06.81.17.25.41.16.76,0,.05-.03.1-.05.15-.07.45-.2.93-.24,1.39-.28.74-.06,1.45-.13,2.04-.8.24-.28.56-.38.89-.28.42.12.82.54,1.04,1.11.35.92.14,1.82-.59,2.48-.17.16-.49.3-.82.19-.23-.08-.42-.27-.54-.55-.49-1.19-1.23-1.25-2.34-.96-.19.05-.38.12-.57.2-.23.09-.47.18-.72.24-1.03.23-1.62,1-1.91,2.49-.12.6-.31,1.18-.5,1.74-.08.25-.16.49-.24.74l-.38.93c-.25.39-.45.78-.64,1.16-.3.58-.6,1.19-1.04,1.69-.82.95-.8,2.06.05,3.38,1.04.64,1.73-.12,2.4-.86l.21-.23c1.29-1.38,2.08-2.88,2.39-4.61.14-.75.44-1.45.73-2.12.08-.2.17-.39.25-.58.11-.27.29-.46.49-.53.18-.06.39-.03.58.11.21.14.36.36.41.61.05.22.02.44-.08.63-.31.56-.5,1.19-.71,1.85-.3.96-.61,1.95-1.28,2.74-.36.42-.65.92-.96,1.44-.39.66-.79,1.35-1.35,1.87-.22.2-.44.39-.67.58-.17.14-.33.28-.49.42-1.04.93-2.05.85-3.01-.23-.24-.35-.35-.76-.46-1.16-.17-.61-.28-.99-.6-1.07-.34-.07-.78.24-1.2.55-.21.15-.43.31-.64.43-1.08.59-2.42,1.33-3.69-.47-.07-.1-.14-.16-.18-.16h0c-.09.01-.22.26-.3.41l-.04.07c-.26.47-.5.95-.75,1.44-.28.55-.57,1.1-.86,1.64-.2.37-.54,1-1.12.59-.68-.48-.32-1.33-.19-1.64.23-.55.49-1.08.74-1.6.19-.4.38-.8.56-1.2l.08-.18c.21-.45.4-.89.43-1.5-.18.2-.36.39-.54.59-.6.65-1.17,1.26-1.71,1.91-1.06,1.26-2.27,2.52-3.91,3.15-.5.19-.91.62-1.34,1.07-.33.34-.67.7-1.06.96-.62.41-1.28.77-1.96.86m3.07-14.88c-.74.1-1.45.53-2.13,1.27-1.96,2.15-3.3,4.8-3.98,7.89-.43,1.96-.02,3.69,1.09,4.64,1.25,1.06,2.39.7,3.71-.18.36-.24.69-.58,1-.91.45-.46.9-.94,1.47-1.16,1.49-.56,2.58-1.62,3.77-3.04.55-.65,1.12-1.27,1.72-1.92.28-.3.56-.6.85-.92l.28-.3.05.47c.1,1.04-.19,1.69-.46,2.27l-.08.18c-.18.41-.38.81-.57,1.21-.25.51-.51,1.05-.73,1.58-.24.57-.23.83.03,1.02.22.16.35.03.6-.43.31-.57.59-1.11.87-1.66.25-.49.5-.97.75-1.45l.04-.07c.14-.26.31-.59.6-.61.17,0,.34.11.5.34.99,1.41,1.96,1.03,3.23.33.2-.11.4-.26.61-.4.48-.35.97-.71,1.45-.61.57.12.76.8.92,1.4.1.36.2.73.37.98.8.9,1.6.96,2.5.16.16-.15.33-.29.5-.43.22-.18.44-.37.66-.57.52-.49.91-1.15,1.28-1.78.3-.52.61-1.05,1-1.5.62-.71.9-1.62,1.2-2.58.2-.66.41-1.34.74-1.94.04-.08.05-.17.03-.26-.03-.12-.11-.24-.22-.31-.1-.07-.2-.09-.29-.06-.11.04-.2.15-.27.31-.08.2-.17.39-.25.59-.28.65-.57,1.32-.7,2.02-.34,1.82-1.16,3.4-2.51,4.84l-.2.22c-.7.77-1.58,1.72-2.87.89l-.06-.07c-1.02-1.55-1.04-2.91-.06-4.05.4-.46.68-1.02.98-1.6.2-.39.4-.8.64-1.16l.35-.87c.07-.23.15-.48.24-.74.18-.54.36-1.1.48-1.67.33-1.66,1.02-2.55,2.19-2.81.23-.05.44-.14.67-.23.2-.08.4-.15.6-.21.99-.27,2.11-.42,2.78,1.22.07.16.16.26.28.29.18.06.38-.02.5-.12.34-.31.85-.96.48-1.92-.17-.43-.46-.75-.76-.84-.15-.04-.36-.04-.56.18-.68.77-1.49.85-2.27.92-.46.04-.89.08-1.29.26-.04.02-.09.04-.14.07-.34.16-.84.4-1.21-.14-.31-.45-.14-.92,0-1.29.04-.11.08-.22.1-.32.88-3.62,1.67-7.17,1.73-10.91,0-.44,0-.69-.17-.89-.32.23-.45.63-.61,1.19-.42,1.49-.85,2.99-1.27,4.48-.65,2.29-1.31,4.58-1.94,6.88-.43,1.55-1.13,3.11-3.04,3.06-.28,0-.58.11-.87.23-.09.03-.17.07-.26.1-.23.08-.21.24-.21.3.01.16.08.36.28.37.08,0,.17,0,.25.01.42.03.82.06,1.16-.25.26-.23.73-.66,1.13-.14.3.38.12.8,0,1.07-.04.09-.08.17-.1.25-.13.45-.28.9-.43,1.33-.31.9-.6,1.75-.68,2.64-.26,2.88-2,3.58-3.69,4.26l-.26.11c-.54.21-.97.18-1.28-.12-.34-.32-.49-.9-.44-1.74.05-1.06.39-2,.72-2.9.06-.17.12-.34.18-.51l.04-.12c.06-.15.13-.35.1-.45-.02-.06-.09-.1-.14-.13-.14-.07-.24.01-.43.39-.27.52-.53,1.05-.81,1.62l-.62,1.24-.15-.45c-.2-.63-.42-.98-.65-1.05-.22-.06-.51.14-.88.59-.37.47-.71.52-.93.47-.23-.04-.57-.23-.88-.86-.51-1.03-1.2-1.96-2.22-3.02-1.06-1.11-2.13-1.59-3.15-1.45m-3.09,13.71c-.54.07-1.05.02-1.42-.24-.89-.65-1.32-1.55-1.24-2.6.31-4,1.91-7.35,4.77-9.94,1.13-1.02,3.11-.42,4.24,1.29.23.36.45.74.66,1.1.35.61.71,1.24,1.17,1.77.43.5.71,1.4.29,2.22-.29.57-1.82,2.15-2.75,2.65l-.46.25.2-.56c.5-1.4.97-2.92,1.07-4.54v-.1c.05-.69.05-1.13-.41-1.33-.36-.16-.63.01-.98.63-1.2,2.08-1.94,3.93-1.65,6.25.03.24.06.47,0,.69-.22.92-1.27,1.68-2.18,2.09-.39.18-.85.32-1.29.38m3.23-12.8c-.33.04-.63.18-.88.4-2.77,2.52-4.33,5.75-4.62,9.63-.07.86.28,1.58,1.04,2.13.45.33,1.39.26,2.38-.18,1.03-.45,1.81-1.18,1.96-1.8.03-.12,0-.29-.01-.45-.31-2.51.45-4.45,1.71-6.62.21-.37.66-1.12,1.42-.78.78.35.72,1.2.68,1.83v.1c-.1,1.45-.47,2.8-.89,4.06.83-.62,1.9-1.74,2.12-2.17.31-.6.11-1.25-.22-1.63-.49-.56-.86-1.22-1.22-1.85-.2-.36-.42-.73-.64-1.07-.74-1.12-1.89-1.72-2.82-1.59m.85,9.57v-.59c-.04-1.62.43-3.05,1.44-4.37l.34-.44v.62c0,1.65-.5,3.12-1.46,4.37l-.32.42Zm1.36-4.1c-.56.89-.88,1.83-.96,2.84.54-.85.86-1.81.96-2.84m14.06-1.92l-.09-.42c-.2-.95.06-1.61.28-2.2.08-.21.16-.41.21-.61.14-.52.34-1.2.65-1.78.07-.13.13-.36.18-.57.1-.41.2-.83.49-.98.17-.09.36-.06.58.06.13.08.23.2.28.37.14.45-.12,1.07-.34,1.61-.04.1-.08.19-.11.27-.08.22-.17.45-.25.67-.41,1.11-.83,2.25-1.64,3.27l-.24.3Zm1.93-6.14s-.03,0-.04.01c-.13.07-.21.41-.28.7-.06.25-.12.5-.22.69-.29.54-.48,1.18-.61,1.68-.06.23-.15.45-.23.66-.17.44-.34.87-.32,1.4.6-.88.95-1.84,1.3-2.78.08-.23.17-.45.26-.68.03-.09.07-.18.11-.28.15-.37.41-.99.33-1.25,0-.03-.02-.06-.07-.09-.09-.05-.17-.07-.22-.07m.61-1.31c-.1.01-.2,0-.3-.05-.14-.07-.24-.17-.29-.31-.09-.23,0-.47.06-.66l.03-.1c.58-1.92,1.16-3.83,1.75-5.74l1.11-3.63-.12,1.75c-.19,2.76-.77,5.53-1.7,8.22-.1.3-.31.49-.54.52m1.64-6.76l-.03.09c-.58,1.91-1.17,3.83-1.74,5.74l-.04.11c-.03.08-.08.24-.07.29,0,0,.02.03.07.05.13.07.29-.04.35-.23.69-1.99,1.17-4.01,1.46-6.05"/>
        <path class="cls-3" d="m156.57,40.67c-1.8.18-2.52-.77-2.43-3.1.1-2.78,1.37-4.84,2.55-6.98.87-1.56,2.12-2.58,3.36-3.64.98-.2,1.91-.41,2.56,1.05.46,1.03.68.1.87-.28,1.79-3.63,2.76-7.66,3.42-11.83.23-1.5.42-3.02.61-4.53.05-.43-.02-1.02.5-.97.63.06.5.73.48,1.18-.16,3.17-.47,6.31-1.24,9.33-.63,2.46-1.38,4.86-2.05,7.3-.85,3.1-2.24,5.9-4.04,8.34-.21.29-.46.56-.6.9-.18.43-.37.93-.08,1.41.34.56.77.22,1.12.05,1.05-.5,2.09-1.02,3.11-1.59.81-.45,1.54-.89,1.17-2.4-.24-.98.28-1.95.68-2.76.84-1.72,1.99-3.16,3.22-4.48.56-.61,1.28-.74,1.91-.1.63.64.84,1.52.49,2.45-.3.8-.54,1.66-.96,2.36-.53.87-.25,1.44.44,1.73,3.01,1.3,6.04,2.18,9.08.76.2-.09.37-.25.54,0,.15.22.1.5-.01.7-.31.53-.72.88-1.3.93-3.25.29-6.46.15-9.5-1.87-.43-.29-.68-.11-.97.19-2.33,2.37-5.21,3.58-7.91,5.15-.55.32-1.18.42-1.63-.12-.82-1.01-1.43-.53-2.11.04-.39.32-.85.54-1.28.8m-1.52-2.36c.14.98.59,1.51,1.31,1.17,1.16-.55,2.5-1.11,3-2.51.81-2.3,1.85-4.4,2.88-6.54.34-.71-.13-1.24-.31-1.79-.18-.57-.73-.39-1.1-.29-.63.17-1.24.36-1.74.92-1.3,1.45-2.36,3.14-3.27,4.98-.61,1.23-.78,2.65-.76,4.06m11.91-2.87c.95-.65,1.02-1.78,1.44-2.64.3-.63.52-1.29,1.24-.44.28.33.59.41.8-.08.32-.78.64-1.56.93-2.36.13-.36.17-.79-.15-1.09-.37-.35-.71-.15-1,.12-1.04.99-1.87,2.24-2.59,3.57-.44.81-.8,1.66-.65,2.93"/>
        <path class="cls-3" d="m160.94,40.43c-.44.06-.82-.09-1.11-.45-.68-.84-1.13-.54-1.87.07-.28.23-.59.41-.9.58-.14.08-.27.15-.4.23l-.03.02h-.03c-.93.1-1.6-.1-2.04-.62-.46-.54-.66-1.44-.62-2.73.1-2.65,1.24-4.68,2.33-6.64l.25-.45c.84-1.52,2.05-2.54,3.21-3.53l.27-.2c1.03-.21,2.06-.42,2.77,1.17.14.31.21.34.21.34.06-.02.17-.29.22-.42.04-.08.07-.16.1-.23,1.55-3.15,2.63-6.89,3.4-11.76.22-1.38.39-2.8.57-4.17l.04-.35c0-.07.01-.15.02-.23.03-.37.07-.98.67-.93.23.02.41.12.53.29.2.29.17.69.15,1v.15c-.14,2.61-.4,6.04-1.26,9.39-.37,1.47-.8,2.93-1.21,4.35-.28.98-.57,1.96-.84,2.95-.83,3.05-2.21,5.89-4.08,8.42-.05.07-.1.13-.15.2-.17.22-.32.42-.42.65-.18.43-.31.81-.09,1.16.18.3.37.24.74.05.05-.03.1-.06.15-.08,1.21-.58,2.2-1.09,3.1-1.59.87-.49,1.38-.87,1.07-2.13-.25-1.02.24-2.01.63-2.8l.07-.15c.93-1.9,2.23-3.42,3.25-4.53.68-.74,1.49-.78,2.16-.1.72.73.92,1.72.55,2.73-.08.2-.15.41-.22.61-.21.61-.43,1.24-.76,1.78-.14.24-.29.58-.22.85.07.26.34.43.55.52,2.86,1.23,5.92,2.18,8.95.76l.09-.04c.16-.09.44-.23.68.13.19.28.19.66,0,.98-.38.64-.85.97-1.43,1.03-2.95.26-6.39.24-9.61-1.9-.33-.22-.48-.12-.76.17-1.79,1.82-3.92,2.98-5.98,4.09-.66.36-1.32.71-1.97,1.09-.26.15-.51.24-.74.28m-2.06-1.42c.37-.05.77.1,1.22.65.42.52,1.06.27,1.4.07.65-.38,1.31-.74,1.98-1.09,2.04-1.1,4.15-2.24,5.9-4.03.3-.31.64-.57,1.18-.21,3.12,2.08,6.5,2.1,9.39,1.84.47-.05.84-.31,1.16-.85.02-.04.14-.25.02-.41-.04-.06-.04-.07-.22.02l-.1.05c-3.14,1.48-6.29.51-9.22-.75-.43-.19-.7-.46-.8-.83-.1-.38-.01-.8.27-1.27.3-.5.51-1.11.71-1.69.07-.21.15-.42.22-.63.3-.81.15-1.58-.43-2.17-.52-.52-1.12-.48-1.66.1-1.01,1.09-2.28,2.58-3.19,4.43l-.07.15c-.37.76-.8,1.61-.59,2.44.42,1.73-.52,2.25-1.27,2.67-.91.51-1.9,1.01-3.12,1.6-.04.02-.09.04-.14.07-.33.17-.82.43-1.21-.21-.38-.62-.11-1.27.06-1.66.12-.29.3-.52.48-.75.05-.07.1-.13.15-.19,1.84-2.49,3.19-5.27,4-8.27.27-.99.55-1.98.84-2.96.41-1.42.83-2.88,1.21-4.34.84-3.3,1.1-6.7,1.23-9.28v-.16c.03-.23.05-.52-.04-.65-.04-.06-.13-.1-.25-.11-.21-.02-.25.06-.28.52,0,.09-.01.18-.02.26l-.04.35c-.17,1.38-.35,2.8-.57,4.19-.77,4.93-1.87,8.71-3.44,11.9-.03.06-.06.13-.09.2-.12.3-.28.66-.56.66-.26,0-.44-.34-.56-.6-.57-1.28-1.34-1.13-2.3-.93l-.17.14c-1.19,1.01-2.31,1.97-3.12,3.41l-.25.45c-1.12,2-2.17,3.89-2.27,6.41-.04,1.15.12,1.92.49,2.36.34.4.9.56,1.69.49.12-.08.25-.15.37-.22.3-.17.59-.34.85-.55.35-.29.72-.6,1.14-.65m-2.79.79c-.26.04-.46-.05-.6-.14-.31-.22-.53-.68-.63-1.32v-.04c-.03-1.69.23-3.05.79-4.18.99-2.01,2.07-3.66,3.3-5.03.53-.59,1.16-.8,1.82-.97l.06-.02c.38-.11,1.03-.28,1.27.46.04.13.1.25.16.38.2.43.44.96.14,1.61l-.29.59c-.91,1.89-1.85,3.85-2.58,5.92-.5,1.41-1.78,2.01-2.92,2.54l-.18.08c-.13.06-.25.09-.35.11m-.84-1.5c.07.48.22.82.42.96.16.11.37.11.61,0l.18-.09c1.07-.5,2.28-1.06,2.71-2.3.74-2.1,1.69-4.07,2.6-5.97l.28-.59c.19-.4.07-.69-.13-1.15-.07-.15-.13-.29-.18-.44-.09-.29-.34-.28-.81-.15l-.06.02c-.61.16-1.19.35-1.66.86-1.2,1.34-2.26,2.95-3.23,4.93-.52,1.05-.76,2.33-.74,3.92m11.57-2.49l-.04-.35c-.16-1.38.26-2.31.68-3.08.86-1.59,1.7-2.74,2.63-3.63.17-.16.68-.64,1.24-.11.2.19.49.62.22,1.38-.29.8-.61,1.59-.93,2.35-.15.37-.34.47-.47.49-.21.02-.43-.08-.64-.34-.19-.23-.35-.34-.45-.33h0c-.15.02-.28.31-.42.59l-.07.15c-.11.24-.2.5-.29.78-.23.68-.48,1.44-1.21,1.94l-.25.17Zm3.94-6.94c-.13.02-.27.1-.43.26-.9.86-1.72,1.98-2.55,3.52-.35.65-.69,1.37-.65,2.38.42-.41.6-.95.79-1.51.09-.28.19-.57.32-.83l.07-.14c.18-.37.36-.76.69-.81h0c.23-.03.48.12.78.47.11.13.22.21.3.2h0c.08-.01.15-.13.19-.23.32-.78.64-1.56.93-2.35.18-.48.03-.69-.09-.81-.11-.1-.22-.15-.34-.13"/>
        <path class="cls-3" d="m46.52,30.65c-.79.5-1.1,1.31-1.46,2.05-2.13,4.43-3.67,9.2-4.77,14.2-.1.46-.05,1.16-.63,1-.68-.2-.41-.95-.3-1.37,1.55-5.83,3.15-11.65,6.17-16.6.31-.51.58-1.45,1.4-.88.38.27.56,2.59.31,3.01-.25.4-.45.12-.53-.13-.11-.35-.12-.75-.19-1.28"/>
        <path class="cls-3" d="m39.9,48.15c-.08.01-.18,0-.28-.02-.24-.07-.42-.21-.52-.42-.18-.37-.05-.83.04-1.16l.03-.1c1.73-6.52,3.29-11.89,6.2-16.66.05-.08.1-.17.15-.27.26-.5.66-1.26,1.5-.66.17.12.3.42.4.93.14.74.22,2.04-.02,2.42-.17.28-.34.31-.46.28-.17-.04-.32-.22-.41-.48-.09-.27-.12-.54-.15-.87,0-.04,0-.07-.01-.11-.5.41-.77.98-1.03,1.54l-.12.25c-2.03,4.22-3.59,8.86-4.75,14.15-.02.08-.03.18-.04.27-.04.3-.09.64-.31.81-.07.05-.14.08-.22.09m6.53-19.04c-.23.03-.39.3-.58.67-.05.1-.11.2-.16.29-2.88,4.72-4.42,10.05-6.14,16.53l-.03.11c-.07.23-.16.59-.07.77.04.08.12.14.26.18.09.03.16.03.21,0,.09-.07.12-.31.15-.52.01-.11.03-.21.05-.31,1.18-5.33,2.74-10,4.79-14.26l.12-.24c.31-.66.66-1.42,1.42-1.89l.24-.15.05.33c.02.18.04.34.05.48.03.3.06.54.12.75.04.11.08.17.1.18,0,0,.04-.01.1-.12.09-.15.13-1.04-.02-1.91-.09-.54-.2-.72-.23-.75-.17-.12-.3-.16-.42-.14m.56,2.92h0s0,0,0,0Z"/>
      </g>
      <text class="cls-4" transform="translate(31.57 88.24)"><tspan class="cls-2" x="0" y="0">M</tspan><tspan class="cls-1" x="12.32" y="0">AS</tspan><tspan class="cls-2" x="27.37" y="0">TER DI</tspan><tspan class="cls-1" x="68.28" y="0">S</tspan><tspan class="cls-2" x="75.05" y="0">TILLER</tspan></text>
    </g>
  </g>
</svg>