<?xml version="1.0" encoding="UTF-8"?>
<svg id="Capa_2" data-name="Capa 2" xmlns="http://www.w3.org/2000/svg" xmlns:xlink="http://www.w3.org/1999/xlink" viewBox="0 0 428 608">
  <defs>
    <style>
      .cls-1 {
        clip-path: url(#clippath);
      }

      .cls-2 {
        fill: none;
      }
    </style>
    <clipPath id="clippath">
      <rect class="cls-2" x="234" y="0" width="194" height="608" transform="translate(662 608) rotate(-180)"/>
    </clipPath>
  </defs>
  <g id="Layer_1" data-name="Layer 1">
    <g class="cls-1">
      <path d="m328.6,456.77c5.22.47,9.67.86,14.57,1.3-2.52,24.6-16.85,40.23-37.88,52.23,2.45.26,3.89.45,5.34.55,1.48.09,2.97.09,5.67.16-.85,3.54-1.24,6.8-2.4,9.76-6.71,17.27-31.48,33.5-49.8,31.28-9.38-1.14-18.5-4.93-27.56-8.03-25.47-8.71-51.43-14.35-78.47-11.65-9.43.94-18.01-2.09-27-3.14-4.18-.48-8.34-1.39-12.44-2.35-9.18-2.16-17.86-4.54-24.88-12.11-11.61-12.53-25.95-21.47-42.29-26.98-25.87-8.74-36.76-29.01-41.25-54.06-.39-2.2.36-4.61.6-7.11-8.08-11.1-12.99-23.61-9.85-38.13,1.51-6.98,2.7-7.47,10.86-6.81-.62-3.11-.51-6.32-1.87-8.69-7.17-12.46-4.48-24.77.07-37.06,1.33-3.59,3.46-6.74,8.2-5.82,5.67,1.1,10.25-.67,13.23-4.7-3.38-5.98-7.89-11.54-9.79-17.88-2.63-8.78-.12-17.34,5.94-24.54,3.25-3.87,6.73-7.58,9.72-11.64,2.95-4,5.42-8.35,8.48-13.16,1.44.62,3.67,1.29,5.61,2.45,3.35,2,5.02.4,6.19-2.5.5-1.24.92-2.57,1.06-3.9,1.72-16.34,12-26.83,24.25-36.14,2.4-1.83,4.43-4.38,6.04-6.96,3.89-6.23,6.89-13.07,11.23-18.95,5.62-7.62,9.07-7.48,16.31-.54,1.71-7.28,5.4-12.77,12.82-14.7,6.84-1.78,13.64-2.74,19.81,2.56,1.36-2.6,2.48-5.17,3.98-7.5,5.49-8.48,13.19-11.55,23.03-9.79,1.83.33,4.21-.2,5.81-1.19,9.48-5.89,19.56-8.98,30.78-7.45,5.65.77,8.08,3.6,8.71,9.37.56,5.11,1.33,10.2,2.02,15.33,5.9-.31,8.37-4.1,10.11-7.72,3.7-7.68,10.22-11.32,17.62-14.09,2.05-.77,4.11-1.55,6.22-2.15,13.85-3.94,16.22-2.97,23.69,9.32,1.92,3.16,3.98,6.25,6.55,10.28,7.14-4.97,14.18-9.96,21.35-14.73,1.08-.72,3.27-1.11,4.2-.51,11.6,7.55,20.21,17.75,25.7,30.45.65,1.5.39,3.61-.03,5.29-.81,3.26-2.03,6.41-3.16,9.87,13.31-2.3,19.41,7,25.44,15.87,5,7.36,7.53,15.76,8.36,24.68.39,4.18.03,7.61-4.51,9.34-1.15.44-2.02,1.57-3.09,2.44,15.58,5.68,16.02,20.23,20.07,32.55.31.94.25,2,.4,3,1,6.65,1.71,13.21-6.2,16.57,4.78,3.55,9.31,6.44,13.26,9.98,5.55,4.97,5.91,7.06,2.51,13.6-3.4,6.55-6.98,13.05-11.08,19.18-2.52,3.77-1.43,6.12,1.32,8.64.12.11.24.23.36.35,7.1,7.13,6.79,6.95,1.34,15.85-2.63,4.29-4.86,9.32-5.48,14.24-.99,7.87-5.22,12.47-11.76,15.79-1.64.83-3.26,1.72-4.77,2.76-3.11,2.14-3.6,4.55-1.52,8.04,4.17,7.03,3.96,7.71-3.54,10.5-8.96,3.33-13.58,11.36-19.84,17.57-3.16,3.14-5.34,7.26-8.39,11.54Zm-56.02-31.18c.8.95,1.59,1.89,2.39,2.84,2.18,3.17,4.36,6.34,6.53,9.51-2.89,3.77-5.78,7.55-8.67,11.32.4.67.8,1.34,1.2,2.01,2.73-.82,5.45-1.63,8.18-2.45,1.34.1,2.68.33,4.02.27,2.94-.13,6-1.05,8.77-.5,5.46,1.1,10.8,2.87,16.12,4.56,7.65,2.43,12.43,1.18,16.78-3.92-5.32-1.15-11.55-1.64-17.05-3.91-5.93-2.44-11.17-6.54-16.71-9.91-1.98-1.6-3.97-3.2-5.95-4.8-2.05-3.55-4.09-7.11-6.14-10.66-.35-.78-.7-1.57-1.12-2.53-2.04,2.15-3.8,4.01-5.55,5.86,1.11-1.84,1.97-3.91,3.38-5.47,2.06-2.26,1.24-3.39-1.07-4.36-1.04-1.11-2.07-2.23-3.11-3.34-1.34-1.15-2.52-2.88-4.06-3.3-2.22-.61-5.04-.96-6.95-.05-1.1.52-1.45,3.83-1.15,5.73.28,1.8,1.83,3.4,2.89,5.19,1.9-2.63,3.62-5.01,5.33-7.39-.82,2.39-2.34,4.4-3.27,6.66-.41,1,.34,2.48.56,3.75.72.99,1.44,1.98,2.17,2.96.83.64,1.66,1.29,2.48,1.93Zm-227.7-31.02c-.61-1.28-.97-3.44-1.87-3.69-3.86-1.11-9.09,5.3-8.32,9.31,2.44-1.37,5.01-2.81,7.57-4.25-1.41,1.79-3.07,3.45-4.15,5.43-.69,1.27-.54,3-.77,4.52.76.22,1.52.44,2.28.66,1.75-3.99,3.5-7.98,5.25-11.97Zm-12.12-5.77c-.67,2.36-5.94,3.79-1.57,7.31,2.38-2.63,4.64-5.13,6.9-7.63-.19-.4-.37-.8-.56-1.2-1.66.55-3.32,1.09-4.98,1.64-.31-.93-.47-2.59-.94-2.68-4.02-.78-8.09-1.28-13.31-2.03,3.61,3.12,6.51,5.63,9.21,7.97,1.85-1.19,3.54-2.28,5.25-3.38Zm241.08,117.83c1.78-1,3.69-1.82,5.31-3.03,2.75-2.05,5.31-4.35,7.94-6.54-2.45,2.55-4.9,5.1-8.37,8.71,6.52-.95,11.49-1.68,16.47-2.4-.52.82-1.04,1.64-1.57,2.46.44.69.89,1.38,1.33,2.07,3.09-2.02,6.18-4.05,9.27-6.07-.11-.32-.22-.64-.33-.97-1.58.18-3.16.36-4.74.54,0-.6.26-1.47-.05-1.76-2.54-2.44-5.17-4.78-7.78-7.15-.67-1.95-1.03-4.37-4.1-2.74.35-1.06.69-2.12,1.04-3.17-.38-.15-.77-.31-1.15-.46-5.75,6.96-11.5,13.93-17.91,21.69,2.4-.61,3.51-.89,4.62-1.17ZM50.52,378c-1.14,2.38-2.27,4.77-3.5,7.34,1.21,1.16,2.38,2.27,3.7,3.53,1.28-2.63,2.41-4.96,3.57-7.35-1.46-1.26-2.72-2.34-3.97-3.42-2.47-3.94-6.47-7.07-5.78-12.24-2.2,2.83-4.16,5.36-6.12,7.89,5.83-11.49,6.57-19.03,2.23-25.83-1.57,5.64-3.04,10.93-4.52,16.23.48.14.95.28,1.43.42.45-.72.91-1.44.7-1.11.05,2.86.11,6.57.17,10.28,1.34,2.3,2.67,4.59,4.15,7.12.8-1.31,1.27-2.08,1.69-2.76.16,1.99.32,3.92.5,6.1,2.37-2.56,4.07-4.39,5.75-6.21Zm173.94,80.8c.2.62.4,1.24.61,1.86,1.71-1.03,3.42-2.07,4.91-2.97-.05.34-.2,1.41-.56,4.04,2.83-2.6,4.68-4.29,6.91-6.34-2.86-.94-5.04-1.65-7.36-2.41-.85.93-1.72,1.9-2.6,2.86.45-1.36.9-2.73,1.26-3.85-3.27-1.97-6.04-3.63-9.26-5.57-2.31,5.39-4.52,10.56-6.73,15.73.42.4.83.8,1.25,1.2,3.86-1.52,7.71-3.03,11.57-4.54Zm40.62-269.04c.14-1.42.29-2.85.43-4.27,7.01-2.74,14.02-5.48,21.58-8.44-3.2-4.79-6.54-10.82-10.95-15.93-2.29-2.66-6.52-5.22-9.81-5.13-8.79.23-16.89,3.68-25.21,8.77,4.01,5.47,7.73,10.54,11,15-5.81,7.83-13.36,14.45-12.33,25.82,2.58-1.39,4.95-2.28,6.83-3.78,2.95-2.34,5.27-6.49,8.45-7.2,2.16-.48,2.53-1.1,3.63-2.44,2-2.44,4.5-4.47,6.8-6.67-2.03,3.39-7.62,4.63-5.86,11.16,2.11-2.66,3.84-4.85,5.58-7.03-.74,1.65-1.47,3.29-2.2,4.93,1.41.46,2.52.83,3.7,1.21.72-1.44,1.33-2.67,2.53-5.06-.47,2.52-.7,3.74-.95,5.03,12.82-.55,18.61-5.56,16.93-14.71-7.27,1.67-15.64.51-20.15,8.75Zm41.73-10.31c.16-3.74.31-7.47.5-11.95-4,3.74-7.05,6.59-10.1,9.44-2.06,1.92-4.13,3.82-6.11,5.81-.07.07.76,1.03,1.17,1.58-1.48,2.58-2.97,5.17-4.45,7.75.38.45.77.91,1.15,1.36,3.74-1.25,8.72-4.64,10.99-3.33,5.63,3.26,5.99-2.74,9.14-3.81-.84,1.74-1.54,3.2-2.02,4.21,2.28,2.19,4.25,4.09,7.05,6.79-.77-7.43-2.68-13.18-7.31-17.84Zm-130.32,200.94c-.75-.87-1.45-1.79-2.25-2.6-6.41-6.44-13.08-12.64-19.17-19.37-3.49-3.86-6.03-8.57-9.37-13.44,2.39,13.19,16.12,32.07,21.42,30-1.25,3.18,3.67,8.89,7.83,9.09-.21.78-.83,2.06-.57,2.27,5.95,4.96,12,9.81,17.93,14.6,2.39-3.18,4.04-5.38,5.7-7.58-1.11,2.39-2.22,4.79-3.33,7.17,6.27,3.89,12.15,3.36,17.82-2.45-1.22,2.37-1.86,3.61-2.5,4.85,27.82,6.44,50.32-6.89,53.1-30.98-9.39,5.23-18.75,11.22-28.76,15.75-6.92,3.14-14.53,4.56-17.71,12.69-.24.6-1.12.95-1.7,1.41-.15-.12-.31-.25-.46-.37,2.11-3.09,4.23-6.17,6.4-9.34-7.16-.47-13.93-.91-20.93-1.37-.53.68-1.33,1.72-2.13,2.75.33-1.19.65-2.39.85-3.11-7.71-3.47-14.94-6.73-22.17-9.99Zm162.49-55.82c-1.49-4.57-6.32-6.42-9.99-3.27-4.27,3.67-5.16,4.27,2.23,10.37,1.95,4.21,3.91,8.43,5.99,12.92,2.02-2.78,3.64-5.01,5.25-7.24-.39,1.56-.83,3.17-1.85,4.17-3.85,3.78-1.35,6.13,1.64,8.49,2.11,1.66,4.85,1.62,7.19,3.36,4,2.98,8.51,2.1,11.78-2.23.23.54.52,1.56.69,1.54,3.54-.4,7.06-.91,10.58-1.41,1.24-.18,2.48-.39,3.73-.58-.05-.43-.11-.87-.16-1.3-3.55.16-7.64,1.5-10.51.17-3.11-1.44-3.16.8-4.47,1.66,1.22-1.68,1.46-2.88-1.09-3.61-2.08-.6-4.21-1.42-5.99-2.63-7.39-5.02-10.74-13.08-15.02-20.43Zm-215.43,80.39c-1.5-.92-3-1.85-4.5-2.77-8.78-8.13-14.18-18.41-18.67-29.27-1.1-2.65-2.26-5.28-3.2-7.49-2.26,3.29-4.25,6.19-6.24,9.09,1.3-3.09,2.82-6.1,3.82-9.28.5-1.6.07-3.5.06-5.26-3.4,4.56-7.33,8.83-3.76,14.49,1.01,7.6.55,14.98-3.47,21.79,1.04-1.42,2.08-2.84,3.12-4.26.2.12.4.25.6.38-1.68,4.08-3.35,8.16-5.03,12.24.5.19,1,.37,1.5.56,1.97-3.08,3.87-6.2,5.92-9.22,2.02-2.99,4.19-5.88,6.29-8.82-2.35,5.45-5.44,10.38-8.57,15.3-4.22,6.63-3.93,8.28,2.34,13.34,1.8-2.26,3.6-4.52,5.4-6.79-.35,2.13-1.24,3.88-2.41,5.44-2.81,3.74-1.03,4.91,2.71,5.11l-.06-.02c-.16.04-.34.06-.48.14-.11.06-.25.27-.23.31,2.03,2.94,3.72,1.51,5.37-.42,3.5-4.09,7.01-8.18,10.51-12.27-2.16,3.33-4.32,6.66-6.87,10.59,2.78-.72,4.89-1.26,6.99-1.8,6.68,2.89,8.59-3.69,12.65-6.19-1.31,1.94-2.61,3.88-4.54,6.76,9.05-2.23,17.97,1.9,25.22-4.64-1.08,1.23-2.16,2.46-3.97,4.52,7.38-.66,8.66-7.17,13.5-9.44-2.43,3.05-4.86,6.1-7.54,9.45,6.59,1.5,6.87-6.09,11.71-7.35-2.14,2.84-4.13,5.48-6.38,8.47,9.14-.1,12.96-5.42,10.09-13.33-3.44.21-6.93.49-10.44.61-7.75.27-15.5.54-23.25.65-2.72.04-5.46-.39-8.18-.61Zm-46.95-156.27c-4.94.06-6.56,3.26-5.86,7.35.56,3.3,2.35,6.39,3.64,9.68,1.04-4.32,1.97-8.19,2.9-12.07,2.1,6.72.99,14.73,8.46,19.55,5.01-7.05,11.03-13.39,21.45-13.91-2.25-4.86-4.16-8.94-6.03-13.04-1.02-2.24-2.31-3.38-5.1-2.58-6.44,1.84-12.96,3.37-19.45,5.03Zm197.56,4.2c.71-2.42,1.79-4.81,2.04-7.28.42-4.11,1.89-9.19.13-12.24-5.48-9.47-12.28-18.17-18.78-27.47q-3.84,9.61-1.24,11.94c.68-1.47,1.33-2.89,1.91-4.14,0,2.15-.91,4.99.13,6.38,3.91,5.22,8.45,9.96,12.79,14.92.35-.56.84-1.35,1.26-2.02-.16,5.31-.48,10.69-.36,16.07.03,1.27,1.51,2.5,2.32,3.76.39,1.17.78,2.33,1.17,3.5,1.55-.86,3.93-1.37,4.48-2.66,1.25-2.9,1.59-6.2,2.31-9.33.24.06.47.12.71.18-.85,3.78-1.69,7.55-2.54,11.33.49.18.98.36,1.46.55,1.4-4.28,2.81-8.55,4.21-12.83.46.16.93.32,1.4.48-1.23,3.75-2.46,7.49-3.71,11.29,12.84,1.77,32.7-11.71,33.07-27.24-6.59,1.88-13.09,4.4-19.82,5.5-10.49,1.71-16.56,7.93-20.5,17.15-.39.9-1.59,1.46-2.44,2.19Zm-94.83-33.95c.65-1.01,1.31-2.01,1.96-3.02,1.35,3.02,3.19,1.88,5.04.58l-.08-.02c.6-.39,1.19-.79,1.78-1.18h.02c1.72-.86,3.43-1.72,5.15-2.58l-.11.04c3.8-2.86,8.54-4.92,8.48-10.91-.02-1.73.85-3.47,1.31-5.21.27.08.54.16.8.24-.35,2.66-.71,5.33-1.06,7.99.25.06.5.11.75.17.66-2,1.31-3.99,1.96-5.99.16.05.31.1.47.15-.3,1.69-.6,3.38-1.07,6.07,1.64-1.27,2.41-2.37,3.18-2.38,2.43-.03,5.22,1.16,7.18.3,1.58-.7,2.61-3.59,3.03-5.68.42-2.05-.35-4.31-.41-6.48-.1-4.04-2.42-5.82-6.06-6.81-15.35-4.18-33.61,8.27-34.8,24.27-.25,3.4,1.59,6.95,2.47,10.44Zm-66.91,81.83c-3.19-5.93-6.38-11.85-10.27-19.08-.5,4.42-.89,7.83-1.28,11.25.45.04.89.09,1.33.13.55-.51,1.1-1.02,1.33-1.23-.06,2.32-.12,4.71-.22,8.17,1.78-1.58,2.39-2.13,2.35-2.1.23,2.84.49,5.93.84,10.11,2.61-3.22,4.27-5.25,5.92-7.28-4.34,5.29-4.33,10.47-.5,16.24,2.19,3.3,5.9,6.31,3.9,11.52,1.36-.79,1.96-1.14,3.47-2.02-2.02,2.79-3.33,4.6-4.64,6.41.23.43.47.85.7,1.28,1.84-.64,3.68-1.28,5.28-1.83-.08.51-.24,1.56-.46,3.04,5.44-1.38,12.14,4.17,15.55-4.11-.06.92-.13,1.84-.24,3.45,4.02-5.48,7.64-10.4,11.25-15.32.18.11.37.23.56.34-1.33,2.12-2.65,4.23-3.97,6.34.24.25.48.5.73.75,2.25-1.6,4.5-3.2,6.52-4.64-.01.39-.04,1.17-.06,1.83,6.41-2.12,12.72-4.21,20.39-6.74-11.72-3.55-22.01-2.83-32.14-1.5-12.76,1.67-21.37-5.1-26.35-15.01Zm159.16,47.43c-2.09-4.51-4.18-9.02-6.32-13.65-8.19,7.87-9.02,16.51-2.61,21.83,3.07-2.78,6.11-5.54,9.15-8.3-2.44,3.32-4.88,6.64-7.61,10.34,6.19,3.47,5.98,7.95,4.04,13.75-1.83,5.49-3.28,11.55-.46,18.02,4.71-5.37,9.05-10.32,13.39-15.27.24.22.49.43.73.65-4.11,5.03-8.23,10.07-12.34,15.1.43.39.87.77,1.3,1.16,2.94-3.23,5.88-6.46,8.82-9.69.19.16.39.32.58.48-2.23,2.92-4.47,5.83-6.7,8.75,8.93-1.71,12.97-9.7,19.75-14.3-3.88,4.31-7.76,8.63-12.57,13.98,9.95-3.48,14.45-11.1,20.84-16.69-3.15,4.09-6.3,8.17-9.81,12.72,8.39-2.69,12.32-8.67,15.01-15.09-5.34-2.41-10.78-4.25-15.54-7.19-4.93-3.04-9.19-7.15-13.75-10.79-.97,1.03-1.97,2.08-3.57,3.78,3.01-5.74,2.51-7.36-2.34-9.62Zm-86.76-77.47c-.65-2.64-1.3-5.28-1.94-7.92-.58-.09-1.16-.18-1.74-.27-2.6,6.79-5.42,13.51-7.69,20.42-1.12,3.42,1.03,6.34,3.94,6.6-.86,3.96-.24,7.51,2.98,10.49.7-1.62,1.34-3.12,1.99-4.62-3.84,7.46,2.15,10.65,6.39,15.45,1.72-5.23,3.22-9.8,4.72-14.38-.69,4.54-3.59,9.05-3.06,13.1.46,3.55,4.79,6.59,8.22,10.86,2.05-6.25,3.52-10.73,4.99-15.21,0,2.31-.69,4.38-1.35,6.45-2.8,8.82-2.84,8.89,5.25,13.51,1.03.59,2.73,0,3.53-.02,1.45.98,3,2.02,4.86,3.27,1.37-5.16,2.49-9.32,3.59-13.48.13.03.26.07.39.1-.84,4.41-1.67,8.81-2.5,13.15,4.88,2.08,9.49,3.99,14.07,5.99,8.78,3.84,20.3-.78,23.16-9.94,1.54-4.94,1.63-10.34,2.36-15.47-6.74,1.68-12.53,4.24-18.37,4.38-19.62.45-34.53-8.43-44.64-25.15-3.37-5.57-6.12-11.52-9.15-17.3Zm-37.97,62.64c1.8,2.83,3.26,5.09,4.69,7.36,7.57,11.98,15.12,24.08,26.58,32.79,17.29,13.13,36.35,18.67,57.16,9.46,11.01-4.88,21.24-11.5,32.36-17.64-1.52-2.02-2.37-3.69-3.69-4.83-11.25-9.74-23.62-17.71-37.28-23.73-15.21-6.69-31.5-7.97-47.59-10.72-12-2.04-21.75,1.81-32.22,7.31Zm25.66,67.72c-1.42-3.17-2.48-6.6-4.35-9.5-6.21-9.62-12.14-19.51-19.21-28.48-16.78-21.31-39.13-30.17-66.25-27.81,3.67,4.88,7.74,9.19,10.51,14.22,5.86,10.62,11.29,21.5,16.44,32.48,7.1,15.17,18.81,21.67,35.35,20.38,8.86-.69,17.75-.85,27.5-1.29Zm15.97,82.84c7.02,10.58,16.9,18,27.56,24.57,10.03,6.18,20.71,7.47,31.35,2.59,8.54-3.91,16.51-9.08,24.63-13.87,1.67-.99,3.19-2.59,4.18-4.26.66-1.12.9-3.3.25-4.27-5.74-8.44-12.52-15.71-22.06-20.17-18.91-8.83-50.1-3.08-65.91,15.4Zm-12.78,33.02c-22.65-35.87-58.89-46.47-95.42-57.66,5.11,25.9,14.41,44.84,38.91,55.31,18.22,7.79,36.67,8.27,56.51,2.35Zm-65.15-95.5c2.39,4,4.61,7.57,6.7,11.22,4.53,7.9,8.73,16,13.58,23.69,3.76,5.96,9.35,10.04,16.75,9.49,8.67-.64,17.42-1.45,25.89-3.33,9.64-2.14,19.11-3.9,28.95-1.84,1.33.28,2.75.19,4.72.3-8.61-16.21-20.61-27.77-36.77-34.84-19.29-8.43-39.4-7.03-59.82-4.69Zm249.91,1.82c-7.33-13.26-14.33-25.86-26.46-34.61-10.08-7.27-17.84-6.85-27.51.58-4.03,3.1-8.91,5.12-13.52,7.42-3.96,1.98-8.07,3.67-12.13,5.49,3.52,5.42,6.74,9.76,9.31,14.46,5.61,10.24,13.51,17.85,23.98,23.05,8.87,4.41,15.8,3.79,23.19-2.96,6.6-6.04,13.06-12.26,23.13-13.43Zm-169.45-13.27c3.47,3.64,6.33,6.61,9.17,9.61,6.47,6.84,12.55,14.13,19.48,20.47,17.31,15.82,36.71,13.59,54.69,2,2.47-1.59,4.35-3.85,1.09-6.43-8.42-6.65-16.36-14.2-25.57-19.51-18.32-10.58-38.45-7.78-58.86-6.13Zm78.89-77.86c7.1,15.15,17.16,26.11,29,31.81,10.86,5.23,24.37,2.4,32.07-6.79.72-.86,1.3-2.03,1.49-3.13,1.59-9.31.39-17.81-7.35-24.35-6.55-5.53-14.08-8.53-22.61-8.91-12.26-.55-22.51,4.75-32.61,11.37Zm61.39-51.09c-.92,1.04-2.08,2.38-3.26,3.71-3.01,3.38-5.69,7.15-9.12,10.04-4.4,3.71-6.62,7.86-5.55,13.61.17.94.02,1.95.02,2.93-1.8-2.19-2.44-4.68-3.71-6.79-1.41-2.35-3.05-5.73-5.2-6.28-14.53-3.74-26.97-11.07-38.4-20.51-.93-.77-2.61-.65-4.08-.97-.04.22.3-.52.11-.71-4.05-3.84-7.81-8.13-12.38-11.22-2.89-1.96-8.85,2.06-8.52,5.06.66,5.98,3.19,10.97,8.36,14.97.55-2.84,1.02-5.24,1.7-8.73,1.24,5.25-2.81,9.52,1.3,13.48,3.16,3.05,5.89,6.55,8.93,9.99.54-1.05,1.02-1.98,2-3.89-.61,5.51-3.06,10.12,1.26,14.54,1.3-6.6,2.51-12.77,3.72-18.93.04,5.79-.94,11.38-2.04,16.94-.61,3.08-.06,4.73,3.14,6.7,8.72,5.36,17.4,1.16,26.09,1.92.02-4.56.03-8.33.04-12.09.26-.01.51-.02.77-.03.26,3.87.52,7.74.76,11.38,3.67.06,6.87.03,10.04.2,8.39.45,16.6-.09,23.84-4.92,2.55-1.7,3.85-3.65,2.98-7.55-1.62-7.29-1.91-14.89-2.8-22.83Zm-227.49-16.12c.98,3.74,1.95,7.48,2.95,11.21,2.81,10.5,6.51,20.64,13.43,29.21,5.64,6.98,11.15,9,18.12,6,11.33-4.87,22.85-6.66,35.04-3.72-3.89-18.93-42.93-49.35-69.54-42.71Zm2.46,53.46c-6.26-16.39-14.05-31.26-25.32-44.07-1.98-2.25-4.98-4.2-7.86-4.97-8.64-2.32-17.46-4-26.31-5.95-1.64,16.42,1.17,32.54,8.97,47.61,17.89-5.09,34.09-.43,50.52,7.37Zm81.88-57.06c3.9,7.92,7.39,15.56,11.35,22.94,6.05,11.27,16.22,18.11,27.65,22.47,10.53,4.01,20.8,2.23,29.01-6.53-10.39-23.46-46.3-46.08-68.02-38.88ZM16.82,435.27c-.37.5-.75,1-1.12,1.49,3.12,16.67,9.43,32.34,24.53,41.22,12.97,7.63,27.8,12.1,43.13,18.53-1.79-3.29-2.92-5.45-4.12-7.57-4.39-7.78-8.33-15.86-13.34-23.21-4.09-6-8.47-12.91-14.49-16.24-10.84-6-22.99-9.61-34.6-14.23Zm323.71,25.27c-1.4-.25-2.05-.51-2.68-.47-11.38.81-22.21-1.3-33.21-4.35-6.41-1.77-14.02-.77-20.76.61-7.47,1.54-7.91,6.7-2.42,12.06,3.76,3.67,6.84,8.1,9.91,12.41,2.23,3.14,3.7,6.83,5.99,9.92,1.32,1.79,3.53,3.98,5.44,4.08,7.05.39,14.12.23,19.78-5.31,8.22-8.05,13.38-17.9,17.96-28.94Zm-9.12-183.18c-5.33-3.94-10.44-8.15-15.97-11.7-7.71-4.95-16.14-6.86-25.47-5.7-8.97,1.12-18.07,1.3-27.12,1.69-2.88.12-5.78-.42-10.11-.77,5.76,5.1,10.18,9.38,14.98,13.17,10.04,7.94,20.47,15.31,33.04,18.81,8.26,2.3,15.64.99,21.56-5.78,2.63-3.01,5.45-5.84,9.1-9.73Zm-294.74,50.88c6.65,6.32,8.79,14.4,10.38,22.7.63,3.3.9,6.66,1.4,9.98,1.31,8.74,5.54,15.73,13.64,19.4,6.71,3.04,13.86,5.15,20.94,7.27.93.28,3.78-1.94,3.7-2.83-.71-7.97-.23-16.58-3.2-23.71-8.52-20.41-26.6-28.48-46.85-32.82Zm267.26-131.88c-.27-.06-.78-.32-1.26-.26-12.81,1.38-25.65,2.52-38.4,4.36-3.41.49-4.05,3.6-1.66,6.67,5.07,6.51,10.28,12.93,14.97,19.71,3.62,5.23,8.29,6.61,14.01,5.23,7.19-1.74,14.29-3.89,21.47-5.67,4.52-1.12,6.31-4.11,6.41-8.42.18-7.45-8.23-19.22-15.54-21.62ZM46.94,401.64c2.59,9.07,4.74,17.52,7.46,25.79,2.72,8.29,8.73,12.28,17.58,12.58,5.69.19,11.43.93,16.99,2.15,10.09,2.23,19.21,6.77,27.88,13.95-15.64-30.55-40.29-55-69.91-54.48Zm219.93-165.89c-15.41-18.57-33.06-33.59-61.23-27.12,1.56,5.98,2.5,12.22,4.8,17.89,7,17.2,18.23,20.94,33.22,16.43,7.67-2.31,15.31-4.75,23.2-7.2Zm94.8,109.18c14.37,4.58,25.14-.48,28.34-13.82.66-2.75.2-6.97-1.54-8.89-9.71-10.73-25.73-19.12-41.66-13.11-6.75,2.54-6.92,2.71-4.84,9.75,1,3.38,1.84,6.87,3.35,10.03,3.48,7.27,7.89,13.77,16.36,16.04Zm-167.83-107.07c.19.15.38.3.56.45-1.55,2.1-3.71,4-4.47,6.36-.65,2.03-.23,4.81.7,6.79.61,1.29,3.16,2.64,4.57,2.39,3.27-.56,6.74,3.81,9.73-.4.47,5.65,5.64,1.87,8.07,3.89.77.64,2.91-.35,4.43-.59.09,2.15,8.72,8.58,11.4,7.04,4.19-2.4,8.29-5.35,11.54-8.88,2.04-2.21,3-3.35,6.01-1.82,12.37,6.29,17.66,4.08,21.77-8.76.33-1.01.66-2.02,1.55-4.73-11.19,2.69-20.93,4.99-30.65,7.36-7.82,1.91-9.27,3.53-10.5,11.42-.19,1.18-.25,2.38-.38,3.57-1.24-2.26-1.24-4.64-1.94-6.8-1.02-3.13-1.7-7.5-4-8.87-6.53-3.89-11.38-9-15.26-16.33-5.25,7.15-10.05,13.69-14.86,20.24-.43-.33-.85-.66-1.28-.99,4.68-5.97,9.42-11.9,13.99-17.96.86-1.13,1.7-2.92,1.43-4.15-.99-4.49-2.47-8.88-3.76-13.28-12.33,7.72-19.13,19.25-15.49,26.45,2.05-2.34,4.08-4.66,6.11-6.98.22.16.43.33.65.49-2.18,3.03-4.37,6.05-6.55,9.08.38.29.76.59,1.14.88,1.83-1.95,3.66-3.9,5.49-5.85Zm117.39,277.98c-4.74-1.81-9.15-3.34-13.44-5.16-6.23-2.64-12.67-3.02-18.65-.19-5.72,2.71-10.98,6.46-16.29,9.98-7.22,4.8-14.29,9.81-21.08,14.5,21.16,14.84,57.89,5.19,69.45-19.13Zm74.51-148.11c-3.1-3.51-5.89-6.42-8.4-9.55-2.9-3.62-6.36-4.59-10.72-3.21-7.62,2.41-14.25,6.45-18.55,13.2-1.81,2.85-3.04,6.94-2.59,10.2,1.26,9.15,6.6,16.48,12.94,22.89,1.31,1.32,4.54,1.9,6.38,1.29,4.81-1.61,8.48-4.72,8.96-10.41.56-6.72,3-12.69,7.37-17.9,1.7-2.03,3.09-4.34,4.61-6.52ZM45.05,435.07c.42-.55.84-1.11,1.26-1.66-1.82-4.97-3.13-10.21-5.55-14.87-5.85-11.26-12.18-22.41-24.3-28.16-2.85-1.35-7.65-2.14-9.7-.64-2.14,1.57-3.2,6.39-2.69,9.44,1.02,6.07,3.18,12.01,5.41,17.8.88,2.29,2.83,4.93,4.97,5.85,10.07,4.37,20.37,8.21,30.6,12.24Zm129.21-197.48c-.63-6.52-1.48-12.45-1.71-18.41-.34-8.58-3.11-11.76-11.6-12.96-6.3-.89-11.65,1.27-16.6,4.7-6.4,4.43-7.71,11.59-3.4,18.14,2.03,3.08,4.28,6.01,6.45,9.04,9.13-.17,18.34-.35,26.87-.51Zm-3.92,31.3c4.16-4.14,7-7.5,10.37-10.18,4.67-3.71,1.85-7.92.63-11.4-.78-2.23-4.13-4.73-6.56-5.01-6.47-.74-13.07-.53-19.62-.36-7.08.18-10.15,3.23-8.86,10.27.96,5.23-1.94,10.93,2.74,15.93,2.02,2.16,6.17,7.61,9.36,7.51,4.41-.13,10.84-5.35,11.34-8.93.54-3.93,1.37-7.81,2.08-11.72.25.05.51.09.76.14-.68,4.19-1.37,8.39-2.24,13.74Zm6.43-92.97c-.26,1.35-1.14,3.41-.87,5.3.26,1.79,1.42,3.75,2.79,4.95.74.64,3.27.39,4.09-.4,6.75-6.49,15.31-7.81,24-9.24,7.1-1.17,12.21-8.93,10.41-15.96-.54-2.09-3.25-5.02-5.14-5.15-15.13-1.08-29.5,3.51-35.28,20.51Zm169.56,68.23c5.87.93,13.05,2.07,20.63,3.27-.35-2.8-.43-5.83-1.14-8.71-3.04-12.31-8.74-23-20.05-29.61-6.7-3.91-12.94.05-12.09,7.78.4,3.61,2.65,7.06,4.28,10.48,2.54,5.34,5.27,10.59,8.37,16.78Zm-259.44,84.02c7.46,1.88,14.56,1.06,21.66,2.1-2.68-3.65-5.59-6.8-8.99-9.28-10.11-7.37-21.56-10.01-33.76-7.52-2.94.6-7.03,3.57-7.58,6.1-.84,3.91-.33,9.29,1.91,12.38,2.65,3.66,7.73,5.56,10.66,7.5,4.41-4.42,8.47-8.47,12.53-12.53.4,1.15.69,1.98.97,2.8,1.29-.77,2.59-1.55,2.59-1.55Zm45.14-127.03c3.86-5.6,9.43-7.89,14.91-10.31,4.84-2.14,5.34-4.48,1.81-8.37-4.95-5.46-20.24-4.83-24.84,1.18-.78,1.02-1.11,2.88-.8,4.14,1.17,4.79,2.69,9.48,4.12,14.38-3.29,2.05-6.09,16.67-3.71,20.04,1.04-3.94,2.14-8.14,3.25-12.35.43.09.86.17,1.29.26.02,4.64.03,9.28.04,13.92.41.14.83.27,1.24.41,1.14-2.74,2.29-5.48,3.4-8.14-.01.82-.03,1.75-.07,3.93,4.21-8.04,7.82-14.93,11.31-21.58-.27,2.33-.58,4.99-.88,7.65.64.21,1.28.41,1.92.62,2.03-4.55,4.05-9.1,6.08-13.66-.56-.48-1.13-.96-1.69-1.45-5.64,3.03-11.29,6.06-17.37,9.33Zm221.06,76.85c.16-6.59,2.25-13.36.04-18.13-4.4-9.5-12.47-16.66-22.6-20.25-2.77-.98-6.81.47-9.74,1.89-.69.33.18,5.31,1.29,7.71,6.07,13.26,16.4,22.18,31.02,28.78Zm-226.87-18.23c.14-7.82.57-15.95.32-24.06-.15-4.84-7.88-12.89-12.32-13.37-6.31-.67-7.4,4.7-9.57,8.75-.4.74-.89,1.44-1.27,2.19-1.87,3.74-2.31,7.42.61,10.87,3.47,4.1,6.96,8.16,10.46,12.23,2.65,3.08,5.79,4.94,11.77,3.39Zm-93.89,122.52c-1.05-4.8-2.38-9.61-3.11-14.51-.76-5.15-1.33-10.38-1.29-15.58.08-9.29-6.3-13.37-13.13-17.97-3.86,7.88-5.41,15.67-4.66,23.86,1.17,12.9,8.01,23.99,22.19,24.19Zm73.27-160.17c1.23-2.82.24-5.32-3.01-4.78-5.7.94-12.19,1.36-16.65,4.45-6.3,4.37-11.19,10.85-16.36,16.71-.95,1.08-1.1,4.11-.27,5.2.86,1.12,3.52,1.64,5.14,1.28,7.2-1.6,14.32-3.59,21.45-5.51.88-.24,2.07-.69,2.4-1.39,2.53-5.27,4.89-10.63,7.3-15.96Zm66.08,279.39c3.23.16,7.13-2.3,6.67,3.16-.03.4,1.24,1.14,2.01,1.33,3.42.88,6.87,1.62,10.78,2.51-6.48,4.68-12.45,9-18.11,13.09,5.8,1.45,12.56.74,18.97,2.89,2.31.78,5.77,1.02,7.6-.18,4.4-2.89,8.15-6.78,12.2-10.3-3.62-2.44-6.75-4.42-9.73-6.59-3.12-2.27-6.04-4.82-9.16-7.1-6.62-4.82-14.3-4.52-21.23,1.18Zm163.95-312.49c-2.31-9.9-14.66-24.08-24.5-27.18.51,6.21.01,12.27,1.67,17.66,3.96,12.92,7.94,14.73,22.84,9.51Zm4.36,88.47c-6.18,6.99-1.07,13.28,1.16,20.74,3.47-6.33,6.53-11.89,9.42-17.14-7.1-5.06-14.07-9.61-20.57-14.76-6.46-5.13-10.29-12.37-13.49-20.28-5.97,9.28-5.21,11.65,2.69,17.83,6.48,5.07,12.24,11.05,18.26,16.58.42-.49,1.47-1.72,2.53-2.95Zm10.62,82.05c-4.69-.25-9.13-1.5-12.97-.49-8.89,2.34-15.87,8.19-22.14,14.78-.08.08.94,1.21.95,1.24-1.48.82-3.03,1.69-4.58,2.55,15.61.61,23.8-3.42,38.74-18.08Zm27.52-55.74c.21-.57.41-1.15.61-1.72-5.35-4.4-10.64-8.9-16.13-13.12-.9-.69-3.03-.7-4.09-.12-3.77,2.05-7.32,4.49-11.13,6.89,5.74,8.19,14.58,8.18,22.19,10.38,2.42.7,5.68-1.46,8.55-2.32ZM62.68,399.86c7.65,3.52,12.4,1.86,15.25-5.25,1.15-2.87.79-4.72-2.68-5.57-6.62-1.62-13.17-3.55-19.96-5.41q-3.17,5.25.85,14.65c.66-1.16,1.21-2.13,1.7-3,.18,1.28.34,2.45.5,3.62,1.17-.36,2.59-.43,3.45-1.15,1.99-1.67,3.71-3.67,5.54-5.53.23.19.45.37.68.56-1.7,2.26-3.4,4.52-5.32,7.09Zm126.78,64.79c-.22-.48-.44-.96-.66-1.44-8.12,2.61-16.17,5.49-24.41,7.7-3.37.91-5.1,2.85-6.49,5.56-1.05,2.04-1.96,4.15-3.22,6.85,2.66.24,5.09.7,7.5.61,4.25-.16,7.39-1.53,8.34-6.57.55-2.91,2.87-5.48,4.4-8.21.23.13.45.25.68.38-1.9,4-3.79,8-6.03,12.73,7.69-1.3,5.67-8.37,9.18-12.03-.88,3.28-1.67,6.22-2.47,9.16.21.08.42.15.63.23,1.49-3.02,2.98-6.04,4.94-10-.06,1.67-.1,2.18-.08,2.68,0,.11.22.21.55.5,2.38-2.72,4.76-5.44,7.14-8.16Zm-56.32-224.58c.25.15.5.29.75.44-1,3.03-1.99,6.06-2.99,9.1.29.08.57.15.86.23.37-.55.74-1.09,1.11-1.64.18.09.36.19.54.28-.48,1.47-.97,2.94-1.45,4.42.32.09.65.19.97.29,1.52-4.62,3.03-9.25,4.55-13.87-.29,8.45-8.22,16.3-1.08,25.07,4.72.11,5.3-3.76,5.78-6.85,1.55-9.99,1.48-19.75-7.19-27.65-2.56,4.46-6.4,8.33-3.79,14.86.83-1.98,1.39-3.32,1.95-4.67Zm229.95,43.79c5.47,4.46,10.53,8.6,15.85,12.94-.29-11.82-3.53-22.28-9.29-32.95-2.41,7.34-4.49,13.7-6.56,20.01Zm-123.45-115.78c-2.69,3.93-4.73,8.1-7.85,11.19-5.22,5.17-3.9,10.22-1.52,14.9,5.77-4.92,11.69-9.97,17.67-15.08-2.49-3.3-5.26-6.97-8.3-11.01Zm-44.31,270.54c1.45-3.01,1.9-4.53,2.8-5.69,2.54-3.25,2.3-5.94-1.09-8.37-3.63-2.6-7.05-5.52-10.87-7.8-1.63-.97-4.02-.68-6.07-.95-.17,2.19-.34,4.38-.58,7.45,1.87-1.97,2.95-3.12,4.04-4.26-1.02,3.24-2.04,7.72-.56,8.8,2.82,2.07,5.61,5.79,10.15,5.57.32.77,1.02,2.46,2.18,5.26ZM39.59,273.42c-15.43,18.55-17.33,23.13-13.79,33.32,5.61-3.1,9.41-7.58,10.64-13.86,1.24-6.35,2.09-12.78,3.15-19.46Zm293.85-79.56c-2.36.42-4.31.78-6.27,1.12-6.95,1.22-8.53,3.73-6.88,10.87,1.14,4.91,2.25,9.82,3.49,15.26,6.42-8.07,8.63-17.18,9.66-27.25Zm-221.86,22.45c3.35-9.49,3.1-17.75-.9-22.79-.56,6.52-1.08,12.64-1.6,18.76-.26.01-.52.03-.77.04-.56-6.72-1.11-13.44-1.67-20.16-.58-.11-1.15-.23-1.73-.34-1.91,6.91-3.82,13.82-5.65,20.45,4.85,1.59,8.43,2.77,12.33,4.05Zm63.08-51.17c-6.38-1.28-11.3-.58-15.22,3.24-3.41,3.32-1.69,6.7.59,9.91,2.46,3.46,5.14,2.01,7.18-.09,2.88-2.98,5.4-6.35,7.77-9.76.53-.76-.21-2.4-.32-3.3Zm183.65,96.05c-.87,6.65-1.73,13.28-2.77,21.26,2.65-1.19,4.82-1.46,5.51-2.61,1.7-2.86,3.05-6.03,3.96-9.24,2.98-10.46,2.29-8.53-6.7-9.42Zm-136.93,255.98c-1.43.68-2.85,1.35-4.47,2.12.37-.89.75-1.77,1.22-2.9-2.03-.67-3.73-1.22-5.22-1.71-3.89,3.79-7.56,7.38-11.52,11.25,8.71,1.85,15.76.4,19.99-8.77Zm-62.95-44.07c-5.23-.47-10.44-.94-15.91-1.43-.75,1.4-1.6,2.98-2.68,4.99,4.62,2.19,9.02,4.27,13.53,6.41,1.15-2.21,2-3.83,2.83-5.46.81-1.61,1.6-3.23,2.24-4.51Zm-2.66-275.64c.53.24,1.05.47,1.58.71,1.16-1.84,2.92-3.55,3.36-5.55,1.76-7.97.6-10.63-6.2-15.9-.54,2.72-1.04,5.23-1.54,7.75.42.09.84.17,1.27.25.37-.54.73-1.08.65-.95.26,4.14.57,8.91.87,13.69ZM25.52,311.91c3.85,3.05,6.72,5.33,9.97,7.91-.25-2.14-.41-3.56-.57-4.99.21-.04.43-.08.64-.11.88,2.33,1.75,4.66,2.63,6.99.26-.15.51-.31.77-.46-.48-4.74-.97-9.48-1.58-15.46-4.01,2.07-7.67,3.96-11.86,6.13Zm310.56-79.62c-2.33-3.96-4.2-7.13-6.76-11.48-2.64,5.05-4.9,9.36-7.16,13.67.44.38.89.75,1.33,1.13,1.84-1.02,3.69-2.03,5.51-3.05-.4.81-.8,1.62-1.2,2.43.21.33.42.66.62.98,2.36-1.14,4.72-2.28,7.64-3.69Zm-236.39,225.2c-.59,4.41,2.67,6.46,11.73,7.27.5-1.51,1-3.05,1.64-4.99-2.55-.36-4.61-4.49-6.75-.27-.28-.66-.67-1.56-1.05-2.45-.74.65-1.48,1.29-2.12,1.86-.68-4.91-5.17-3.46-8.1-5.17-.67,2.05-1.22,3.72-1.78,5.42,1.68.46,3.18.87,4.7,1.29.61-1.05,1.17-2.01,1.73-2.96Zm62.84-275.4c.14,4.6.27,8.94.39,13.28,2.75-5.52,10.49-8.59,7.71-16.34-2.64,1-5.28,1.99-8.1,3.06Zm38.58,247.49c-1.48,3.55-2.77,6.66-4.06,9.76.46.22.93.43,1.4.65,1-1.23,2-2.45,2.99-3.68.13.1.27.21.41.31-.77,1.56-1.54,3.11-2.35,4.74,1.25,1.32,2.38,2.52,3.53,3.73,5.33-7.58,5.32-7.77-1.92-15.51Zm52.55-213.87c-.66-5.19,5.47-9.05.82-14.22-5.99,5.41-6.6,10.55-.82,14.22Zm-116.37,253.21c-3.09-2.56-5.79-4.81-8.56-7.1q-1.37,2.65,2.62,5.94c-.59,1.11-1.17,2.23-1.86,3.53,1.67.63,3.04,1.15,4.4,1.66,1.12-1.34,2.06-2.45,3.4-4.04Zm145.8,9.31c-2.02-1.94-3.88-3.73-5.92-5.69-1.42,2.09-2.58,3.81-3.84,5.67,1.26,2.1,2.54,4.21,4.02,6.67,2-2.31,3.77-4.37,5.75-6.65Zm-71.69-21.48c2-3.89,3.87-7.53,5.85-11.39-1.6-1.13-2.88-2.04-4.62-3.26-.65,5.08-6.43,8.91-1.24,14.65Zm-123.52.31c.97-2.33,1.43-3.44,1.81-4.37-4.39-1.42-8.23-1.58-10.82,2.71,4.36,1.13,8.65,2.24,13.2,3.41.35-2.23.63-3.99.9-5.74-.32-.1-.63-.2-.95-.29-1.06,1.1-2.12,2.19-4.15,4.29Zm-21.2,1.82c.31.34.62.69.93,1.03,3.47-3.01,6.95-6.01,10.36-8.96-9.51-1.06-13.69,1-12.38,6.6,1.78-1.41,3.44-2.73,5.11-4.04.15.17.3.33.44.5-1.49,1.63-2.98,3.25-4.47,4.88Zm51.57-247.17c.43.04.87.08,1.3.12.6-1.12,1.2-2.23,2.24-4.15-.83,3.75-1.44,6.54-2.05,9.32,1.78-4.19,3.41-8.33,4.43-12.62.54-2.24,0-4.74-.04-7.13-.71-.03-1.42-.06-2.13-.08-1.25,4.84-2.5,9.69-3.75,14.53Zm-4.25,233.71c3.98-4.29,2.76-7.76-5.01-15.49-.46.17-.92.34-1.38.51,2.1,4.93,4.21,9.86,6.39,14.98Zm114.6,79.11c.43.93.86,1.85,1.29,2.78,5.61-2.85,11.22-5.69,16.83-8.54-.31-.62-.61-1.24-.92-1.86-5.73,2.54-11.46,5.08-17.2,7.62Zm-12.57,2.28c6.54,2.26,8.85-3.24,13.16-6.27-8.16-4.05-8.66,4.79-13.16,6.27Zm132.24-279.48c4.72,6.07,10.23,6.91,17.41,2.8-6.18-.99-11.14-1.79-17.41-2.8Zm-140.3,202.82c-.96-3.99,7.97-7.82-.26-12.43-.09,4.46-5.61,8.13.26,12.43Zm134.27-72.56c-3.94,2.85-8.96.56-10.7,5.7,6.42,2.91,9.03,1.81,10.7-5.7ZM65.08,247.88c-.88,5.33-1.76,10.67-2.62,15.9,3.61-.99,5.79-9.92,2.62-15.9Zm22.99,116.63c.51.03,1.02.05,1.53.08q4.19-8.23-.32-10.53c-.43,3.69-.82,7.07-1.21,10.46Zm37.12,92.09c.15,4.21-6.8,5.56-1.31,10.06,4.32-3.66,4.62-4.92,1.31-10.06Zm220.95-65.11c-.58.45-1.16.9-1.74,1.35,3.11,4.05,6.23,8.11,9.34,12.16.38-.29.76-.57,1.14-.86-2.91-4.22-5.83-8.43-8.75-12.65Zm-102.69,66.25q-5.81-2.91-9.48,3.37c3.91-1.39,6.69-2.38,9.48-3.37Zm-209.33-107.23c5.27-6.89,5.43-8.65,1.72-11.89-.62,1.88-1.24,3.77-2.24,6.83,1.26-1.61,1.69-2.16,2.45-3.12-.66,2.79-1.18,5.01-1.92,8.18Zm6.22-6.15c-.53-.13-1.06-.27-1.6-.4.63,4.25-5.11,7.02-2.39,12.54,1.5-4.57,2.74-8.35,3.98-12.14Zm61.99-67.88c-.99-.13-1.98-.25-2.97-.38-.13,2.99-.25,5.98-.38,8.97.66.08,1.32.15,1.99.23.45-2.94.9-5.88,1.36-8.82Zm16.2,180.21c.87.05,1.74.1,2.61.15-.03-2.76-.06-5.51-.09-8.27-.78,0-1.56,0-2.34-.02-.06,2.71-.12,5.42-.19,8.13Z"/>
    </g>
  </g>
</svg>