<?xml version="1.0" encoding="UTF-8"?>
<svg id="Capa_2" data-name="Capa 2" xmlns="http://www.w3.org/2000/svg" xmlns:xlink="http://www.w3.org/1999/xlink" viewBox="0 0 244 485">
  <defs>
    <style>
      .cls-1 {
        clip-path: url(#clippath);
      }

      .cls-2 {
        fill: none;
      }
    </style>
    <clipPath id="clippath">
      <rect class="cls-2" x="0" y="0" width="244" height="485" transform="translate(244 485) rotate(-180)"/>
    </clipPath>
  </defs>
  <g id="Layer_1" data-name="Layer 1">
    <g class="cls-1">
      <path d="m84.86,339.74c-5.04-6.01-8.48-13.5-16.14-17.18-6.42-3.08-6.55-3.7-2.28-9.58,2.12-2.93,1.89-5.1-.7-7.25-1.25-1.04-2.62-1.96-4-2.83-5.52-3.47-8.89-7.89-9.13-14.94-.15-4.41-1.71-9.04-3.69-13.06-4.1-8.33-4.39-8.19,2.48-13.93.11-.1.23-.19.35-.28,2.65-2.01,3.8-4,1.88-7.54-3.13-5.76-5.78-11.8-8.25-17.88-2.47-6.07-1.98-7.9,3.33-11.84,3.79-2.81,8.04-5,12.55-7.76-6.73-3.63-5.56-9.37-4.14-15.18.21-.87.25-1.82.6-2.63,4.59-10.58,6.15-23.43,20.42-27.19-.87-.86-1.56-1.94-2.54-2.42-3.88-1.91-3.92-4.97-3.23-8.64,1.46-7.83,4.39-15.06,9.41-21.17,6.06-7.37,12.22-15.1,23.82-11.98-.72-3.15-1.55-6.05-2-9-.23-1.52-.29-3.42.41-4.69,5.9-10.8,14.35-19.13,25.24-24.87.87-.46,2.78.07,3.68.79,5.97,4.81,11.79,9.81,17.71,14.78,2.61-3.36,4.68-5.92,6.64-8.57,7.61-10.28,9.79-10.94,21.74-6.32,1.82.7,3.58,1.56,5.33,2.41,6.33,3.05,11.81,6.81,14.45,13.91,1.25,3.35,3.12,6.9,8.32,7.66,1.02-4.48,2.13-8.93,3.04-13.41,1.03-5.06,3.41-7.36,8.48-7.59,10.06-.45,18.73,3.12,26.65,9.1,1.33,1.01,3.4,1.67,5.05,1.53,8.86-.76,15.42,2.59,19.59,10.54,1.14,2.18,1.92,4.55,2.92,6.96,5.89-4.19,11.83-2.78,17.75-.65,6.41,2.32,9.23,7.47,10.15,14.06,6.98-5.56,10.05-5.4,14.4,1.8,3.36,5.56,5.47,11.86,8.4,17.69,1.22,2.42,2.81,4.85,4.79,6.66,10.09,9.23,18.34,19.37,18.53,33.97.02,1.18.28,2.4.62,3.54.8,2.66,2.15,4.22,5.28,2.72,1.81-.87,3.84-1.29,5.17-1.72,2.32,4.5,4.16,8.56,6.44,12.34,2.32,3.84,5.09,7.41,7.66,11.1,4.78,6.87,6.31,14.66,3.27,22.22-2.2,5.46-6.64,10.01-10.12,15.04,2.32,3.81,6.23,5.75,11.33,5.23,4.27-.43,5.9,2.53,6.79,5.82,3.03,11.26,4.41,22.38-2.95,32.83-1.4,1.98-1.56,4.84-2.36,7.54,7.27.08,8.29.61,9.06,6.91,1.6,13.12-3.77,23.8-11.83,32.97,0,2.23.48,4.43-.05,6.35-6.01,21.82-17.31,38.89-40.92,44.52-14.92,3.56-28.34,10.3-39.64,20.45-6.83,6.14-14.72,7.53-23.02,8.7-3.72.52-7.47.98-11.21,1.07-8.04.19-15.89,2.18-24.16.58-23.72-4.59-47.17-1.7-70.44,3.93-8.28,2.01-16.66,4.62-25.06,4.87-16.4.48-37.02-15.91-41.55-31.75-.78-2.72-.87-5.64-1.33-8.84,2.4.16,3.72.28,5.04.32,1.29.04,2.58-.02,4.77-.05-17.64-12.34-29.06-27.35-29.29-49.34,4.37.01,8.35.02,13.01.04-2.35-4.03-3.95-7.86-6.49-10.9Zm60.99-13.66c.72-.82,1.44-1.63,2.16-2.45.3-1.1,1.09-2.35.8-3.27-.65-2.07-1.82-3.98-2.36-6.16,1.33,2.25,2.65,4.49,4.12,6.98,1.08-1.5,2.59-2.79,2.98-4.36.41-1.66.38-4.62-.55-5.17-1.62-.96-4.14-.88-6.16-.52-1.4.25-2.58,1.69-3.86,2.59-1.01.9-2.02,1.8-3.03,2.7-2.12.68-2.94,1.61-1.3,3.78,1.13,1.5,1.72,3.4,2.55,5.12-1.4-1.78-2.8-3.56-4.44-5.64-.45.81-.83,1.48-1.2,2.15-2.1,2.98-4.2,5.96-6.3,8.94-1.89,1.26-3.77,2.51-5.66,3.77-5.18,2.54-10.16,5.74-15.6,7.41-5.06,1.56-10.61,1.49-15.41,2.07,3.44,4.86,7.57,6.37,14.54,4.83,4.85-1.07,9.72-2.2,14.65-2.73,2.51-.27,5.14.8,7.73,1.15,1.17.16,2.38.06,3.58.08,2.35.95,4.7,1.89,7.05,2.84.41-.56.82-1.12,1.23-1.68-2.25-3.58-4.51-7.15-6.76-10.73,2.19-2.63,4.37-5.26,6.56-7.89.78-.77,1.56-1.55,2.35-2.32.79-.5,1.57-1,2.36-1.51Zm205.47,3.6c.69-.14,1.38-.27,2.08-.41-.08-1.37.2-2.89-.31-4.06-.8-1.84-2.13-3.44-3.24-5.14,2.16,1.49,4.31,2.97,6.36,4.38,1-3.49-3.1-9.58-6.61-8.92-.82.15-1.31,2.03-1.95,3.12,1.23,3.68,2.45,7.35,3.68,11.03Zm11.9-11.73c2.58-1.85,5.36-3.84,8.8-6.31-4.68.24-8.33.35-11.95.71-.42.04-.7,1.5-1.05,2.3-1.43-.62-2.85-1.24-4.28-1.86-.2.34-.39.67-.59,1.01,1.8,2.4,3.6,4.8,5.49,7.32,4.16-2.76-.39-4.46-.79-6.6,1.42,1.12,2.83,2.22,4.37,3.42Zm-223.44,82.72c-5.04-7.4-9.57-14.03-14.09-20.67-.35.11-.7.21-1.05.32.22.96.44,1.93.66,2.89-2.58-1.69-3.1.42-3.85,2.1-2.5,1.89-5.03,3.74-7.48,5.7-.29.23-.13,1.02-.18,1.56-1.38-.29-2.77-.58-4.15-.87-.13.28-.25.55-.37.83,2.57,2.04,5.14,4.09,7.71,6.13.45-.57.9-1.15,1.35-1.73-.4-.77-.79-1.54-1.19-2.3,4.35,1.05,8.7,2.1,14.39,3.47-2.78-3.48-4.74-5.94-6.7-8.4,2.16,2.16,4.24,4.4,6.5,6.44,1.34,1.2,2.96,2.09,4.46,3.12.96.34,1.92.68,4,1.41Zm208.81-91.19c.34-1.92.63-3.61.94-5.36.31.63.67,1.36,1.27,2.58,1.52-2.12,2.88-4.05,4.26-5.97.36-3.28.72-6.56.99-9.09-.16-.32.18.36.53,1.03.43-.08.87-.17,1.3-.25-.87-4.81-1.75-9.62-2.68-14.74-4.4,5.67-4.36,12.41-.13,23.05-1.53-2.4-3.06-4.8-4.78-7.49.19,4.63-3.61,7.08-6.12,10.37-1.2.85-2.39,1.71-3.79,2.71.83,2.21,1.64,4.36,2.56,6.8,1.27-1.01,2.4-1.9,3.56-2.82-.88-2.38-1.69-4.58-2.5-6.79,1.34,1.75,2.7,3.51,4.59,5.96Zm-155.31,56.4c.4-.32.8-.64,1.2-.96-1.54-4.76-3.08-9.52-4.68-14.48-3.01,1.45-5.6,2.7-8.66,4.18.23,1.02.52,2.27.81,3.51-.7-.92-1.39-1.85-2.07-2.75-2.12.49-4.1.94-6.72,1.54,1.81,2,3.31,3.65,5.6,6.18-.11-2.36-.15-3.32-.17-3.62,1.25.92,2.68,1.98,4.11,3.03.23-.54.46-1.07.69-1.6,3.29,1.65,6.58,3.31,9.88,4.97Zm-41.08-255.89c-2.24,7.97,2.48,12.87,13.79,14.4-.11-1.17-.21-2.26-.43-4.53.86,2.22,1.31,3.36,1.83,4.69,1.08-.25,2.08-.48,3.37-.77-.51-1.51-1.03-3.02-1.54-4.54,1.36,2.08,2.71,4.16,4.37,6.68,2.08-5.63-2.76-7.19-4.28-10.36,1.85,2.13,3.9,4.13,5.48,6.46.87,1.28,1.14,1.86,3.02,2.46,2.76.89,4.47,4.75,6.89,7.06,1.55,1.48,3.58,2.46,5.74,3.9,1.83-9.98-4.31-16.46-8.82-23.86,3.26-3.68,6.96-7.87,10.96-12.39-6.96-5.18-13.85-8.9-21.61-9.82-2.9-.34-6.86,1.58-9.1,3.75-4.32,4.16-7.77,9.24-10.99,13.22,6.46,3.24,12.44,6.23,18.43,9.23.01,1.27.02,2.55.03,3.82-3.32-7.66-10.82-7.32-17.13-9.39Zm-26.92,12.07c2.7-2.16,4.6-3.68,6.79-5.44-.34-.93-.85-2.28-1.45-3.89,2.7,1.2,2.53,6.54,7.78,4.12,2.11-.97,6.25,2.43,9.46,3.84.38-.37.75-.74,1.13-1.11-1.1-2.41-2.21-4.82-3.31-7.23.41-.45,1.22-1.24,1.16-1.31-1.59-1.93-3.27-3.78-4.94-5.64-2.47-2.77-4.94-5.54-8.18-9.18-.2,3.99-.36,7.31-.53,10.63-4.49,3.75-6.64,8.69-7.93,15.21Zm86.53,180.37c.12.65.31,1.74.5,2.82-.63-.99-1.25-1.97-1.66-2.61-6.23-.16-12.26-.32-18.64-.49,1.67,2.98,3.29,5.89,4.91,8.79-.15.1-.29.19-.44.29-.48-.46-1.23-.84-1.39-1.39-2.16-7.46-8.78-9.34-14.65-12.68-8.5-4.83-16.3-10.89-24.19-16.29.5,21.56,19.34,35.2,44.5,31.76-.47-1.16-.93-2.3-1.82-4.5,4.55,5.6,9.71,6.55,15.58,3.62-.79-2.2-1.57-4.41-2.36-6.62,1.28,2.08,2.57,4.16,4.43,7.17,5.64-3.76,11.39-7.56,17.06-11.47.25-.17-.19-1.35-.31-2.06,3.7.17,8.52-4.49,7.68-7.41,4.53,2.27,18.22-13.34,21.41-24.82-3.35,4.03-5.99,8-9.39,11.14-5.94,5.46-12.35,10.41-18.55,15.59-.78.65-1.47,1.41-2.21,2.12-6.67,2.3-13.34,4.59-20.45,7.04Zm-133.86-52.82c-1.68.93-3.63,1.49-5.52,1.84-2.32.44-2.2,1.53-1.26,3.11-1.09-.87-.96-2.85-3.82-1.83-2.64.94-6.16-.58-9.29-1.01-.08.38-.17.76-.25,1.14,1.08.27,2.16.56,3.25.82,3.08.73,6.16,1.47,9.26,2.11.15.03.49-.85.74-1.31,2.54,4.1,6.46,5.24,10.25,2.93,2.22-1.35,4.64-1.09,6.64-2.39,2.84-1.84,5.25-3.72,2.14-7.38-.82-.98-1.08-2.43-1.3-3.85,1.25,2.1,2.5,4.21,4.06,6.83,2.21-3.81,4.28-7.38,6.36-10.95,7.04-4.8,6.3-5.41,2.82-9-3-3.1-7.42-1.85-9.11,2.08-4.39,6.16-8.01,13.03-14.97,16.87Zm191.89,71.72c-6.86-.73-13.7-1.6-20.54-2.47-3.09-.39-6.17-.93-9.19-1.39-3.19,6.77-.24,11.8,7.85,12.63-1.75-2.83-3.3-5.34-4.96-8.02,4.18,1.5,3.81,8.25,9.77,7.46-2.09-3.19-4-6.08-5.91-8.98,4.1,2.4,4.71,8.27,11.18,9.45-1.43-1.97-2.29-3.15-3.15-4.32,5.89,6.38,14.12,3.45,21.95,6.16-1.48-2.7-2.47-4.53-3.47-6.35,3.4,2.55,4.55,8.53,10.7,6.51,1.82.65,3.63,1.3,6.04,2.17-1.94-3.69-3.58-6.82-5.23-9.94,2.77,3.91,5.54,7.81,8.31,11.72,1.31,1.84,2.69,3.25,4.72.81.03-.03-.09-.23-.18-.29-.12-.08-.27-.11-.41-.16h-.05c3.32.13,5-.76,2.81-4.3-.91-1.47-1.56-3.1-1.7-5.01,1.41,2.15,2.82,4.3,4.23,6.45,5.97-3.97,6.36-5.41,3.16-11.62-2.37-4.61-4.7-9.23-6.34-14.24,1.62,2.77,3.3,5.51,4.85,8.32,1.57,2.84,3,5.76,4.49,8.65.46-.12.91-.25,1.37-.37-1.15-3.75-2.31-7.5-3.46-11.25.19-.09.37-.19.56-.29.8,1.34,1.61,2.68,2.41,4.02-3.01-6.36-2.81-12.93-1.3-19.58,3.62-4.72.5-8.82-2.15-13.14-.15,1.56-.69,3.2-.37,4.66.63,2.9,1.73,5.69,2.63,8.53-1.53-2.73-3.05-5.46-4.78-8.55-1.02,1.88-2.26,4.11-3.45,6.38-4.86,9.25-10.48,17.92-18.91,24.4-1.41.7-2.81,1.39-4.21,2.09-2.43-.03-4.89.13-7.3-.12Zm44.78-140.47c-2.4-.93-3.64-.03-4.72,1.87-1.99,3.48-4.02,6.94-6.4,11.06,9.18,1.32,14,7.41,17.86,14.07,7.01-3.66,6.68-10.84,9.08-16.62.51,3.51,1.02,7.01,1.58,10.92,1.41-2.81,3.24-5.4,4.01-8.28.95-3.56-.22-6.52-4.59-6.98-5.61-1.99-11.27-3.88-16.81-6.04Zm-160.45-8.46c-2.74-8.48-7.61-14.48-16.75-16.85-5.87-1.52-11.43-4.28-17.11-6.48-.94,13.78,15.56,27.34,27.07,26.81-.79-3.46-1.58-6.88-2.36-10.3.42-.1.85-.21,1.27-.31.89,3.9,1.79,7.8,2.68,11.7.44-.12.89-.24,1.34-.37-.44-3.41-.89-6.83-1.33-10.24.22-.03.43-.07.65-.1.38,2.83.41,5.78,1.28,8.45.39,1.19,2.45,1.83,3.75,2.72.44-1,.88-2,1.32-3,.82-1.04,2.23-2.02,2.36-3.14.54-4.75.69-9.54.99-14.25.31.62.69,1.36.95,1.89,4.25-4.04,8.66-7.87,12.54-12.17,1.03-1.14.47-3.73.64-5.63.41,1.16.87,2.47,1.35,3.82q2.49-1.85-.12-10.67c-6.51,7.71-13.24,14.86-18.86,22.79-1.81,2.56-.92,7.18-.89,10.85.02,2.21.79,4.41,1.22,6.61-.7-.72-1.72-1.31-1.98-2.14Zm91.76-29.25c.24-14.26-14.91-26.77-28.84-24.32-3.3.58-5.5,1.97-5.92,5.54-.22,1.92-1.09,3.86-.89,5.71.21,1.89.88,4.53,2.22,5.28,1.66.92,4.23.09,6.38.32.69.07,1.27,1.1,2.63,2.36-.2-2.42-.33-3.94-.45-5.46.14-.03.29-.06.43-.1.42,1.82.83,3.64,1.25,5.46.22-.03.45-.06.67-.09-.1-2.39-.19-4.77-.29-7.16.24-.05.49-.1.73-.15.27,1.57.89,3.18.73,4.72-.54,5.3,3.49,7.5,6.62,10.35l-.1-.05c1.45.9,2.9,1.8,4.35,2.7h.01c.49.4.99.8,1.48,1.2h-.07c1.53,1.31,3.07,2.47,4.51-.09.5.95.99,1.89,1.49,2.83,1.06-3.01,2.98-6.01,3.04-9.04Zm25.01,98.1c-8.87-2-17.92-3.48-28.59-1.28,6.58,2.87,12,5.23,17.51,7.63.04-.58.08-1.28.1-1.63,1.68,1.44,3.54,3.04,5.39,4.64.23-.2.47-.41.7-.61-1-1.98-2-3.96-3-5.94.17-.08.35-.17.52-.25,2.8,4.65,5.6,9.3,8.72,14.48.03-1.43.05-2.25.07-3.07,2.35,7.61,8.74,3.23,13.44,4.9-.08-1.33-.14-2.27-.16-2.73,1.38.62,2.95,1.34,4.53,2.05.24-.36.49-.72.73-1.08-1.01-1.71-2.03-3.42-3.59-6.05,1.27.9,1.77,1.26,2.91,2.07-1.35-4.78,2.18-7.14,4.39-9.89,3.86-4.8,4.29-9.39.88-14.42,1.3,1.93,2.6,3.87,4.65,6.93.65-3.68,1.12-6.39,1.56-8.89-.03-.03.47.5,1.91,2.05.2-3.07.34-5.19.47-7.25.18.2.63.7,1.08,1.2.4,0,.79,0,1.19,0-.07-3.06-.13-6.11-.22-10.07-4.03,6.08-7.34,11.07-10.64,16.06-5.22,8.37-13.39,13.67-24.55,11.15Zm-123.09,26.22c-1.28-1.63-2.08-2.65-2.86-3.64-4.33,2.86-8.44,6.15-13.05,8.44-4.45,2.21-9.42,3.4-14.34,5.1,1.86,5.91,4.86,11.52,12.07,14.58-2.74-4.32-5.19-8.19-7.65-12.06,5.21,5.47,8.57,12.58,17.1,16.48-3.82-5.13-6.91-9.27-9.99-13.4,5.63,4.63,8.56,12.03,16.33,14.27-1.74-2.76-3.48-5.53-5.22-8.29.18-.13.37-.25.56-.38,2.34,3.1,4.68,6.2,7.02,9.3.42-.31.83-.61,1.24-.92-3.23-4.79-6.46-9.58-9.7-14.38.23-.17.47-.34.7-.52,3.44,4.74,6.88,9.47,10.61,14.61,3.02-5.51,2.23-10.99,1.05-16-1.24-5.29-1.07-9.27,4.7-11.84-2.11-3.5-4-6.64-5.9-9.78,2.47,2.69,4.93,5.38,7.43,8.09,6.11-4.19,6.09-11.91-.53-19.55-2.27,3.92-4.49,7.75-6.71,11.57-4.48,1.6-5.06,3-2.86,8.33Zm76.48-55.3c-10.31,13.99-24.23,20.64-41.57,18.64-5.16-.6-10.08-3.33-15.91-5.37.23,4.61-.12,9.39.84,13.89,1.78,8.35,11.61,13.38,19.69,10.69,4.21-1.4,8.45-2.72,12.94-4.16-.38-3.91-.76-7.88-1.14-11.85.12-.02.23-.04.35-.06.64,3.78,1.29,7.56,2.08,12.23,1.75-.96,3.2-1.75,4.57-2.5.7.09,2.16.74,3.12.3,7.54-3.44,7.52-3.5,5.75-11.54-.42-1.89-.87-3.78-.67-5.83.94,4.09,1.88,8.18,3.18,13.88,3.38-3.5,7.46-5.84,8.16-8.95.8-3.55-1.41-7.77-1.65-11.85.96,4.17,1.91,8.35,3.01,13.12,4.15-3.9,9.71-6.24,6.92-13.16.45,1.38.9,2.76,1.39,4.26,3.1-2.38,3.93-5.47,3.49-9.05,2.6,0,4.74-2.41,4.02-5.52-1.45-6.3-3.4-12.47-5.15-18.7-.52.03-1.04.06-1.56.1-.79,2.29-1.57,4.57-2.36,6.86-3.16,4.87-6.07,9.91-9.51,14.57Zm10.1,34.89c-14.47,1.12-29,.93-43.01,5.62-12.59,4.21-24.19,10.27-34.95,17.98-1.26.9-2.15,2.31-3.66,3.98,9.35,6.34,17.87,13.04,27.22,18.25,17.67,9.86,35.01,6.5,51.38-3.72,10.86-6.77,18.53-16.88,26.2-26.87,1.45-1.89,2.93-3.78,4.75-6.14-8.82-5.72-17.14-9.93-27.94-9.1Zm23.95,70.36c14.54,2.49,25.44-2.32,32.96-15.17,5.45-9.31,11.14-18.5,17.2-27.42,2.87-4.23,6.82-7.71,10.47-11.73-23.82-4.3-44.33,1.73-60.92,19.23-6.99,7.37-13.05,15.64-19.33,23.66-1.89,2.42-3.11,5.36-4.62,8.06,8.6,1.18,16.46,2.05,24.25,3.38Zm-102.24,49.68c-8.81,3.17-15.41,9.05-21.17,16.06-.66.8-.63,2.75-.13,3.8.74,1.56,1.96,3.1,3.36,4.12,6.8,4.9,13.44,10.12,20.68,14.28,9.02,5.18,18.58,4.91,27.97.25,9.98-4.95,19.33-10.72,26.41-19.51-12.5-17.65-39.64-25.28-57.11-19Zm115.98,51.79c22.55-7.28,32.32-23.3,38.95-45.81-33.26,6.94-66.21,13.38-89.19,43.3,17.09,6.85,33.46,7.93,50.23,2.52Zm-38.12-82.49c-14.89,4.94-26.45,14.21-35.4,27.86,1.75.06,3,.26,4.2.12,8.88-1.03,17.12,1.3,25.48,3.98,7.34,2.35,15.03,3.78,22.65,5.06,6.51,1.09,11.79-2.07,15.61-7.05,4.92-6.41,9.3-13.25,13.96-19.87,2.15-3.06,4.4-6.04,6.84-9.39-17.89-3.73-35.58-6.61-53.35-.71Zm-148.7-4.23c5.99,6.58,12.08,7.69,20.29,4.51,9.69-3.75,17.31-9.84,23.11-18.46,2.66-3.95,5.86-7.53,9.42-12.05-3.44-1.94-6.95-3.77-10.29-5.85-3.89-2.41-8.05-4.6-11.37-7.67-7.95-7.37-14.79-8.37-24.31-2.76-11.46,6.76-18.67,17.35-26.24,28.49,8.83,1.86,14.03,7.89,19.39,13.78Zm79.11-11.1c-8.59,3.96-16.23,9.99-24.23,15.2-3.1,2.01-1.61,4.17.44,5.78,14.98,11.73,31.98,15.28,48.59,2.68,6.66-5.05,12.63-11,18.92-16.54,2.76-2.43,5.53-4.83,8.9-7.77-17.94-3.12-35.54-7.23-52.62.64Zm-38.85-88.72c-7.59-.36-14.5,1.69-20.74,6.05-7.39,5.16-9.14,12.58-8.49,20.96.08.99.5,2.07,1.07,2.89,6.07,8.76,17.8,12.36,27.85,8.62,10.94-4.08,20.75-12.97,28.27-25.8-8.41-6.68-17.05-12.21-27.95-12.72Zm-26.59-17.52c-1.08,3.38-.1,5.21,2.03,6.93,6.02,4.86,13.24,6.01,20.71,6.3,2.83.11,5.65.4,8.91.64.51-3.2,1.06-6.61,1.6-10.01.23.03.45.06.68.09-.3,3.34-.59,6.67-.95,10.71,7.76.04,15.1,4.46,23.26.42,2.99-1.48,3.61-2.9,3.32-5.68-.52-5.02-.93-10.05-.43-15.17.57,5.56,1.14,11.12,1.76,17.07,4.18-3.56,2.39-7.84,2.3-12.77.71,1.77,1.06,2.63,1.45,3.6,2.97-2.8,5.67-5.68,8.72-8.12,3.96-3.17.72-7.29,2.25-11.83.32,3.15.54,5.31.8,7.87,4.9-3.12,7.55-7.33,8.62-12.57.54-2.63-4.41-6.68-7.13-5.18-4.3,2.37-7.98,5.86-11.88,8.93-.19.15.06.84.04.64-1.33.16-2.8-.08-3.69.53-10.88,7.42-22.5,12.91-35.67,15.03-1.95.32-3.68,3.17-5.12,5.14-1.3,1.77-2.06,3.92-3.83,5.71.08-.86.02-1.77.25-2.59,1.41-5.01-.21-8.86-3.81-12.51-2.8-2.84-4.87-6.39-7.26-9.64-.94-1.27-1.86-2.55-2.58-3.55-1.44,6.96-2.31,13.66-4.34,19.99Zm142.05,16.4c11.03-1.61,21.08.91,30.72,6.14,5.93,3.22,10.98,1.88,16.54-3.84,6.82-7.02,10.93-15.7,14.27-24.77,1.19-3.23,2.35-6.46,3.52-9.69-23.02-8.05-60.07,15.71-65.05,32.16Zm103.85,12.56c8.13-12.72,11.93-26.76,11.81-41.43-7.99,1.01-15.94,1.77-23.78,3.13-2.61.45-5.42,1.93-7.36,3.76-11.02,10.42-19.13,22.96-26.01,36.96,15.18-5.58,29.9-8.38,45.33-2.42Zm-176.59-25.87c6.56,8.42,15.51,10.84,25.16,8.14,10.48-2.93,20.04-8.16,26.32-17.64,4.11-6.21,7.82-12.69,11.92-19.39-18.65-8.14-52.29,8.97-63.4,28.89Zm169.13,148.84c-5.6,2.46-10.04,8.22-14.15,13.2-5.04,6.1-9.18,12.94-13.7,19.47-1.23,1.78-2.42,3.6-4.27,6.37,14.1-4.44,27.59-7.2,39.7-12.9,14.1-6.63,20.95-20,25.08-34.5-.29-.47-.58-.94-.87-1.41-10.65,3.14-21.71,5.35-31.79,9.78Zm-243.36,13.35c4.56,5.37,10.81,6.08,17.08,6.32,1.7.06,3.83-1.7,5.15-3.17,2.28-2.55,3.88-5.7,6.11-8.29,3.07-3.57,6.15-7.24,9.78-10.18,5.3-4.3,5.33-8.9-1.17-10.87-5.85-1.78-12.51-3.28-18.33-2.23-9.99,1.8-19.75,2.8-29.76,1.15-.56-.09-1.15.08-2.41.19,3.16,10.16,6.93,19.29,13.55,27.09Zm16.69-179.2c4.69,6.47,11.12,8.23,18.62,6.87,11.41-2.08,21.25-7.76,30.79-13.97,4.56-2.97,8.82-6.4,14.33-10.45-3.85-.04-6.47.2-9.01-.14-7.98-1.08-16.02-1.98-23.87-3.7-8.17-1.79-15.79-.78-23.02,2.97-5.19,2.7-10.06,6.01-15.1,9.06,2.91,3.74,5.18,6.48,7.26,9.36Zm205.43,84.93c-3.21,6.07-3.49,13.73-4.76,20.73-.14.78,2.2,2.98,3.05,2.81,6.44-1.3,12.94-2.59,19.13-4.74,7.47-2.59,11.79-8.43,13.66-16.07.71-2.9,1.23-5.86,2.05-8.73,2.08-7.22,4.63-14.2,11.04-19.26-18.28,2.2-34.96,7.88-44.16,25.25ZM118.86,139.93c-.26,3.82,1.08,6.61,4.99,7.98,6.22,2.16,12.32,4.64,18.55,6.77,4.95,1.69,9.2.84,12.83-3.49,4.7-5.62,9.84-10.88,14.86-16.24,2.37-2.53,2.06-5.33-.92-6.04-11.14-2.66-22.42-4.72-33.65-6.99-.42-.08-.89.1-1.13.13-6.67,1.54-15.07,11.27-15.52,17.88Zm160.05,227.35c8.26-5.66,16.71-8.94,25.82-10.09,5.02-.63,10.17-.82,15.22-.53,7.86.45,13.51-2.59,16.59-9.71,3.08-7.1,5.67-14.42,8.7-22.23-26.18-2.87-50,16.78-66.34,42.56Zm-94.95-199.08c12.91,5.21,23.16,2.82,30.76-11.85,2.51-4.84,3.84-10.28,5.71-15.45-24.41-8.02-41.27,3.84-56.42,19.03,6.79,2.82,13.35,5.6,19.96,8.27Zm-96.99,67.82c1.6-2.67,2.62-5.7,3.78-8.61,2.41-6.07,2.27-6.23-3.5-9.03-13.62-6.62-28.48-.49-37.95,8.22-1.7,1.56-2.45,5.26-2.09,7.74,1.75,12.08,10.87,17.43,23.97,14.55,7.68-1.32,12.12-6.73,15.79-12.88Zm145.92-62.65c.36-.23.72-.46,1.08-.69-1.69-2.86-3.38-5.72-5.06-8.57.21-.13.41-.25.61-.38,1.61,2.22,3.21,4.43,4.84,6.68,3.81-6.07-1.28-16.84-11.56-24.68-1.5,3.8-3.16,7.56-4.41,11.46-.34,1.07.26,2.72.93,3.79,3.56,5.74,7.27,11.37,10.92,17.04-.4.26-.81.52-1.22.78-3.72-6.19-7.45-12.38-11.51-19.13-4.03,6.18-8.74,10.31-14.84,13.22-2.15,1.03-3.11,4.84-4.27,7.53-.8,1.85-1,3.96-2.27,5.86-.01-1.06.02-2.13-.04-3.19-.45-7.09-1.6-8.64-8.37-10.96-8.41-2.89-16.85-5.72-26.55-9.01.57,2.47.78,3.39.99,4.31,2.6,11.7,7.1,14.09,18.57,9.53,2.78-1.11,3.55-.02,5.17,2.1,2.59,3.39,5.98,6.33,9.5,8.8,2.25,1.58,10.42-3.41,10.67-5.31,1.33.34,3.14,1.4,3.88.89,2.32-1.59,6.59,2.18,7.46-2.79,2.31,3.97,5.73.38,8.58,1.14,1.23.33,3.59-.65,4.24-1.75.99-1.68,1.59-4.11,1.18-5.96-.48-2.15-2.24-4.01-3.45-5.99.18-.12.36-.23.54-.35,1.46,1.88,2.92,3.75,4.39,5.63Zm-71.01,253.56c-5.63-4.7-11.48-9.72-17.48-14.55-4.41-3.55-8.76-7.3-13.61-10.16-5.06-2.99-10.79-3.18-16.53-1.35-3.95,1.26-7.98,2.26-12.32,3.48,8.26,22.47,40,34,59.95,22.59Zm-110.31-153.66c3.44,4.97,5.12,10.45,5.07,16.45-.04,5.07,2.95,8.13,7.09,9.95,1.58.69,4.49.44,5.75-.62,6.13-5.16,11.47-11.22,13.32-19.22.66-2.85-.09-6.57-1.47-9.24-3.26-6.32-8.8-10.44-15.36-13.2-3.75-1.58-6.89-1-9.75,1.97-2.48,2.57-5.18,4.92-8.21,7.77,1.18,2.05,2.21,4.21,3.55,6.15Zm320.73,72.87c1.97-.65,3.9-2.82,4.87-4.78,2.45-4.94,4.85-10.03,6.24-15.32.7-2.66.16-7.02-1.61-8.58-1.69-1.49-6.01-1.19-8.64-.22-11.2,4.1-17.71,13.46-23.81,22.95-2.52,3.93-4.11,8.46-6.12,12.72.33.53.65,1.05.98,1.57,9.38-2.73,18.82-5.29,28.09-8.34Zm-102.68-174.4c2.17-2.5,4.4-4.92,6.44-7.48,4.35-5.45,3.78-11.9-1.53-16.34-4.11-3.44-8.67-5.79-14.32-5.51-7.61.37-10.33,2.97-11.32,10.53-.69,5.25-1.93,10.44-3.02,16.16,7.53.84,15.68,1.74,23.75,2.64Zm-23.69,13.05l.68-.06c.31,3.51.73,7.02.89,10.54.15,3.22,5.42,8.36,9.31,8.83,2.82.35,6.93-4.14,8.9-5.89,4.55-4.05,2.45-9.33,3.72-13.88,1.71-6.13-.76-9.08-7.01-9.81-5.78-.68-11.61-1.41-17.4-1.28-2.18.05-5.34,1.98-6.22,3.9-1.36,2.98-4.21,6.48-.37,10.14,2.77,2.65,5.01,5.85,8.36,9.86-.34-4.81-.6-8.58-.87-12.35Zm-26.84-91.53c-1.68-.03-4.32,2.34-4.97,4.15-2.17,6.08,1.72,13.37,7.92,14.98,7.58,1.97,15.06,3.83,20.5,10.13.66.76,2.88,1.19,3.59.68,1.31-.95,2.5-2.59,2.87-4.15.39-1.65-.22-3.54-.34-4.76-3.73-15.52-16.09-20.76-29.57-21.03Zm-117.35,53.47c1.72-2.9,4-5.77,4.64-8.94,1.38-6.78-3.83-10.8-10.08-7.88-10.56,4.93-16.47,13.94-20.16,24.59-.87,2.49-1.18,5.17-1.72,7.62,6.82-.45,13.26-.87,18.54-1.22,3.25-5.24,6.09-9.66,8.78-14.18Zm216.29,111.27c.32-.71.64-1.41,1.09-2.4,3.26,3.93,6.53,7.85,10.07,12.12,2.75-1.48,7.41-2.75,10.05-5.77,2.23-2.56,3.12-7.28,2.7-10.81-.27-2.28-3.65-5.25-6.21-6.02-10.6-3.2-20.95-1.79-30.51,3.91-3.21,1.92-6.05,4.48-8.72,7.49,6.38-.35,12.6.96,19.35-.1,0,0,1.09.79,2.17,1.58Zm-46.43-127.42c-.54.38-1.08.76-1.62,1.14,1.42,4.19,2.85,8.39,4.27,12.59.58-.13,1.17-.26,1.75-.39-.06-2.38-.11-4.76-.16-6.85,2.55,6.18,5.18,12.56,8.26,20.03.14-1.93.2-2.76.26-3.48.77,2.45,1.56,4.97,2.35,7.49.38-.09.75-.17,1.13-.26.39-4.11.78-8.22,1.17-12.32.39-.04.78-.08,1.16-.12.64,3.81,1.28,7.62,1.87,11.2,2.38-2.79,1.09-15.97-1.65-18.05,1.67-4.22,3.39-8.25,4.82-12.39.38-1.09.24-2.77-.37-3.73-3.59-5.7-17.07-7.5-21.9-3.07-3.44,3.16-3.19,5.27.92,7.56,4.65,2.59,9.4,5.07,12.36,10.34-5.12-3.39-9.87-6.53-14.63-9.67Zm-157.57,36.77c1.17-2.04,2.35-6.37,1.77-6.73-2.48-1.49-5.94-3.11-8.47-2.46-9.26,2.36-16.99,8.03-21.66,16.09-2.35,4.05-1.05,10.21-1.44,16.06,13.48-4.66,23.36-11.71,29.81-22.96Zm183.26,23.24c3.43-3.32,6.86-6.63,10.26-9.98,2.87-2.82,2.78-6.12,1.43-9.58-.27-.7-.65-1.35-.95-2.04-1.59-3.76-2.12-8.61-7.76-8.52-3.96.06-11.47,6.55-11.99,10.83-.88,7.16-1.16,14.4-1.67,21.33,5.17,1.87,8.1.47,10.7-2.04Zm84.09,98.56c1.32-7.19.58-14.21-2.19-21.51-6.43,3.52-12.4,6.61-13.09,14.84-.38,4.6-1.31,9.19-2.41,13.69s-2.61,8.43-3.93,12.59c12.57.97,19.53-8.28,21.62-19.62Zm-68.3-113.45c.24.64,1.25,1.15,2.01,1.43,6.16,2.28,12.3,4.62,18.54,6.63,1.4.45,3.8.21,4.65-.71.83-.9.94-3.59.18-4.62-4.1-5.61-7.9-11.75-13.13-16.13-3.7-3.1-9.41-4-14.38-5.29-2.83-.74-3.91,1.39-3.05,3.98,1.7,4.91,3.35,9.85,5.16,14.72Zm-105.12,224.52c-2.95,1.76-5.74,3.78-8.69,5.54-2.82,1.68-5.74,3.17-9.15,5.04,3.3,3.45,6.31,7.2,9.97,10.12,1.52,1.21,4.6,1.28,6.72.78,5.85-1.38,11.78-.2,17.03-1.01-4.68-4.08-9.62-8.4-14.97-13.07,3.53-.47,6.65-.85,9.75-1.35.69-.11,1.88-.66,1.88-1.02.04-4.87,3.29-2.38,6.16-2.26-5.67-5.62-12.45-6.5-18.71-2.78ZM127.91,106.38c1.91-4.64,1.95-10.05,2.91-15.51-8.97,1.94-21.06,13.49-23.91,22.07,12.77,5.84,16.44,4.55,21-6.56Zm-30.06,87.37c5.78-4.4,11.37-9.23,17.52-13.19,7.5-4.83,8.36-6.87,3.83-15.57-3.48,6.75-7.45,12.85-13.59,16.86-6.17,4.04-12.72,7.5-19.42,11.4,2.13,4.88,4.38,10.06,6.94,15.95,2.59-6.42,7.62-11.58,2.72-18.27.83,1.18,1.66,2.35,2,2.82Zm14.75,88.13c-1.3-.89-2.61-1.78-3.85-2.63.02-.02,1.01-.93.95-1.02-5.02-6.34-10.71-12.1-18.4-14.89-3.32-1.21-7.35-.46-11.53-.62,12.04,14.19,18.96,18.43,32.83,19.16Zm-45.28-68.01c6.92-1.33,14.75-.6,20.5-7.39-3.18-2.44-6.12-4.89-9.29-7.01-.9-.6-2.78-.77-3.63-.23-5.21,3.29-10.26,6.84-15.35,10.31.13.52.27,1.05.4,1.58,2.48.99,5.18,3.17,7.38,2.75Zm259.99,101.29c.22-.15.43-.29.65-.44,1.47,1.8,2.83,3.71,4.46,5.35.71.71,1.96.88,2.96,1.3.24-1.02.47-2.04.73-3.17.37.82.78,1.72,1.26,2.8q4.32-8,1.94-12.9c-6.17,1.09-12.12,2.27-18.12,3.17-3.14.47-3.61,2.07-2.82,4.71,1.94,6.53,6.01,8.39,13.07,5.89-1.5-2.43-2.82-4.57-4.14-6.71Zm-107.74,61.57c.32-.24.52-.31.53-.4.06-.44.06-.89.15-2.38,1.41,3.66,2.48,6.46,3.56,9.26.19-.05.39-.1.58-.15-.46-2.67-.92-5.34-1.44-8.31,2.81,3.53.44,9.62,7.15,11.4-1.6-4.37-2.95-8.07-4.3-11.76.21-.09.42-.19.63-.28,1.13,2.54,2.97,5.01,3.23,7.63.44,4.54,3.11,6.01,6.85,6.5,2.13.28,4.32.06,6.69.07-.9-2.49-1.53-4.43-2.3-6.32-1.01-2.52-2.38-4.38-5.29-5.46-7.11-2.63-14.01-5.83-20.99-8.81-.23.41-.47.81-.7,1.22,1.89,2.6,3.77,5.2,5.65,7.8Zm63.83-197.79c2.84-5.57-.25-9.31-2.15-13.47-8.32,6.29-9.18,14.93-8.62,23.9.17,2.77.37,6.24,4.55,6.53,7.03-7.19.65-14.78,1.08-22.29.97,4.22,1.93,8.43,2.9,12.65.29-.06.59-.12.88-.18-.31-1.34-.62-2.68-.92-4.03.17-.07.34-.14.5-.2.28.51.56,1.03.84,1.54.26-.04.52-.09.78-.13-.63-2.77-1.27-5.53-1.9-8.3.23-.11.46-.22.7-.33.39,1.24.78,2.47,1.35,4.29Zm-212.72-2.47c-5.97,8.98-9.69,17.98-10.91,28.42,5.07-3.41,9.89-6.66,15.09-10.17-1.32-5.76-2.65-11.55-4.19-18.25Zm114.67-65.15c4.88,5.01,9.71,9.96,14.42,14.79,2.49-3.95,4.07-8.31-.13-13.31-2.51-2.99-3.98-6.85-6.04-10.55-3.02,3.33-5.77,6.35-8.25,9.07Zm27.83,229.61c4,.57,6.78-2.5,9.44-4.1,1.39-.84.86-4.89.22-7.84.87,1.1,1.74,2.21,3.23,4.1.04-2.73.06-4.69.09-6.64-1.83.08-3.93-.38-5.45.35-3.56,1.71-6.84,4.02-10.26,6.02-3.2,1.88-3.63,4.24-1.65,7.32.71,1.1.98,2.48,2.02,5.27,1.26-2.39,2.02-3.83,2.36-4.48Zm150.21-111.65c.57,5.66,3.58,9.94,8.29,13.14,3.97-8.73,2.65-12.94-9.5-30.62.4,6,.62,11.76,1.21,17.49Zm-248.6-86.93c1.54-4.71,2.93-8.97,4.33-13.22,2.04-6.19.85-8.54-5.21-10.19-1.7-.46-3.41-.94-5.46-1.5.09,9,1.31,17.25,6.33,24.92Zm199.54,10.44c-1.08-6.03-2.21-12.3-3.34-18.57-.52.05-1.04.11-1.56.16-1.04,5.9-2.08,11.81-3.12,17.72-.23-.03-.45-.07-.68-.1.03-5.46.07-10.92.11-16.74-3.96,4.15-4.85,11.44-2.65,20.11,3.56-.82,6.82-1.56,11.25-2.58Zm-63.49-44.97c1.82,3.22,3.77,6.41,6.08,9.27,1.63,2.03,3.89,3.53,6.35.66,2.29-2.66,4.08-5.51,1.33-8.73-3.16-3.7-7.45-4.72-13.21-4.11-.17.79-.96,2.18-.55,2.9Zm-176.58,75.01c.55,2.92,1.48,5.83,2.76,8.5.51,1.08,2.41,1.49,4.66,2.76-.27-7.15-.5-13.09-.72-19.05-8.03.05-8.48-1.71-6.7,7.79Zm124.1,239.41c-3.19-3.75-6.15-7.22-9.28-10.9-1.36.31-2.91.67-4.76,1.09.33,1.03.59,1.85.84,2.66-1.37-.81-2.58-1.53-3.78-2.24,3,8.46,9.12,10.31,16.98,9.39Zm43.96-39.12c.6,1.51,1.22,3.01,2.06,5.06,4.16-1.52,8.23-3.01,12.5-4.58-.79-1.87-1.41-3.33-1.96-4.63-4.89-.01-9.54-.02-14.21-.03.46,1.19,1.03,2.69,1.62,4.18Zm25.06-260.09c-.06-.12.22.39.5.9.38-.04.76-.08,1.14-.12-.24-2.27-.47-4.54-.73-6.99-6.45,4.11-7.69,6.37-6.78,13.58.23,1.81,1.65,3.46,2.53,5.19.49-.17.97-.33,1.46-.5.66-4.21,1.32-8.41,1.89-12.05Zm94.12,117.6c-1.03,5.25-1.84,9.41-2.66,13.56.22.16.43.31.64.47.97-1.99,1.93-3.98,2.9-5.97.19.05.37.1.56.15-.26,1.25-.52,2.5-.91,4.37,3.08-2.02,5.82-3.8,9.47-6.19-3.54-2.26-6.62-4.23-10-6.39Zm-252.05-85.49c.21-.27.42-.55.63-.82-.29-.75-.57-1.5-.86-2.25,1.54,1.05,3.09,2.1,4.64,3.15.42-.3.85-.6,1.27-.89-1.65-4-3.3-8-5.23-12.69-2.62,3.64-4.53,6.3-6.92,9.61,2.47,1.48,4.47,2.69,6.47,3.89Zm185.83,217.52c1.38-.25,2.74-.49,4.27-.76-.35-1.55-.7-3.07-1.13-4.94-2.73,1.27-6.59-.37-7.59,3.92-.52-.55-1.13-1.18-1.73-1.82-.41.76-.82,1.52-1.13,2.08-1.56-3.91-3.71-.42-6-.31.41,1.77.73,3.17,1.04,4.55,8.09.01,11.15-1.53,10.98-5.49.42.89.83,1.78,1.29,2.76Zm-41.46-255.11c-3.09,6.63,3.51,9.98,5.5,15.09.47-3.83.93-7.66,1.43-11.72-2.41-1.17-4.67-2.27-6.93-3.37Zm-50.33,232.96c1.12-.98,2.21-1.94,3.43-3.01-.58-1.51-1.14-2.95-1.7-4.39.13-.08.26-.16.39-.25.78,1.17,1.57,2.34,2.35,3.5.43-.15.86-.31,1.29-.46-.89-2.86-1.78-5.71-2.8-8.98-7.03,6.27-7.06,6.44-2.96,13.58Zm-25.74-219.9c-4.54,4.2.58,8.11-.43,12.66,5.42-2.78,5.3-7.38.43-12.66Zm84.69,250.19c1.24-.34,2.49-.69,4.03-1.11-.5-1.21-.93-2.25-1.36-3.28q3.81-2.59,2.81-5.05c-2.63,1.81-5.21,3.57-8.15,5.59,1.05,1.52,1.8,2.58,2.68,3.85Zm-128-1.11c1.51-2.06,2.81-3.83,4.1-5.58-.96-1.75-1.86-3.37-2.94-5.34-1.96,1.57-3.76,3-5.71,4.56,1.56,2.18,2.97,4.15,4.55,6.36Zm60.77-32.62c-1.64.94-2.85,1.64-4.35,2.51,1.44,3.58,2.8,6.95,4.25,10.56,5.07-4.66.26-8.52.1-13.07Zm105.93,19.27c-.29.06-.58.12-.87.18.1,1.57.21,3.15.34,5.16,4.12-.67,8.02-1.3,11.97-1.95-1.94-4.01-5.36-4.17-9.36-3.28.27.86.58,1.88,1.25,4.02-1.62-2.02-2.47-3.07-3.32-4.13Zm18.39,2.79c.15-.13.29-.27.43-.4,1.37,1.3,2.73,2.6,4.2,4,1.61-4.86-1.92-7.02-10.43-6.85,2.78,2.89,5.61,5.83,8.44,8.78l.91-.84c-1.19-1.56-2.37-3.12-3.56-4.68Zm-24.14-231.55c-.63-.03-1.26-.07-1.89-.1-.24,2.11-.91,4.28-.61,6.31.56,3.88,1.67,7.68,2.9,11.53-.32-2.52-.63-5.04-1.06-8.42.76,1.78,1.2,2.82,1.65,3.85h1.16c-.71-4.39-1.43-8.78-2.14-13.17Zm-6.24,207.73c-.39-.19-.79-.37-1.18-.56-7.51,6.21-8.87,9.19-5.7,13.3,2.35-4.35,4.61-8.55,6.87-12.74Zm-129.4,65.33c-.32.52-.64,1.05-.97,1.57,4.74,2.98,9.47,5.95,14.21,8.93.45-.78.91-1.57,1.37-2.35-4.87-2.71-9.74-5.43-14.61-8.15Zm14.41,4.57c3.57,3.03,5.18,8.09,11.15,6.62-3.86-1.68-3.59-9.55-11.15-6.62Zm-98.85-250.56c6.03,4.22,10.97,3.93,15.64-1.06-5.63.38-10.09.68-15.64,1.06Zm124.61,178.96c-7.66,3.41-.06,7.53-1.24,10.99,5.54-3.33.96-7.03,1.24-10.99Zm-105.22-58.27c-1.13-4.7-5.75-3.07-9.01-5.92.87,6.79,3.09,7.97,9.01,5.92Zm247.99-83.93c-.34-4.71-.68-9.5-1.03-14.29-3.29,5.04-2.09,13.12,1.03,14.29Zm-31.09,77.75q-4.19,1.67-1.14,9.3c.46.02.91.04,1.36.06-.07-3.03-.14-6.06-.22-9.36Zm-39.8,96.9c5.22-3.54-.82-5.3-.34-9.01-3.35,4.27-3.19,5.42.34,9.01Zm-199.48-74.16c.32.28.63.57.94.85,3.09-3.34,6.17-6.67,9.26-10.01-.47-.45-.95-.89-1.43-1.34-2.92,3.5-5.85,6.99-8.78,10.49Zm102.44,60.29q-2.74-5.86-8.12-3.76c2.39,1.1,4.77,2.21,8.12,3.76Zm184.93-89.07c.59.91.92,1.43,1.91,2.96-.64-2.79-1.04-4.52-1.43-6.23-3.56,2.57-3.55,4.13.55,10.67-.4-2.86-.68-4.87-1.03-7.39Zm-1.44,12.51c2.86-4.66-2-7.58-1.09-11.3-.48.08-.96.15-1.45.23.79,3.45,1.58,6.9,2.54,11.07Zm-51.42-68.3c.59-.01,1.19-.03,1.78-.04.13-2.66.26-5.31.4-7.97-.89.03-1.77.06-2.66.1.16,2.64.32,5.28.49,7.92Zm-29,143.12c-.69-.06-1.38-.12-2.08-.18-.25,2.44-.5,4.88-.75,7.32.78.03,1.55.05,2.33.08.17-2.41.33-4.81.5-7.22Z"/>
    </g>
  </g>
</svg>