<?xml version="1.0" encoding="UTF-8"?>
<svg id="Capa_2" data-name="Capa 2" xmlns="http://www.w3.org/2000/svg" viewBox="0 0 81.23 102.67">
  <defs>
    <style>
      .cls-1 {
        stroke: #221f20;
        stroke-linecap: round;
        stroke-linejoin: round;
        stroke-width: .1px;
      }
    </style>
  </defs>
  <g id="Layer_1" data-name="Layer 1">
    <g>
      <path class="cls-1" d="m64.24,5.12c1.23.14,2.26.3,3.3.36,3.1.19,6.06.88,8.89,2.17,1.12.51,1.65,1.37,1.67,2.62.02,1.67.08,3.34.16,5,.05,1.09.2,2.18.2,3.26,0,2.01-.06,4.02-.09,6.03-.01,1.08-.02,2.16-.02,3.23,0,.62-.05,1.18.49,1.75.34.36.26,1.16.29,1.77.12,2.63.21,5.26.31,7.89.03.91.05,1.83.11,2.74.08,1.04.2,2.08.3,3.12.04.4.08.8.08,1.21.03,2.98.04,5.96.06,8.94,0,.81-.07,1.62,0,2.42.06.74.27,1.46.38,2.2.19,1.33.36,2.65-.12,3.97-.14.4,0,.91.02,1.36.09,2.04.15,4.09.27,6.13.04.65.18,1.31.34,1.95.4,1.6.42,3.22.05,4.8-.38,1.65-.07,3.26.03,4.89.1,1.55.19,3.11.12,4.66-.03.54-.47,1.14-.87,1.58-3.41,3.75-7.47,6.52-12.27,8.25-4.53,1.64-9.06,3.28-13.78,4.31-1.38.3-2.83.39-4.25.44-4.77.16-9.54.17-14.3.39-5.56.25-10.93-.7-16.21-2.34-5.08-1.58-10.15-3.21-15.22-4.82-1.02-.33-2.04-.68-3.07-.96-.45-.12-.62-.31-.62-.77-.01-2.83-.03-5.65-.07-8.48-.03-1.71-.13-3.43-.13-5.14,0-1.04.17-2.09.17-3.13,0-1.21-.13-2.42-.17-3.63-.09-3.1-.26-6.19-.22-9.29.06-5.03.27-10.06.39-15.09.02-1.01-.07-2.02-.08-3.03,0-.34,0-.73.17-1.01.45-.75.49-1.52.52-2.38.09-2.74.33-5.48.49-8.22.05-.87.11-1.68-.26-2.57-.27-.66.12-1.61.28-2.43.18-.94.56-1.85.62-2.79.19-2.98.27-5.97.39-8.96.06-1.45.17-2.9.2-4.36.02-.9-.06-1.81-.11-2.72-.08-1.45.47-2.46,1.88-3.03,3.58-1.43,7.29-2.34,11.1-2.72,4.9-.49,9.84-1.1,14.74-.99,3.91.09,7.19-1.21,10.44-2.91,1.69-.88,3.41-.8,5.18-.77.48,0,.69.25.71.77.02.86.15,1.72.19,2.58.02.5.25.72.7.62.78-.16,1.56-.36,2.33-.58,1.24-.35,2.44-.89,3.7-1.06,2.88-.4,5.77-.66,8.67-.89.61-.05,1.29.15,1.87.39,1.32.55,1.52,1.75.52,2.78-.09.09-.19.18-.47.45ZM12.79,31.52c-.07.19-.15.38-.28.71.48.08.89.14,1.3.2.03-.11.07-.22.1-.33-.38-.19-.76-.38-1.14-.57-.27-.26-.53-.51-.79-.77.45.11.91.22,1.33.33,0,.03-.02.26.08.37.51.53.97.36,1.38-.16-.12.25-.24.49-.36.75.48.3.85.68,1.32.18.04.09.08.27.12.27.9.01,1.79.01,2.69,0,1.1.31,1.16.28,1.58-.72-.38-.22-.76-.43-1.15-.65.57.14,1.14.29,1.81.46.14.36.45.75,1.05.51.14-.06.15-.47.23-.79.4.13,1.2.15,1.49.55.67.9.72-.03.95-.23.24-.21.37-.54.6-.91.65,1.19,1.32.59,2,.21-.18.22-.36.44-.64.79.49.16.88.28,1.27.4.7.68.93.63,1.32-.31-.67-.8-.89.23-1.34.33.36-.45.37-1.64,1.42-.67.06.06.33-.07.47-.16.17-.1.3-.24.45-.37.02.02.05.05.07.07-.16.22-.31.45-.56.79.44.14.8.25,1.16.36.69.66,1.68.55,2.02-.22q-.96-.74-1.79.05c-.05.05-.14.07-.21.11.13-.38.92-.71.06-1.13.97-.36,1.65,1.07,2.54.43.17.23.32.62.47.62.24,0,.49-.25.73-.41.11-.07,0-.61.35-.15-.15.27-.31.54-.46.81.04.07.07.14.11.21.34-.11.69-.23,1.22-.4-.45-.31-.66-.46-.88-.61.41.1.94.08,1.19.34.48.49.88.51,1.46,0-.31.73.15.7.5.71,1.21.04,2.42.07,3.63.09,4.39.07,8.78.13,13.16.18.34,0,.68-.04,1.03-.06v-2.48c-1.71,0-3.37-.01-5.03,0-6.43.05-12.86.14-19.3.15-3.77,0-7.54-.07-11.3-.18-1.93-.05-3.87-.24-5.8-.36-2.1-.13-4.19-.3-6.29-.36-.48-.02-.98.32-1.59.53q.78.7,2.03-.07c.09.15.18.31.28.46-.33.06-.65.13-.98.19.01.15.03.29.04.44.38.02.77.03,1.15.05.17.85,1.01,1.21,1.83.81-.21-.88-1-1.22-1.85-.79-.07-.24-.15-.48-.22-.72.5.15.99.29,1.49.44.4.12.8.23,1.2.34.16.22.29.59.48.62.24.04.52-.2.79-.32Zm61.08.05c.37.28.74.57,1.11.85.06-.11.13-.22.19-.33-.41-.17-.83-.34-1.24-.51-.02,0-.05,0-.08,0-.18-.27-.36-.54-.54-.82.55.54,1.01.06,1.6-.27-.24.33-.38.51-.7.95.62,0,1.09.12,1.42-.04.29-.14.43-.6.7-1.01v.85c.24-.07.48-.14.73-.21-.11.75.48,1.26,1.44,1.23.24-.7-.05-1.2-.61-1.6.39.14.69.13.72-.4.03-.43-.12-.64-.59-.64-1.34,0-2.69-.05-4.03-.03-1.9.03-3.8.13-5.7.17-3.51.09-7.02.16-10.55.24v3c2.11,0,4.15.02,6.19-.02.27,0,.58-.22.8-.41.53-.46,1.01-.98,1.48-1.43.2.35.3.53.41.72-.96-.3-1.11.65-1.78,1.14,1.04-.06,1.91-.11,2.94-.16-.35-.62-1.14-.37-1.19-1,.57.15.84-.16,1.05-.67-.34-.18-.66-.35-.98-.52.5.04.95.22,1.41.34.23.06.48.04.72.06-.05-.23-.09-.46-.13-.63.28.02.61.04.87.06.05.16.04.4.16.52.9.89,1.06-.62,1.62-.58.16.2.27.33.37.47-.35.12-.7.25-1.06.37.02.15.04.29.06.44.38.01.76.02,1.14.04-.08.72.55.71.95.82.18.05.46-.25.74-.43-.95-.77-1.03-.78-1.71-.38-.04-.29-.07-.57-.11-.86.77.54.78-.63,1.27-.6.11.17.2.3.28.44-.27.1-.53.19-.8.29.02.12.04.25.06.37.45.04.91.09,1.36.13Zm4.21,15.59c.35.09.69.17,1.01.25.48-.58.22-.91-.27-1.17,1.05.18.58-.46.56-.68-3.26.7-6.49,1.43-9.73,2.05-.99.19-1.46.75-1.81,1.56.93.68,1.06.65,1.44-.11.17-.35.45-.65.69-.97.1,0,.2,0,.3,0-.62.91.13.82.52,1.07.26-.4.49-.76.74-1.1.02-.03.19.06.31.1-.26.36-.51.71-.82,1.14.39.2.66.34.92.48q.67-1.15-.13-1.63c.97.56,1.16-.58,1.79-.96.02.66-1.05,1.04-.21,1.65-.74-.2-.86.3-1,.84,1.13-.04,1.27-.17.97-.87.2-.15.45-.26.58-.46.25-.39.43-.82.64-1.23.04.02.07.04.11.06-.08.38-.15.75-.22,1.14-.11.26-.22.51-.34.77h1.26c-.44-.36-.7-.58-.95-.79.1.03.21.04.31.08,1.16.52,1.13.51,1.76-.63.19-.35.55-.6.83-.9.08.18.04.25.02.32-.06.22-.12.44-.17.66.18-.14.4-.26.54-.44.3-.41.55-.86.83-1.28,0-.01.2.09.31.14-.25.3-.51.6-.75.9-.13.32-.27.63-.4.95.05.05.1.09.15.14.34-.15.68-.29,1.13-.49-.38-.25-.64-.42-.9-.59ZM22.31,6.86c.51-.36,1.29.5,1.71-.37-.16-.17-.31-.32-.45-.48h1.46c-.06.07-.22.25-.36.4,1.01,1.44,1.33-.39,2.04-.35.02.71.2.77,1.11.39.95.65,1.51.67,2.13.05.07.19.14.54.2.54.35-.02.69-.12,1.14-.21q-.58-.64-1.37-.29c.09-.23.18-.46.27-.69.19.01.46-.05.55.05.51.63,1.01.41,1.49,0-.04.27-.16.7-.1.73.27.12.59.18.88.14.16-.02.26-.31.43-.42.18-.12.58-.25.59-.23.37.75.73.2,1.09.01.04-.02.09,0,.18.01-.13.17-.25.33-.52.69.7.08,1.24.18,1.77.19,4.71.03,9.42.05,14.14.06,1.71,0,3.42,0,5.22,0,0-.38-.04-.78,0-1.18.08-.65-.17-.92-.82-.96-1.48-.08-2.95-.25-4.43-.31-1.42-.05-2.84-.01-4.3-.01-.07-.47-.14-.81-.16-1.16-.04-.7-.03-1.4-.1-2.1-.02-.2-.24-.52-.4-.54-.81-.1-1.63-.12-2.5-.17,0,.88-.02,1.61,0,2.33.04,1.2-.11,1.39-1.34,1.38-2.53-.02-5.06-.12-7.59-.1-3.07.03-6.14.1-9.2.23-2.23.1-4.46.24-6.67.51-2.44.3-4.87.77-7.3,1.19-.21.04-.39.21-.58.32-1.4.26-2.79.53-4.25.8.13.3.2.44.26.59-.42.21-.92.36-.75,1.01-.34.21-.68.41-1.01.62.06.13.11.26.17.39.43-.11.87-.22,1.4-.35-.28-.34-.43-.51-.58-.69.62.43,1.09.36,1.38-.42-.21-.2-.42-.39-.62-.59.67.47,1.22.36,1.7-.3.1-.13.31-.17.47-.26.02.05.04.09.06.14-.35.32-.71.65-1.07.97.66.65.99.21,1.36-.16.45-.45.92-.87,1.39-1.31.04.05.08.09.12.14-.27.29-.54.58-.85.92.99.57,1.21-.26,1.68-.64-.17-.21-.31-.4-.45-.59.22.1.43.19.63.28.38-.21.76-.42,1.13-.62.02.04.05.08.07.12-.11.12-.22.24-.34.38.47.47.91.6,1.36.05-.06.22-.12.44-.2.72h1.72c-.23-.31-.37-.49-.5-.67.46.26.79.44,1.1-.28.18-.43.76-.7,1.16-1.05-.05.31-.18.51-.36.66-.31.26-.54.64-.14.83.38.18.91.61,1.37.01.31-.41.64-.8.97-1.21.26.18.45.31.64.44-.63-.36-.82.13-1.07.66.39.11.8.18,1.16.08.14-.04.18-.46.26-.71.34-.17.71-.31,1.02-.53.3-.21.54-.52.75-.73.11.34.2.59.29.85-.79-.35-1.05.23-1.36.68.54.82,1.1.14,1.64.12.04-.02.06-.03.09-.03ZM6.82,31.87c.59.13,1.22.52,1.79-.14-.87-.74-.89-.74-1.79.15.16-.28.32-.57.49-.87-.43-.35-.82-.67-1.34-.26.3-.38.59-.75.87-1.11-1.42-.16-2.85-.35-4.29-.44-.22-.02-.62.36-.67.61-.1.51-.03,1.06-.03,1.59.21-.02.43-.02.64-.06.15-.02.3-.08.44-.12.41.72,1.12.73,1.95.04-.1.16-.21.31-.34.51.68.09,1.24.16,1.8.23.02-.07.04-.14.06-.21-.47-.27-.79-.88-1.53-.54.26-.75-.47-.8-.8-1.14.63.21,1.25.42,1.88.62.28.38.56.75.84,1.12Zm16.3,18.27c.11.06.22.15.34.18.24.07.5.11.74.16.05-.3.1-.59.14-.89.34-.07.69-.13,1-.19-.08.14-.2.34-.34.59.25.19.48.36.65.5.78-.7,1.5-1.35,2.22-2,.05.06.1.12.15.18-.32.27-.64.54-.96.82,1.21,1.03,1.74.99,2.23-.1.61.37,1.22.74,1.81,1.1.43-.5.79-.92,1.14-1.33.03.02.06.04.08.06-.08.24-.17.48-.25.72-.24.2-.48.39-.72.59.03.11.06.23.09.34.39.02.97.21,1.14.02.5-.53-.31-.6-.48-.91-.01-.02-.03-.04-.05-.06.47,0,1.07.96,1.38-.3.9.58,1.72,1.15,2.58,1.63.27.15.71.13,1.02.04.18-.05.27-.41.45-.7.08.04.33.17.59.3.72.37,1.39.79,2.28.78,4.98-.07,9.95-.08,14.93-.13.2,0,.56-.22.56-.35.05-.82.03-1.64.03-2.47-.3-.02-.46-.04-.62-.05-3.91-.04-7.81-.06-11.72-.12-6.81-.09-13.63-.2-20.44-.31-.64,0-1.22.57-1.07,1.08-.62-.28-.85.14-1.21.72.61.16,1.12.3,1.64.43.21-.12.42-.24.64-.36Zm-18.93,14.24c-.21-.19-.41-.39-.67-.63-.18.11-.37.23-.53.32.19.4.31.77.52,1.07.11.15.39.23.59.22.09,0,.21-.31.22-.49,0-.17-.11-.35-.17-.52.21.18.41.36.62.55.07-.04.13-.08.2-.11-.1-.29-.19-.58-.29-.86.29.18.57.35.86.53.04-.06.08-.12.12-.18-.09-.17-.18-.34-.27-.5.06-.04.11-.08.17-.11.41.46.86.89,1.22,1.38.43.59.85.64,1.41.13-.07-.18-.14-.37-.21-.55.44.46.9.9,1.31,1.39.35.41.6.35.87-.05-.55-.98-1.42-1.51-2.17-1.33-.85-.48-1.7-.97-2.57-1.41-.24-.12-.56-.07-.85-.1.05.28.1.55.14.83-.25-.17-.5-.33-.75-.5-.04.04-.09.08-.13.13.12.27.24.54.36.81Zm21.5-32.06c.02.13.03.36.05.36.5.02,1,.02,1.5.02,0-.1,0-.2,0-.3-.5-.45-1-.72-1.58-.04.06-.22.12-.45.18-.67-.73-.52-1.05-.35-1.47.78.5.5.9.09,1.32-.15Zm-3.97,37.68c-.25-.19-.5-.37-.81-.6-.26.29-.49.54-.84.93.73.09,1.27.15,1.84.22-.01-.17,0-.25-.03-.32-.03-.07-.09-.13-.14-.19.26.02.53.07.78.04.09-.01.24-.33.21-.37-.26-.29-.53-.6-.87-.78-.15-.08-.46.15-.74.25.26.36.43.59.59.83Zm-17.68,24.28c.14.67.66.62,1.35.68-.32-.41-.54-.69-.74-.95-.26.12-.45.21-.64.3.37-.55.18-1.26-.44-1.52-.12-.05-.32,0-.42.07-.1.08-.22.33-.18.37.34.37.71.7,1.07,1.04ZM13.22,15.5c.18.09.36.21.55.27.2.06.54.14.59.07.15-.23.18-.52.25-.79.35-.14.7-.28,1.18-.47-.33-.3-.47-.42-.61-.55.76.31,1.45.71,2.09,1.19.38.28.73.14.73-.18,0-.64.51-.49.6-.57.2.31.35.6.56.83.07.08.43.05.46-.02.08-.19.06-.43.08-.64.46.63.71-.37,1.26-.33-.23.26-.42.47-.6.67.65.82.69.82,1.52.34-.15.22-.26.39-.4.6.95.11,2.22-1,2.37-2,.23.12.3.4.44.62.27.42.62.59,1.06.19-.01.28-.04.56-.02.84,0,.03.37.1.39.06.12-.24.2-.51.29-.77.42-.17.83-.34,1.35-.55-.27.29-.47.51-.88.94.55.04.87.07,1.16.09,0,.03-.06.18-.21.61,1.64-.43,3.13-.65,4.3-1.25.18.25.29.52.4.53.65.03,1.3,0,1.96,0,.12.17.25.49.36.49.47-.01.95-.12,1.5-.21-.46-.85-.93-.9-1.5-.43.2-.24.4-.48.64-.77.24.19.43.38.65.51.49.3.97.75,1.5.83,1.06.15,2.15.1,3.22.12,3.61.07,7.21.15,10.82.21,1.5.02,3,0,4.5,0,.42-2,.22-2.27-1.71-2.33-.11,0-.22,0-.32,0-4.3-.22-8.6-.49-12.91-.64-3.09-.1-6.19-.13-9.28-.01-6.45.24-12.9.61-19.35.9-.8.04-1.44.22-1.82,1,.13.15.27.31.41.47-.83-.35-1.26-.12-1.56.83.89.31,1.58-.09,1.56-.9.36-.18.83-.27,1.05-.55.37-.46.5-.35.7.09.05.11.18.17.28.26-.64-.44-1-.06-1.35.41.84.78,1.2.78,1.73,0Zm14.93,54.89c-.73-.46-1.16-.04-1.69.65.9.06,1.64.11,2.39.17.01-.07.02-.13.03-.2-.26-.21-.51-.43-.77-.64.12.05.24.11.37.13.28.04.56.05.84.08-.1-.24-.21-.48-.31-.71.32.06.64.13.93.19.07.18.16.4.25.63-.24.02-.48.03-.71.07-.02,0-.03.32.02.34.31.13.63.21.95.31.03-.06.06-.12.09-.18-.13-.19-.25-.38-.38-.56.27.04.54.08.81.13v-.4c.38-.19.68-.35,1-.52.26.15.57.31.85.47.44-.33.84-.62,1.24-.91.03.04.05.08.08.12-.33.3-.66.6-1,.89.85.94.93.94,1.83.16.2-.17.44-.3.67-.44.05-.03.13,0,.22,0-.14.22-.26.41-.34.54.48.9,1.03.51,1.59.2-.11.13-.23.26-.46.53.47,0,.76,0,1.05,0,3.61-.09,7.21-.17,10.82-.26,2.23-.05,4.47-.1,6.7-.18.23,0,.61-.23.63-.38.07-.62.03-1.26.03-1.87-12.28.68-24.38.16-36.6-1.16.22.3.34.44.45.59-.84-.58-.99.28-1.48.69.52.48.99.92,1.51,1.4.35-.39.63-.7.95-1.04-.21-.25-.38-.44-.55-.64.52.43,1.03.53,1.43-.19.33.25.61.41.83.64.45.47.83.43,1.26-.05.23-.26.57-.42.86-.62.03.05.06.09.08.14-.3.28-.6.55-.93.87.61.51,1.08.64,1.6.06.3-.33.68-.6,1.02-.89.1.33.15.52.21.72-.82-.3-1.08.41-1.68.91.57.23,1.05.61,1.45.54.32-.05.55-.64.82-.99.52-.25,1.04-.5,1.51-.73.04.21.08.42.12.64-.29.05-.58.09-.86.14.09.21.18.42.27.63Zm-12.65-1.16c.22.83.89.48,1.48.47-.25-.28-.51-.56-.76-.83-.3.15-.52.27-.75.39.54-.79.48-.97-.64-1.64-.19.18-.39.37-.77.72.59.37,1.01.63,1.43.9Zm-12.2-6.12c.36-.05.71-.1,1.07-.15-.49-.5-1-.81-1.53-1.09-.03-.01-.17.18-.25.27-.61-.21-.99-.06-.97.66-.64-.31-.97-.04-1.18.67.69.14,1.12.92,2.03.65-.34-.52-.61-.94-.88-1.35.22.21.44.44.68.63.19.15.49.4.6.34.2-.11.3-.41.44-.63Zm8.85-13.85c.52-.7-.23-.88-.51-1.26.47.17,1.09.21,1.39.54.95,1.03.9,1.07,1.9.6-.2.17-.41.34-.8.67.71.16,1.17.26,1.88.42-.24-.37-.35-.53-.45-.69.32.12.64.3.97.32.16,0,.33-.29.5-.45-.14-.23-.25-.4-.26-.42.37.02.79.04,1.03.05-.01.23-.03.51-.04.79-.72-.25-.73-.25-1.04.43.24.04.47.08.7.1.15.01.31-.01.52-.03-.08-.21-.15-.37-.21-.53.38.12.74.23,1.08.5.27.22.84.13,1.26.05.13-.02.19-.45.27-.7.02.04.04.09.05.13.62-.48,1.25-.96,1.97-1.52-.27-.05-.4-.08-.53-.09-3.22-.35-6.45-.7-9.67-1.04-1.15-.12-2.29-.32-3.44-.35-.36,0-.75.41-1.07.7-.05.05.14.47.31.63.34.32.72.33,1.03-.08-.04.23-.17.6-.09.66.21.14.52.15.78.21.03-.18.07-.36.1-.54.45-.21.9-.42,1.35-.63-.25.29-.5.59-.77.91.53.55,1.04.97,1.81.56,0,.11,0,.31.03.32.46.13.94.24,1.41.35.02-.07.03-.14.05-.22-.47-.26-.74-1.14-1.53-.39Zm66.42,13.99c.17-.35.39-.69.49-1.06.11-.44.21-.44.44-.09-.15.3-.33.59-.42.91-.03.1.16.27.25.41.12-.1.36-.22.35-.31-.03-.34-.13-.68-.21-1.02.83-.28,1.05-1,.63-1.83-.76.87-1.54,1.75-2.33,2.65.25.12.54.25.82.38-.62-.13-.91.11-.79.97.51-.12.98-.24,1.53-.37-.37-.3-.57-.46-.76-.62Zm.97,17.28c-.16.09-.45.19-.45.28-.03,1.76-.02,3.52-.02,5.28.08.02.16.05.24.07.13-.47.38-.93.38-1.4,0-1.42-.11-2.84-.17-4.26.18,1.53.37,3.06.55,4.59.47-1.77.22-3.56.24-5.35-.08-.03-.15-.06-.23-.09-.18.29-.36.58-.54.87Zm-3.57-71.19c.04.24,0,.59.14.71.4.31.88.53,1.32.78l.21-.17c-.19-.61-.38-1.23-.57-1.84-.08.03-.16.05-.24.08.09.22.19.44.25.6-.28-.15-.55-.3-.83-.44-.09-.25-.12-.67-.28-.74-1.11-.46-2.25-.86-3.37-1.27-.03.06-.07.12-.1.18.07.13.13.26.2.4-.9-1.15-2.26-1.17-3.5-1.32-3.53-.41-7.07-.7-10.6-1.03-.28-.03-.57,0-.86,0v2.58c2.35.15,4.63.31,6.91.44.21.01.44-.15.75-.26.04.02.31.28.44.22.41-.19.77-.49,1.16-.75.4,1.07,1.03,1.36,1.91.88.24.74.85.4,1.48.57-.45-.59-.74-1.05-1.39-.65.26-.28.42-.7.91-.65-.03.07-.11.15-.1.2.19.62,1.56,1.45,2.2,1.31.08-.02.09-.3.14-.46.21.01.43.03.64.04.03,1.08.97.45,1.46.73-.15-.26-.3-.52-.45-.77.72.21,1.45.42,2.17.64ZM5.3,47.4c.37.19.73.38,1.1.56.57-.37,1.13-.74,1.7-1.12-1.57-.54-3.02-.9-4.48-1.22-.1-.02-.27.29-.4.45-.33.15-.65.3-.98.45,0,.1,0,.19.01.29.33.18.66.36.99.54.14-.25.27-.51.41-.76.57.24.75,1.27,1.66.82Zm-1.01-31.79c-.41-.15-.93-.65-1.19,0-.21.54-.11,1.21-.15,2.02.61-.56,1.06-.92,1.43-1.36.1-.12-.06-.45-.1-.69.3,0,.69.13.88-.02.34-.26.58-.36.98-.15.4.21.86.32,1.29.47.12.2.21.54.36.57.29.05.61-.08.98-.15-.42-.79-.83-.96-1.37-.39.26-.38.53-.76.68-.99.3.39.54.7.72.94.65-.7,1.18-1.28,1.64-1.78-.18,0-.53,0-.87.05-1.69.28-3.38.57-5.07.88-.33.06-.72.18-.22.58Zm67.25,51.72c0-.62.41-1.03.71-1.51.48-.78,1.05-.13,1.57-.18.21-.02.56-.1.6-.23.18-.52.47-.37.82-.26.5.17.89.06,1.05-.52.05-.2.16-.38.23-.55,1.02,0,1.14-.13.96-1.03-.62.28-1.23.54-1.82.83-1.8.91-3.94,1.16-5.37,2.8.13-.25.27-.51.48-.92-4.33,1.35-8.68,1.9-13.07,2.19v2.57c.16.01.27.04.37.03,2.07-.31,4.15-.61,6.22-.95.76-.13,1.58-.17,2.09-.89.02.1.04.2.06.3.44-.11.91-.16,1.31-.36.4-.2.47-.6.21-1.01,1.03.47,1.64-.07,2.16-.87.04-.06.13-.08.19-.13-.19.42-.39.84-.61,1.33.75.23,1.28-.28,1.84-.71.08.1.19.3.23.29.45-.14.9-.32,1.5-.54-.81-.31-1.38-.44-1.75.3Zm-61.88,24.5c-.04-.12-.11-.24-.13-.37-.14-1.18-.11-2.31.25-3.48.45-1.46.41-2.97-1.3-3.37-.24-.07-.47-.14-.89-.27.12,1.84.22,3.56.33,5.28.09,0,.19-.01.28-.02,0-1.34-.02-2.69.01-4.03,0-.33.17-.65.26-.97-.03,1.79-.12,3.59-.05,5.38.03.72.39,1.44.65,2.14.06.17.31.27.56.49,0-.39,0-.6,0-.81.17.33.34.66.5.99.05-.03.1-.06.15-.1v-5.24c-.16.31-.21.4-.26.49-.58,1.25-.38,2.57-.38,3.88Zm67.99-42.94c-.13.14-.37.29-.36.42.09.91.1,1.86.4,2.71.54,1.55.74,3.13.77,4.76.02,1.28.15,2.56.24,3.84.08.01.15.03.23.04.12-.24.32-.48.33-.72.06-1.5.09-3.01.1-4.52.01-2.33-1.2-4.33-1.71-6.52.2.4.44.78.6,1.19.34.86.64,1.74,1.02,2.76v-4.66c-.63.27-1.13.49-1.62.7Zm-3.04,32.93c1.06.13,1.27-.03,1.48-1.21-.26-.04-.52-.08-.75-.11.42-.12.85-.25,1.29-.37.23-.06.5-.19.69-.12,1,.36,1.68.09,1.99-.88-.3-.04-.6-.08-.95-.12.16-.33.29-.59.42-.84-.02.2-.03.41-.05.59.66.21.9-.04.99-.62.06-.41.14-1.08.37-1.16.99-.33.32-.96.32-1.49-.55.81-1.1,1.62-1.65,2.43.04-.13.07-.26.12-.43-1.6.96-3.08,1.98-4.68,2.78-1.03.52-1.47,1.31-1.81,2.29,1.02.41,1.15.33,1.49-.61.15-.41.42-.78.66-1.2.03.43.06.76.09,1.08-.3.29-.6.57-.9.86.08.09.15.18.23.28.44-.22.88-.44,1.44-.72-.38-.21-.59-.32-.8-.43ZM39.98,11.98c.49.14.98.28,1.48.42.05-.07.1-.15.16-.22-.83-1.42-1.29-2.89-.61-4.45h-2.56c-.08,1.55-.15,2.98-.22,4.56.59,0,1.14,0,1.69-.01.03,0,.05-.19.08-.3h0Zm3.45,85.02c-.04.33-.08.65-.13,1.01h1.23c-.16-2.48-.32-4.9-.49-7.38-.69.04-1.34.07-1.96.11-.25,1.06.03,1.8.85,2.32-.29-.22-.69-.39-.84-.68-.19-.35-.16-.83-.27-1.23-.05-.16-.24-.28-.36-.42-.11.13-.27.24-.31.39-.07.28-.08.59-.07.88.09,1.99,1.16,3.9.37,6.01h1.63c.12-.35.23-.67.35-.99Zm-15.33-6.08c.64,1.55,1.28,3.1,1.92,4.64.04,0,.08-.01.13-.02v-5.39c-.39-.02-.73-.05-1.08-.06-.36,0-.73,0-1.17,0,.08.26.13.43.18.6-.48-.79-1.12-1.01-2.22-.74-.16,1.77.22,2.9,1.21,4.29.43.61.6,1.4.91,2.1.1.22.21.55.38.6.55.15,1.14.2,1.88.31-.27-.8-.47-1.44-.68-2.06-.18-.53-.26-1.15-.59-1.56-.66-.82-.82-1.73-.87-2.71Zm30.58-57.08c-.23-.12-.45-.25-.67-.37-.06.07-.12.13-.18.2.38,4.83.77,9.67,2.32,14.36h.71c.02-.24.06-.45.05-.66-.04-1.64-.05-3.28-.14-4.92-.1-1.77-.39-3.5-1.15-5.16-.49-1.08-.65-2.31-.96-3.47.13.28.27.56.37.85.42,1.19.82,2.38,1.23,3.57.07-.02.14-.04.22-.06,0-1.28.02-2.56-.01-3.84,0-.26-.19-.72-.28-.72-.5,0-1.09-.39-1.5.23Zm18.15,44.21c.89-.39,1.23-1.03,1.03-2-.49-2.37-.95-4.75-1.4-7.12-.12-.64-.15-1.29-.22-1.94.03,0,.07,0,.1,0,.65,2.95,1.29,5.91,1.94,8.86.02-3.36.18-6.73-.59-10.13-.74.39-1.4.69-2,1.09-.22.15-.43.52-.42.79.02,1.02.2,2.04.19,3.06,0,1.73.07,3.42.8,5.04.33.73.4,1.58.58,2.38-.15-.31-.34-.61-.44-.93-.27-.81-.49-1.64-.74-2.46-.04.01-.07.03-.11.04v4.23c.5-.35.89-.62,1.28-.89Zm-9.58-28.17c-.05.23-.1.46-.16.74.63.01,1.23.15,1.63-.55-.54-.35-.97-.8-1.5-.16-.11-.86.89-1.17,1.03-2.07-3.52.82-7,.77-10.52.52v3.21c2.28-.16,4.5-.31,6.72-.47.15-.01.29-.18.44-.26.46-.22.99-.68,1.37-.59.54.14.71-.14,1-.38Zm.92-5.46c-.4.09-.55-.09-.61-.48-.29-1.91-.25-3.81.16-5.69.11-.49.24-.97.37-1.52.21.68.43,1.37.64,2.05.1-.03.2-.05.3-.08-.36-1.71-.73-3.41-1.09-5.11.02-.01.04-.03.06-.04.27.62.53,1.24.83,1.93,0-.6.04-1.12-.02-1.62-.02-.18-.31-.46-.47-.45-.93.01-1.87.1-2.87.16.25,4.72.51,9.38.76,14.1.41-.06.7-.1.78-.11-.21-1.63-.57-3.15-.57-4.68,0-2.9.19-5.81.3-8.71,0-.09.06-.18.15-.46.05.41.1.62.09.82-.06,2.07-.14,4.14-.2,6.21-.06,2.09-.29,4.21.69,6.18.1.21.38.48.58.47.52-.01,1.05-.16,1.6-.26-.09-1.76-.18-3.46-.27-5.16-.15.52-.14,1.03-.15,1.54,0,.54-.02,1.08-.06,1.61-.03.47-.11.94-.17,1.42-.02,0-.04-.02-.06-.02v-3.47s-.09-.02-.13-.03c-.2,1.2-.41,2.39-.64,3.74-.14-.23-.21-.3-.21-.36.06-.67.13-1.34.19-2.01.53-2.16.87-4.31-.13-6.53-.43,1.49-.54,4.25-.22,5.59.08.33.25.64.37.95Zm3.85-27.95c.34.06.68.11,1.01.17-.08.67.41.65.83.63.12,0,.35-.33.31-.42-.17-.41-.43-.78-.97-.44.02-.48.35-.6.74-.64.1.31.19.62.32,1.04.51-.41.82-.66,1.04-.82.28.34.49.61.8,1,.22-.36.41-.57.47-.82.02-.09-.27-.35-.44-.37-.7-.08-1.41-.11-2.11-.15-.15-.09-.29-.23-.45-.26-.86-.16-1.73-.33-2.6-.43-2.32-.28-4.64-.56-6.97-.78-2.08-.2-4.16-.33-6.27-.49v2.63c2.64.13,5.21.27,7.79.37.55.02,1.1-.11,1.69-.18.3.65.84.38,1.38.1.57.38,1.12.58,1.52-.22.08.08.15.17.23.25.57.02,1.2.68,1.68-.17Zm-.61,77.98c.62.21,1.03-.03,1.31-.6-.03.24-.05.49-.08.76,1.1-.14,1.17-1.15,1.71-1.9-.05.38-.08.6-.13.98.38-.21.66-.31.87-.49,1.54-1.34,3.05-2.72,4.6-4.04.98-.84.92-1.89.84-3.12-.6.54-1.1,1.03-1.63,1.46-1.54,1.26-2.95,2.77-4.67,3.7-3.93,2.13-8.04,3.92-12.46,4.84-1.49.31-2.97.63-4.53.95-.05-.43-.12-.71-.11-1,.02-.91.08-1.83.08-2.74,0-24.82,0-49.63-.02-74.45,0-4.45,0-8.89,0-13.34,0-.5.03-1.01-.78-.95-.02.38-.06.75-.06,1.12-.01,15.84-.02,31.67-.03,47.51,0,6.73,0,13.46,0,20.19,0,5.11.01,10.22.01,15.34,0,2.59-.01,5.17-.02,7.76,0,.49.01,1.01-.6,1.17-.73.2-1.45.49-2.19.53-.85.04-1.23.55-1.68,1.09,1.73,1.14,2.04,1.14,2.6,0-.31-.19-.62-.39-.94-.59.03-.05.06-.11.08-.16.8.42,1.6.84,2.49,1.3.2-.39.38-.75.58-1.13.17-.06.43-.16.79-.29-.35.9.48.77.86,1.03.11.07.51-.05.57-.18.22-.47.96-.81.55-1.34.4-.32.79-.63,1.17-.94.04.04.08.07.12.11-.18.26-.35.53-.53.79,1.26.8,1.74.72,2.26-.21.26-.46.65-.85.98-1.27.06.05.13.1.19.15-.14.23-.27.46-.41.69,1.43.74,1.37.58,1.9-.56.22-.48.8-.79,1.21-1.17.04.04.08.09.12.13-.23.3-.46.59-.69.89.03.1.06.2.09.3.53-.05,1.06-.09,1.59-.14.01.14.03.28.05.49.6-.22,1.12-.4,1.75-.63q-1.13-.51-1.83.17c.17-.35.34-.69.52-1.05,1.03.7,2.36.81,3.1.04.4-.21.81-.41,1.41-.73-.5-.23-.75-.34-1-.46ZM.76,78.24c0,.65-.03,1.31.02,1.97.01.19.21.44.4.54,1.04.57,2.06,1.19,3.16,1.62,2.83,1.11,5.69,2.15,8.55,3.17,2.48.89,4.95,1.86,7.49,2.51,2.31.6,4.71.96,7.09,1.17,7.06.64,14.13,1.22,21.21.51,1.98-.2,3.95-.49,5.89-.92,1.38-.31,1.51-.72,1.25-2.16-2.05.24-4.1.47-6.14.73-4.54.58-9.08.52-13.62.19-3.28-.24-6.54-.61-9.82-.87-5.13-.41-10.02-1.75-14.73-3.79-3.55-1.54-7.1-3.1-10.74-4.69Zm17.98-11.52c-.92-4.84-.43-9.48.05-14.12.09.08.11.16.1.24-.02.21-.06.43-.07.64-.22,4.18-.77,8.37.1,12.55.13.65.34.97,1.14.8,0-1.53-.05-3.06.01-4.59.14-3.44.33-6.89.48-10.33,0-.21-.21-.62-.36-.63-1.49-.15-2.99-.25-4.56-.36-.85,5.04-.43,10.04-.68,15.04,1.31.26,2.49.5,3.79.75Zm36.26.99c-.15,0-.29,0-.44,0-.11-1.86-.32-3.73-.3-5.59.02-2.58.23-5.16.3-7.75.07-2.4.04-2.39-2.41-2.24-.48.03-.78.19-.81.68-.12,1.66-.33,3.31-.31,4.97.02,2.07.24,4.13.37,6.2.08,1.21.16,2.42.23,3.63.03.52.34.76.8.56.19-.08.36-.47.36-.72.08-3.99.12-7.97.19-11.96.02-.95.38-1.92-.13-2.85.26.51.48,1.05.47,1.59-.07,4.36-.18,8.72-.28,13.08,0,.25,0,.51,0,.86.86-.08,1.58-.17,2.3-.21.47-.03.56-.28.56-.69-.01-4.8-.02-9.59,0-14.39,0-.53-.23-.81-.69-.72-.17.03-.36.49-.37.76-.05,1.45-.05,2.91-.07,4.36-.05,2.61-.11,5.22-.14,7.83,0,.34.18.67.23,1.02.07.52.09,1.04.14,1.57Zm-10.28,4.26c.12,5.15.24,10.05.36,15.04.86-.06,1.59-.12,2.4-.17-.12-.33-.21-.52-.26-.72-.37-1.28-.99-2.55-1.03-3.84-.12-3.11.03-6.24.09-9.35,0-.2.09-.41.14-.61.13,1.62.21,3.21.11,4.79-.2,3.31-.48,6.62,1.39,9.73.45-.06.96-.13,1.55-.2,0-2.05,0-3.98,0-5.91.01-2.66.05-5.32.03-7.98,0-.25-.25-.72-.4-.72-1.41-.06-2.82-.03-4.37-.03Zm-13.88-.09c-.3,4.85-.59,9.65-.89,14.5.89.1,1.54.18,2.38.28-.29-1.09-.55-2.03-.8-2.97.38.83.62,1.7.89,2.56.06.19.23.46.38.48.89.13,1.8.19,2.68.27,0-.89-.04-1.69,0-2.49.1-1.65-.23-3.2-.93-4.7-1.1-2.35-1.98-4.77-1.99-7.42,0-.15-.09-.29-.12-.41-.56-.04-1.05-.07-1.61-.1Zm24.6,13.66c.1.02.2.03.3.05.05-.25.15-.51.15-.76.02-2.26.02-4.53.02-6.79,0-.51.09-1.06-.07-1.52-.52-1.45-1.14-2.88-1.75-4.3-.07-.17-.35-.35-.53-.35-1.13.03-2.25.1-3.44.17.02.26.04.51.07.85.13-.24.2-.37.34-.62.05.25.09.37.1.5.09,3.04.22,6.08.24,9.12,0,1.5.3,2.84,1.36,3.93.2.2.53.26.8.39-1.29-2.81-2.21-5.51-2.06-8.49.2.91.21,1.86.48,2.74.54,1.71,1.2,3.38,1.87,5.04.08.2.51.34.78.33.12,0,.34-.45.32-.68-.08-1.07-.13-2.16-.39-3.2-.49-1.97-1.11-3.9-1.69-5.9,1.61,3,2.23,6.23,2.57,9.56.12-.32.18-.64.19-.97.09-3.1-.54-6.04-1.93-8.83-.53-1.07-.82-2.22-.88-3.41.42,1.1.69,2.26,1.2,3.31,1.4,2.87,2.05,5.89,1.96,9.07,0,.25,0,.51,0,.76Zm-18.69-17.45c.18-5.28.35-10.51.53-15.79-1.14-.08-2.23-.16-3.31-.24-.06.19-.12.29-.13.39-.33,3.05-.6,6.1-.35,9.18.15,1.93.14,3.86.21,5.79,0,.2.05.41.08.67h2.96Zm2.56,3.99c-.11.57-.18,1.07-.3,1.57-.98,4.07-1.05,8.2-.89,12.35.04,1.1.14,1.17,1.24,1.18.32,0,.65-.04.97,0,.76.11,1.03-.23.98-.96-.12-1.58-.18-3.17-.33-4.75-.17-1.7-.42-3.4-.64-5.1,1.01,3.51,1.06,7.14,1.3,10.74,1.15.08,1.15.08,1.15-.99,0-.54.02-1.08-.05-1.61-.49-4.12-.99-8.24-1.49-12.43h-1.93Zm12.7-34.9c-.08.81-.28,1.71-.23,2.59.11,1.88.37,3.74.54,5.61.06.6,0,1.22.05,1.82.07.86.75.55,1.24.61.49.06.71-.14.79-.65.16-1.04.4-2.06.6-3.09.49-2.55.46-5.11-.36-7.57-.36-1.08-1.05-2.04-1.61-3.05-.05-.09-.22-.17-.33-.17-.79-.02-1.59,0-2.35,0,.09,2.53.21,4.9.26,7.26.04,2.39,0,4.78,0,7.23h1.51c-.36-1.6-.83-3.13-1.03-4.68-.2-1.54-.17-3.11-.17-4.66,0-1.87.37-3.68.75-4.39-.14,1.67-.33,3.51-.43,5.35-.13,2.49.16,4.66.78,5.68-.15-1.32-.31-2.41-.39-3.51-.12-1.52-.33-3.06.39-4.37Zm-16.32,63.49c.56-.38,1.15-.78,1.73-1.18.05.05.1.11.15.16-.46.33-.92.67-1.43,1.04.56.51.91.82,1.25,1.13,1.15-.87,1.28-1.08,1.11-1.49.47-.22.92-.42,1.61-.74-.38.42-.61.68-.87.97.34.29.63.55.89.78.92-.57,1.19-1.79,2.54-2.01-.28.34-.43.53-.61.75.44.34.82.64,1.2.93,1.03.79,1.18.75,1.81-.48-.28-.21-.56-.43-.84-.65.91.74,1.53.26,2.12-.43.09-.11.29-.13.44-.19-.08.33-.27.5-.46.66-.2.17-.39.35-.59.53,1.12,1.06,1.3,1.02,2.3-.43-.14-.15-.28-.31-.41-.47,1,.38,1.3-.35,1.81-1.04-3.23,0-6.32.1-9.41-.02-4.33-.17-8.66-.4-12.97-.84-1.37-.14-2.06.43-2.86,1.22,1.07,1.16,1.14,1.16,2.21.05.5.37,1.05.72,1.52,1.15.47.43.81.38,1.2-.07.13-.15.35-.23.57-.37-.33-.31-.51-.48-.66-.62.47.06.95.13,1.41.19-.15.46-.08.65.63.95.22.09.63-.07.86-.24.55-.38,1.04-.84,1.55-1.26.06.07.13.15.19.23-.32.28-.63.55-1.01.88.62.54,1.18,1.08,1.79,1.55.18.14.59.24.73.14.24-.19.35-.54.48-.77Zm-4.48-32.68c.05-2.66.33-5.15-.24-7.64-.58-2.56-.79-5.15-.62-7.78.02-.26-.16-.71-.32-.76-.55-.14-1.14-.13-1.78-.18,0,.43,0,.73,0,1.02,0,3.28.1,6.55-.39,9.82-.23,1.49-.04,3.05,0,4.58,0,.25.27.67.46.69.92.13,1.86.16,2.89.23Zm26.48,3.19v13.87c.89-.16,1.71-.3,2.54-.44-.99-4.53-1.55-11.13-1.13-13.29.04.09.09.17.08.24-.28,4.05.63,7.98,1.18,11.94.05.33.36.85.63.9.68.12.78-.39.78-.98-.02-1.8.14-3.58-.34-5.4-.6-2.29-.83-4.69-1.23-7.12-.69.08-1.56.18-2.49.28Zm-27.6.66c-.57-.04-1.12-.09-1.68-.12-1.41-.08-1.46-.08-1.67,1.28-.23,1.43-.54,2.88-.46,4.31.14,2.73.51,5.45.8,8.18.02.2.19.51.33.54.67.14,1.36.19,1.98.27.24-4.84.47-9.58.71-14.45Zm34.95-5.4c.52.06.79-.16.78-.85-.03-1.61,0-3.23.02-4.84.02-2.77.08-5.55.06-8.32,0-1.08-.13-1.19-1.12-.91-.28.08-.59.07-.88.05-.74-.06-1,.23-1.05,1.01-.09,1.47-.24,2.96-.52,4.41-.35,1.83-.37,3.61.1,5.43.34,1.33.54,2.7.8,4.05-.07.01-.15.03-.22.05-.28-1.44-.57-2.87-.85-4.31-.09.02-.18.03-.27.05.07,1.57.14,3.14.21,4.77.51-.08.87-.16,1.24-.18.75-.03,1.06-.41,1.33-1.12,1.22-3.1.44-6.16-.04-9.23-.23-1.46-.5-2.91-.75-4.36.07-.01.14-.02.21-.03.25,1.34.54,2.68.75,4.03.31,1.91.72,3.82.79,5.74.05,1.49-.37,3.01-.6,4.58Zm-18.26,1.63c-.07.02-.13.03-.2.05-1-2.62-1.94-5.24-1.87-8.13-.08,0-.16.01-.24.02v8.37h3.21c.17-2.06.34-4.04.48-6.02.13-1.72.37-3.44.29-5.15-.07-1.43-.49-2.85-.86-4.25-.07-.27-.63-.42-.96-.62-.14.24-.32.47-.41.73-.17.51-.25,1.05-.44,1.55-.64,1.79-1.09,3.56-.85,5.52.26,2.09.49,4.16,1.33,6.12.24.57.34,1.2.5,1.8Zm-17.71-34.85c-.11,1.02-.1,1.92-.33,2.77-1.01,3.71-.53,7.43-.13,11.15.02.21.25.54.41.56.71.06,1.42.03,2.15.03,0-1.94-.07-3.8.02-5.65.12-2.69.34-5.37.52-8.05.02-.37.16-.8-.46-.8-.72,0-1.44,0-2.17,0Zm17.21,14.64c.6,0,1.34,0,2.09,0,1.18-.02,1.19-.02,1.2-1.21.02-4.45.07-8.9-1.54-13.32-.28,0-.81-.03-1.34.02-.14.01-.37.26-.37.39.03,1.07.09,2.14.16,3.21.06.99.34,2,.19,2.95-.41,2.62-.68,5.24-.38,7.97Zm-23.77,37.49c.06-.2.1-.27.1-.35.29-3.32.62-6.65.84-9.98.07-1.06-.15-2.13-.27-3.2-.02-.19-.17-.5-.31-.52-.79-.14-1.6-.21-2.37-.31-.18,3.15-.36,6.11-.51,9.07-.07,1.32-.11,2.64-.1,3.95,0,.31.17.82.37.89.73.23,1.5.31,2.25.44Zm35.19,3.29c1.88-.48,3.61-.86,5.3-1.37,2.52-.77,5.01-1.62,7.5-2.47.31-.1.56-.38.94-.66-.35-.14-.49-.2-.53-.22,1.25-.46,1.17-1.83,1.79-2.75-4.71,2.52-9.84,3.55-14.99,4.55v2.92Zm16.24-8.9c.51-.17.93-.31.93-.99,0-2.75.08-5.49.08-8.24,0-1.09-.13-2.18-.2-3.3-.64.19-1.19.32-1.71.51-.62.23-1.43.35-1.75.81-.33.46-.21,1.28-.21,1.94-.01,2.37,0,4.74.01,7.11,0,1.14,0,2.29,0,3.57.46-.22.78-.37,1.04-.49-1.3-4.04-.59-7.95-.15-11.87-.09,2.65-.23,5.31-.27,7.96-.02,1.26.15,2.52.85,3.64.65-.08,1.08-.38,1.18-1.03.13-.82.36-1.65.33-2.46-.04-1.31-.26-2.62-.4-3.93-.09-.78-.16-1.55-.28-2.32-.12-.76-.29-1.51-.44-2.26l.28-.03c.39,3.77,1.49,7.48.71,11.39ZM20.26,28.98c-.05-.04-.12-.07-.13-.11-.41-2.77-.76-5.54-.27-8.36.19-1.08.14-2.2.13-3.3,0-.21-.31-.51-.54-.59-.12-.04-.48.25-.56.46-1.39,3.95-1.06,7.9.16,11.82.06.2.32.45.51.47.5.07,1.01.02,1.56.02.22-4.3.44-8.56.67-12.9-.51.02-.95.04-1.25.06-.22,2.16-.57,4.21-.62,6.27-.05,2.04.21,4.09.33,6.15Zm22.95,39.45c-.41-2.05-.81-3.93-1.16-5.82-.57-3.06-1.35-6.1-.78-9.26.06-.34.36-.82-.32-.95-.93-.18-1.32-.01-1.51.67-.45,1.61-.39,3.24-.25,4.88.27,3.36,1.28,6.67.69,10.09,0,.04.04.1.1.23.99.05,2.01.1,3.24.16Zm9.33,27.69c-.07,0-.14,0-.21,0v-6.05c-.8.1-1.48.18-2.08.25-.09,2.53-.17,4.94-.27,7.51,1.55-.23,2.95-.43,4.35-.64.77-.11.97-.53.91-1.29-.15-1.82-.2-3.65-.29-5.48-.01-.29,0-.58,0-.95-.58.12-1.07.26-1.57.33-.65.09-.88.39-.86,1.08.05,1.74.02,3.49.02,5.23Zm-38.4-30.35c.12-.16.17-.2.18-.24.02-.16.03-.32.05-.48.29-4.53-.26-9.1.64-13.6.04-.19-.18-.59-.35-.64-.5-.14-1.04-.15-1.68-.22-.15,1-.33,1.92-.41,2.85-.12,1.39-.17,2.79-.25,4.19-.13,2.34-.27,4.67-.38,7.01,0,.19.13.52.28.57.64.24,1.31.4,1.92.57Zm18.67,24.95h.13c0,.25,0,.51,0,.76,0,1.78-.03,3.55,0,5.33,0,.24.23.67.39.69.98.11,1.97.13,3.18.2-.22-.75-.37-1.36-.57-1.95-.29-.86-.72-1.7-.87-2.58-.15-.88-.03-1.8-.03-2.78-1.46-.09-2.81-.17-4.22-.26,0,2.32,0,4.57.01,6.82,0,.13.2.33.33.36.52.09,1.05.12,1.64.18v-6.78Zm-6.69-23.08c.01-.18.04-.29.02-.38-.46-2.76-.86-5.53-1.42-8.27-.46-2.22-.94-4.43-.78-6.72.02-.26,0-.52,0-.75-1.16-.2-1.13-.18-1.31.86-.41,2.33-.06,4.62.29,6.91.3,1.99.43,3.95.08,5.95-.12.67-.09,1.38-.13,2.13,1.14.1,2.17.19,3.25.28Zm8.25-34.38c-.23,1.02-.45,1.99-.67,2.95-.23.99-.56,1.97-.7,2.98-.15,1.06-.33,2.19-.12,3.2.34,1.62.98,3.17,1.55,4.74.1.27.49.44.75.66.13-.27.37-.56.36-.82-.11-1.8.1-3.54.89-5.19.18-.38.23-.83.27-1.25.23-2.22.09-4.37-.9-6.46-.38-.81-.77-.96-1.43-.8Zm30.74,36.73c-.89.15-1.55.29-2.22.36-.57.06-.69.34-.67.86.07,1.8.08,3.61.15,5.41.06,1.69.16,3.38.23,5.07.03,0,.06,0,.09,0,.3-3.72.59-7.44.89-11.16.06,0,.12,0,.18.01-.27,4.41-.54,8.81-.82,13.37.95-.26,1.66-.45,2.17-.59v-13.34Zm-7.41-18.06v15.59c.71-.08,1.37-.16,2.13-.25,0-1.29.02-2.52,0-3.76-.05-2.48-.1-4.95-.18-7.43-.03-.91-.18-1.82-.17-2.73.03-1.62.07-1.62-1.56-1.51-.05,0-.1.03-.22.08ZM30.47,16.32c-.27-.02-.46-.04-.64-.04-1.12,0-1.15,0-1.26,1.13-.12,1.23-.2,2.47-.25,3.7-.11,2.45-.19,4.89-.28,7.34-.01.37,0,.73,0,1.11h2.43v-13.26Zm31.45,17.23c0,.43,0,.72,0,1.01.11,2.93.22,5.85.35,8.78.05,1.18.09,2.36.24,3.53.16,1.29.33,1.36,1.7.99,0-.9-.02-1.81,0-2.71.06-2.04.27-4.09.18-6.12-.07-1.67-.46-3.34-.75-5-.03-.19-.36-.41-.58-.46-.32-.08-.68-.02-1.13-.02Zm-24.96-17.07c-.57.04-1.17-.41-1.22.47-.13,2.22-.25,4.45-.38,6.68-.1,1.72-.19,3.45-.29,5.17-.08,0-.16,0-.25-.01.19-4.08.38-8.16.56-12.27-.4-.04-.79-.15-1.15-.09-.2.03-.49.32-.51.51-.09,1.07-.2,2.15-.15,3.22.13,2.74.32,5.47.51,8.2.09,1.32.12,1.32,1.44,1.27.12,0,.25-.04.41-.07.2-4.35-.39-8.72,1.01-13.08Zm7.35,70.56c0-.34,0-.63,0-.93-.02-3.58-.04-7.16-.05-10.75,0-.89.06-1.78.02-2.67-.01-.22-.29-.59-.48-.61-.68-.07-1.38-.03-2.16-.03,0,.8-.08,1.5.01,2.18.26,1.92.65,3.82.86,5.74.26,2.27.39,4.55.57,6.83,0,.1.07.19.12.34.36-.04.7-.07,1.1-.12Zm22.83-35.87c.48,4.9,1.14,9.69.54,14.61.37-.05.54-.08.73-.1.88-.09,1.27-.49,1.29-1.45.02-1.15.29-2.29.44-3.44.2-1.56.16-3.12-.34-4.63-.56-1.68-1.15-3.34-1.74-5.07-.26.02-.57.05-.9.08Zm-45.96.25c-.05.44-.14.88-.16,1.33-.12,3.25-.23,6.5-.34,9.75-.05,1.32-.11,2.63-.12,3.95,0,.22.19.59.36.65.47.14.99.16,1.56.23.06-.79.15-1.5.17-2.22.06-1.5.19-3,.11-4.49-.11-2.01-.46-4-.56-6.01-.05-1.03.2-2.07.32-3.18h-1.34Zm22.65,1c-.64,0-1.26-.03-1.86.02-.16.01-.43.28-.43.43-.06,1.61-.28,3.25-.06,4.82.49,3.35,1.21,6.66,1.85,9.98.05.26.14.5.22.75.1-.02.19-.03.29-.05v-15.96Zm-2.83-36.07c.93,1.92.57,3.79-.03,5.52-.92,2.65,0,5.14.17,7.69h1.83c.01-.17.03-.27.03-.37.04-2.85.07-5.69.12-8.54.02-1.13.13-2.25.14-3.38,0-.26-.19-.7-.38-.75-.56-.14-1.16-.12-1.88-.17Zm-3.18,36.05c0,.96.03,1.9,0,2.83-.12,3.76-.29,7.52-.37,11.28-.04,1.79.04,1.79,1.83,1.71.05,0,.09-.04.31-.15.04-1.08.16-2.26.1-3.42-.08-1.39-.33-2.77-.49-4.16-.31-2.64-.75-5.28.08-7.91.01-.03-.04-.09-.09-.18h-1.36Zm28.79,30.41c.94-.34,1.79-.67,2.66-.94.52-.16.58-.42.47-.9-.23-1-.41-2-.61-3.01-.24-1.16-.43-2.33-.73-3.47-.42-1.6-.92-3.18-1.42-4.88-.2-.02-.51-.02-.49.56.06,2.53.1,5.06.12,7.59.02,1.64,0,3.27,0,5.04Zm-21.84,7.8c-.04.23-.1.38-.09.54.08,1.5.1,3.02.26,4.51.28,2.52.32,2.5,2.85,2.39.68-.03.96-.3.86-.93-.19-1.29-.44-2.57-.64-3.86-.03-.18.06-.38.13-.56.23-.58-.55-2.04-1.15-2.07-.74-.04-1.48,0-2.24,0Zm-35.16-26.4c.04-.17.1-.33.12-.48.63-4.07.61-8.16.32-12.25-.03-.43-.1-.86-.25-1.26-.07-.2-.33-.42-.54-.46-.19-.04-.55.1-.62.25-.3.71-.69,1.44-.74,2.19-.24,3.62-.5,7.24.55,10.81.18.62.2,1.23,1.15,1.21ZM52.31,29.74c.72,0,1.26.05,1.77-.03.19-.03.46-.37.46-.57.03-1.24.06-2.48-.03-3.71-.11-1.44-.4-2.88-.51-4.32-.09-1.18-.04-2.37-.03-3.55,0-.48-.12-.77-.68-.74-.39.02-.79-.03-1.27-.06,0,1.55-.19,3.05.04,4.48.44,2.76,1.22,5.48.23,8.49ZM3.19,61.36c.07-.04.15-.08.22-.12.32-1.76.86-3.49.42-5.32-.17-.7-.25-1.44-.26-2.16-.04-1.52-.01-3.04-.01-4.56.1,1.41.13,2.84.25,4.26.2,2.4.8,4.8-.05,7.2-.03.07,0,.16-.02.24-.12.72.25,1,1.07,1.11,0-3.41,0-6.75,0-10.09,0-.51-.02-1.02-.02-1.53q-.02-1.8-1.78-2.11s-.05.02-.07.03c-.29,2.19-.41,10.29-.15,12.32.03.26.27.49.42.74Zm10.2,21.71c.12-.05.23-.11.35-.16.16-.72.44-1.45.47-2.18.05-1.29,0-2.58-.09-3.87-.11-1.47-.37-2.93-.48-4.4-.05-.63.12-1.28.19-1.92.06-.56-.26-.76-.75-.84-.56-.09-.59.27-.65.67-.16.98-.35,1.96-.53,2.94-.18.98-.41,1.95-.51,2.94-.22,2.03.44,3.94,1.02,5.84.12.39.65.66,1,.98Zm20-15.04c0-1.53.13-3.02-.03-4.47-.37-3.5-.31-6.98.19-10.46.05-.33.06-.67.09-1.06h-1.35c-.74,5.32-.35,10.61-.51,15.91.3.04.48.07.66.08.27.01.53,0,.94,0Zm-15.98,16.04c.03-.09.09-.19.1-.29.43-4.12.91-8.24.73-12.4-.03-.74-.4-.83-1-.83-.23.73-.54,1.44-.65,2.17-.52,3.44-.64,6.9-.3,10.38.07.75.36,1.07,1.13.98Zm6.69-50.64c-.23,2.16-.41,4.24-.69,6.31-.35,2.55-.09,4.99,1.1,7.3.12.23.34.42.51.62.18-.66.19-1.19.17-1.72-.04-.99-.18-1.99-.14-2.98.11-2.74.33-5.47.44-8.2.05-1.38-.13-1.48-1.4-1.32ZM50.5,3.83c.02.07.04.15.06.22,1.55.11,3.11.23,4.66.33.23.01.56.02.67-.11.48-.57,1.09-.36,1.45-.06.81.66,1.74.68,2.66.73,1.24.07,2.56.37,3.66-.52.31-.25.51-.63.76-.95-.34-.27-.65-.69-1.03-.77-.94-.18-1.92-.32-2.87-.26-1.9.11-3.8.31-5.69.57-1.45.2-2.88.54-4.31.83Zm-26.22,43.73c-.16-.49-.24-.89-.43-1.23-1.06-1.98-1.01-4.09-.78-6.22.19-1.76.5-3.51.58-5.27.07-1.61-.04-1.61-1.67-1.44-.04,0-.08.06-.12.1,0,.78.01,1.56,0,2.33-.08,3.68-.18,7.36-.24,11.05,0,.18.24.51.39.53.71.1,1.43.11,2.27.16Zm20.47-14.19c-.13,4.9-.26,9.68-.39,14.45,1.28.23,1.42.17,1.57-1.01.07-.55-.06-1.12-.09-1.68-.03-.53-.18-1.11-.03-1.59,1.05-3.33.21-6.68.18-10.01,0-.04-.06-.09-.11-.15h-1.14Zm28.78-.11v13.17c.41-.1.71-.17,1.04-.25-.33-4.06-.66-8.03-.99-12.01l.22-.02c.38,3.97.76,7.93,1.14,11.86.8.07.97-.24.98-.85.08-3.87-.11-7.69-1.41-11.39-.17-.49-.36-.76-.98-.51Zm-56.5.21c-.05.6-.17,1.24-.13,1.87.12,2.39.3,4.77.44,7.16.08,1.32.1,2.63.2,3.95.02.23.25.45.38.68.19-.2.45-.37.55-.61.13-.31.18-.68.2-1.02.1-2.66.26-5.32.25-7.97,0-1.13-.35-2.27-.56-3.4-.13-.71-.55-.92-1.32-.65Zm60.47,11.96c.74,0,1.04-.35.92-1.1-.24-1.57-.38-3.15-.69-4.71-.41-2.06-.28-4.12-.26-5.87.42,3.49.88,7.29,1.34,11.08.12-.01.24-.02.37-.03-.21-3.95-.42-7.91-.63-11.9-.88.08-1.67.14-2.4.21.45,4.17.9,8.24,1.34,12.33ZM25.57,16.43c-.16,1.63-.32,3.22-.47,4.81-.07,0-.14-.01-.2-.02.11-1.58.21-3.17.32-4.75-.1-.04-.2-.09-.3-.13-.19.17-.46.31-.54.52-.57,1.6-.86,3.22-.36,4.9.12.41.18.84.26,1.25-.08,0-.15.02-.23.02-1.03-2.17-.68-4.36.13-6.55-.82-.01-.82-.01-.87.58-.03.4-.08.81-.06,1.21.09,2.04.05,4.09.35,6.1.25,1.66.91,3.26,1.39,4.89.04.13.17.22.27.33.08-.02.16-.03.24-.05-.06-.7,0-1.43-.2-2.09-.68-2.2-.34-4.27.37-6.41.42-1.28.47-2.68.66-4.03.08-.55-.21-.73-.77-.58Zm17.69,31.47c-.13-.61-.19-1.09-.34-1.55-.43-1.33-.93-2.63-1.34-3.96-.3-.97-.35-2.04-.75-2.96-.68-1.56-.84-3.16-.79-4.81.01-.47.09-.94.13-1.41-.08-.03-.16-.07-.24-.1-.11.2-.29.39-.31.59-.12,1.42-.4,2.86-.27,4.25.29,3.18.78,6.34,1.22,9.5.02.16.28.4.45.41.69.05,1.39.02,2.22.02Zm18.13,19.2c0-.22.02-.37.02-.53-.05-4.55-.1-9.1-.15-13.65-.01-1.13,0-1.13-1.11-1.08-.16,0-.31.05-.46.07.21,5.1.42,10.16.63,15.29.3-.03.67-.06,1.07-.09ZM3.07,32.37c0,1.68-.22,3.27.05,4.78.42,2.34.12,4.61-.07,6.91,0,.07-.09.13-.22.33,0-.32,0-.48,0-.63.09-1.53.36-3.07.24-4.58-.18-2.12-.39-4.23-.03-6.35.03-.15-.03-.31-.05-.55-.32.03-.6.06-.86.09-.1,1.4-.2,2.71-.29,4.03-.16,2.31-.32,4.62-.44,6.93-.02.28.08.73.27.82.56.27,1.19.4,1.78.58.15-4.17.29-8.21.44-12.31-.17-.01-.37-.02-.82-.05Zm21.14,64.29c-.22-.58-.35-.96-.51-1.32-.68-1.5-1.27-3.02-1.02-4.72.04-.29.13-.6.07-.88-.05-.23-.24-.54-.43-.59-.72-.2-1.46-.31-2.28-.46v6.99s.09,0,.13,0c.15-1.74.31-3.49.46-5.23.06.16.08.31.07.47-.09,1.42-.2,2.83-.29,4.25-.02.37-.14.78.42.88,1.05.19,2.11.38,3.39.6Zm16.22-48.86c-.17-1.5-.2-2.99-.53-4.41-.7-2.99-1.01-5.99-.59-9.04.18-1.27.09-1.37-1.32-.98.12,4.28.23,8.6.37,12.92.05,1.63.19,1.72,2.06,1.51Zm29.71-30.15c-.01.14-.04.24-.03.35.22,2.49-.06,4.93-.46,7.39-.17,1.08.17,2.24.3,3.35.02.14.19.26.32.44v-4.4c.17.29.16.59.17.88.03.85-.04,1.72.12,2.55.2,1.05.32,1.06,1.52.76,0-1.59.02-3.2,0-4.81-.03-1.91-.09-3.82-.16-5.73-.02-.69-.09-.72-.8-.64.61,3.53,1.05,7.06.62,10.64-.1-.37-.11-.73-.1-1.1.11-3.03-.16-6.02-.65-9-.08-.48-.16-.87-.86-.69ZM24.26,85.61c.36-4.68.72-9.35,1.09-14.11-.55-.06-1.23-.13-1.76-.18.04,1.48.19,2.89.11,4.29-.17,2.9-.48,5.78-.69,8.67-.09,1.29-.02,1.32,1.26,1.32ZM7.33,63.36v-14.07c-.47-.11-1.14-.27-1.83-.44v3.03s.07,0,.11,0c.06-.81.12-1.61.18-2.42,0,4.49-.57,8.98.67,13.51.08.03.32.14.87.39Zm8.32-16.54c.02-.35.04-.61.04-.87,0-1.75,0-3.5,0-5.25,0-2.29,0-4.57-.01-6.86,0-.2-.16-.4-.24-.59-.13.19-.33.37-.36.57-.14.9-.23,1.81-.32,2.72-.18,1.79-.3,3.57-.89,5.31-.44,1.32-.64,2.73-.18,4.13.08.24.29.54.5.61.45.14.94.15,1.48.22Zm-2.62,49.07c.41.47.82.93,1.2,1.37.62-.19.92-.48.6-1.14.45.41.88.79,1.2,1.24.42.59.76.58,1.28.12.36-.31.86-.47,1.3-.69.03.06.06.12.09.18-.24.18-.47.35-.77.57.59.53,1.13,1.01,1.65,1.47.82-.61,1.6-1.18,2.37-1.74.06.08.12.16.18.24-.43.34-.85.67-1.29,1.01,1.55,1.6,1.35,1.6,2.68.3-.15-.19-.3-.37-.56-.71,1.02.6,1.34.49,2.09-.6-.22-.05-.42-.1-.62-.14-1.9-.31-3.82-.58-5.71-.95-1.4-.28-2.78-.64-4.14-1.08-.68-.21-1.13-.13-1.55.55Zm2.02-66.83c.12-4.04-.13-8.09-.49-12.2-.38.06-.61.09-.86.13-.13,1.56-.23,3.06-.39,4.55-.25,2.32-.09,4.61.5,6.87.15.57.38.86,1.23.64Zm31.79-12.23c.27,3.01.52,5.89.78,8.77.1,1.12.18,2.25.33,3.36.03.24.36.44.56.66.09-.25.25-.5.26-.75.05-1.61.07-3.22.08-4.84.01-2.38,0-4.77,0-7.21h-2.01Zm-4.72,16.48c-1.49-.29-1.84-.21-1.82.66.03,1.38.17,2.77.41,4.14.16.91.59,1.78.86,2.68.7,2.32,1.38,4.66,2.06,6.99.08-.01.16-.03.24-.04-.71-4.77-1.86-9.5-1.75-14.41Zm-20.76.12h-2.05c1.9,4.61.27,9.19,0,13.82.58.03,1.08.06,1.6.08.15-4.66.3-9.25.45-13.91Zm4.93,18.18c-.41-.04-.73-.08-1.05-.1-.34-.02-.67,0-1,0-.46,4.56,1.46,8.68,1.82,13.05.07,0,.15-.02.22-.03v-12.92Zm-17.2,29.42c-.15-2.01-.38-3.88-.39-5.75-.01-1.88.19-3.76.3-5.64.08-1.33-.03-1.45-1.6-1.56,0,3.92,0,7.82.02,11.72,0,.25.24.57.47.72.32.22.73.32,1.2.52Zm25.16-33.31c-.25-.62-.46-1.12-.63-1.62-.69-2.03-1.54-4.04-1.06-6.26.36-1.65.78-3.29,1.15-4.94.12-.53.16-1.08.24-1.67h-1.86c-.11,4.84-.23,9.64-.34,14.49h2.51Zm-9.44-18.16c-1.85-4.3-2.37-8.6-1.77-13.01-.6-.17-.79-.06-.82.48-.12,2.85-.3,5.7-.42,8.55-.05,1.25,0,2.51,0,3.83.86.04,1.76.09,3.02.15Zm-15.33,3.37c-.26,1.4-.51,2.74-.77,4.09-.15.79-.37,1.57-.43,2.37-.13,1.55-.14,3.12-.25,4.67-.12,1.73-.15,1.73,1.58,2,.02,0,.05-.02.17-.06.02-.33.07-.69.07-1.05-.02-2.69-.07-5.37-.05-8.06.01-1.07.19-2.14.31-3.21.05-.46-.01-.81-.64-.74ZM1.08,47.68c-.04.26-.12.52-.13.77-.13,3.33-.27,6.66-.36,9.99-.04,1.35.21,1.61,1.56,1.98,0-1.36.15-2.75-.03-4.09-.32-2.35-.22-4.65.23-6.97.25-1.32.17-1.37-1.27-1.69Zm18.93,23.28c-1.62-.36-1.58-.35-1.53,1.18.05,1.69.06,3.39-.04,5.07-.12,2.01-.38,4.01-.54,6.02-.09,1.16.14,1.36,1.29,1.34.27-4.53.55-9.05.83-13.61Zm-13.37,9.15c.08-.03.16-.07.24-.1,0-.26,0-.51,0-.77.08-3.49.14-6.98.24-10.48.03-1.13.07-1.13-1.32-1.47-.21,1.8-.63,3.58-.56,5.34.1,2.27.58,4.52.93,6.78.04.25.3.46.46.69Zm26.23-8.1c-.02,2.41.56,4.63,1.59,6.73.94,1.95,1.6,3.93,1.39,6.14-.06.58.04,1.18.1,1.77.01.14.15.27.23.4.19-.33.21-.61.22-.9,0-1.35-.08-2.7.03-4.04.19-2.3-.45-4.38-1.47-6.37-.44-.84-.62-1.7-.64-2.63-.02-1.25-.03-1.25-1.44-1.11Zm21.27-55.15c.14,2.17.25,4.15.39,6.14.1,1.42.24,2.83.34,4.25.04.51,0,1.03.05,1.53.04.34-.13.89.57.83.64-.05.41-.54.41-.86.01-3.29,0-6.57,0-9.86v-1.84c-.58-.06-1.1-.12-1.77-.19Zm-4.91,51.56c.11-5.41.21-10.74.32-16.14-.59.03-1.16.05-1.82.08.17.56.32,1.01.46,1.47.98,3.13.47,6.28.11,9.43-.19,1.7-.25,3.41-.37,5.16h1.3Zm17.12-50.99c-.37,1.52,0,10.06.51,11.69h1.44c-.15-1.77-.26-3.48-.43-5.18-.19-1.95-.49-3.89-.63-5.84-.05-.75-.35-.77-.89-.67Zm-28.38,30.35c-.69-4.88-.51-9.71-.23-14.53h-1.8c.02.16,0,.27.04.36.12.36.23.72.38,1.06,1.15,2.66,1.12,5.37.04,8-.69,1.67-.55,3.35-.63,5.11h2.19Zm36.37-18.79c.05-.11.08-.15.09-.2.13-3.53-.05-7.05-.77-10.51-.04-.21-.61-.35-.96-.42-.08-.02-.36.39-.35.6.06,2.58.15,5.17.24,7.75.03.81.06,1.61.12,2.42.01.15.15.29.23.44.11-.15.28-.29.32-.45.06-.29.07-.59.05-.88-.19-2.22-.42-4.45-.59-6.67-.07-.88-.01-1.76-.01-2.64.03,0,.05,0,.08,0,.32,3.52.64,7.04.97,10.62.17-.01.39-.03.6-.04Zm-48.5.58c1.14.14,1.16.14,1.17-1,.06-3.68.11-7.36.15-11.03,0-.38-.03-.76-.05-1.15-.08-.01-.16-.03-.24-.04-.06.21-.19.42-.18.62.08,1.78-.44,3.43-.97,5.11-.37,1.17-.5,2.47-.47,3.71.03,1.24.37,2.47.59,3.78Zm-10.89,3.69c-.45-.03-.71-.06-.97-.06-1.05-.03-1.06,0-1.09,1.07-.03.99-.07,1.99-.1,2.98-.06,1.74-.07,3.49-.18,5.23-.09,1.38.25,2.66.64,3.95.08-.1.13-.2.1-.28-.48-1.74.01-3.39.35-5.08.51-2.54.83-5.12,1.25-7.81Zm35.36,19.04c.01,5.44-.68,10.76-.39,16.19.55-.08.99-.14,1.46-.21-.06-.5-.14-.92-.16-1.35-.08-2.28-.13-4.57-.22-6.85-.07-1.66-.26-3.32-.25-4.98,0-.92.3-1.83.48-2.79h-.92Zm-9.72-22.63c.11-.03.21-.06.32-.1-.08-.6-.14-1.2-.25-1.79-.37-2.02-.72-4.02.05-6.04.24-.64.4-1.36.41-2.05,0-.95-.11-1.91-.31-2.83-.05-.21-.62-.39-.97-.42-.14-.01-.43.4-.46.64-.17,1.41-.48,2.85-.37,4.25.19,2.37.65,4.72,1.04,7.07.07.44.35.85.54,1.27Zm19.39-12.49s-.18-.06-.33-.08c-1.05-.17-1.1-.17-1.17.92-.07,1.12-.19,2.29.01,3.38.39,2.07.37,4.12.22,6.19-.04.6,0,1.21,0,1.83.27.02.43.04.59.04.18,0,.36-.04.43-.05.09-4.09.17-8.12.26-12.21ZM3.66,19.27c.07.01.15.03.22.04,0,1.61.08,3.23-.02,4.83-.15,2.3.01,4.21.63,4.59-.07-3.65-.61-7.28.31-10.86-1.14,0-1.87.4-1.89,1.03-.09,3.22-.18,6.45-.26,9.73h1.02v-9.37Zm2.13,13.35c-.16,1.31-.46,2.53-.44,3.75.07,2.82.28,5.64.46,8.45.01.2.21.38.32.57.11-.04.22-.07.33-.11.14-4.17.27-8.35.41-12.58-.24-.02-.58-.04-1.1-.08Zm38.45.74c-.32-.05-.48-.08-.63-.09-1.29-.07-1.39-.06-1.25,1.19.35,3.23.79,6.44,1.2,9.66.04.32.15.62.23.94.05-.01.11-.02.16-.04.1-3.88.19-7.77.29-11.66Zm26.63,3.29s.06,0,.09.01c.07.31.21.62.21.93,0,1.58-.02,3.17-.07,4.75-.03.82-.3,1.66-.16,2.44.11.65.65,1.22,1,1.83l.23-.08c.07-.82.14-1.65.19-2.47.05-.81.09-1.61.09-2.42,0-.8-.07-1.59-.1-2.39-.02,0-.04,0-.06,0-.19,1.53-.38,3.05-.57,4.58-.07-1.08,0-2.15.13-3.21.14-1.16.15-2.28-.63-3.3.09-.03.19-.06.28-.09.23.43.45.85.68,1.27.05-.58-.03-1.12-.19-1.64-.34-1.1-.71-2.2-1.09-3.28-.05-.15-.33-.35-.42-.32-.17.07-.41.3-.4.45.04.72.17,1.44.24,2.16.17,1.99.33,3.98.49,5.97.02,0,.04,0,.06,0v-5.2Zm-7.51-16.2c.6,2.44-.08,5.07-.5,7.7-.1.63.06,1.12.64,1.1.05-.99.03-1.98.15-2.96.36-2.82.42-5.63.07-8.46-.07-.58-.35-.64-.67-.55-.4,1.43-.77,2.74-1.15,4.06-.6,2.09-.14,4.04.7,5.94.09,0,.19,0,.28,0,.17-2.36.34-4.73.49-6.84Zm-46.08-3.74c-.25,4.21-.5,8.36-.76,12.56h2.1c-.34-2.13-.92-4.22-.94-6.31-.03-2.08.51-4.17.8-6.31-.28.01-.7.03-1.2.06Zm8.03-8.51c-.75-.21-1.22-.07-1.39.69-.05.23-.22.43-.33.64-.45.9.02,1.7.4,2.43.14.26.82.28,1.26.32.51.05,1.02.02,1.53-.04.18-.02.47-.24.48-.37.04-1.27.02-2.54.02-3.83-1.63-.19-1.79-.05-1.76,1.63,0,.43.04.86.05,1.29,0,.26,0,.52,0,.78-.09,0-.17,0-.26-.01v-3.55Zm1.46,77.79c-.11-1.52-.23-2.92-.32-4.33-.14-2.11-.35-4.23-.36-6.34,0-1.03.39-2.05.56-3.08.03-.2-.15-.43-.24-.65-.13.19-.36.37-.38.57-.33,3.23-.66,6.47-.92,9.71-.1,1.28-.02,2.57-.02,3.91.5.06,1,.13,1.69.22Zm11.1,1.1c-.41-5.1-.11-10.07,1.22-15.01h-1.81c-.12,5.01-.25,9.95-.37,14.96.4.02.68.04.96.05Zm-28.6-18.49c-.06,1.24-.08,2.37-.19,3.48-.29,2.89.04,5.75.41,8.61.06.44.22.78.8.68v-12.39c-.35-.13-.62-.23-1.02-.38ZM46.46,29.6c-.06-.67-.09-1.26-.18-1.84-.42-2.63-.89-5.24-.73-7.92.05-.8,0-1.61.05-2.42.04-.7-.27-.82-.85-.69v12.87h1.71Zm-14.67-.06c1.94.29,2.05.16,1.93-1.43-.2-2.54-.35-5.09-.44-7.63-.04-1.15.14-2.3.17-3.46,0-.22-.22-.44-.34-.66-.11.21-.29.41-.3.62-.17,2.6-.28,5.2-.48,7.8-.12,1.58-.35,3.14-.54,4.76Zm8.27.01c-1.3-4.3-1.92-8.64-.8-13.17-.5.03-.78.05-1.02.07-.08,1.06-.19,2.03-.2,2.99-.03,2.77-.02,5.53-.04,8.3-.02,1.9-.03,1.9,1.91,1.88.02,0,.05-.02.16-.07Zm-12.87,3.89v14.21h.99c-.13-2.44-.44-4.82-.35-7.19.09-2.39.58-4.76.91-7.21-.5.05-.85.08-1.19.12-.1.01-.2.04-.36.07Zm45.65,30.78c.11.02.21.05.32.07.12-.25.34-.5.35-.76.21-3.98-.3-7.9-.98-11.8-.08-.45-.16-.89-.24-1.33-.9.02-.88.09-.79,1.03.39,3.69.72,7.39,1.09,11.08.06.57.16,1.14.25,1.72ZM8.86,17.36c-.8-.16-1.13.07-1.11.85.07,3.31.11,6.61.12,9.92,0,.63.25.75.82.75.65,0,.68-.36.64-.83-.03-.32-.02-.65-.06-.97-.3-3.1-.93-6.18-.37-9.31.02-.12-.02-.26-.03-.41Zm.47-.1c-.85,3.99.23,7.76.5,11.57.99-3.83.7-7.69.51-11.63-.39.02-.7.04-1,.06Zm57.19,48.76c.64.09.95-.12.9-.78-.03-.35-.04-.7,0-1.05.49-4.02-.25-8-.44-12-.01-.3-.17-.6-.25-.9l-.22.05v14.68Zm-27.09,31.78v-7.2h-1.9c-.01.12-.03.23-.03.33.02,1.8,0,3.6.09,5.39.08,1.6.15,1.62,1.77,1.53.02,0,.05-.02.07-.04Zm29.63-28.53c-1.58-.07-1.83.22-1.44,1.7.01.05.03.1.05.15.68,2.62,1.37,5.23,2.03,7.86.2.77.33,1.56.5,2.35l.27-.03c0-1.38.14-2.78-.04-4.13-.2-1.51-.74-2.96-1.02-4.46-.21-1.12-.24-2.28-.35-3.43ZM25.82,33.41c0,.73.02,1.43,0,2.11-.05,1.72-.1,3.43-.17,5.15-.02.43-.02.88-.15,1.28-.56,1.77-.03,3.53.03,5.29,0,.14.29.28.44.42.12-.14.26-.27.35-.43.05-.08,0-.21.01-.32.09-3.92.18-7.85.27-11.77.01-.58,0-1.16,0-1.73h-.78Zm.97,18.28c0,.54,0,1.02,0,1.5.06,3.39.12,6.78.17,10.17.02,1.24,0,2.48.03,3.72,0,.23.21.45.33.67.09-.04.17-.08.26-.12-.02-.26-.04-.52-.05-.78-.02-1.37-.22-2.77,0-4.1.57-3.59.41-7.19.43-10.8,0-.07-.05-.15-.1-.26h-1.07ZM14.81,16.89c.15.79.36,1.46.39,2.15.13,3.03.21,6.07.31,9.11,0,.27-.05.54-.02.8.01.11.18.27.28.28.11,0,.31-.12.34-.23.06-.2.03-.43.04-.64.12-2.74.21-5.48.36-8.21.06-1.11.22-2.22.34-3.41-.72.06-1.3.1-2.04.16Zm38.38,16.45c.42.68.77,1.23,1.1,1.8.27.46.58.92.72,1.42.76,2.66.86,5.34.22,8.05-.24,1.03-.41,2.08-.61,3.12,1.26.21,1.28.19,1.28-.83,0-4.2.01-8.4.02-12.6,0-.31,0-.62,0-.96h-2.73Zm-42.17,12.77c.12-4.38.23-8.72.35-13.09h-1.09v13.05c.23.01.43.02.73.03Zm26.66-29.64c-.52-.18-.52.26-.61.62-1.04,4.07-.64,8.22-.67,12.35,0,.04.06.09.12.18.22-.02.48-.03.72-.05.15-4.38.29-8.7.44-13.1Zm37.69,33.09c-1.22.22-1.19.21-.99,1.37.42,2.46.85,4.93,1.21,7.4.22,1.48.33,2.98.51,4.68.19-.31.38-.49.38-.65-.04-2.12-.01-4.25-.2-6.36-.19-2.13-.6-4.25-.92-6.44Zm-58.74,38.33c-.25,1.75-.49,3.5-.74,5.25.08.01.17.02.25.03.02-.46.04-.92.07-1.59.07.98.05,1.77.2,2.53.08.41.47.76.72,1.13.26-.29.62-.54.76-.88.17-.41.23-.89.23-1.34-.03-1.34-.19-2.68-.15-4.02.02-.89-.36-1.13-1.34-1.1Zm-3.18-70.85c-.95-.07-.97-.07-1,.47-.17,2.71-.36,5.41-.5,8.12-.06,1.09,0,2.19,0,3.34h1.7c-1.32-3.99-.66-7.94-.19-11.94Zm17.38-.7c0,.53-.02.98,0,1.43.12,2.79.44,5.57-.04,8.36-.17.97-.07,1.98-.06,2.98,0,.16.18.32.28.49.11-.15.24-.29.33-.45.04-.06.02-.16.02-.24.3-4.02.6-8.03.9-12.05.01-.15-.01-.31-.02-.52h-1.42Zm15,.43c0,.52-.01,1.05,0,1.58.05,1.77.02,3.56.17,5.32.15,1.74.53,3.46.73,5.19.09.73.34.95.9.74-.09-1.05-.2-2.03-.27-3.02-.21-3.06-.43-6.12-.59-9.18-.03-.61-.27-.75-.95-.63Zm-39.31.78c-.12,2.27-.21,4.45-.37,6.62-.1,1.31-.33,2.62-.5,3.92-.07.56.18.76.74.77.54.02.71-.19.72-.7.01-1.21.09-2.42.1-3.64.02-2.34,0-4.67,0-7.05-.21.02-.44.04-.68.07Zm1.2,15.31s-.05.06-.05.08c-.22,4.05-.45,8.1-.64,12.16,0,.19.32.39.5.59.08-.05.16-.1.24-.15.08-2.12.05-4.25.29-6.36.23-2.08.73-4.14,1.14-6.31h-1.46Zm69.79,48.88c-.52.3-.8.5-1.11.63-.61.25-.77.64-.72,1.31.09,1.26.05,2.52.06,3.79,0,.49,0,.99,0,1.72.76-.63,1.31-1.08,1.76-1.45-.37-1.71-.72-3.32-1.07-4.93.09-.02.19-.04.28-.05.11.79.18,1.59.35,2.36.18.78.46,1.53.7,2.29.13-.03.25-.05.38-.08-.2-1.8-.4-3.61-.62-5.58ZM11.54,50.37s-.06.1-.06.14c-.07,4.68-.13,9.36-.19,14.04,0,.16.13.31.2.47.2-.16.26-.29.26-.41.14-2.79.26-5.59.43-8.38.1-1.55.21-3.11.45-4.65.18-1.16.17-1.26-1.09-1.22Zm28.17,40.25c0,2.21,0,4.35,0,6.48,0,.66.3.84.92.9.71.07.77-.38.8-.82.06-.69.11-1.39.02-2.07-.19-1.44-.46-2.87-.72-4.43-.16,0-.52-.03-1.02-.06Zm19.63-1.75c-.43.02-.59.04-.75.03-.76-.04-1.03.3-.96,1.06.06.75.01,1.5.01,2.26,0,1.28,0,2.56,0,3.84,1.58.06,1.65-.03,1.62-1.34-.02-.69.07-1.39.08-2.09.01-1.23,0-2.45,0-3.76Zm-54.81-9.91c0-.32,0-.61,0-.89-.03-1.34-.1-2.69-.1-4.03,0-2.29.03-4.57.02-6.86,0-.27-.18-.54-.27-.82-.14.03-.27.06-.41.09-.14,3.73-.25,7.46-.42,11.18-.04.88.33,1.2,1.19,1.33Zm.05-46.37c-.03.08-.07.16-.07.23-.07,3.76-.12,7.52-.21,11.28-.02.83.32,1.12,1.22,1-.37-4.16-1-8.32.14-12.51h-1.08Zm59,55.14c-.44.22-1.12.36-1.17.61-.13.75-.23,1.63.05,2.29.56,1.31,1.37,2.5,2.15,3.85.28-.1.71-.25,1.21-.42-.76-2.13-1.47-4.14-2.25-6.33ZM47.27,7.67c-.7,0-1.23-.04-1.76.02-.19.02-.5.29-.51.45-.04,1.44-.02,2.88-.02,4.38.81.04,1.59.09,2.63.15-.99-1.72-.48-3.32-.35-5Zm-22.55,82.04c.13,2.17.24,4.31.39,6.45.01.2.27.51.44.53.68.09,1.38.09,2.06.12.13-.99.09-1.46-.57-2.23-1.05-1.23-1.41-2.63-1.31-4.19.04-.58-.21-.79-1.02-.68Zm41.01-42.02c-.3-4.49-.59-8.94-.89-13.39-.06-.86-.14-.91-.99-.5.82,2.23.94,4.56.87,6.91-.06,2.07-.17,4.14-.22,6.21-.02.98.14,1.06,1.23.77Zm-13.36-22.08c-.3-2.79-1.04-5.53-.6-8.37.01-.08.03-.2-.02-.23-.15-.11-.32-.25-.49-.26-.13,0-.31.16-.38.29-.06.13,0,.32,0,.48.03,2.82.03,5.64.09,8.46.02,1.07.14,2.14.27,3.2.02.19.32.35.48.52.14-.19.4-.38.41-.57.04-.9.02-1.8,0-2.7,0-.19-.09-.37-.13-.56-.07,0-.14,0-.22.01v3.41c-.09,0-.17.01-.26.02-.05-.5-.17-1.02-.12-1.51.14-1.36.35-2.7.54-4.09.14.63.28,1.28.42,1.92Zm20.19,38.8c-.41-4.65-.81-9.24-1.21-13.84-.12-.02-.25-.05-.37-.07-.07.2-.21.41-.2.61.16,2.38.37,4.77.5,7.15.07,1.34.02,2.69.02,4.04,0,.8,0,1.6,0,2.52.5-.17.87-.29,1.27-.42Zm7.37-.17c-.14-.07-.27-.15-.41-.22-.14.25-.23.64-.44.72-.72.28-.85.75-.77,1.45.27,2.46.51,4.92.72,7.38.07.75.01,1.51.01,2.27.11,0,.21.01.32.02.05-.31.16-.63.14-.94-.16-1.93-.36-3.85-.52-5.78-.05-.67-.04-1.34-.02-2.02.02-.64.07-1.27.12-1.9-.02,3.14.28,6.25.85,9.33v-10.31ZM1.88,77.6c.1,0,.21,0,.31,0,.01-4.03.04-8.05.01-12.08,0-.22-.37-.43-.57-.65-.09.04-.17.09-.26.13.1,4.2-.52,8.42.5,12.59Zm62.95-48.33v-11.94c-.26.02-.54.04-.95.06.8,3.99-.06,7.91-.22,11.87h1.17ZM6.25,17.67c-.89-.05-1.03,0-1.05.78-.09,3.27-.14,6.54-.2,9.82,0,.18.09.36.14.54.69-3.71,1.17-7.4,1.11-11.14Zm62.9,68.31c-1.31.3-1.3.3-1.11,1.37.09.5.12,1.01.13,1.52.02.99-.07,1.99.02,2.97.03.35.52.98.66.95.53-.15,1.36-.19,1.23-1.07-.28-1.9-.62-3.79-.94-5.74Zm-7.3,2.39c-1.3.1-1.3.13-1.23,1.35.05.74.09,1.52-.1,2.21-.33,1.23-.06,2.36.11,3.53,1.72-.14,1.69-.14,1.53-1.65-.15-1.44-.22-2.88-.31-4.33-.02-.37,0-.74,0-1.12ZM43.62,16.57c-.07,1.61-.18,3.14-.21,4.66-.05,2.58-.05,5.16-.04,7.73,0,.21.27.43.42.64.1-.19.28-.37.29-.56.08-3.95.13-7.9.21-11.85,0-.53-.16-.76-.66-.63Zm-1.09-15.8c-2.15.99-4.19,1.94-6.37,2.95h6.37V.77ZM10.56,17.19c.08.92.16,1.72.21,2.52.18,2.8.16,5.59-.33,8.37-.11.62.05,1.02.8.79.2-3.93.4-7.83.6-11.8-.41.04-.83.08-1.27.12Zm48.95,30.75c-.63-3.69-1.26-7.35-1.79-10.44v10.44h1.79Zm-44.62,22.13c.07,1.38.06,2.62.2,3.84.25,2.21.72,4.4.56,6.66-.06.86.01,1.72.05,2.58.01.22.14.44.25.8,0-2.43-.09-4.65.02-6.86.11-2.2.42-4.4.64-6.66-.45-.09-1.02-.21-1.73-.35Zm47.44-22.07c-.14-.93-.35-1.8-.38-2.67-.12-3.09-.19-6.18-.28-9.27-.02-.7,0-1.4-.05-2.09-.01-.15-.22-.28-.34-.42-.11.14-.26.27-.32.44-.05.14,0,.32,0,.48.11,2.93.24,5.85.33,8.78.05,1.58,0,3.16,0,4.75h1.03Zm-1.56-39.31c.17,1.6.33,3.1.49,4.66h2.01c-.14-1.39-.27-2.75-.44-4.1-.02-.16-.23-.38-.38-.41-.52-.09-1.05-.1-1.69-.15ZM12.76,46.41c-.81-4.48,0-8.86-.2-13.3h-.66c-.09,4.42-.18,8.78-.27,13.15.38.05.7.09,1.13.15Zm53.32,40.61c-.6.18-1.14.27-1.61.5-.23.11-.45.5-.44.75,0,.35.23.7.37,1.05.36.95.72,1.9,1.07,2.85.21.59.4,1.18.6,1.78.09-.01.19-.02.28-.03.17-2.27-.18-4.53-.27-6.9Zm-59.73,5.23c-1.78-.73-3.44-1.41-5.24-2.15.08,1.38-.14,2.56.49,3.74.31-.28.56-.5.82-.72-.21-.33-.38-.58-.55-.84.03-.03.06-.05.1-.08.24.22.48.44.9.84.13-.47.21-.79.28-1.04.26.43.67.26,1.11-.05-.16.2-.32.4-.56.69.32.32.63.64.95.96.61-.47,1.11-.87,1.71-1.34Zm6.12-6.06c-.1,1.33-.25,2.63-.29,3.93-.04.99,0,1.99.12,2.97.04.28.5.5.76.76.12-.28.33-.56.34-.84.05-.96,0-1.93.03-2.89.02-.8.18-1.61.14-2.4-.03-.67-.14-1.43-1.1-1.51Zm-11.53-4.6c0,2.31.01,4.59,0,6.87,0,.46.07.77.6.85.33.05.64.18.91.27-.06-2.12-.17-4.18-.17-6.25,0-.87-.1-1.53-1.33-1.74Zm18.12-14.04c-.41-.16-.64-.29-.89-.35-1.96-.46-3.92-.94-5.89-1.35-.45-.1-.96.03-1.65.07.62.75,1.05,1.28,1.59,1.93.24-.41.42-.72.68-1.17.36.45.71.9,1.09,1.37.51-.33.97-.58.43-1.07.33.04.69.08,1.04.12-.49.75.37.86.7,1.32.28-.2.5-.37.7-.52-.25-.36-.39-.56-.53-.76.04-.03.07-.06.11-.09.55.51,1.1,1.03,1.68,1.58.3-.34.56-.63.94-1.06Zm.21,28.23c.02-.35.04-.58.05-.82.05-1.8.09-3.6.14-5.4.03-1.15-.1-1.29-1.37-1.29.11,2.38.8,4.78-.33,7.15.5.12.94.22,1.51.36ZM60.65,17.35s-.08,0-.13,0c-.09.7-.08,1.44-.31,2.09-.37,1.09-.3,2.16-.22,3.26.07.95-.01,1.91-.01,2.87,0,1.25,0,2.51,0,3.74.69.24.76-.1.76-.58-.01-3.55,0-7.09-.02-10.64,0-.25-.05-.5-.08-.75ZM6.59,91.23c-.08-.49-.11-.92-.21-1.33-.41-1.74-.57-3.5-.4-5.28.1-1.04.11-1.04-1.01-1.23-.04.29-.1.58-.12.87-.15,2,.07,3.97.5,5.93.14.65.46.99,1.25,1.05ZM48.99,24.22h-.03c0,1.61,0,3.23.01,4.84,0,.19.17.38.26.58.14-.19.37-.36.4-.56.08-.5.09-1.02.09-1.53-.01-3.31-.03-6.62-.05-9.93,0-.19.01-.39-.05-.56-.04-.12-.19-.28-.29-.28-.11,0-.3.15-.32.26-.05.23-.03.48-.03.72,0,2.15,0,4.31,0,6.46Zm17.17,45.73c-.15-.06-.3-.12-.45-.18-.17.29-.5.58-.5.86,0,2.61.06,5.22.13,7.83.04,1.3.17,2.6.26,3.9.08,0,.15,0,.23,0,.11-4.13.22-8.27.33-12.4Zm-8.46-40.57c.09.06.18.11.27.17.13-.21.35-.42.38-.64.09-.69.13-1.39.14-2.09.02-1.4.17-2.82-.05-4.18-.27-1.72-.31-3.42-.08-5.13.08-.61-.2-.6-.65-.49v12.36ZM17.28,12.52c.94-.06,1.67-.11,2.46-.17-.15-1.43-.29-2.74-.43-4.11-.52.06-1.01.11-1.49.16-.18,1.38-.35,2.67-.54,4.11Zm59.59,16.25c.08,0,.17.01.25.02.04-.12.11-.25.1-.37-.09-3.15-.17-6.3-.29-9.44,0-.19-.26-.37-.4-.55-.07.04-.14.08-.22.13-.53,3.45.33,6.82.56,10.23ZM14.4,69.99c-.08,0-.17.01-.25.02-.23,1.55-.37,3.09-.09,4.68.5,2.77.94,5.57-.2,8.39.38.14.74.28,1.35.51-.28-4.66-.54-9.13-.81-13.6Zm53.65,23.27c-.11-2.39-.21-4.55-.3-6.7-.1-.05-.2-.1-.31-.15-.3.26-.87.53-.86.78.08,2.13.27,4.26.44,6.47.43-.16.84-.32,1.04-.39Zm4.59-2.31c.14.02.27.05.41.07.11-.79.21-1.59.31-2.38.04,0,.08.01.13.02v1.89c.72-.12.88-.49.7-1.1-.18-.62-.31-1.25-.46-1.88.06-.02.12-.03.18-.05.23.75.46,1.5.69,2.25.04-.01.07-.02.11-.03-.45-1.9-.9-3.8-1.36-5.76-.32.17-.7.38-1.13.61,1.34,2.08.25,4.26.41,6.36Zm-20.42-4.63c-.2-.31-.29-.5-.43-.65-.83-.9-1.14-1.98-1.18-3.18-.06-1.77-.15-3.54-.2-5.31-.03-1.17,0-2.35,0-3.52-.07,0-.15,0-.22,0,.63,4.29-.74,8.54-.23,12.9.79-.08,1.45-.16,2.26-.24Zm-40.3,7.06c0-.61-.02-1.16,0-1.72.07-1.58.16-3.16.22-4.75.04-1.08-.04-1.14-1.1-1.26,0,2.25.02,4.51-.01,6.76,0,.65.26.94.89.97Zm64.88-44.13c-1.26.12-1.32.16-1.07,1.24.79,3.34,1.25,6.71,1.14,10.15-.01.44.08.89.13,1.33.07-4.25.37-8.49-.2-12.71Zm-2.48,2.82c-.06,0-.12.02-.18.02.2,3.78.39,7.55.59,11.33.1.04.2.08.29.11.18-.27.46-.51.52-.8.1-.46.12-.97.06-1.44-.35-2.82-.73-5.64-1.11-8.47-.03-.25-.11-.5-.17-.76ZM35.8,7.88c-.99-.14-1.01-.12-1,.82,0,.62-.01,1.24,0,1.85.03,1.4.55,1.8,1.87,1.51.08-1.43.16-2.85.24-4.33-.19.04-.54.04-.57.12-.29,1.04-.53,2.09-.78,3.14-.03,0-.05,0-.08,0,.1-1.02.2-2.04.31-3.12Zm40.94,7.46c-.17-1.49-.33-2.85-.48-4.22-.08,0-.16.01-.24.02-.02.34-.04.67-.08,1.22q-.26-1.53-1.15-1.6c-.09,1.28-.2,2.55-.26,3.83,0,.15.18.42.32.46.56.13,1.14.19,1.89.3Zm-40.38,62.55v-5.85h-1.78c-.45,2.27.98,3.95,1.78,5.85ZM2.79,65.6c0,.65,0,1.26,0,1.87-.03,3.34-.07,6.68-.08,10.02,0,.3.15.6.23.9.1-.02.21-.04.31-.06,0-.26,0-.52,0-.78.05-2.61.07-5.22.15-7.82.03-.89.19-1.77.25-2.65.05-.64.02-1.27-.86-1.47Zm14.25-18.41c0-1.33,0-2.4,0-3.47,0-3.33-.82-6.64-.3-9.98.02-.12-.17-.28-.27-.42-.14,4.44-.15,8.8-.12,13.15,0,.2.37.4.68.72Zm-3.3,39.52c0,.86.03,1.66,0,2.45-.06,1.31-.18,2.62-.23,3.94-.04,1.01.1,1.12,1.27,1.14,0-2.15-.01-4.3,0-6.44,0-.71-.37-1-1.04-1.08Zm21.57,3.79c-.43,2,.14,4.49,1.47,6.07.09-1.6.09-3.21.1-4.81,0-1.33.02-1.33-1.3-1.31-.08,0-.15.03-.27.05Zm-32.29-7.9c.06.68.12,1.29.18,1.89.18,1.7.35,3.41.53,5.11.06.52.34.79.96.78-.14-1.06-.34-2.07-.4-3.08-.07-1.02-.02-2.04,0-3.06.02-1.25.03-1.25-1.27-1.65ZM54.13,12.86c.2-1.2.49-2.38.58-3.56.11-1.49-.1-1.62-1.62-1.45-.05,0-.09.05-.2.13.7,1.59.26,3.21-.19,4.89h1.43Zm15.66,20.63c-.11.01-.22.02-.32.03.24,4.5.47,9,.72,13.56.52-.11.93-.19,1.44-.3-.18-.34-.29-.61-.46-.84-.67-.91-.85-1.92-.82-3.04.05-2.71.16-5.44-.45-8.12-.09-.42-.07-.86-.1-1.29Zm-3.1-24.17c0,1.15-.05,2.25.01,3.34.08,1.28.28,1.39,1.71,1.16-.07-1.1-.12-2.22-.22-3.34-.11-1.24-.12-1.24-1.5-1.16Zm-1.35,19.87c1.04.08,1.08.08,1.04-.81-.08-1.45-.28-2.9-.31-4.35-.05-1.99,0-3.98,0-5.97,0-.24-.12-.48-.18-.72-.09.21-.26.43-.27.64-.1,3.12-.19,6.24-.27,9.37-.02.61,0,1.22,0,1.83Zm-30.57-17.07c-.09-.5-.22-.94-.25-1.38-.03-.48.02-.96.04-1.45.06-1.53-.02-1.61-1.54-1.33-.05,0-.08.06-.08.06v4.11h1.83Zm34.6,73.71c.39,2.15.76,4.2,1.13,6.26.46-.02.69-.26.66-.81-.08-1.26-.11-2.52-.19-3.79-.05-.7-.16-1.4-.25-2.17-.52.19-.92.34-1.35.5Zm-46.35,3.5c-.61,2.52.23,4.71,1.22,6.56,0-1.59,0-3.45,0-5.31,0-1.15.01-1.15-1.22-1.25Zm24.71,1.24c1.15,2.37,1.17,4.83,1.21,7.32.18-.03.32,0,.38-.07.08-.08.15-.22.15-.34,0-2.35,0-4.69,0-7.08-.54.05-1.11.11-1.74.17Zm20.55-39.54c.72,2.01,1.4,3.91,2.07,5.81.08-.01.16-.02.25-.04-.12-2.02-.24-4.04-.36-6.16-.78.15-1.32.26-1.96.38Zm3.47,40.46c.45-.04.68-.19.62-.79-.06-.66.15-1.33.14-2-.01-1.17-.08-2.33-.19-3.49-.01-.15-.47-.43-.61-.37-.23.1-.53.43-.52.64.15,2,.36,4,.55,6.02Zm-60.88-22.32v7.78c.45-2.12.88-4.06,1.26-6.01.31-1.55.59-1.34-1.19-1.79-.02,0-.05.01-.07.02ZM42.81,12.36c.46-1.51.5-2.93.03-4.34-.17-.51-1.22-.68-1.54-.3-.43.51-.39,2.18.07,2.79.09-.5.17-.98.25-1.47-.16,1.28.36,2.3,1.2,3.32Zm7.09,31.5s.1-.02.15-.02c0-.19.03-.37.02-.56-.06-3.01-.12-6.02-.17-9.03-.02-1.01-.07-1.06-1.38-.79.2.98.38,1.96.6,2.94.16.7.46,1.39.52,2.1.14,1.79.18,3.58.26,5.37ZM7.32,91.7c.09-.14.12-.16.12-.18-.15-2.39-.29-4.78-.47-7.16-.01-.19-.31-.36-.58-.65-.11.39-.19.56-.21.74-.26,2.28.21,4.5.69,6.71.04.2.29.35.47.55Zm61.26-63.53v-10.68c-.45-.02-.79-.04-1.17-.05.39,3.57.77,7.04,1.17,10.74Zm-5.69-19.2c.28,1.49.52,2.86.83,4.21.04.19.43.29.85.56v-4.78h-1.68Zm-10.55,3.92c.22-.75.51-1.35.53-1.96.03-.89-.09-1.8-.26-2.68-.04-.19-.53-.34-.84-.41-.15-.04-.5.13-.5.22-.09,1.01-.14,2.03-.2,3.05.08,0,.16,0,.24,0,.06-.25.12-.5.18-.75.14.88-.03,1.83.84,2.52Zm7.34.2c.5-1.09.18-3.66-.59-4.42-.16-.16-.49-.18-.74-.17-.11,0-.3.26-.29.39.08,1.36.18,2.72.3,4.07,0,.1.22.18.34.28.09-.6,0-1.09-.07-1.59-.07-.46-.14-.91-.2-1.37.05,0,.1,0,.15,0,.19.93.37,1.85.56,2.78.05,0,.09,0,.14,0v-2.8c.05,0,.1-.01.16-.02.09.95.18,1.9.26,2.84Zm14.21,5.04c.03.4.04.78.11,1.15.18.95.5,1.89.57,2.85.13,2.01.13,4.03.2,6.05,0,.27.1.54.15.8.07-.01.14-.02.21-.03.03-.12.08-.24.07-.36-.09-3.31-.2-6.62-.28-9.94-.02-.74-.44-.66-1.04-.53Zm-46.01-5.98h1.78c-.15-1.45-.29-2.79-.44-4.14h-1.04c-.1,1.42-.2,2.77-.3,4.14Zm-12.46.61c.58-.17,1.25-.22,1.3-.42.28-1.24.43-2.5.63-3.84-.44,0-.77-.04-1.07.01-.19.04-.5.2-.51.34-.14,1.22-.22,2.44-.34,3.9Zm16.87-4.77c-1.18-.15-1.37-.11-1.38.38-.03,1.25,0,2.5,0,3.83.58-.03.96-.05,1.39-.08v-4.14Zm-13.11,37.32c.21-1.75.46-3.49.62-5.25.19-2.08.13-4.15-.63-6.14-.13-.35-.23-.75-.74-.47,1.45,3.9.72,7.89.75,11.85Zm49.96-27.76v7.48c.07,0,.15.01.22.02.06-.2.13-.39.17-.59.38-2.04.53-4.08.42-6.16-.04-.66-.25-.88-.81-.74Zm6.44.61c-.07.05-.14.09-.21.14.08,2.28.17,4.55.25,6.83.04,1.1.04,2.2.11,3.3.01.18.29.34.45.51.11-.19.34-.4.33-.58-.27-3.18-.9-6.34-.52-9.55.02-.19-.27-.43-.41-.64Zm-24.83,11.45c0-1.51.01-2.95,0-4.39-.02-2.69-.06-5.37-.1-8.06,0-.14-.16-.28-.25-.42-.07.14-.21.28-.21.42.04,1.58.13,3.17.14,4.75.01,2.37-.04,4.73-.06,7.1,0,.41-.01.81.48.59Zm4.49-21.59c-.23,1.31-.46,2.51-.64,3.71-.17,1.19.06,1.38,1.33,1.11,0-1.37-.02-2.76,0-4.15.01-.6-.24-.76-.7-.67Zm-24.53,43.89c-.35,2.07,0,6.55.48,7.4.16-2.34.32-4.85.49-7.37-.26-.03-.47-.07-.68-.08-.1,0-.2.04-.3.05Zm39.83,16.83c-1.12.15-1.14.17-1.12,1.16,0,.3-.03.6.02.89.26,1.51.55,3.02.82,4.53.09-.01.19-.03.28-.04v-6.55ZM43.21,7.53c.08,1.65.16,3.19.25,4.84.18.02.51.05,1.05.1,0-1.4-.07-2.72.03-4.01.06-.79-.19-1.03-.91-.95-.18.02-.37.03-.41.03Zm5.21,5.16c0-1.57.01-3.07-.02-4.56,0-.16-.26-.42-.41-.43-.15-.01-.43.22-.45.37-.18,1.35-.46,2.69.05,4.05.19.51.37.72.84.57Zm22.66,20.55c.7,2.55,2.17,4.83,1.83,6.46v-6.46h-1.83Zm.59-18.88c-.21-.56-.37-1.06-.57-1.54-.41-.96-.82-1.92-1.28-2.86-.1-.2-.4-.31-.6-.46.03,1.18.12,2.21.39,3.19.33,1.19.8,1.86,2.07,1.66Zm-11.32,74.38c-.76-.12-.89.16-.85.79.08,1.22.04,2.45.05,3.68,0,.82,0,1.64,0,2.48.89-.07.84-.07.81-.71-.05-1.01-.23-2.06,0-3.01.28-1.13.03-2.15-.02-3.22Zm1.15-11.23c.07,0,.14-.01.21-.02v-6.75c-.82-.18-1.15.15-1.05.88.27,1.96.55,3.93.83,5.89Zm13.51,11.88s.09-.01.14-.02v-6.18c-1.22.3-1.47.5-1.27,1.55.29,1.57.74,3.1,1.13,4.65Zm-68.71,3.26c-.05.09-.1.18-.14.28,1.14.12,1.22,1.28,1.99,1.8.29-.2.53-.38.78-.55.03.03.05.06.08.09-.21.25-.43.5-.67.78.2.23.38.42.58.65.6-.56,1.15-1.08,1.73-1.63-1.22-.5-2.42-1.01-3.64-1.48-.19-.07-.46.04-.69.07ZM65.3,9.06c0,1.29,0,2.52,0,3.74,0,.94.15,1.04,1.09.79v-4.4c-.36-.04-.75-.09-1.09-.13Zm-9.88,87.55c.55-.35.65-6.41.24-7.55-.23.38-.51.64-.51.88.06,2.22.17,4.44.26,6.66ZM27.63,16.41v12.71s.03,0,.05,0c.2-4.23.4-8.46.6-12.75.04.01-.06-.03-.16-.03-.13,0-.26.03-.5.07Zm-12.34,71.04c0,2.14.03,4.2-.01,6.26-.02.73.23,1.08.94,1.11-.13-.56-.38-1.1-.35-1.63.08-1.47.22-2.93.46-4.38.18-1.11.25-1.12-1.04-1.36Zm62.57-34.47s-.09.04-.14.05v8.77c.6-.35.74-.74.69-1.33-.12-1.52-.11-3.06-.2-4.59-.06-.97-.23-1.94-.35-2.91Zm-67.59,11.68c.09-.04.19-.08.28-.12.02-.08.05-.15.05-.23.08-4.54.15-9.09.25-13.63.01-.68-.32-.75-.76-.69.14,1.45.35,2.86.41,4.27.14,3.23.06,6.45-.48,9.66-.04.23.16.5.25.75ZM30.61,8.01c-1.24-.13-1.34-.03-1.17,1.12.13.89.25,1.79.44,2.68.04.19.35.32.53.47.07-.05.13-.11.19-.16v-4.11Zm-6.65.28c-1.23-.31-1.28-.27-1.36.78-.04.51-.17,1.01-.22,1.51-.06.57-.09,1.14-.13,1.69h1.59c-.84-1.41-.8-2.73.12-3.98Zm-18.92,2.77c-1.7.47-1.77.83-1.76,3.53,1.6-.28,1.59-.28,1.65-1.86.02-.53.07-1.07.11-1.68Zm3.43,2.15c.11.08.21.17.31.25.36-.2,1-.36,1.04-.62.17-1.14.18-2.31.25-3.46-.12-.04-.24-.09-.35-.13-.15.22-.35.42-.43.66-.17.52-.28,1.06-.41,1.59-.14.57-.28,1.13-.41,1.7Zm36.29,39.23c-.1,1.75-.19,3.38-.28,5.01.05,0,.11,0,.16.01.51-1.66,1.03-3.31,1.57-5.09-.59.03-.98.04-1.45.06Zm3.95-44.74c.09,1.6.17,3.1.27,4.6.01.15.16.29.24.44.11-.12.32-.24.32-.36.02-1.55.01-3.09.01-4.67h-.84Zm12.58,14.14c.55-1.49,1.35-2.9,1.3-4.52-1.24-.21-1.29-.17-1.3.97,0,1.18,0,2.37,0,3.55Zm-10-9.11c-.04-.24-.03-.44-.11-.6-.47-1.05-.45-2.14-.29-3.24.03-.24.09-.49.05-.72-.03-.16-.2-.32-.36-.39-.06-.03-.34.19-.34.29-.02,1.54-.02,3.09-.02,4.66h1.06ZM14.41,8.66c-.08,1.08-.16,2.06-.21,3.04-.01.24,0,.5.1.71.07.14.32.29.47.28.15,0,.39-.21.4-.35.1-1.21.16-2.43.23-3.67h-.99Zm35.87,92.01c1.45,1,2.49.93,3.09-.16-1.59-1.29-2.08-1.27-3.09.16Zm22.27-50.44c.43,2.53.85,4.99,1.27,7.44.03,0,.06,0,.09,0-.17-2.53-.35-5.05-.52-7.63-.3.07-.53.12-.84.2ZM20.57,12.29c.09-1.39.18-2.7.27-4.09-.38.02-.73.05-1.07.07-.24,1.98.18,3.94.8,4.02Zm1.61-4.3c-.45.21-.94.31-.95.47-.12,1.17-.16,2.34-.19,3.52,0,.12.22.24.34.36.1-.12.28-.24.3-.37.17-1.22.31-2.45.5-3.98Zm51.45,6.68c.08,0,.16,0,.23,0,.16-1.24.33-2.49.45-3.73.02-.17-.24-.43-.43-.51-.1-.04-.45.18-.47.32-.22,1.33-.31,2.66.22,3.93Zm-67.13-.77c.26-.2.64-.34.67-.53.13-1.07.18-2.15.26-3.27-1.07.22-1.48,2.01-.92,3.8Zm56.23,15.44c-.43-1.54-.84-2.96-1.24-4.38-.03.02-.06.03-.09.05v4.4c.43-.02.77-.04,1.32-.07Zm-10.58,69.04c-1.52-.16-2.64.23-3.35,1.5,1.04.75,1.05.75,1.85-.08.36-.38.56-.92,1.16-1.05.1-.02.17-.18.34-.37ZM73.05,14.73c.06-1.35.07-2.6.2-3.84.08-.78-.31-.76-.85-.72,0,1.29.03,2.55-.01,3.8-.02.62.22.82.66.76Zm-35.56-2.45c.07-.07.14-.13.21-.2.08-1.26.17-2.52.23-3.78,0-.18-.13-.37-.19-.56-.15.15-.41.3-.43.47-.12,1.19-.21,2.39-.26,3.59,0,.15.29.32.44.48Zm24.32,44.74c.11,0,.22.01.33.02.19-1.74.38-3.48.58-5.33-.45.06-.73.09-.91.11v5.2Zm-7.59,14.88c.52,1.08,1.01,2.09,1.5,3.11.19-.81.19-1.56.19-2.31,0-1.03-.03-1.06-1.04-.95-.18.02-.35.08-.65.15Zm17.39-58.68c.08-.02.16-.03.24-.05-.09-.79-.13-1.59-.27-2.37-.18-.98-.45-1.13-1.72-.92.6,1.15,1.18,2.25,1.75,3.34Zm-8.92,77.99c-.11.03-.23.06-.34.09.15,1.2.3,2.4.47,3.7.48-.17.82-.29,1.33-.47-.51-1.16-.99-2.24-1.47-3.32ZM11.2,9.11c-.35.06-.57.1-.69.12v3.81c.82-.02.85-.02.84-.61-.03-1.07-.09-2.13-.15-3.32Zm-7.06.41c.28-.16.58-.27.79-.47.13-.13.11-.41.12-.47.33-.26.62-.49.92-.73-2.06.16-2.98,1.22-2.66,2.87.36-.43,1.08-.55.83-1.2Zm9.81,3.21v-4.18c-.31.27-.6.4-.62.55-.09,1.22-.13,2.44-.19,3.72.28-.03.54-.06.8-.09ZM1.89,46.3q.37.04,1.15-.96c-.63-.21-1.25-.42-2.01-.67-.07.65-.19,1.17-.16,1.68.01.18.38.34.58.51.11-.14.22-.28.44-.56Zm41.67,55.46c-1.68-1.7-2.43-1.67-3.04,0h3.04ZM9.1,9.7c-.12-.08-.23-.15-.35-.23-.26.21-.72.38-.76.62-.16,1.1-.2,2.22-.28,3.33.08.04.17.08.25.12.12-.21.28-.4.33-.63.13-.5.18-1.02.31-1.53.14-.57.33-1.13.49-1.69Zm4.24,85.22c-.99-.03-1.8-1.11-2.92-.16.48.54.91,1.02,1.36,1.53.28-.22.46-.37.68-.54-.16-.24-.3-.45-.56-.85.56.32.95.97,1.44.02Zm-3.24-.12c-.35.48-.62.86-.9,1.24.34.21.68.42,1.03.61.09.05.2.11.3.1.31-.03.61-.08,1.11-.15-.6-.7-1.01-1.17-1.55-1.81Zm14.95,5.33c-1.18-1.17-1.05-1.34-2.37-.01.95.88,1.76.89,2.37.01Zm24.54.73c-1.18-.89-1.47-.81-2.34.65,1.13.47,2.03.22,2.34-.65Zm-18.53-.21c-.98-1.09-1.39-1.07-2.14.12,1.01,1.13,1.25,1.12,2.14-.12Zm-5.27-.62c1.12,1.12,2.07,1.39,2.46.71-1.4-1.44-1.61-1.51-2.46-.71Zm-6.31-.75c-.47-.44-.87-.76-1.2-1.14-.54-.6-.98-.5-1.42.08.56.85,1.53,1.28,2.63,1.06Zm-9.62-32.56c.54.68,1.04,1.32,1.55,1.97.66-.71.5-1.13-.6-2.19-.41-.39-.63-.18-.95.22ZM76.85,11.29c.18,1.59.33,2.93.48,4.27.09-.01.18-.02.27-.03,0-1.19.03-2.38-.03-3.57,0-.18-.37-.35-.73-.67Zm-65.31,1.65c.72-.08.75-.12.7-.66-.07-.8-.12-1.61-.18-2.41-.02-.28-.06-.55-.1-.83-.1,0-.2,0-.31,0-.45,1.27.14,2.59-.12,3.89ZM1.1,64.45c-.06.02-.12.03-.19.05v6.28c.18-1.85.27-3.7.34-5.55,0-.26-.1-.52-.15-.78Zm60.38,34.59c-1.54-1.13-2.14-.9-2.4.76.84-.27,1.62-.52,2.4-.76Zm-55.64-4.22c-.01.1-.03.2-.04.3.45.17.88.42,1.34.48.18.02.62-.43.59-.55-.13-.39-.42-.73-.68-1.14-.49.37-.85.64-1.2.91Zm68.74-61.57c.38,1.16.75,2.29,1.12,3.41.08-.95,0-1.86-.04-2.78-.03-.68-.32-.92-1.08-.63Zm-14.87-24.79c-.08.08-.17.16-.25.24.14.37.35.74.41,1.12.15.94.21,1.9.33,2.84.03.21.14.42.22.62.09-.19.26-.39.24-.58-.1-1.23-.21-2.47-.38-3.69-.03-.21-.37-.37-.57-.56Zm9.08,1.1c-.06,0-.11,0-.17.01,0,.2-.01.4,0,.6.07,1.05.15,2.09.2,3.14.04.84.12.91.85.76-.3-1.51-.59-3.01-.89-4.51Zm-34.38,92.14c-.56-.5-1.01-.87-1.41-1.28-.53-.55-.88-.39-1.2.19,1.07,1.02,1.35,1.15,2.62,1.09Zm-23.28-23.06s-.06,0-.09,0c0,.88,0,1.77,0,2.65,0,.56.28.82.93.88-.29-1.21-.57-2.37-.84-3.53Zm-5.11,14.16c-.42.32-.8.61-1.24.95.3.35.52.61.78.9.43-.33.8-.61,1.23-.94-.26-.32-.48-.58-.76-.92Zm-.56-78.59c.3-.28.61-.42.61-.58.04-1.02.02-2.04.02-3.07q-.7.25-.63,3.65Zm72.94,66.96q-.77.32-.64,1.05c.21,1.16.42,2.32.64,3.5v-4.55Zm-69.74-13.93c.28-.24.5-.44.71-.63-.6-1.18-1.12-1.44-1.78-.65.32.38.64.76,1.07,1.28Zm17.33-16.56c.9.47,1.76.42,2.16-.1-1.21-1.02-1.42-1.01-2.16.1Zm-21.02,16.1v3.42s.07,0,.11,0c.22-.99.44-1.97.68-3.03-.24-.11-.49-.24-.79-.38Zm51.3,33.11c.81.58,1.25.55,2.02-.09-1.29-.91-1.4-.91-2.02.09Zm-42.3-2.2c-.07-.23-.07-.32-.11-.38-.21-.28-.43-.55-.66-.81-.52-.6-.59-.59-1.12.1.48.56.94,1.13,1.89,1.09Zm56.35-35.92c-.14,1.11-.27,2.22-.42,3.39.82-.23.94-1.3.42-3.39ZM5.56,79.56c.1-.04.2-.09.3-.13-.22-1.24-.43-2.49-.65-3.73-.07,1.04-.1,2.06-.05,3.08.01.27.26.52.4.79Zm-3.55-17.76c0-.1,0-.19-.01-.29-.07-.08-.13-.17-.21-.23-.37-.3-.74-.6-1.15-.92-.24.65-.28,1.24.36,1.56.26.13.67-.07,1.01-.11Zm28.92-10.94c-.99-1.2-1.56-1.29-2.13-.3.7.16,1.28.84,2.13.3Zm41.28,15.58c1.26.51,1.46.46,1.78-.47-1.22-.53-1.44-.48-1.78.47Zm5.47-44.2c.41-1.68.28-3.19-.31-3.4.11,1.16.21,2.28.31,3.4Zm-13.39,75.95c-1.05-.76-1.64-1.07-2.12.57.72-.19,1.36-.37,2.12-.57Zm-49.77-.64c.75.98,1.11,1.09,1.76.54-.31-.37-.63-.75-.97-1.16-.3.24-.53.41-.79.61Zm-1.99-85.02c.1-1.19.19-2.38.29-3.6-.64.19-.77,1.68-.29,3.6Zm27.3,89.3c.04-.08.08-.16.11-.23-.32-.25-.68-.74-.96-.7-.38.06-.7.52-1.2.93h2.04Zm-19.84-2.59c.39.66,1.02.92,1.91.79-.87-1.27-1.26-1.44-1.91-.79Zm-11.22-31.69c.72.37,1.27.66,1.82.95.05-.07.09-.15.14-.22-.36-.48-.71-.97-1.1-1.5-.28.25-.47.42-.86.77Zm46.88,32.51c-.86-.78-1-.76-1.57.21,1,.73,1.18.7,1.57-.21Zm14.45-67.35c-.28-.25-.45-.47-.67-.56-.37-.15-.77-.23-1.16-.29-.03,0-.19.42-.17.43.35.19.71.39,1.1.49.24.06.52-.03.9-.06ZM13.17,68.93c.8-.61.76-.89-.24-1.49-.68.62-.66.74.24,1.49Zm55.89-18.99c.62.13,1.11.59,1.43-.13.07-.15-.15-.57-.35-.67-.73-.4-.68.35-1.08.8Zm-4.14,48.04c.58-.2,1.16-.4,1.88-.65-1.38-.71-1.52-.67-1.88.65Zm-47.59-28.3c.19-.4.46-.71.39-.91-.08-.26-.39-.54-.66-.62-.17-.05-.44.27-.73.46.33.35.58.62.99,1.07Zm-11.37-7.04c-.11-.9-.2-1.72-.3-2.54-.49,1.58-.42,2.24.3,2.54Zm70.35-20.4v3.5h.42c.08-1.17-.18-2.33-.42-3.5ZM7.02,65.77c-.81-1.22-.88-1.26-1.41-.96.64,1.25.83,1.4,1.41.96Zm39.45,35.89c.03-.07.05-.13.08-.2-.37-.2-.73-.51-1.12-.54-.21-.02-.46.44-.74.74h1.78Zm-29.18-31.79c.72.14,1.22.24,1.72.34.03-.06.06-.11.09-.17-.34-.31-.68-.63-1.05-.98-.23.24-.4.43-.76.81Zm59.59-53.81c.42.67.73,1.17,1.12,1.78.19-1.46.13-1.57-1.12-1.78Zm-44.4,85.66c-1-1.04-1.35-1.02-1.79,0h1.79Zm-5.42-.35c-1.72-1.27-1.86-1.18-2.16-.37.68.12,1.34.23,2.16.37Zm46.25-18.02c-.03-.09-.06-.18-.09-.27-.97-.42-1.1-.35-1.41.87.58-.23,1.04-.42,1.5-.6Zm-65.12-15.75c.05-.07.1-.15.14-.22-.8-1.29-1.02-1.43-1.6-.84.49.36.97.71,1.45,1.06ZM15.3,15.26c.61.7.83.66,1.25-.23-.56-.65-.93-.35-1.25.23Zm59.95.99c-.25.28-.58.56-.54.63.14.25.39.47.64.61.07.04.48-.32.45-.39-.1-.27-.31-.5-.56-.84Zm-55.34,16.58c.62-.05,1.06-.09,1.68-.14-.97-.8-1.13-.79-1.68.14Zm3.34-17.47c.42.16.68.33.96.35.11,0,.38-.35.34-.45-.1-.26-.34-.47-.56-.75-.26.3-.43.49-.75.85ZM5.96,66.56c.1-.09.2-.17.3-.26-.36-.45-.71-.89-1.07-1.34-.11.09-.22.18-.33.27.37.44.73.89,1.1,1.33Zm70.31-1.27c.93.19.87-.43,1-.98-.79-.11-.78.47-1,.98Zm-3.43-22.04s-.02,0-.03,0c-.07,1.1-.14,2.2-.21,3.3.08,0,.16,0,.24.01v-3.3Zm-58.88,25.3c-.18.2-.34.39-.6.68.58.13,1.03.22,1.49.32.03-.05.05-.1.08-.15-.29-.26-.58-.51-.96-.85Zm4.06-53.21c0,.17,0,.34.01.51.35.02.69.04,1.04.07-.1-.21-.15-.53-.31-.61-.19-.1-.49.01-.74.03Zm18.02,85.75c-.2.22-.37.42-.66.74.57.03.95.05,1.33.06.04-.07.08-.14.11-.21-.22-.17-.45-.34-.78-.59ZM3.19,87.8c-.06.01-.13.02-.19.03.07.7.15,1.4.22,2.09.12-.02.24-.04.35-.05-.13-.69-.26-1.38-.39-2.07ZM70.23,31.86c-.04.15-.09.31-.13.46.38.12.76.24,1.14.36.04-.13.08-.25.13-.38-.38-.15-.76-.29-1.14-.44Zm6.96,49.15c-.73-.35-.98-.18-1.17.84.35-.22.66-.4.97-.61.08-.05.13-.15.2-.23ZM5.59,16.82c-.8-.69-1.03-.62-1.32.29.43-.09.79-.18,1.32-.29Zm-3.05,76.41c-.28.25-.46.41-.77.68.63.17.99.28,1.59.44-.34-.46-.52-.71-.83-1.13ZM20.77,16.08c-.51-.98-.58-1-1.12-.28.41.1.77.19,1.12.28Zm-4.58-.33c.05.14.1.28.15.42.35-.11.71-.21,1.06-.32-.08-.15-.2-.44-.24-.43-.33.07-.65.21-.97.32Z"/>
      <path class="cls-1" d="m5.3,47.4c.14-.25.27-.49.41-.74.06.02.13.05.19.07,0,.15.01.3.03.6.35-.21.62-.37.77-.45-.09.33-.2.71-.3,1.09-.37-.19-.73-.38-1.1-.56Z"/>
      <path class="cls-1" d="m23.61,6.04c-.54-.2-.94-.2-.91.55,0,.09-.25.18-.38.27-.02,0-.05.02-.08.03-.07-.08-.19-.14-.21-.23-.05-.18-.04-.38-.06-.57.26-.09.53-.16.77-.29.18-.1.31-.27.49-.43.16.28.27.47.38.67Z"/>
      <path class="cls-1" d="m23.97,49.37c-.28.26-.56.51-.85.77-.21.12-.42.24-.64.36-.01-.3-.02-.61-.03-.91.38.3.62.09.86-.22.17-.22.37-.42.66-.74v.74Z"/>
      <path class="cls-1" d="m48.3,72.53c.21,1.12.57,2.23.58,3.35.03,1.92-.2,3.85-.23,5.78-.02,1.25.13,2.51.09,3.78-.11-1.26-.42-2.54-.29-3.77.32-3.02.33-6-.38-8.96-.01-.04.02-.1.04-.14.06-.01.12-.03.18-.04Z"/>
      <path class="cls-1" d="m40.08,86.68c-1.15-2.98-1.37-7.01-.55-8.82-.05,1.32-.22,2.87-.12,4.39.1,1.54.46,3.06.68,4.43Z"/>
      <path class="cls-1" d="m53.71,37.37c.13.53.35,1.05.37,1.58.04,1.1.03,2.21-.07,3.3-.16,1.68-.41,3.35-.62,5.04-.03-.05-.11-.14-.1-.22.12-1.39.22-2.78.38-4.17.22-1.84.37-3.67.04-5.54Z"/>
      <path class="cls-1" d="m53.04,42.91v-3.31c-.05,0-.11,0-.16,0v4.41c-.4-1.98-.19-3.96.08-5.93.48,1.59.51,3.21.36,4.84-.09,0-.19,0-.28,0Z"/>
      <path class="cls-1" d="m63.84,65.77c.72-3.08.41-6.14-.12-9.28,1.04,1.6,1.14,7.89.12,9.28Z"/>
      <path class="cls-1" d="m62.91,56.88c-.34,1.97-.36,3.9.64,5.87-1.24-.79-1.5-3.69-.64-5.87Z"/>
      <path class="cls-1" d="m47.07,65.64c.46-3.34.49-6.68.21-10.04.62,3.36.6,6.71-.21,10.04Z"/>
      <path class="cls-1" d="m46.41,55.54c-.16,1.32-.48,2.8-.47,4.28.01,1.48.36,2.95.57,4.42-.98-1.3-1.31-6.74-.1-8.7Z"/>
      <path class="cls-1" d="m72.89,79.53v-7.77c.42,1.05.59,6.74,0,7.77Z"/>
      <path class="cls-1" d="m72.32,72.96c.07,1.77.16,3.78.24,5.7-.54-.64-.68-3.96-.24-5.7Z"/>
      <path class="cls-1" d="m33.91,43.77c-.05.14-.1.27-.16.41-.09,0-.19,0-.28,0-.06-.83-.17-1.66-.15-2.49.02-.66.14-1.35.34-1.98.53-1.68.93-3.37.87-5.14,0-.15.04-.31.06-.46.1.01.19.03.29.04-.17,1.41-.31,2.83-.53,4.24-.21,1.4-.53,2.79-.72,4.2-.05.39.18.82.28,1.23v-.03Z"/>
      <path class="cls-1" d="m34.72,43.22c.33-1.21.78-2.4.94-3.63.16-1.23.04-2.49.1-3.79.1.32.25.64.28.97.2,2.27-.3,4.42-1.32,6.45Z"/>
      <path class="cls-1" d="m33.92,43.8c.13-1.22.27-2.45.4-3.67.03,0,.07.02.11.03v4.63s-.07.03-.11.05c-.13-.35-.27-.7-.41-1.06v.02Z"/>
      <path class="cls-1" d="m9.02,62.81c-1.08-2.96-1.03-6-.62-9.05,0,1.52-.08,3.04.02,4.55.1,1.51.39,3,.6,4.5Z"/>
      <path class="cls-1" d="m9.24,61.75v-9.02c.3,3.01.7,6.01,0,9.02Z"/>
      <path class="cls-1" d="m12.83,81.58v-7.2c.63,1.44.61,6.04,0,7.2Z"/>
      <path class="cls-1" d="m12.32,74.7v5.97c-.4-1.96-.73-3.93,0-5.97Z"/>
      <path class="cls-1" d="m39.34,23.82c-.55-2.31.19-4.34.57-6.39-.18,2.06-.37,4.12-.57,6.39Z"/>
      <path class="cls-1" d="m40.27,20.73c.07-1.27.14-2.54.21-3.82.04,0,.07,0,.11-.01,0,.41,0,.82,0,1.23-.01.43-.03.85-.07,1.28-.04.45-.1.9-.15,1.34-.03,0-.06-.01-.1-.02Z"/>
      <path class="cls-1" d="m62.82,21.37c-.14,1.52-.28,2.96-.41,4.33-.39-.49-.24-2.56.41-4.33Z"/>
      <path class="cls-1" d="m39.99,11.97c-.22-1.4-.31-2.79.39-4.12-.12.66-.28,1.31-.34,1.97-.07.71-.04,1.43-.05,2.16,0,0,0,0,0,0Z"/>
      <path class="cls-1" d="m1.47,88.72v-5.17h-.13c.11,1.72.21,3.44.32,5.16h-.19Z"/>
      <path class="cls-1" d="m42.73,8.35v2.76s-.05,0-.08,0c-.05-.92-.1-1.85-.14-2.78.07,0,.15,0,.22,0Z"/>
      <path class="cls-1" d="m52.06,11.83v-2.57c.64.51.71,1.47,0,2.57Z"/>
      <path class="cls-1" d="m4.08,12.04c.03.66.06,1.31.1,1.97-.07,0-.14,0-.21.01-.04-.66-.09-1.31-.13-1.97.08,0,.16-.01.24-.02Z"/>
    </g>
  </g>
</svg>